G75*
%MOIN*%
%OFA0B0*%
%FSLAX25Y25*%
%IPPOS*%
%LPD*%
%AMOC8*
5,1,8,0,0,1.08239X$1,22.5*
%
%ADD10C,0.00600*%
%ADD11C,0.00800*%
%ADD12C,0.01200*%
%ADD13C,0.00500*%
%ADD14R,0.04000X0.40000*%
%ADD15C,0.00400*%
D10*
X0500741Y0188400D02*
X0500741Y0191000D01*
X0500741Y0189844D02*
X0502186Y0189844D01*
X0502186Y0191000D02*
X0502186Y0188400D01*
X0504440Y0188400D02*
X0505306Y0191000D01*
X0506597Y0190422D02*
X0507320Y0191000D01*
X0507320Y0188400D01*
X0508042Y0188400D02*
X0506597Y0188400D01*
X0504440Y0188400D02*
X0503573Y0191000D01*
X0504440Y0198400D02*
X0505306Y0201000D01*
X0503573Y0201000D02*
X0504440Y0198400D01*
X0506597Y0198400D02*
X0508042Y0198400D01*
X0506597Y0198400D02*
X0507825Y0199844D01*
X0507392Y0201000D02*
X0507337Y0200998D01*
X0507282Y0200993D01*
X0507227Y0200984D01*
X0507174Y0200971D01*
X0507121Y0200955D01*
X0507069Y0200935D01*
X0507019Y0200912D01*
X0506970Y0200886D01*
X0506923Y0200856D01*
X0506879Y0200824D01*
X0506836Y0200788D01*
X0506796Y0200750D01*
X0506759Y0200709D01*
X0506724Y0200666D01*
X0506693Y0200621D01*
X0506664Y0200574D01*
X0506639Y0200525D01*
X0506616Y0200474D01*
X0506598Y0200422D01*
X0507825Y0199845D02*
X0507861Y0199881D01*
X0507894Y0199921D01*
X0507924Y0199962D01*
X0507951Y0200006D01*
X0507975Y0200052D01*
X0507995Y0200099D01*
X0508012Y0200147D01*
X0508025Y0200197D01*
X0508034Y0200248D01*
X0508040Y0200299D01*
X0508042Y0200350D01*
X0508040Y0200399D01*
X0508035Y0200447D01*
X0508026Y0200495D01*
X0508013Y0200542D01*
X0507997Y0200587D01*
X0507978Y0200632D01*
X0507955Y0200675D01*
X0507929Y0200716D01*
X0507900Y0200755D01*
X0507868Y0200792D01*
X0507834Y0200826D01*
X0507797Y0200858D01*
X0507758Y0200887D01*
X0507717Y0200913D01*
X0507674Y0200936D01*
X0507629Y0200955D01*
X0507584Y0200971D01*
X0507537Y0200984D01*
X0507489Y0200993D01*
X0507441Y0200998D01*
X0507392Y0201000D01*
X0502186Y0201000D02*
X0502186Y0198400D01*
X0502186Y0199844D02*
X0500741Y0199844D01*
X0500741Y0201000D02*
X0500741Y0198400D01*
X0500977Y0208400D02*
X0500977Y0211000D01*
X0500977Y0209844D02*
X0502421Y0209844D01*
X0502421Y0211000D02*
X0502421Y0208400D01*
X0504675Y0208400D02*
X0505542Y0211000D01*
X0503808Y0211000D02*
X0504675Y0208400D01*
X0523827Y0201000D02*
X0523827Y0198400D01*
X0524982Y0198400D01*
X0526940Y0198400D02*
X0527806Y0201000D01*
X0526073Y0201000D02*
X0526940Y0198400D01*
X0529097Y0198400D02*
X0530542Y0198400D01*
X0529097Y0198400D02*
X0530325Y0199844D01*
X0529892Y0201000D02*
X0529837Y0200998D01*
X0529782Y0200993D01*
X0529727Y0200984D01*
X0529674Y0200971D01*
X0529621Y0200955D01*
X0529569Y0200935D01*
X0529519Y0200912D01*
X0529470Y0200886D01*
X0529423Y0200856D01*
X0529379Y0200824D01*
X0529336Y0200788D01*
X0529296Y0200750D01*
X0529259Y0200709D01*
X0529224Y0200666D01*
X0529193Y0200621D01*
X0529164Y0200574D01*
X0529139Y0200525D01*
X0529116Y0200474D01*
X0529098Y0200422D01*
X0530325Y0199845D02*
X0530361Y0199881D01*
X0530394Y0199921D01*
X0530424Y0199962D01*
X0530451Y0200006D01*
X0530475Y0200052D01*
X0530495Y0200099D01*
X0530512Y0200147D01*
X0530525Y0200197D01*
X0530534Y0200248D01*
X0530540Y0200299D01*
X0530542Y0200350D01*
X0530540Y0200399D01*
X0530535Y0200447D01*
X0530526Y0200495D01*
X0530513Y0200542D01*
X0530497Y0200587D01*
X0530478Y0200632D01*
X0530455Y0200675D01*
X0530429Y0200716D01*
X0530400Y0200755D01*
X0530368Y0200792D01*
X0530334Y0200826D01*
X0530297Y0200858D01*
X0530258Y0200887D01*
X0530217Y0200913D01*
X0530174Y0200936D01*
X0530129Y0200955D01*
X0530084Y0200971D01*
X0530037Y0200984D01*
X0529989Y0200993D01*
X0529941Y0200998D01*
X0529892Y0201000D01*
X0529675Y0208400D02*
X0530542Y0211000D01*
X0528808Y0211000D02*
X0529675Y0208400D01*
X0527718Y0208400D02*
X0526562Y0208400D01*
X0526562Y0211000D01*
X0526025Y0218400D02*
X0526025Y0221000D01*
X0527470Y0218400D01*
X0527470Y0221000D01*
X0529097Y0221000D02*
X0529820Y0221000D01*
X0529872Y0220998D01*
X0529923Y0220993D01*
X0529973Y0220984D01*
X0530023Y0220971D01*
X0530072Y0220954D01*
X0530120Y0220935D01*
X0530166Y0220912D01*
X0530210Y0220885D01*
X0530253Y0220856D01*
X0530293Y0220824D01*
X0530331Y0220789D01*
X0530366Y0220751D01*
X0530398Y0220711D01*
X0530427Y0220668D01*
X0530454Y0220624D01*
X0530477Y0220578D01*
X0530496Y0220530D01*
X0530513Y0220481D01*
X0530526Y0220431D01*
X0530535Y0220381D01*
X0530540Y0220330D01*
X0530542Y0220278D01*
X0530542Y0219122D01*
X0530540Y0219070D01*
X0530535Y0219019D01*
X0530526Y0218969D01*
X0530513Y0218919D01*
X0530496Y0218870D01*
X0530477Y0218822D01*
X0530454Y0218776D01*
X0530427Y0218732D01*
X0530398Y0218689D01*
X0530366Y0218649D01*
X0530331Y0218611D01*
X0530293Y0218576D01*
X0530253Y0218544D01*
X0530210Y0218515D01*
X0530166Y0218488D01*
X0530120Y0218465D01*
X0530072Y0218446D01*
X0530023Y0218429D01*
X0529973Y0218416D01*
X0529923Y0218407D01*
X0529872Y0218402D01*
X0529820Y0218400D01*
X0529097Y0218400D01*
X0529097Y0221000D01*
X0524398Y0221000D02*
X0523531Y0221000D01*
X0523483Y0220998D01*
X0523436Y0220992D01*
X0523389Y0220982D01*
X0523343Y0220969D01*
X0523299Y0220951D01*
X0523256Y0220930D01*
X0523215Y0220906D01*
X0523176Y0220878D01*
X0523140Y0220847D01*
X0523106Y0220813D01*
X0523075Y0220777D01*
X0523047Y0220738D01*
X0523023Y0220697D01*
X0523002Y0220654D01*
X0522984Y0220610D01*
X0522971Y0220564D01*
X0522961Y0220517D01*
X0522955Y0220470D01*
X0522953Y0220422D01*
X0522953Y0218978D01*
X0522955Y0218933D01*
X0522960Y0218888D01*
X0522969Y0218843D01*
X0522981Y0218799D01*
X0522997Y0218757D01*
X0523016Y0218716D01*
X0523038Y0218676D01*
X0523063Y0218638D01*
X0523091Y0218603D01*
X0523122Y0218569D01*
X0523156Y0218538D01*
X0523191Y0218510D01*
X0523229Y0218485D01*
X0523269Y0218463D01*
X0523310Y0218444D01*
X0523352Y0218428D01*
X0523396Y0218416D01*
X0523441Y0218407D01*
X0523486Y0218402D01*
X0523531Y0218400D01*
X0524398Y0218400D01*
X0524398Y0219844D01*
X0523964Y0219844D01*
X0523827Y0228400D02*
X0524982Y0228400D01*
X0523827Y0228400D02*
X0523827Y0231000D01*
X0526073Y0231000D02*
X0526940Y0228400D01*
X0527806Y0231000D01*
X0529097Y0231000D02*
X0529964Y0231000D01*
X0530011Y0230998D01*
X0530057Y0230993D01*
X0530102Y0230983D01*
X0530147Y0230970D01*
X0530191Y0230954D01*
X0530233Y0230934D01*
X0530273Y0230911D01*
X0530311Y0230884D01*
X0530347Y0230855D01*
X0530381Y0230822D01*
X0530412Y0230788D01*
X0530440Y0230750D01*
X0530465Y0230711D01*
X0530486Y0230670D01*
X0530504Y0230627D01*
X0530519Y0230583D01*
X0530530Y0230538D01*
X0530538Y0230492D01*
X0530542Y0230445D01*
X0530542Y0230399D01*
X0530538Y0230352D01*
X0530530Y0230306D01*
X0530519Y0230261D01*
X0530504Y0230217D01*
X0530486Y0230174D01*
X0530465Y0230133D01*
X0530440Y0230094D01*
X0530412Y0230056D01*
X0530381Y0230022D01*
X0530347Y0229989D01*
X0530311Y0229960D01*
X0530273Y0229933D01*
X0530233Y0229910D01*
X0530191Y0229890D01*
X0530147Y0229874D01*
X0530102Y0229861D01*
X0530057Y0229851D01*
X0530011Y0229846D01*
X0529964Y0229844D01*
X0529386Y0229844D01*
X0529820Y0229844D02*
X0529873Y0229842D01*
X0529925Y0229836D01*
X0529977Y0229827D01*
X0530028Y0229813D01*
X0530078Y0229796D01*
X0530126Y0229776D01*
X0530173Y0229752D01*
X0530218Y0229724D01*
X0530261Y0229693D01*
X0530302Y0229660D01*
X0530340Y0229623D01*
X0530375Y0229584D01*
X0530407Y0229542D01*
X0530436Y0229498D01*
X0530462Y0229452D01*
X0530484Y0229404D01*
X0530503Y0229355D01*
X0530519Y0229305D01*
X0530530Y0229253D01*
X0530538Y0229201D01*
X0530542Y0229148D01*
X0530542Y0229096D01*
X0530538Y0229043D01*
X0530530Y0228991D01*
X0530519Y0228939D01*
X0530503Y0228889D01*
X0530484Y0228840D01*
X0530462Y0228792D01*
X0530436Y0228746D01*
X0530407Y0228702D01*
X0530375Y0228660D01*
X0530340Y0228621D01*
X0530302Y0228584D01*
X0530261Y0228551D01*
X0530218Y0228520D01*
X0530173Y0228492D01*
X0530126Y0228468D01*
X0530078Y0228448D01*
X0530028Y0228431D01*
X0529977Y0228417D01*
X0529925Y0228408D01*
X0529873Y0228402D01*
X0529820Y0228400D01*
X0529097Y0228400D01*
X0530108Y0238400D02*
X0530108Y0239556D01*
X0530542Y0238978D02*
X0529097Y0238978D01*
X0529675Y0241000D01*
X0527806Y0241000D02*
X0526940Y0238400D01*
X0526073Y0241000D01*
X0523827Y0241000D02*
X0523827Y0238400D01*
X0524982Y0238400D01*
X0508042Y0238978D02*
X0506597Y0238978D01*
X0507175Y0241000D01*
X0507608Y0239556D02*
X0507608Y0238400D01*
X0504440Y0238400D02*
X0505306Y0241000D01*
X0503573Y0241000D02*
X0504440Y0238400D01*
X0502186Y0238400D02*
X0502186Y0241000D01*
X0502186Y0239844D02*
X0500741Y0239844D01*
X0500741Y0241000D02*
X0500741Y0238400D01*
X0500741Y0231000D02*
X0500741Y0228400D01*
X0500741Y0229844D02*
X0502186Y0229844D01*
X0502186Y0231000D02*
X0502186Y0228400D01*
X0504440Y0228400D02*
X0505306Y0231000D01*
X0506597Y0231000D02*
X0507464Y0231000D01*
X0507511Y0230998D01*
X0507557Y0230993D01*
X0507602Y0230983D01*
X0507647Y0230970D01*
X0507691Y0230954D01*
X0507733Y0230934D01*
X0507773Y0230911D01*
X0507811Y0230884D01*
X0507847Y0230855D01*
X0507881Y0230822D01*
X0507912Y0230788D01*
X0507940Y0230750D01*
X0507965Y0230711D01*
X0507986Y0230670D01*
X0508004Y0230627D01*
X0508019Y0230583D01*
X0508030Y0230538D01*
X0508038Y0230492D01*
X0508042Y0230445D01*
X0508042Y0230399D01*
X0508038Y0230352D01*
X0508030Y0230306D01*
X0508019Y0230261D01*
X0508004Y0230217D01*
X0507986Y0230174D01*
X0507965Y0230133D01*
X0507940Y0230094D01*
X0507912Y0230056D01*
X0507881Y0230022D01*
X0507847Y0229989D01*
X0507811Y0229960D01*
X0507773Y0229933D01*
X0507733Y0229910D01*
X0507691Y0229890D01*
X0507647Y0229874D01*
X0507602Y0229861D01*
X0507557Y0229851D01*
X0507511Y0229846D01*
X0507464Y0229844D01*
X0506886Y0229844D01*
X0507320Y0229844D02*
X0507373Y0229842D01*
X0507425Y0229836D01*
X0507477Y0229827D01*
X0507528Y0229813D01*
X0507578Y0229796D01*
X0507626Y0229776D01*
X0507673Y0229752D01*
X0507718Y0229724D01*
X0507761Y0229693D01*
X0507802Y0229660D01*
X0507840Y0229623D01*
X0507875Y0229584D01*
X0507907Y0229542D01*
X0507936Y0229498D01*
X0507962Y0229452D01*
X0507984Y0229404D01*
X0508003Y0229355D01*
X0508019Y0229305D01*
X0508030Y0229253D01*
X0508038Y0229201D01*
X0508042Y0229148D01*
X0508042Y0229096D01*
X0508038Y0229043D01*
X0508030Y0228991D01*
X0508019Y0228939D01*
X0508003Y0228889D01*
X0507984Y0228840D01*
X0507962Y0228792D01*
X0507936Y0228746D01*
X0507907Y0228702D01*
X0507875Y0228660D01*
X0507840Y0228621D01*
X0507802Y0228584D01*
X0507761Y0228551D01*
X0507718Y0228520D01*
X0507673Y0228492D01*
X0507626Y0228468D01*
X0507578Y0228448D01*
X0507528Y0228431D01*
X0507477Y0228417D01*
X0507425Y0228408D01*
X0507373Y0228402D01*
X0507320Y0228400D01*
X0506597Y0228400D01*
X0504440Y0228400D02*
X0503573Y0231000D01*
X0503525Y0221000D02*
X0504970Y0218400D01*
X0504970Y0221000D01*
X0503525Y0221000D02*
X0503525Y0218400D01*
X0501898Y0218400D02*
X0501031Y0218400D01*
X0500986Y0218402D01*
X0500941Y0218407D01*
X0500896Y0218416D01*
X0500852Y0218428D01*
X0500810Y0218444D01*
X0500769Y0218463D01*
X0500729Y0218485D01*
X0500691Y0218510D01*
X0500656Y0218538D01*
X0500622Y0218569D01*
X0500591Y0218603D01*
X0500563Y0218638D01*
X0500538Y0218676D01*
X0500516Y0218716D01*
X0500497Y0218757D01*
X0500481Y0218799D01*
X0500469Y0218843D01*
X0500460Y0218888D01*
X0500455Y0218933D01*
X0500453Y0218978D01*
X0500453Y0220422D01*
X0500455Y0220470D01*
X0500461Y0220517D01*
X0500471Y0220564D01*
X0500484Y0220610D01*
X0500502Y0220654D01*
X0500523Y0220697D01*
X0500547Y0220738D01*
X0500575Y0220777D01*
X0500606Y0220813D01*
X0500640Y0220847D01*
X0500676Y0220878D01*
X0500715Y0220906D01*
X0500756Y0220930D01*
X0500799Y0220951D01*
X0500843Y0220969D01*
X0500889Y0220982D01*
X0500936Y0220992D01*
X0500983Y0220998D01*
X0501031Y0221000D01*
X0501898Y0221000D01*
X0501898Y0219844D02*
X0501898Y0218400D01*
X0501898Y0219844D02*
X0501464Y0219844D01*
X0506597Y0221000D02*
X0507320Y0221000D01*
X0507372Y0220998D01*
X0507423Y0220993D01*
X0507473Y0220984D01*
X0507523Y0220971D01*
X0507572Y0220954D01*
X0507620Y0220935D01*
X0507666Y0220912D01*
X0507710Y0220885D01*
X0507753Y0220856D01*
X0507793Y0220824D01*
X0507831Y0220789D01*
X0507866Y0220751D01*
X0507898Y0220711D01*
X0507927Y0220668D01*
X0507954Y0220624D01*
X0507977Y0220578D01*
X0507996Y0220530D01*
X0508013Y0220481D01*
X0508026Y0220431D01*
X0508035Y0220381D01*
X0508040Y0220330D01*
X0508042Y0220278D01*
X0508042Y0219122D01*
X0508040Y0219070D01*
X0508035Y0219019D01*
X0508026Y0218969D01*
X0508013Y0218919D01*
X0507996Y0218870D01*
X0507977Y0218822D01*
X0507954Y0218776D01*
X0507927Y0218732D01*
X0507898Y0218689D01*
X0507866Y0218649D01*
X0507831Y0218611D01*
X0507793Y0218576D01*
X0507753Y0218544D01*
X0507710Y0218515D01*
X0507666Y0218488D01*
X0507620Y0218465D01*
X0507572Y0218446D01*
X0507523Y0218429D01*
X0507473Y0218416D01*
X0507423Y0218407D01*
X0507372Y0218402D01*
X0507320Y0218400D01*
X0506597Y0218400D01*
X0506597Y0221000D01*
X0523827Y0191000D02*
X0523827Y0188400D01*
X0524982Y0188400D01*
X0526940Y0188400D02*
X0527806Y0191000D01*
X0529097Y0190422D02*
X0529820Y0191000D01*
X0529820Y0188400D01*
X0530542Y0188400D02*
X0529097Y0188400D01*
X0526940Y0188400D02*
X0526073Y0191000D01*
X0689142Y0193977D02*
X0694475Y0193977D01*
X0694539Y0193979D01*
X0694604Y0193985D01*
X0694667Y0193994D01*
X0694730Y0194008D01*
X0694792Y0194025D01*
X0694853Y0194046D01*
X0694913Y0194071D01*
X0694971Y0194099D01*
X0695027Y0194131D01*
X0695081Y0194166D01*
X0695133Y0194204D01*
X0695183Y0194245D01*
X0695229Y0194290D01*
X0695274Y0194336D01*
X0695315Y0194386D01*
X0695353Y0194438D01*
X0695388Y0194492D01*
X0695420Y0194548D01*
X0695448Y0194606D01*
X0695473Y0194666D01*
X0695494Y0194727D01*
X0695511Y0194789D01*
X0695525Y0194852D01*
X0695534Y0194915D01*
X0695540Y0194980D01*
X0695542Y0195044D01*
X0695542Y0195399D01*
X0694475Y0197674D02*
X0692697Y0197674D01*
X0693408Y0197674D02*
X0693408Y0200519D01*
X0692697Y0200519D01*
X0692697Y0200518D02*
X0692623Y0200516D01*
X0692548Y0200510D01*
X0692475Y0200500D01*
X0692401Y0200487D01*
X0692329Y0200470D01*
X0692258Y0200448D01*
X0692187Y0200424D01*
X0692119Y0200395D01*
X0692051Y0200363D01*
X0691986Y0200327D01*
X0691923Y0200289D01*
X0691861Y0200246D01*
X0691802Y0200201D01*
X0691745Y0200153D01*
X0691691Y0200102D01*
X0691640Y0200048D01*
X0691592Y0199991D01*
X0691547Y0199932D01*
X0691504Y0199870D01*
X0691466Y0199807D01*
X0691430Y0199742D01*
X0691398Y0199674D01*
X0691369Y0199606D01*
X0691345Y0199535D01*
X0691323Y0199464D01*
X0691306Y0199392D01*
X0691293Y0199318D01*
X0691283Y0199245D01*
X0691277Y0199170D01*
X0691275Y0199096D01*
X0691277Y0199022D01*
X0691283Y0198947D01*
X0691293Y0198874D01*
X0691306Y0198800D01*
X0691323Y0198728D01*
X0691345Y0198657D01*
X0691369Y0198586D01*
X0691398Y0198518D01*
X0691430Y0198450D01*
X0691466Y0198385D01*
X0691504Y0198322D01*
X0691547Y0198260D01*
X0691592Y0198201D01*
X0691640Y0198144D01*
X0691691Y0198090D01*
X0691745Y0198039D01*
X0691802Y0197991D01*
X0691861Y0197946D01*
X0691923Y0197903D01*
X0691986Y0197865D01*
X0692051Y0197829D01*
X0692119Y0197797D01*
X0692187Y0197768D01*
X0692258Y0197744D01*
X0692329Y0197722D01*
X0692401Y0197705D01*
X0692475Y0197692D01*
X0692548Y0197682D01*
X0692623Y0197676D01*
X0692697Y0197674D01*
X0694475Y0197674D02*
X0694539Y0197676D01*
X0694604Y0197682D01*
X0694667Y0197691D01*
X0694730Y0197705D01*
X0694792Y0197722D01*
X0694853Y0197743D01*
X0694913Y0197768D01*
X0694971Y0197796D01*
X0695027Y0197828D01*
X0695081Y0197863D01*
X0695133Y0197901D01*
X0695183Y0197942D01*
X0695229Y0197987D01*
X0695274Y0198033D01*
X0695315Y0198083D01*
X0695353Y0198135D01*
X0695388Y0198189D01*
X0695420Y0198245D01*
X0695448Y0198303D01*
X0695473Y0198363D01*
X0695494Y0198424D01*
X0695511Y0198486D01*
X0695525Y0198549D01*
X0695534Y0198612D01*
X0695540Y0198677D01*
X0695542Y0198741D01*
X0695542Y0200519D01*
X0695542Y0203246D02*
X0691275Y0203246D01*
X0691275Y0205379D01*
X0691986Y0205379D01*
X0693053Y0207849D02*
X0693764Y0209627D01*
X0693764Y0209626D02*
X0693788Y0209681D01*
X0693815Y0209734D01*
X0693846Y0209785D01*
X0693880Y0209834D01*
X0693917Y0209880D01*
X0693957Y0209924D01*
X0693999Y0209966D01*
X0694045Y0210004D01*
X0694092Y0210040D01*
X0694142Y0210072D01*
X0694194Y0210102D01*
X0694248Y0210127D01*
X0694303Y0210150D01*
X0694359Y0210168D01*
X0694417Y0210183D01*
X0694475Y0210195D01*
X0694534Y0210202D01*
X0694594Y0210206D01*
X0694653Y0210205D01*
X0694713Y0210201D01*
X0694772Y0210193D01*
X0694830Y0210182D01*
X0694887Y0210166D01*
X0694944Y0210147D01*
X0694999Y0210125D01*
X0695052Y0210098D01*
X0695104Y0210069D01*
X0695153Y0210036D01*
X0695201Y0210000D01*
X0695246Y0209961D01*
X0695288Y0209919D01*
X0695328Y0209875D01*
X0695364Y0209828D01*
X0695398Y0209779D01*
X0695428Y0209728D01*
X0695455Y0209675D01*
X0695479Y0209620D01*
X0695498Y0209564D01*
X0695515Y0209507D01*
X0695527Y0209448D01*
X0695536Y0209390D01*
X0695541Y0209330D01*
X0695542Y0209271D01*
X0691630Y0209805D02*
X0691583Y0209697D01*
X0691540Y0209587D01*
X0691499Y0209476D01*
X0691462Y0209364D01*
X0691428Y0209252D01*
X0691397Y0209138D01*
X0691370Y0209023D01*
X0691346Y0208907D01*
X0691326Y0208791D01*
X0691309Y0208675D01*
X0691295Y0208558D01*
X0691285Y0208440D01*
X0691278Y0208323D01*
X0691274Y0208205D01*
X0691275Y0208204D02*
X0691276Y0208145D01*
X0691281Y0208085D01*
X0691290Y0208027D01*
X0691302Y0207968D01*
X0691319Y0207911D01*
X0691338Y0207855D01*
X0691362Y0207800D01*
X0691389Y0207747D01*
X0691419Y0207696D01*
X0691453Y0207647D01*
X0691489Y0207600D01*
X0691529Y0207556D01*
X0691571Y0207514D01*
X0691616Y0207475D01*
X0691664Y0207439D01*
X0691713Y0207406D01*
X0691765Y0207377D01*
X0691818Y0207350D01*
X0691873Y0207328D01*
X0691930Y0207309D01*
X0691987Y0207293D01*
X0692045Y0207282D01*
X0692104Y0207274D01*
X0692164Y0207270D01*
X0692223Y0207269D01*
X0692283Y0207273D01*
X0692342Y0207280D01*
X0692400Y0207292D01*
X0692458Y0207307D01*
X0692514Y0207325D01*
X0692569Y0207348D01*
X0692623Y0207373D01*
X0692675Y0207403D01*
X0692725Y0207435D01*
X0692772Y0207471D01*
X0692818Y0207509D01*
X0692860Y0207551D01*
X0692900Y0207595D01*
X0692937Y0207641D01*
X0692971Y0207690D01*
X0693002Y0207741D01*
X0693029Y0207794D01*
X0693053Y0207849D01*
X0695187Y0207315D02*
X0695237Y0207460D01*
X0695283Y0207607D01*
X0695326Y0207754D01*
X0695365Y0207903D01*
X0695400Y0208053D01*
X0695432Y0208203D01*
X0695459Y0208354D01*
X0695483Y0208506D01*
X0695502Y0208658D01*
X0695518Y0208811D01*
X0695530Y0208964D01*
X0695538Y0209117D01*
X0695542Y0209271D01*
X0695842Y0221300D02*
X0695842Y0161300D01*
X0695844Y0161160D01*
X0695850Y0161020D01*
X0695860Y0160880D01*
X0695873Y0160740D01*
X0695891Y0160601D01*
X0695913Y0160462D01*
X0695938Y0160325D01*
X0695967Y0160187D01*
X0696000Y0160051D01*
X0696037Y0159916D01*
X0696078Y0159782D01*
X0696123Y0159649D01*
X0696171Y0159517D01*
X0696223Y0159387D01*
X0696278Y0159258D01*
X0696337Y0159131D01*
X0696400Y0159005D01*
X0696466Y0158881D01*
X0696535Y0158760D01*
X0696608Y0158640D01*
X0696685Y0158522D01*
X0696764Y0158407D01*
X0696847Y0158293D01*
X0696933Y0158183D01*
X0697022Y0158074D01*
X0697114Y0157968D01*
X0697209Y0157865D01*
X0697306Y0157764D01*
X0697407Y0157667D01*
X0697510Y0157572D01*
X0697616Y0157480D01*
X0697725Y0157391D01*
X0697835Y0157305D01*
X0697949Y0157222D01*
X0698064Y0157143D01*
X0698182Y0157066D01*
X0698302Y0156993D01*
X0698423Y0156924D01*
X0698547Y0156858D01*
X0698673Y0156795D01*
X0698800Y0156736D01*
X0698929Y0156681D01*
X0699059Y0156629D01*
X0699191Y0156581D01*
X0699324Y0156536D01*
X0699458Y0156495D01*
X0699593Y0156458D01*
X0699729Y0156425D01*
X0699867Y0156396D01*
X0700004Y0156371D01*
X0700143Y0156349D01*
X0700282Y0156331D01*
X0700422Y0156318D01*
X0700562Y0156308D01*
X0700702Y0156302D01*
X0700842Y0156300D01*
X0725842Y0156300D01*
X0725842Y0146300D02*
X0700842Y0146300D01*
X0700702Y0146298D01*
X0700562Y0146292D01*
X0700422Y0146282D01*
X0700282Y0146269D01*
X0700143Y0146251D01*
X0700004Y0146229D01*
X0699867Y0146204D01*
X0699729Y0146175D01*
X0699593Y0146142D01*
X0699458Y0146105D01*
X0699324Y0146064D01*
X0699191Y0146019D01*
X0699059Y0145971D01*
X0698929Y0145919D01*
X0698800Y0145864D01*
X0698673Y0145805D01*
X0698547Y0145742D01*
X0698423Y0145676D01*
X0698302Y0145607D01*
X0698182Y0145534D01*
X0698064Y0145457D01*
X0697949Y0145378D01*
X0697835Y0145295D01*
X0697725Y0145209D01*
X0697616Y0145120D01*
X0697510Y0145028D01*
X0697407Y0144933D01*
X0697306Y0144836D01*
X0697209Y0144735D01*
X0697114Y0144632D01*
X0697022Y0144526D01*
X0696933Y0144417D01*
X0696847Y0144307D01*
X0696764Y0144193D01*
X0696685Y0144078D01*
X0696608Y0143960D01*
X0696535Y0143840D01*
X0696466Y0143719D01*
X0696400Y0143595D01*
X0696337Y0143469D01*
X0696278Y0143342D01*
X0696223Y0143213D01*
X0696171Y0143083D01*
X0696123Y0142951D01*
X0696078Y0142818D01*
X0696037Y0142684D01*
X0696000Y0142549D01*
X0695967Y0142413D01*
X0695938Y0142275D01*
X0695913Y0142138D01*
X0695891Y0141999D01*
X0695873Y0141860D01*
X0695860Y0141720D01*
X0695850Y0141580D01*
X0695844Y0141440D01*
X0695842Y0141300D01*
X0695842Y0041300D01*
X0695844Y0041160D01*
X0695850Y0041020D01*
X0695860Y0040880D01*
X0695873Y0040740D01*
X0695891Y0040601D01*
X0695913Y0040462D01*
X0695938Y0040325D01*
X0695967Y0040187D01*
X0696000Y0040051D01*
X0696037Y0039916D01*
X0696078Y0039782D01*
X0696123Y0039649D01*
X0696171Y0039517D01*
X0696223Y0039387D01*
X0696278Y0039258D01*
X0696337Y0039131D01*
X0696400Y0039005D01*
X0696466Y0038881D01*
X0696535Y0038760D01*
X0696608Y0038640D01*
X0696685Y0038522D01*
X0696764Y0038407D01*
X0696847Y0038293D01*
X0696933Y0038183D01*
X0697022Y0038074D01*
X0697114Y0037968D01*
X0697209Y0037865D01*
X0697306Y0037764D01*
X0697407Y0037667D01*
X0697510Y0037572D01*
X0697616Y0037480D01*
X0697725Y0037391D01*
X0697835Y0037305D01*
X0697949Y0037222D01*
X0698064Y0037143D01*
X0698182Y0037066D01*
X0698302Y0036993D01*
X0698423Y0036924D01*
X0698547Y0036858D01*
X0698673Y0036795D01*
X0698800Y0036736D01*
X0698929Y0036681D01*
X0699059Y0036629D01*
X0699191Y0036581D01*
X0699324Y0036536D01*
X0699458Y0036495D01*
X0699593Y0036458D01*
X0699729Y0036425D01*
X0699867Y0036396D01*
X0700004Y0036371D01*
X0700143Y0036349D01*
X0700282Y0036331D01*
X0700422Y0036318D01*
X0700562Y0036308D01*
X0700702Y0036302D01*
X0700842Y0036300D01*
X0725842Y0036300D01*
X0695542Y0066600D02*
X0695542Y0068022D01*
X0695542Y0067311D02*
X0689142Y0067311D01*
X0689142Y0066600D02*
X0689142Y0068022D01*
X0691275Y0070640D02*
X0691275Y0072774D01*
X0691986Y0072774D01*
X0691275Y0074696D02*
X0695542Y0074696D01*
X0694475Y0077142D02*
X0692342Y0077142D01*
X0692278Y0077144D01*
X0692213Y0077150D01*
X0692150Y0077159D01*
X0692087Y0077173D01*
X0692025Y0077190D01*
X0691964Y0077211D01*
X0691904Y0077236D01*
X0691846Y0077264D01*
X0691790Y0077296D01*
X0691736Y0077331D01*
X0691684Y0077369D01*
X0691634Y0077410D01*
X0691588Y0077455D01*
X0691543Y0077501D01*
X0691502Y0077551D01*
X0691464Y0077603D01*
X0691429Y0077657D01*
X0691397Y0077713D01*
X0691369Y0077771D01*
X0691344Y0077831D01*
X0691323Y0077892D01*
X0691306Y0077954D01*
X0691292Y0078017D01*
X0691283Y0078080D01*
X0691277Y0078145D01*
X0691275Y0078209D01*
X0691275Y0079987D01*
X0689142Y0079987D02*
X0695542Y0079987D01*
X0695542Y0078209D01*
X0695540Y0078145D01*
X0695534Y0078080D01*
X0695525Y0078017D01*
X0695511Y0077954D01*
X0695494Y0077892D01*
X0695473Y0077831D01*
X0695448Y0077771D01*
X0695420Y0077713D01*
X0695388Y0077657D01*
X0695353Y0077603D01*
X0695315Y0077551D01*
X0695274Y0077501D01*
X0695229Y0077455D01*
X0695183Y0077410D01*
X0695133Y0077369D01*
X0695081Y0077331D01*
X0695027Y0077296D01*
X0694971Y0077264D01*
X0694913Y0077236D01*
X0694853Y0077211D01*
X0694792Y0077190D01*
X0694730Y0077173D01*
X0694667Y0077159D01*
X0694604Y0077150D01*
X0694539Y0077144D01*
X0694475Y0077142D01*
X0689497Y0074874D02*
X0689497Y0074518D01*
X0689142Y0074518D01*
X0689142Y0074874D01*
X0689497Y0074874D01*
X0691275Y0070640D02*
X0695542Y0070640D01*
X0695542Y0082696D02*
X0691275Y0082696D01*
X0689497Y0082874D02*
X0689497Y0082518D01*
X0689142Y0082518D01*
X0689142Y0082874D01*
X0689497Y0082874D01*
X0691275Y0085377D02*
X0694475Y0085377D01*
X0694475Y0085376D02*
X0694539Y0085378D01*
X0694604Y0085384D01*
X0694667Y0085393D01*
X0694730Y0085407D01*
X0694792Y0085424D01*
X0694853Y0085445D01*
X0694913Y0085470D01*
X0694971Y0085498D01*
X0695027Y0085530D01*
X0695081Y0085565D01*
X0695133Y0085603D01*
X0695183Y0085644D01*
X0695229Y0085689D01*
X0695274Y0085735D01*
X0695315Y0085785D01*
X0695353Y0085837D01*
X0695388Y0085891D01*
X0695420Y0085947D01*
X0695448Y0086005D01*
X0695473Y0086065D01*
X0695494Y0086126D01*
X0695511Y0086188D01*
X0695525Y0086251D01*
X0695534Y0086314D01*
X0695540Y0086379D01*
X0695542Y0086443D01*
X0695542Y0088221D01*
X0691275Y0088221D01*
X0691275Y0091230D02*
X0691275Y0094430D01*
X0691277Y0094494D01*
X0691283Y0094559D01*
X0691292Y0094622D01*
X0691306Y0094685D01*
X0691323Y0094747D01*
X0691344Y0094808D01*
X0691369Y0094868D01*
X0691397Y0094926D01*
X0691429Y0094982D01*
X0691464Y0095036D01*
X0691502Y0095088D01*
X0691543Y0095138D01*
X0691588Y0095184D01*
X0691634Y0095229D01*
X0691684Y0095270D01*
X0691736Y0095308D01*
X0691790Y0095343D01*
X0691846Y0095375D01*
X0691904Y0095403D01*
X0691964Y0095428D01*
X0692025Y0095449D01*
X0692087Y0095466D01*
X0692150Y0095480D01*
X0692213Y0095489D01*
X0692278Y0095495D01*
X0692342Y0095497D01*
X0692342Y0095496D02*
X0695542Y0095496D01*
X0695542Y0093363D02*
X0691275Y0093363D01*
X0691275Y0091230D02*
X0695542Y0091230D01*
X0694120Y0101621D02*
X0690564Y0101621D01*
X0690564Y0101622D02*
X0690490Y0101624D01*
X0690415Y0101630D01*
X0690342Y0101640D01*
X0690268Y0101653D01*
X0690196Y0101670D01*
X0690125Y0101692D01*
X0690054Y0101716D01*
X0689986Y0101745D01*
X0689918Y0101777D01*
X0689853Y0101813D01*
X0689790Y0101851D01*
X0689728Y0101894D01*
X0689669Y0101939D01*
X0689613Y0101987D01*
X0689559Y0102038D01*
X0689507Y0102092D01*
X0689459Y0102149D01*
X0689414Y0102208D01*
X0689371Y0102270D01*
X0689333Y0102333D01*
X0689297Y0102398D01*
X0689265Y0102466D01*
X0689236Y0102534D01*
X0689212Y0102605D01*
X0689190Y0102676D01*
X0689173Y0102748D01*
X0689160Y0102822D01*
X0689150Y0102895D01*
X0689144Y0102970D01*
X0689142Y0103044D01*
X0689142Y0104466D01*
X0691275Y0107037D02*
X0691275Y0108459D01*
X0691277Y0108523D01*
X0691283Y0108588D01*
X0691292Y0108651D01*
X0691306Y0108714D01*
X0691323Y0108776D01*
X0691344Y0108837D01*
X0691369Y0108897D01*
X0691397Y0108955D01*
X0691429Y0109011D01*
X0691464Y0109065D01*
X0691502Y0109117D01*
X0691543Y0109167D01*
X0691588Y0109213D01*
X0691634Y0109258D01*
X0691684Y0109299D01*
X0691736Y0109337D01*
X0691790Y0109372D01*
X0691846Y0109404D01*
X0691904Y0109432D01*
X0691964Y0109457D01*
X0692025Y0109478D01*
X0692087Y0109495D01*
X0692150Y0109509D01*
X0692213Y0109518D01*
X0692278Y0109524D01*
X0692342Y0109526D01*
X0695542Y0109526D01*
X0695542Y0107926D01*
X0695541Y0107926D02*
X0695539Y0107856D01*
X0695533Y0107787D01*
X0695523Y0107718D01*
X0695510Y0107649D01*
X0695492Y0107582D01*
X0695471Y0107515D01*
X0695446Y0107450D01*
X0695418Y0107386D01*
X0695386Y0107324D01*
X0695350Y0107264D01*
X0695312Y0107206D01*
X0695270Y0107150D01*
X0695225Y0107097D01*
X0695177Y0107046D01*
X0695126Y0106998D01*
X0695073Y0106953D01*
X0695017Y0106911D01*
X0694959Y0106873D01*
X0694899Y0106837D01*
X0694837Y0106805D01*
X0694773Y0106777D01*
X0694708Y0106752D01*
X0694641Y0106731D01*
X0694574Y0106713D01*
X0694505Y0106700D01*
X0694436Y0106690D01*
X0694367Y0106684D01*
X0694297Y0106682D01*
X0694227Y0106684D01*
X0694158Y0106690D01*
X0694089Y0106700D01*
X0694020Y0106713D01*
X0693953Y0106731D01*
X0693886Y0106752D01*
X0693821Y0106777D01*
X0693757Y0106805D01*
X0693695Y0106837D01*
X0693635Y0106873D01*
X0693577Y0106911D01*
X0693521Y0106953D01*
X0693468Y0106998D01*
X0693417Y0107046D01*
X0693369Y0107097D01*
X0693324Y0107150D01*
X0693282Y0107206D01*
X0693244Y0107264D01*
X0693208Y0107324D01*
X0693176Y0107386D01*
X0693148Y0107450D01*
X0693123Y0107515D01*
X0693102Y0107582D01*
X0693084Y0107649D01*
X0693071Y0107718D01*
X0693061Y0107787D01*
X0693055Y0107856D01*
X0693053Y0107926D01*
X0693053Y0109526D01*
X0691275Y0112483D02*
X0691275Y0114261D01*
X0691277Y0114325D01*
X0691283Y0114390D01*
X0691292Y0114453D01*
X0691306Y0114516D01*
X0691323Y0114578D01*
X0691344Y0114639D01*
X0691369Y0114699D01*
X0691397Y0114757D01*
X0691429Y0114813D01*
X0691464Y0114867D01*
X0691502Y0114919D01*
X0691543Y0114969D01*
X0691588Y0115015D01*
X0691634Y0115060D01*
X0691684Y0115101D01*
X0691736Y0115139D01*
X0691790Y0115174D01*
X0691846Y0115206D01*
X0691904Y0115234D01*
X0691964Y0115259D01*
X0692025Y0115280D01*
X0692087Y0115297D01*
X0692150Y0115311D01*
X0692213Y0115320D01*
X0692278Y0115326D01*
X0692342Y0115328D01*
X0694475Y0115328D01*
X0694539Y0115326D01*
X0694604Y0115320D01*
X0694667Y0115311D01*
X0694730Y0115297D01*
X0694792Y0115280D01*
X0694853Y0115259D01*
X0694913Y0115234D01*
X0694971Y0115206D01*
X0695027Y0115174D01*
X0695081Y0115139D01*
X0695133Y0115101D01*
X0695183Y0115060D01*
X0695229Y0115015D01*
X0695274Y0114969D01*
X0695315Y0114919D01*
X0695353Y0114867D01*
X0695388Y0114813D01*
X0695420Y0114757D01*
X0695448Y0114699D01*
X0695473Y0114639D01*
X0695494Y0114578D01*
X0695511Y0114516D01*
X0695525Y0114453D01*
X0695534Y0114390D01*
X0695540Y0114325D01*
X0695542Y0114261D01*
X0695542Y0112483D01*
X0689142Y0112483D01*
X0689142Y0117881D02*
X0694475Y0117881D01*
X0694539Y0117883D01*
X0694604Y0117889D01*
X0694667Y0117898D01*
X0694730Y0117912D01*
X0694792Y0117929D01*
X0694853Y0117950D01*
X0694913Y0117975D01*
X0694971Y0118003D01*
X0695027Y0118035D01*
X0695081Y0118070D01*
X0695133Y0118108D01*
X0695183Y0118149D01*
X0695229Y0118194D01*
X0695274Y0118240D01*
X0695315Y0118290D01*
X0695353Y0118342D01*
X0695388Y0118396D01*
X0695420Y0118452D01*
X0695448Y0118510D01*
X0695473Y0118570D01*
X0695494Y0118631D01*
X0695511Y0118693D01*
X0695525Y0118756D01*
X0695534Y0118819D01*
X0695540Y0118884D01*
X0695542Y0118948D01*
X0694475Y0121070D02*
X0692697Y0121070D01*
X0693408Y0121070D02*
X0693408Y0123914D01*
X0692697Y0123914D01*
X0692623Y0123912D01*
X0692548Y0123906D01*
X0692475Y0123896D01*
X0692401Y0123883D01*
X0692329Y0123866D01*
X0692258Y0123844D01*
X0692187Y0123820D01*
X0692119Y0123791D01*
X0692051Y0123759D01*
X0691986Y0123723D01*
X0691923Y0123685D01*
X0691861Y0123642D01*
X0691802Y0123597D01*
X0691745Y0123549D01*
X0691691Y0123498D01*
X0691640Y0123444D01*
X0691592Y0123387D01*
X0691547Y0123328D01*
X0691504Y0123266D01*
X0691466Y0123203D01*
X0691430Y0123138D01*
X0691398Y0123070D01*
X0691369Y0123002D01*
X0691345Y0122931D01*
X0691323Y0122860D01*
X0691306Y0122788D01*
X0691293Y0122714D01*
X0691283Y0122641D01*
X0691277Y0122566D01*
X0691275Y0122492D01*
X0691277Y0122418D01*
X0691283Y0122343D01*
X0691293Y0122270D01*
X0691306Y0122196D01*
X0691323Y0122124D01*
X0691345Y0122053D01*
X0691369Y0121982D01*
X0691398Y0121914D01*
X0691430Y0121846D01*
X0691466Y0121781D01*
X0691504Y0121718D01*
X0691547Y0121656D01*
X0691592Y0121597D01*
X0691640Y0121540D01*
X0691691Y0121486D01*
X0691745Y0121435D01*
X0691802Y0121387D01*
X0691861Y0121342D01*
X0691923Y0121299D01*
X0691986Y0121261D01*
X0692051Y0121225D01*
X0692119Y0121193D01*
X0692187Y0121164D01*
X0692258Y0121140D01*
X0692329Y0121118D01*
X0692401Y0121101D01*
X0692475Y0121088D01*
X0692548Y0121078D01*
X0692623Y0121072D01*
X0692697Y0121070D01*
X0694475Y0121070D02*
X0694539Y0121072D01*
X0694604Y0121078D01*
X0694667Y0121087D01*
X0694730Y0121101D01*
X0694792Y0121118D01*
X0694853Y0121139D01*
X0694913Y0121164D01*
X0694971Y0121192D01*
X0695027Y0121224D01*
X0695081Y0121259D01*
X0695133Y0121297D01*
X0695183Y0121338D01*
X0695229Y0121383D01*
X0695274Y0121429D01*
X0695315Y0121479D01*
X0695353Y0121531D01*
X0695388Y0121585D01*
X0695420Y0121641D01*
X0695448Y0121699D01*
X0695473Y0121759D01*
X0695494Y0121820D01*
X0695511Y0121882D01*
X0695525Y0121945D01*
X0695534Y0122008D01*
X0695540Y0122073D01*
X0695542Y0122137D01*
X0695542Y0123914D01*
X0695542Y0104466D02*
X0695542Y0103044D01*
X0695540Y0102970D01*
X0695534Y0102895D01*
X0695524Y0102822D01*
X0695511Y0102748D01*
X0695494Y0102676D01*
X0695472Y0102605D01*
X0695448Y0102534D01*
X0695419Y0102466D01*
X0695387Y0102398D01*
X0695351Y0102333D01*
X0695313Y0102270D01*
X0695270Y0102208D01*
X0695225Y0102149D01*
X0695177Y0102092D01*
X0695126Y0102038D01*
X0695072Y0101987D01*
X0695015Y0101939D01*
X0694956Y0101894D01*
X0694894Y0101851D01*
X0694831Y0101813D01*
X0694766Y0101777D01*
X0694698Y0101745D01*
X0694630Y0101716D01*
X0694559Y0101692D01*
X0694488Y0101670D01*
X0694416Y0101653D01*
X0694342Y0101640D01*
X0694269Y0101630D01*
X0694194Y0101624D01*
X0694120Y0101622D01*
X0695542Y0176600D02*
X0689142Y0176600D01*
X0691986Y0176600D02*
X0691986Y0180156D01*
X0692697Y0182904D02*
X0694475Y0182904D01*
X0693408Y0182904D02*
X0693408Y0185749D01*
X0692697Y0185749D01*
X0692623Y0185747D01*
X0692548Y0185741D01*
X0692475Y0185731D01*
X0692401Y0185718D01*
X0692329Y0185701D01*
X0692258Y0185679D01*
X0692187Y0185655D01*
X0692119Y0185626D01*
X0692051Y0185594D01*
X0691986Y0185558D01*
X0691923Y0185520D01*
X0691861Y0185477D01*
X0691802Y0185432D01*
X0691745Y0185384D01*
X0691691Y0185333D01*
X0691640Y0185279D01*
X0691592Y0185222D01*
X0691547Y0185163D01*
X0691504Y0185101D01*
X0691466Y0185038D01*
X0691430Y0184973D01*
X0691398Y0184905D01*
X0691369Y0184837D01*
X0691345Y0184766D01*
X0691323Y0184695D01*
X0691306Y0184623D01*
X0691293Y0184549D01*
X0691283Y0184476D01*
X0691277Y0184401D01*
X0691275Y0184327D01*
X0691277Y0184253D01*
X0691283Y0184178D01*
X0691293Y0184105D01*
X0691306Y0184031D01*
X0691323Y0183959D01*
X0691345Y0183888D01*
X0691369Y0183817D01*
X0691398Y0183749D01*
X0691430Y0183681D01*
X0691466Y0183616D01*
X0691504Y0183553D01*
X0691547Y0183491D01*
X0691592Y0183432D01*
X0691640Y0183375D01*
X0691691Y0183321D01*
X0691745Y0183270D01*
X0691802Y0183222D01*
X0691861Y0183177D01*
X0691923Y0183134D01*
X0691986Y0183096D01*
X0692051Y0183060D01*
X0692119Y0183028D01*
X0692187Y0182999D01*
X0692258Y0182975D01*
X0692329Y0182953D01*
X0692401Y0182936D01*
X0692475Y0182923D01*
X0692548Y0182913D01*
X0692623Y0182907D01*
X0692697Y0182905D01*
X0694475Y0182904D02*
X0694539Y0182906D01*
X0694604Y0182912D01*
X0694667Y0182921D01*
X0694730Y0182935D01*
X0694792Y0182952D01*
X0694853Y0182973D01*
X0694913Y0182998D01*
X0694971Y0183026D01*
X0695027Y0183058D01*
X0695081Y0183093D01*
X0695133Y0183131D01*
X0695183Y0183172D01*
X0695229Y0183217D01*
X0695274Y0183263D01*
X0695315Y0183313D01*
X0695353Y0183365D01*
X0695388Y0183419D01*
X0695420Y0183475D01*
X0695448Y0183533D01*
X0695473Y0183593D01*
X0695494Y0183654D01*
X0695511Y0183716D01*
X0695525Y0183779D01*
X0695534Y0183842D01*
X0695540Y0183907D01*
X0695542Y0183971D01*
X0695542Y0185749D01*
X0695542Y0189454D02*
X0695542Y0191054D01*
X0692342Y0191054D01*
X0693053Y0191054D02*
X0693053Y0189454D01*
X0692342Y0191054D02*
X0692278Y0191052D01*
X0692213Y0191046D01*
X0692150Y0191037D01*
X0692087Y0191023D01*
X0692025Y0191006D01*
X0691964Y0190985D01*
X0691904Y0190960D01*
X0691846Y0190932D01*
X0691790Y0190900D01*
X0691736Y0190865D01*
X0691684Y0190827D01*
X0691634Y0190786D01*
X0691588Y0190741D01*
X0691543Y0190695D01*
X0691502Y0190645D01*
X0691464Y0190593D01*
X0691429Y0190539D01*
X0691397Y0190483D01*
X0691369Y0190425D01*
X0691344Y0190365D01*
X0691323Y0190304D01*
X0691306Y0190242D01*
X0691292Y0190179D01*
X0691283Y0190116D01*
X0691277Y0190051D01*
X0691275Y0189987D01*
X0691275Y0188565D01*
X0693053Y0189454D02*
X0693055Y0189384D01*
X0693061Y0189315D01*
X0693071Y0189246D01*
X0693084Y0189177D01*
X0693102Y0189110D01*
X0693123Y0189043D01*
X0693148Y0188978D01*
X0693176Y0188914D01*
X0693208Y0188852D01*
X0693244Y0188792D01*
X0693282Y0188734D01*
X0693324Y0188678D01*
X0693369Y0188625D01*
X0693417Y0188574D01*
X0693468Y0188526D01*
X0693521Y0188481D01*
X0693577Y0188439D01*
X0693635Y0188401D01*
X0693695Y0188365D01*
X0693757Y0188333D01*
X0693821Y0188305D01*
X0693886Y0188280D01*
X0693953Y0188259D01*
X0694020Y0188241D01*
X0694089Y0188228D01*
X0694158Y0188218D01*
X0694227Y0188212D01*
X0694297Y0188210D01*
X0694367Y0188212D01*
X0694436Y0188218D01*
X0694505Y0188228D01*
X0694574Y0188241D01*
X0694641Y0188259D01*
X0694708Y0188280D01*
X0694773Y0188305D01*
X0694837Y0188333D01*
X0694899Y0188365D01*
X0694959Y0188401D01*
X0695017Y0188439D01*
X0695073Y0188481D01*
X0695126Y0188526D01*
X0695177Y0188574D01*
X0695225Y0188625D01*
X0695270Y0188678D01*
X0695312Y0188734D01*
X0695350Y0188792D01*
X0695386Y0188852D01*
X0695418Y0188914D01*
X0695446Y0188978D01*
X0695471Y0189043D01*
X0695492Y0189110D01*
X0695510Y0189177D01*
X0695523Y0189246D01*
X0695533Y0189315D01*
X0695539Y0189384D01*
X0695541Y0189454D01*
X0691275Y0193266D02*
X0691275Y0195399D01*
X0689142Y0180156D02*
X0695542Y0180156D01*
X0695842Y0221300D02*
X0695844Y0221440D01*
X0695850Y0221580D01*
X0695860Y0221720D01*
X0695873Y0221860D01*
X0695891Y0221999D01*
X0695913Y0222138D01*
X0695938Y0222275D01*
X0695967Y0222413D01*
X0696000Y0222549D01*
X0696037Y0222684D01*
X0696078Y0222818D01*
X0696123Y0222951D01*
X0696171Y0223083D01*
X0696223Y0223213D01*
X0696278Y0223342D01*
X0696337Y0223469D01*
X0696400Y0223595D01*
X0696466Y0223719D01*
X0696535Y0223840D01*
X0696608Y0223960D01*
X0696685Y0224078D01*
X0696764Y0224193D01*
X0696847Y0224307D01*
X0696933Y0224417D01*
X0697022Y0224526D01*
X0697114Y0224632D01*
X0697209Y0224735D01*
X0697306Y0224836D01*
X0697407Y0224933D01*
X0697510Y0225028D01*
X0697616Y0225120D01*
X0697725Y0225209D01*
X0697835Y0225295D01*
X0697949Y0225378D01*
X0698064Y0225457D01*
X0698182Y0225534D01*
X0698302Y0225607D01*
X0698423Y0225676D01*
X0698547Y0225742D01*
X0698673Y0225805D01*
X0698800Y0225864D01*
X0698929Y0225919D01*
X0699059Y0225971D01*
X0699191Y0226019D01*
X0699324Y0226064D01*
X0699458Y0226105D01*
X0699593Y0226142D01*
X0699729Y0226175D01*
X0699867Y0226204D01*
X0700004Y0226229D01*
X0700143Y0226251D01*
X0700282Y0226269D01*
X0700422Y0226282D01*
X0700562Y0226292D01*
X0700702Y0226298D01*
X0700842Y0226300D01*
X0725842Y0226300D01*
X0700842Y0226300D02*
X0700702Y0226302D01*
X0700562Y0226308D01*
X0700422Y0226318D01*
X0700282Y0226331D01*
X0700143Y0226349D01*
X0700004Y0226371D01*
X0699867Y0226396D01*
X0699729Y0226425D01*
X0699593Y0226458D01*
X0699458Y0226495D01*
X0699324Y0226536D01*
X0699191Y0226581D01*
X0699059Y0226629D01*
X0698929Y0226681D01*
X0698800Y0226736D01*
X0698673Y0226795D01*
X0698547Y0226858D01*
X0698423Y0226924D01*
X0698302Y0226993D01*
X0698182Y0227066D01*
X0698064Y0227143D01*
X0697949Y0227222D01*
X0697835Y0227305D01*
X0697725Y0227391D01*
X0697616Y0227480D01*
X0697510Y0227572D01*
X0697407Y0227667D01*
X0697306Y0227764D01*
X0697209Y0227865D01*
X0697114Y0227968D01*
X0697022Y0228074D01*
X0696933Y0228183D01*
X0696847Y0228293D01*
X0696764Y0228407D01*
X0696685Y0228522D01*
X0696608Y0228640D01*
X0696535Y0228760D01*
X0696466Y0228881D01*
X0696400Y0229005D01*
X0696337Y0229131D01*
X0696278Y0229258D01*
X0696223Y0229387D01*
X0696171Y0229517D01*
X0696123Y0229649D01*
X0696078Y0229782D01*
X0696037Y0229916D01*
X0696000Y0230051D01*
X0695967Y0230187D01*
X0695938Y0230325D01*
X0695913Y0230462D01*
X0695891Y0230601D01*
X0695873Y0230740D01*
X0695860Y0230880D01*
X0695850Y0231020D01*
X0695844Y0231160D01*
X0695842Y0231300D01*
X0695842Y0301300D01*
X0695844Y0301440D01*
X0695850Y0301580D01*
X0695860Y0301720D01*
X0695873Y0301860D01*
X0695891Y0301999D01*
X0695913Y0302138D01*
X0695938Y0302275D01*
X0695967Y0302413D01*
X0696000Y0302549D01*
X0696037Y0302684D01*
X0696078Y0302818D01*
X0696123Y0302951D01*
X0696171Y0303083D01*
X0696223Y0303213D01*
X0696278Y0303342D01*
X0696337Y0303469D01*
X0696400Y0303595D01*
X0696466Y0303719D01*
X0696535Y0303840D01*
X0696608Y0303960D01*
X0696685Y0304078D01*
X0696764Y0304193D01*
X0696847Y0304307D01*
X0696933Y0304417D01*
X0697022Y0304526D01*
X0697114Y0304632D01*
X0697209Y0304735D01*
X0697306Y0304836D01*
X0697407Y0304933D01*
X0697510Y0305028D01*
X0697616Y0305120D01*
X0697725Y0305209D01*
X0697835Y0305295D01*
X0697949Y0305378D01*
X0698064Y0305457D01*
X0698182Y0305534D01*
X0698302Y0305607D01*
X0698423Y0305676D01*
X0698547Y0305742D01*
X0698673Y0305805D01*
X0698800Y0305864D01*
X0698929Y0305919D01*
X0699059Y0305971D01*
X0699191Y0306019D01*
X0699324Y0306064D01*
X0699458Y0306105D01*
X0699593Y0306142D01*
X0699729Y0306175D01*
X0699867Y0306204D01*
X0700004Y0306229D01*
X0700143Y0306251D01*
X0700282Y0306269D01*
X0700422Y0306282D01*
X0700562Y0306292D01*
X0700702Y0306298D01*
X0700842Y0306300D01*
X0725842Y0306300D01*
X0695542Y0279348D02*
X0695541Y0279407D01*
X0695536Y0279467D01*
X0695527Y0279525D01*
X0695515Y0279584D01*
X0695498Y0279641D01*
X0695479Y0279697D01*
X0695455Y0279752D01*
X0695428Y0279805D01*
X0695398Y0279856D01*
X0695364Y0279905D01*
X0695328Y0279952D01*
X0695288Y0279996D01*
X0695246Y0280038D01*
X0695201Y0280077D01*
X0695153Y0280113D01*
X0695104Y0280146D01*
X0695052Y0280175D01*
X0694999Y0280202D01*
X0694944Y0280224D01*
X0694887Y0280243D01*
X0694830Y0280259D01*
X0694772Y0280270D01*
X0694713Y0280278D01*
X0694653Y0280282D01*
X0694594Y0280283D01*
X0694534Y0280279D01*
X0694475Y0280272D01*
X0694417Y0280260D01*
X0694359Y0280245D01*
X0694303Y0280227D01*
X0694248Y0280204D01*
X0694194Y0280179D01*
X0694142Y0280149D01*
X0694092Y0280117D01*
X0694045Y0280081D01*
X0693999Y0280043D01*
X0693957Y0280001D01*
X0693917Y0279957D01*
X0693880Y0279911D01*
X0693846Y0279862D01*
X0693815Y0279811D01*
X0693788Y0279758D01*
X0693764Y0279703D01*
X0693053Y0277926D01*
X0693029Y0277871D01*
X0693002Y0277818D01*
X0692971Y0277767D01*
X0692937Y0277718D01*
X0692900Y0277672D01*
X0692860Y0277628D01*
X0692818Y0277586D01*
X0692772Y0277548D01*
X0692725Y0277512D01*
X0692675Y0277480D01*
X0692623Y0277450D01*
X0692569Y0277425D01*
X0692514Y0277402D01*
X0692458Y0277384D01*
X0692400Y0277369D01*
X0692342Y0277357D01*
X0692283Y0277350D01*
X0692223Y0277346D01*
X0692164Y0277347D01*
X0692104Y0277351D01*
X0692045Y0277359D01*
X0691987Y0277370D01*
X0691930Y0277386D01*
X0691873Y0277405D01*
X0691818Y0277427D01*
X0691765Y0277454D01*
X0691713Y0277483D01*
X0691664Y0277516D01*
X0691616Y0277552D01*
X0691571Y0277591D01*
X0691529Y0277633D01*
X0691489Y0277677D01*
X0691453Y0277724D01*
X0691419Y0277773D01*
X0691389Y0277824D01*
X0691362Y0277877D01*
X0691338Y0277932D01*
X0691319Y0277988D01*
X0691302Y0278045D01*
X0691290Y0278104D01*
X0691281Y0278162D01*
X0691276Y0278222D01*
X0691275Y0278281D01*
X0695187Y0277392D02*
X0695237Y0277537D01*
X0695283Y0277684D01*
X0695326Y0277831D01*
X0695365Y0277980D01*
X0695400Y0278130D01*
X0695432Y0278280D01*
X0695459Y0278431D01*
X0695483Y0278583D01*
X0695502Y0278735D01*
X0695518Y0278888D01*
X0695530Y0279041D01*
X0695538Y0279194D01*
X0695542Y0279348D01*
X0691630Y0279881D02*
X0691583Y0279773D01*
X0691540Y0279663D01*
X0691499Y0279552D01*
X0691462Y0279440D01*
X0691428Y0279328D01*
X0691397Y0279214D01*
X0691370Y0279099D01*
X0691346Y0278983D01*
X0691326Y0278867D01*
X0691309Y0278751D01*
X0691295Y0278634D01*
X0691285Y0278516D01*
X0691278Y0278399D01*
X0691274Y0278281D01*
X0692697Y0274903D02*
X0694120Y0274903D01*
X0694194Y0274901D01*
X0694269Y0274895D01*
X0694342Y0274885D01*
X0694416Y0274872D01*
X0694488Y0274855D01*
X0694559Y0274833D01*
X0694630Y0274809D01*
X0694698Y0274780D01*
X0694766Y0274748D01*
X0694831Y0274712D01*
X0694894Y0274674D01*
X0694956Y0274631D01*
X0695015Y0274586D01*
X0695072Y0274538D01*
X0695126Y0274487D01*
X0695177Y0274433D01*
X0695225Y0274376D01*
X0695270Y0274317D01*
X0695313Y0274255D01*
X0695351Y0274192D01*
X0695387Y0274127D01*
X0695419Y0274059D01*
X0695448Y0273991D01*
X0695472Y0273920D01*
X0695494Y0273849D01*
X0695511Y0273777D01*
X0695524Y0273703D01*
X0695534Y0273630D01*
X0695540Y0273555D01*
X0695542Y0273481D01*
X0695540Y0273407D01*
X0695534Y0273332D01*
X0695524Y0273259D01*
X0695511Y0273185D01*
X0695494Y0273113D01*
X0695472Y0273042D01*
X0695448Y0272971D01*
X0695419Y0272903D01*
X0695387Y0272835D01*
X0695351Y0272770D01*
X0695313Y0272707D01*
X0695270Y0272645D01*
X0695225Y0272586D01*
X0695177Y0272529D01*
X0695126Y0272475D01*
X0695072Y0272424D01*
X0695015Y0272376D01*
X0694956Y0272331D01*
X0694894Y0272288D01*
X0694831Y0272250D01*
X0694766Y0272214D01*
X0694698Y0272182D01*
X0694630Y0272153D01*
X0694559Y0272129D01*
X0694488Y0272107D01*
X0694416Y0272090D01*
X0694342Y0272077D01*
X0694269Y0272067D01*
X0694194Y0272061D01*
X0694120Y0272059D01*
X0692697Y0272059D01*
X0692623Y0272061D01*
X0692548Y0272067D01*
X0692475Y0272077D01*
X0692401Y0272090D01*
X0692329Y0272107D01*
X0692258Y0272129D01*
X0692187Y0272153D01*
X0692119Y0272182D01*
X0692051Y0272214D01*
X0691986Y0272250D01*
X0691923Y0272288D01*
X0691861Y0272331D01*
X0691802Y0272376D01*
X0691745Y0272424D01*
X0691691Y0272475D01*
X0691640Y0272529D01*
X0691592Y0272586D01*
X0691547Y0272645D01*
X0691504Y0272707D01*
X0691466Y0272770D01*
X0691430Y0272835D01*
X0691398Y0272903D01*
X0691369Y0272971D01*
X0691345Y0273042D01*
X0691323Y0273113D01*
X0691306Y0273185D01*
X0691293Y0273259D01*
X0691283Y0273332D01*
X0691277Y0273407D01*
X0691275Y0273481D01*
X0691277Y0273555D01*
X0691283Y0273630D01*
X0691293Y0273703D01*
X0691306Y0273777D01*
X0691323Y0273849D01*
X0691345Y0273920D01*
X0691369Y0273991D01*
X0691398Y0274059D01*
X0691430Y0274127D01*
X0691466Y0274192D01*
X0691504Y0274255D01*
X0691547Y0274317D01*
X0691592Y0274376D01*
X0691640Y0274433D01*
X0691691Y0274487D01*
X0691745Y0274538D01*
X0691802Y0274586D01*
X0691861Y0274631D01*
X0691923Y0274674D01*
X0691986Y0274712D01*
X0692051Y0274748D01*
X0692119Y0274780D01*
X0692187Y0274809D01*
X0692258Y0274833D01*
X0692329Y0274855D01*
X0692401Y0274872D01*
X0692475Y0274885D01*
X0692548Y0274895D01*
X0692623Y0274901D01*
X0692697Y0274903D01*
X0691275Y0269775D02*
X0695542Y0268353D01*
X0691275Y0266930D01*
X0691275Y0265200D02*
X0691986Y0265200D01*
X0691275Y0265200D02*
X0691275Y0263066D01*
X0695542Y0263066D01*
X0695542Y0260339D02*
X0695542Y0258561D01*
X0695540Y0258497D01*
X0695534Y0258432D01*
X0695525Y0258369D01*
X0695511Y0258306D01*
X0695494Y0258244D01*
X0695473Y0258183D01*
X0695448Y0258123D01*
X0695420Y0258065D01*
X0695388Y0258009D01*
X0695353Y0257955D01*
X0695315Y0257903D01*
X0695274Y0257853D01*
X0695229Y0257807D01*
X0695183Y0257762D01*
X0695133Y0257721D01*
X0695081Y0257683D01*
X0695027Y0257648D01*
X0694971Y0257616D01*
X0694913Y0257588D01*
X0694853Y0257563D01*
X0694792Y0257542D01*
X0694730Y0257525D01*
X0694667Y0257511D01*
X0694604Y0257502D01*
X0694539Y0257496D01*
X0694475Y0257494D01*
X0692697Y0257494D01*
X0693408Y0257494D02*
X0693408Y0260339D01*
X0692697Y0260339D01*
X0692697Y0260338D02*
X0692623Y0260336D01*
X0692548Y0260330D01*
X0692475Y0260320D01*
X0692401Y0260307D01*
X0692329Y0260290D01*
X0692258Y0260268D01*
X0692187Y0260244D01*
X0692119Y0260215D01*
X0692051Y0260183D01*
X0691986Y0260147D01*
X0691923Y0260109D01*
X0691861Y0260066D01*
X0691802Y0260021D01*
X0691745Y0259973D01*
X0691691Y0259922D01*
X0691640Y0259868D01*
X0691592Y0259811D01*
X0691547Y0259752D01*
X0691504Y0259690D01*
X0691466Y0259627D01*
X0691430Y0259562D01*
X0691398Y0259494D01*
X0691369Y0259426D01*
X0691345Y0259355D01*
X0691323Y0259284D01*
X0691306Y0259212D01*
X0691293Y0259138D01*
X0691283Y0259065D01*
X0691277Y0258990D01*
X0691275Y0258916D01*
X0691277Y0258842D01*
X0691283Y0258767D01*
X0691293Y0258694D01*
X0691306Y0258620D01*
X0691323Y0258548D01*
X0691345Y0258477D01*
X0691369Y0258406D01*
X0691398Y0258338D01*
X0691430Y0258270D01*
X0691466Y0258205D01*
X0691504Y0258142D01*
X0691547Y0258080D01*
X0691592Y0258021D01*
X0691640Y0257964D01*
X0691691Y0257910D01*
X0691745Y0257859D01*
X0691802Y0257811D01*
X0691861Y0257766D01*
X0691923Y0257723D01*
X0691986Y0257685D01*
X0692051Y0257649D01*
X0692119Y0257617D01*
X0692187Y0257588D01*
X0692258Y0257564D01*
X0692329Y0257542D01*
X0692401Y0257525D01*
X0692475Y0257512D01*
X0692548Y0257502D01*
X0692623Y0257496D01*
X0692697Y0257494D01*
X0692875Y0254444D02*
X0691808Y0252489D01*
X0689141Y0253200D02*
X0689143Y0253301D01*
X0689149Y0253402D01*
X0689158Y0253502D01*
X0689172Y0253602D01*
X0689189Y0253702D01*
X0689209Y0253801D01*
X0689234Y0253898D01*
X0689262Y0253995D01*
X0689294Y0254091D01*
X0689330Y0254186D01*
X0689369Y0254279D01*
X0689411Y0254370D01*
X0689457Y0254460D01*
X0689507Y0254548D01*
X0689559Y0254634D01*
X0689615Y0254718D01*
X0689674Y0254800D01*
X0691808Y0252489D02*
X0691768Y0252425D01*
X0691725Y0252364D01*
X0691679Y0252305D01*
X0691630Y0252248D01*
X0691578Y0252194D01*
X0691524Y0252143D01*
X0691466Y0252095D01*
X0691407Y0252049D01*
X0691345Y0252007D01*
X0691280Y0251968D01*
X0691214Y0251933D01*
X0691147Y0251901D01*
X0691077Y0251872D01*
X0691007Y0251847D01*
X0690935Y0251826D01*
X0690862Y0251809D01*
X0690788Y0251795D01*
X0690714Y0251786D01*
X0690639Y0251780D01*
X0690564Y0251778D01*
X0690490Y0251780D01*
X0690415Y0251786D01*
X0690342Y0251796D01*
X0690268Y0251809D01*
X0690196Y0251826D01*
X0690125Y0251848D01*
X0690054Y0251872D01*
X0689986Y0251901D01*
X0689918Y0251933D01*
X0689853Y0251969D01*
X0689790Y0252007D01*
X0689728Y0252050D01*
X0689669Y0252095D01*
X0689612Y0252143D01*
X0689558Y0252194D01*
X0689507Y0252248D01*
X0689459Y0252305D01*
X0689414Y0252364D01*
X0689371Y0252426D01*
X0689333Y0252489D01*
X0689297Y0252554D01*
X0689265Y0252622D01*
X0689236Y0252690D01*
X0689212Y0252761D01*
X0689190Y0252832D01*
X0689173Y0252904D01*
X0689160Y0252978D01*
X0689150Y0253051D01*
X0689144Y0253126D01*
X0689142Y0253200D01*
X0694652Y0251600D02*
X0694727Y0251677D01*
X0694800Y0251757D01*
X0694869Y0251840D01*
X0694936Y0251925D01*
X0694999Y0252012D01*
X0695059Y0252101D01*
X0695116Y0252193D01*
X0695170Y0252286D01*
X0695220Y0252382D01*
X0695267Y0252479D01*
X0695310Y0252578D01*
X0695350Y0252678D01*
X0695386Y0252779D01*
X0695418Y0252882D01*
X0695447Y0252986D01*
X0695472Y0253091D01*
X0695493Y0253197D01*
X0695510Y0253303D01*
X0695524Y0253410D01*
X0695533Y0253518D01*
X0695539Y0253625D01*
X0695541Y0253733D01*
X0695542Y0253733D02*
X0695540Y0253807D01*
X0695534Y0253882D01*
X0695524Y0253955D01*
X0695511Y0254029D01*
X0695494Y0254101D01*
X0695472Y0254172D01*
X0695448Y0254243D01*
X0695419Y0254311D01*
X0695387Y0254379D01*
X0695351Y0254444D01*
X0695313Y0254507D01*
X0695270Y0254569D01*
X0695225Y0254628D01*
X0695177Y0254685D01*
X0695126Y0254739D01*
X0695072Y0254790D01*
X0695015Y0254838D01*
X0694956Y0254883D01*
X0694894Y0254926D01*
X0694831Y0254964D01*
X0694766Y0255000D01*
X0694698Y0255032D01*
X0694630Y0255061D01*
X0694559Y0255085D01*
X0694488Y0255107D01*
X0694416Y0255124D01*
X0694342Y0255137D01*
X0694269Y0255147D01*
X0694194Y0255153D01*
X0694120Y0255155D01*
X0694045Y0255153D01*
X0693970Y0255147D01*
X0693896Y0255138D01*
X0693822Y0255124D01*
X0693749Y0255107D01*
X0693677Y0255086D01*
X0693607Y0255061D01*
X0693537Y0255032D01*
X0693470Y0255000D01*
X0693404Y0254965D01*
X0693339Y0254926D01*
X0693277Y0254884D01*
X0693218Y0254838D01*
X0693160Y0254790D01*
X0693106Y0254739D01*
X0693054Y0254685D01*
X0693005Y0254628D01*
X0692959Y0254569D01*
X0692916Y0254508D01*
X0692876Y0254444D01*
D11*
X0268342Y0007550D02*
X0265842Y0010050D01*
X0265842Y0015050D01*
X0268342Y0017550D01*
X0273342Y0017550D01*
X0275842Y0015050D01*
X0278342Y0017550D01*
X0283342Y0017550D01*
X0285842Y0015050D01*
X0288342Y0017550D01*
X0293342Y0017550D01*
X0295842Y0015050D01*
X0298342Y0017550D01*
X0303342Y0017550D01*
X0305842Y0015050D01*
X0308342Y0017550D01*
X0313342Y0017550D01*
X0315842Y0015050D01*
X0315842Y0010050D01*
X0313342Y0007550D01*
X0308342Y0007550D01*
X0305842Y0010050D01*
X0303342Y0007550D01*
X0298342Y0007550D01*
X0295842Y0010050D01*
X0293342Y0007550D01*
X0288342Y0007550D01*
X0285842Y0010050D01*
X0283342Y0007550D01*
X0278342Y0007550D01*
X0275842Y0010050D01*
X0273342Y0007550D01*
X0268342Y0007550D01*
X0705842Y0043800D02*
X0708342Y0041300D01*
X0713342Y0041300D01*
X0715842Y0043800D01*
X0715842Y0048800D01*
X0713342Y0051300D01*
X0715842Y0053800D01*
X0715842Y0058800D01*
X0713342Y0061300D01*
X0715842Y0063800D01*
X0715842Y0068800D01*
X0713342Y0071300D01*
X0715842Y0073800D01*
X0715842Y0078800D01*
X0713342Y0081300D01*
X0715842Y0083800D01*
X0715842Y0088800D01*
X0713342Y0091300D01*
X0715842Y0093800D01*
X0715842Y0098800D01*
X0713342Y0101300D01*
X0715842Y0103800D01*
X0715842Y0108800D01*
X0713342Y0111300D01*
X0715842Y0113800D01*
X0715842Y0118800D01*
X0713342Y0121300D01*
X0715842Y0123800D01*
X0715842Y0128800D01*
X0713342Y0131300D01*
X0715842Y0133800D01*
X0715842Y0138800D01*
X0713342Y0141300D01*
X0708342Y0141300D01*
X0705842Y0138800D01*
X0705842Y0133800D01*
X0708342Y0131300D01*
X0705842Y0128800D01*
X0705842Y0123800D01*
X0708342Y0121300D01*
X0705842Y0118800D01*
X0705842Y0113800D01*
X0708342Y0111300D01*
X0705842Y0108800D01*
X0705842Y0103800D01*
X0708342Y0101300D01*
X0705842Y0098800D01*
X0705842Y0093800D01*
X0708342Y0091300D01*
X0705842Y0088800D01*
X0705842Y0083800D01*
X0708342Y0081300D01*
X0705842Y0078800D01*
X0705842Y0073800D01*
X0708342Y0071300D01*
X0705842Y0068800D01*
X0705842Y0063800D01*
X0708342Y0061300D01*
X0705842Y0058800D01*
X0705842Y0053800D01*
X0708342Y0051300D01*
X0705842Y0048800D01*
X0705842Y0043800D01*
X0708342Y0166300D02*
X0705842Y0168800D01*
X0705842Y0173800D01*
X0708342Y0176300D01*
X0705842Y0178800D01*
X0705842Y0183800D01*
X0708342Y0186300D01*
X0713342Y0186300D01*
X0715842Y0183800D01*
X0715842Y0178800D01*
X0713342Y0176300D01*
X0715842Y0173800D01*
X0715842Y0168800D01*
X0713342Y0166300D01*
X0708342Y0166300D01*
X0708342Y0197550D02*
X0705842Y0200050D01*
X0705842Y0205050D01*
X0708342Y0207550D01*
X0705842Y0210050D01*
X0705842Y0215050D01*
X0708342Y0217550D01*
X0713342Y0217550D01*
X0715842Y0215050D01*
X0715842Y0210050D01*
X0713342Y0207550D01*
X0715842Y0205050D01*
X0715842Y0200050D01*
X0713342Y0197550D01*
X0708342Y0197550D01*
X0708342Y0231300D02*
X0705842Y0233800D01*
X0705842Y0238800D01*
X0708342Y0241300D01*
X0705842Y0243800D01*
X0705842Y0248800D01*
X0708342Y0251300D01*
X0705842Y0253800D01*
X0705842Y0258800D01*
X0708342Y0261300D01*
X0713342Y0261300D01*
X0715842Y0258800D01*
X0715842Y0253800D01*
X0713342Y0251300D01*
X0715842Y0248800D01*
X0715842Y0243800D01*
X0713342Y0241300D01*
X0715842Y0238800D01*
X0715842Y0233800D01*
X0713342Y0231300D01*
X0708342Y0231300D01*
X0708342Y0271300D02*
X0705842Y0273800D01*
X0705842Y0278800D01*
X0708342Y0281300D01*
X0705842Y0283800D01*
X0705842Y0288800D01*
X0708342Y0291300D01*
X0705842Y0293800D01*
X0705842Y0298800D01*
X0708342Y0301300D01*
X0713342Y0301300D01*
X0715842Y0298800D01*
X0715842Y0293800D01*
X0713342Y0291300D01*
X0715842Y0288800D01*
X0715842Y0283800D01*
X0713342Y0281300D01*
X0715842Y0278800D01*
X0715842Y0273800D01*
X0713342Y0271300D01*
X0708342Y0271300D01*
X0638092Y0291300D02*
X0637092Y0291300D01*
X0637092Y0288300D01*
X0617092Y0288300D01*
X0617092Y0291300D01*
X0616092Y0291300D01*
X0617092Y0291300D02*
X0617092Y0294300D01*
X0637092Y0294300D01*
X0637092Y0291300D01*
X0552842Y0271300D02*
X0548842Y0271300D01*
X0548842Y0311300D01*
X0552842Y0311300D01*
X0552842Y0271300D01*
X0548842Y0271300D02*
X0539342Y0271300D01*
X0539341Y0271300D02*
X0539226Y0271299D01*
X0539111Y0271302D01*
X0538996Y0271309D01*
X0538881Y0271320D01*
X0538767Y0271335D01*
X0538653Y0271353D01*
X0538540Y0271375D01*
X0538427Y0271401D01*
X0538316Y0271431D01*
X0538206Y0271465D01*
X0538096Y0271502D01*
X0537989Y0271543D01*
X0537882Y0271588D01*
X0537778Y0271636D01*
X0537674Y0271688D01*
X0537573Y0271743D01*
X0537474Y0271802D01*
X0537376Y0271863D01*
X0537281Y0271929D01*
X0537188Y0271997D01*
X0537098Y0272068D01*
X0537010Y0272143D01*
X0536924Y0272220D01*
X0536841Y0272300D01*
X0536761Y0272383D01*
X0536684Y0272469D01*
X0536609Y0272557D01*
X0536538Y0272647D01*
X0536470Y0272740D01*
X0536404Y0272835D01*
X0536343Y0272933D01*
X0536284Y0273032D01*
X0536229Y0273133D01*
X0536177Y0273237D01*
X0536129Y0273341D01*
X0536084Y0273448D01*
X0536043Y0273555D01*
X0536006Y0273665D01*
X0535972Y0273775D01*
X0535942Y0273886D01*
X0535916Y0273999D01*
X0535894Y0274112D01*
X0535876Y0274226D01*
X0535861Y0274340D01*
X0535850Y0274455D01*
X0535843Y0274570D01*
X0535840Y0274685D01*
X0535841Y0274800D01*
X0535842Y0274800D02*
X0535842Y0276300D01*
X0512842Y0271300D02*
X0508842Y0271300D01*
X0508842Y0311300D01*
X0512842Y0311300D01*
X0512842Y0271300D01*
X0508842Y0271300D02*
X0499342Y0271300D01*
X0499341Y0271300D02*
X0499226Y0271299D01*
X0499111Y0271302D01*
X0498996Y0271309D01*
X0498881Y0271320D01*
X0498767Y0271335D01*
X0498653Y0271353D01*
X0498540Y0271375D01*
X0498427Y0271401D01*
X0498316Y0271431D01*
X0498206Y0271465D01*
X0498096Y0271502D01*
X0497989Y0271543D01*
X0497882Y0271588D01*
X0497778Y0271636D01*
X0497674Y0271688D01*
X0497573Y0271743D01*
X0497474Y0271802D01*
X0497376Y0271863D01*
X0497281Y0271929D01*
X0497188Y0271997D01*
X0497098Y0272068D01*
X0497010Y0272143D01*
X0496924Y0272220D01*
X0496841Y0272300D01*
X0496761Y0272383D01*
X0496684Y0272469D01*
X0496609Y0272557D01*
X0496538Y0272647D01*
X0496470Y0272740D01*
X0496404Y0272835D01*
X0496343Y0272933D01*
X0496284Y0273032D01*
X0496229Y0273133D01*
X0496177Y0273237D01*
X0496129Y0273341D01*
X0496084Y0273448D01*
X0496043Y0273555D01*
X0496006Y0273665D01*
X0495972Y0273775D01*
X0495942Y0273886D01*
X0495916Y0273999D01*
X0495894Y0274112D01*
X0495876Y0274226D01*
X0495861Y0274340D01*
X0495850Y0274455D01*
X0495843Y0274570D01*
X0495840Y0274685D01*
X0495841Y0274800D01*
X0495842Y0274800D02*
X0495842Y0276300D01*
X0476136Y0282320D02*
X0472047Y0282320D01*
X0471947Y0282322D01*
X0471846Y0282328D01*
X0471747Y0282338D01*
X0471647Y0282351D01*
X0471548Y0282369D01*
X0471450Y0282391D01*
X0471353Y0282416D01*
X0471257Y0282445D01*
X0471162Y0282478D01*
X0471069Y0282515D01*
X0470977Y0282555D01*
X0470887Y0282599D01*
X0470798Y0282646D01*
X0470711Y0282697D01*
X0470627Y0282751D01*
X0470545Y0282808D01*
X0470465Y0282869D01*
X0470387Y0282932D01*
X0470312Y0282999D01*
X0470240Y0283069D01*
X0470170Y0283141D01*
X0470103Y0283216D01*
X0470040Y0283294D01*
X0469979Y0283374D01*
X0469922Y0283456D01*
X0469868Y0283540D01*
X0469817Y0283627D01*
X0469770Y0283716D01*
X0469726Y0283806D01*
X0469686Y0283898D01*
X0469649Y0283991D01*
X0469616Y0284086D01*
X0469587Y0284182D01*
X0469562Y0284279D01*
X0469540Y0284377D01*
X0469522Y0284476D01*
X0469509Y0284576D01*
X0469499Y0284675D01*
X0469493Y0284776D01*
X0469491Y0284876D01*
X0469493Y0284976D01*
X0469499Y0285077D01*
X0469509Y0285176D01*
X0469522Y0285276D01*
X0469540Y0285375D01*
X0469562Y0285473D01*
X0469587Y0285570D01*
X0469616Y0285666D01*
X0469649Y0285761D01*
X0469686Y0285854D01*
X0469726Y0285946D01*
X0469770Y0286036D01*
X0469817Y0286125D01*
X0469868Y0286212D01*
X0469922Y0286296D01*
X0469979Y0286378D01*
X0470040Y0286458D01*
X0470103Y0286536D01*
X0470170Y0286611D01*
X0470240Y0286683D01*
X0470312Y0286753D01*
X0470387Y0286820D01*
X0470465Y0286883D01*
X0470545Y0286944D01*
X0470627Y0287001D01*
X0470711Y0287055D01*
X0470798Y0287106D01*
X0470887Y0287153D01*
X0470977Y0287197D01*
X0471069Y0287237D01*
X0471162Y0287274D01*
X0471257Y0287307D01*
X0471353Y0287336D01*
X0471450Y0287361D01*
X0471548Y0287383D01*
X0471647Y0287401D01*
X0471747Y0287414D01*
X0471846Y0287424D01*
X0471947Y0287430D01*
X0472047Y0287432D01*
X0472047Y0287431D02*
X0476136Y0287431D01*
X0476136Y0287432D02*
X0476236Y0287430D01*
X0476337Y0287424D01*
X0476436Y0287414D01*
X0476536Y0287401D01*
X0476635Y0287383D01*
X0476733Y0287361D01*
X0476830Y0287336D01*
X0476926Y0287307D01*
X0477021Y0287274D01*
X0477114Y0287237D01*
X0477206Y0287197D01*
X0477296Y0287153D01*
X0477385Y0287106D01*
X0477472Y0287055D01*
X0477556Y0287001D01*
X0477638Y0286944D01*
X0477718Y0286883D01*
X0477796Y0286820D01*
X0477871Y0286753D01*
X0477943Y0286683D01*
X0478013Y0286611D01*
X0478080Y0286536D01*
X0478143Y0286458D01*
X0478204Y0286378D01*
X0478261Y0286296D01*
X0478315Y0286212D01*
X0478366Y0286125D01*
X0478413Y0286036D01*
X0478457Y0285946D01*
X0478497Y0285854D01*
X0478534Y0285761D01*
X0478567Y0285666D01*
X0478596Y0285570D01*
X0478621Y0285473D01*
X0478643Y0285375D01*
X0478661Y0285276D01*
X0478674Y0285176D01*
X0478684Y0285077D01*
X0478690Y0284976D01*
X0478692Y0284876D01*
X0478690Y0284776D01*
X0478684Y0284675D01*
X0478674Y0284576D01*
X0478661Y0284476D01*
X0478643Y0284377D01*
X0478621Y0284279D01*
X0478596Y0284182D01*
X0478567Y0284086D01*
X0478534Y0283991D01*
X0478497Y0283898D01*
X0478457Y0283806D01*
X0478413Y0283716D01*
X0478366Y0283627D01*
X0478315Y0283540D01*
X0478261Y0283456D01*
X0478204Y0283374D01*
X0478143Y0283294D01*
X0478080Y0283216D01*
X0478013Y0283141D01*
X0477943Y0283069D01*
X0477871Y0282999D01*
X0477796Y0282932D01*
X0477718Y0282869D01*
X0477638Y0282808D01*
X0477556Y0282751D01*
X0477472Y0282697D01*
X0477385Y0282646D01*
X0477296Y0282599D01*
X0477206Y0282555D01*
X0477114Y0282515D01*
X0477021Y0282478D01*
X0476926Y0282445D01*
X0476830Y0282416D01*
X0476733Y0282391D01*
X0476635Y0282369D01*
X0476536Y0282351D01*
X0476436Y0282338D01*
X0476337Y0282328D01*
X0476236Y0282322D01*
X0476136Y0282320D01*
X0477158Y0290777D02*
X0472558Y0290777D01*
X0472558Y0294866D02*
X0478692Y0294866D01*
X0478692Y0292311D01*
X0478691Y0292311D02*
X0478689Y0292236D01*
X0478684Y0292161D01*
X0478674Y0292086D01*
X0478662Y0292012D01*
X0478645Y0291939D01*
X0478625Y0291866D01*
X0478601Y0291795D01*
X0478574Y0291724D01*
X0478544Y0291656D01*
X0478510Y0291588D01*
X0478473Y0291523D01*
X0478433Y0291459D01*
X0478389Y0291398D01*
X0478343Y0291338D01*
X0478294Y0291282D01*
X0478242Y0291227D01*
X0478188Y0291175D01*
X0478131Y0291126D01*
X0478071Y0291080D01*
X0478010Y0291036D01*
X0477946Y0290996D01*
X0477881Y0290959D01*
X0477813Y0290925D01*
X0477745Y0290895D01*
X0477674Y0290868D01*
X0477603Y0290844D01*
X0477530Y0290824D01*
X0477457Y0290807D01*
X0477383Y0290795D01*
X0477308Y0290785D01*
X0477233Y0290780D01*
X0477158Y0290778D01*
X0477158Y0298580D02*
X0469492Y0298580D01*
X0472558Y0297557D02*
X0472558Y0300624D01*
X0472558Y0303675D02*
X0472558Y0306231D01*
X0472559Y0306231D02*
X0472561Y0306306D01*
X0472566Y0306381D01*
X0472576Y0306456D01*
X0472588Y0306530D01*
X0472605Y0306603D01*
X0472625Y0306676D01*
X0472649Y0306747D01*
X0472676Y0306818D01*
X0472706Y0306886D01*
X0472740Y0306954D01*
X0472777Y0307019D01*
X0472817Y0307083D01*
X0472861Y0307144D01*
X0472907Y0307204D01*
X0472956Y0307261D01*
X0473008Y0307315D01*
X0473063Y0307367D01*
X0473119Y0307416D01*
X0473179Y0307462D01*
X0473240Y0307506D01*
X0473304Y0307546D01*
X0473369Y0307583D01*
X0473437Y0307617D01*
X0473505Y0307647D01*
X0473576Y0307674D01*
X0473647Y0307698D01*
X0473720Y0307718D01*
X0473793Y0307735D01*
X0473867Y0307747D01*
X0473942Y0307757D01*
X0474017Y0307762D01*
X0474092Y0307764D01*
X0477158Y0307764D01*
X0477233Y0307762D01*
X0477308Y0307757D01*
X0477383Y0307747D01*
X0477457Y0307735D01*
X0477530Y0307718D01*
X0477603Y0307698D01*
X0477674Y0307674D01*
X0477745Y0307647D01*
X0477813Y0307617D01*
X0477881Y0307583D01*
X0477946Y0307546D01*
X0478010Y0307506D01*
X0478071Y0307462D01*
X0478131Y0307416D01*
X0478187Y0307367D01*
X0478242Y0307315D01*
X0478294Y0307260D01*
X0478343Y0307204D01*
X0478389Y0307144D01*
X0478433Y0307083D01*
X0478473Y0307019D01*
X0478510Y0306954D01*
X0478544Y0306886D01*
X0478574Y0306818D01*
X0478601Y0306747D01*
X0478625Y0306676D01*
X0478645Y0306603D01*
X0478662Y0306530D01*
X0478674Y0306456D01*
X0478684Y0306381D01*
X0478689Y0306306D01*
X0478691Y0306231D01*
X0478692Y0306231D02*
X0478692Y0303675D01*
X0478692Y0300624D02*
X0478692Y0300113D01*
X0478691Y0300113D02*
X0478689Y0300038D01*
X0478684Y0299963D01*
X0478674Y0299888D01*
X0478662Y0299814D01*
X0478645Y0299741D01*
X0478625Y0299668D01*
X0478601Y0299597D01*
X0478574Y0299526D01*
X0478544Y0299458D01*
X0478510Y0299390D01*
X0478473Y0299325D01*
X0478433Y0299261D01*
X0478389Y0299200D01*
X0478343Y0299140D01*
X0478294Y0299084D01*
X0478242Y0299029D01*
X0478188Y0298977D01*
X0478131Y0298928D01*
X0478071Y0298882D01*
X0478010Y0298838D01*
X0477946Y0298798D01*
X0477881Y0298761D01*
X0477813Y0298727D01*
X0477745Y0298697D01*
X0477674Y0298670D01*
X0477603Y0298646D01*
X0477530Y0298626D01*
X0477457Y0298609D01*
X0477383Y0298597D01*
X0477308Y0298587D01*
X0477233Y0298582D01*
X0477158Y0298580D01*
X0481758Y0303675D02*
X0472558Y0303675D01*
X0472558Y0311053D02*
X0477158Y0311053D01*
X0477158Y0311054D02*
X0477233Y0311056D01*
X0477308Y0311061D01*
X0477383Y0311071D01*
X0477457Y0311083D01*
X0477530Y0311100D01*
X0477603Y0311120D01*
X0477674Y0311144D01*
X0477745Y0311171D01*
X0477813Y0311201D01*
X0477881Y0311235D01*
X0477946Y0311272D01*
X0478010Y0311312D01*
X0478071Y0311356D01*
X0478131Y0311402D01*
X0478188Y0311451D01*
X0478242Y0311503D01*
X0478294Y0311558D01*
X0478343Y0311614D01*
X0478389Y0311674D01*
X0478433Y0311735D01*
X0478473Y0311799D01*
X0478510Y0311864D01*
X0478544Y0311932D01*
X0478574Y0312000D01*
X0478601Y0312071D01*
X0478625Y0312142D01*
X0478645Y0312215D01*
X0478662Y0312288D01*
X0478674Y0312362D01*
X0478684Y0312437D01*
X0478689Y0312512D01*
X0478691Y0312587D01*
X0478692Y0312587D02*
X0478692Y0315142D01*
X0472558Y0315142D01*
X0472558Y0317833D02*
X0472558Y0320900D01*
X0469492Y0318856D02*
X0477158Y0318856D01*
X0477233Y0318858D01*
X0477308Y0318863D01*
X0477383Y0318873D01*
X0477457Y0318885D01*
X0477530Y0318902D01*
X0477603Y0318922D01*
X0477674Y0318946D01*
X0477745Y0318973D01*
X0477813Y0319003D01*
X0477881Y0319037D01*
X0477946Y0319074D01*
X0478010Y0319114D01*
X0478071Y0319158D01*
X0478131Y0319204D01*
X0478188Y0319253D01*
X0478242Y0319305D01*
X0478294Y0319360D01*
X0478343Y0319416D01*
X0478389Y0319476D01*
X0478433Y0319537D01*
X0478473Y0319601D01*
X0478510Y0319666D01*
X0478544Y0319734D01*
X0478574Y0319802D01*
X0478601Y0319873D01*
X0478625Y0319944D01*
X0478645Y0320017D01*
X0478662Y0320090D01*
X0478674Y0320164D01*
X0478684Y0320239D01*
X0478689Y0320314D01*
X0478691Y0320389D01*
X0478692Y0320389D02*
X0478692Y0320900D01*
X0470114Y0328767D02*
X0470114Y0334900D01*
X0473181Y0331833D02*
X0467047Y0331833D01*
X0499342Y0311300D02*
X0508842Y0311300D01*
X0499341Y0311300D02*
X0499226Y0311301D01*
X0499111Y0311298D01*
X0498996Y0311291D01*
X0498881Y0311280D01*
X0498767Y0311265D01*
X0498653Y0311247D01*
X0498540Y0311225D01*
X0498427Y0311199D01*
X0498316Y0311169D01*
X0498206Y0311135D01*
X0498096Y0311098D01*
X0497989Y0311057D01*
X0497882Y0311012D01*
X0497778Y0310964D01*
X0497674Y0310912D01*
X0497573Y0310857D01*
X0497474Y0310798D01*
X0497376Y0310737D01*
X0497281Y0310671D01*
X0497188Y0310603D01*
X0497098Y0310532D01*
X0497010Y0310457D01*
X0496924Y0310380D01*
X0496841Y0310300D01*
X0496761Y0310217D01*
X0496684Y0310131D01*
X0496609Y0310043D01*
X0496538Y0309953D01*
X0496470Y0309860D01*
X0496404Y0309765D01*
X0496343Y0309667D01*
X0496284Y0309568D01*
X0496229Y0309467D01*
X0496177Y0309363D01*
X0496129Y0309259D01*
X0496084Y0309152D01*
X0496043Y0309045D01*
X0496006Y0308935D01*
X0495972Y0308825D01*
X0495942Y0308714D01*
X0495916Y0308601D01*
X0495894Y0308488D01*
X0495876Y0308374D01*
X0495861Y0308260D01*
X0495850Y0308145D01*
X0495843Y0308030D01*
X0495840Y0307915D01*
X0495841Y0307800D01*
X0495842Y0307800D02*
X0495842Y0306300D01*
X0535842Y0306300D02*
X0535842Y0307800D01*
X0535841Y0307800D02*
X0535840Y0307915D01*
X0535843Y0308030D01*
X0535850Y0308145D01*
X0535861Y0308260D01*
X0535876Y0308374D01*
X0535894Y0308488D01*
X0535916Y0308601D01*
X0535942Y0308714D01*
X0535972Y0308825D01*
X0536006Y0308935D01*
X0536043Y0309045D01*
X0536084Y0309152D01*
X0536129Y0309259D01*
X0536177Y0309363D01*
X0536229Y0309467D01*
X0536284Y0309568D01*
X0536343Y0309667D01*
X0536404Y0309765D01*
X0536470Y0309860D01*
X0536538Y0309953D01*
X0536609Y0310043D01*
X0536684Y0310131D01*
X0536761Y0310217D01*
X0536841Y0310300D01*
X0536924Y0310380D01*
X0537010Y0310457D01*
X0537098Y0310532D01*
X0537188Y0310603D01*
X0537281Y0310671D01*
X0537376Y0310737D01*
X0537474Y0310798D01*
X0537573Y0310857D01*
X0537674Y0310912D01*
X0537778Y0310964D01*
X0537882Y0311012D01*
X0537989Y0311057D01*
X0538096Y0311098D01*
X0538206Y0311135D01*
X0538316Y0311169D01*
X0538427Y0311199D01*
X0538540Y0311225D01*
X0538653Y0311247D01*
X0538767Y0311265D01*
X0538881Y0311280D01*
X0538996Y0311291D01*
X0539111Y0311298D01*
X0539226Y0311301D01*
X0539341Y0311300D01*
X0539342Y0311300D02*
X0548842Y0311300D01*
X0334681Y0331833D02*
X0328547Y0331833D01*
X0331614Y0328767D02*
X0331614Y0334900D01*
X0330192Y0315396D02*
X0330192Y0314885D01*
X0330191Y0314885D02*
X0330189Y0314810D01*
X0330184Y0314735D01*
X0330174Y0314660D01*
X0330162Y0314586D01*
X0330145Y0314513D01*
X0330125Y0314440D01*
X0330101Y0314369D01*
X0330074Y0314298D01*
X0330044Y0314230D01*
X0330010Y0314162D01*
X0329973Y0314097D01*
X0329933Y0314033D01*
X0329889Y0313972D01*
X0329843Y0313912D01*
X0329794Y0313856D01*
X0329742Y0313801D01*
X0329688Y0313749D01*
X0329631Y0313700D01*
X0329571Y0313654D01*
X0329510Y0313610D01*
X0329446Y0313570D01*
X0329381Y0313533D01*
X0329313Y0313499D01*
X0329245Y0313469D01*
X0329174Y0313442D01*
X0329103Y0313418D01*
X0329030Y0313398D01*
X0328957Y0313381D01*
X0328883Y0313369D01*
X0328808Y0313359D01*
X0328733Y0313354D01*
X0328658Y0313352D01*
X0320992Y0313352D01*
X0324058Y0312330D02*
X0324058Y0315396D01*
X0324058Y0309639D02*
X0330192Y0309639D01*
X0330192Y0307083D01*
X0330191Y0307083D02*
X0330189Y0307008D01*
X0330184Y0306933D01*
X0330174Y0306858D01*
X0330162Y0306784D01*
X0330145Y0306711D01*
X0330125Y0306638D01*
X0330101Y0306567D01*
X0330074Y0306496D01*
X0330044Y0306428D01*
X0330010Y0306360D01*
X0329973Y0306295D01*
X0329933Y0306231D01*
X0329889Y0306170D01*
X0329843Y0306110D01*
X0329794Y0306054D01*
X0329742Y0305999D01*
X0329688Y0305947D01*
X0329631Y0305898D01*
X0329571Y0305852D01*
X0329510Y0305808D01*
X0329446Y0305768D01*
X0329381Y0305731D01*
X0329313Y0305697D01*
X0329245Y0305667D01*
X0329174Y0305640D01*
X0329103Y0305616D01*
X0329030Y0305596D01*
X0328957Y0305579D01*
X0328883Y0305567D01*
X0328808Y0305557D01*
X0328733Y0305552D01*
X0328658Y0305550D01*
X0324058Y0305550D01*
X0325592Y0302261D02*
X0328658Y0302261D01*
X0328658Y0302260D02*
X0328733Y0302258D01*
X0328808Y0302253D01*
X0328883Y0302243D01*
X0328957Y0302231D01*
X0329030Y0302214D01*
X0329103Y0302194D01*
X0329174Y0302170D01*
X0329245Y0302143D01*
X0329313Y0302113D01*
X0329381Y0302079D01*
X0329446Y0302042D01*
X0329510Y0302002D01*
X0329571Y0301958D01*
X0329631Y0301912D01*
X0329687Y0301863D01*
X0329742Y0301811D01*
X0329794Y0301756D01*
X0329843Y0301700D01*
X0329889Y0301640D01*
X0329933Y0301579D01*
X0329973Y0301515D01*
X0330010Y0301450D01*
X0330044Y0301382D01*
X0330074Y0301314D01*
X0330101Y0301243D01*
X0330125Y0301172D01*
X0330145Y0301099D01*
X0330162Y0301026D01*
X0330174Y0300952D01*
X0330184Y0300877D01*
X0330189Y0300802D01*
X0330191Y0300727D01*
X0330192Y0300727D02*
X0330192Y0298172D01*
X0333258Y0298172D02*
X0324058Y0298172D01*
X0324058Y0300727D01*
X0324059Y0300727D02*
X0324061Y0300802D01*
X0324066Y0300877D01*
X0324076Y0300952D01*
X0324088Y0301026D01*
X0324105Y0301099D01*
X0324125Y0301172D01*
X0324149Y0301243D01*
X0324176Y0301314D01*
X0324206Y0301382D01*
X0324240Y0301450D01*
X0324277Y0301515D01*
X0324317Y0301579D01*
X0324361Y0301640D01*
X0324407Y0301700D01*
X0324456Y0301757D01*
X0324508Y0301811D01*
X0324563Y0301863D01*
X0324619Y0301912D01*
X0324679Y0301958D01*
X0324740Y0302002D01*
X0324804Y0302042D01*
X0324869Y0302079D01*
X0324937Y0302113D01*
X0325005Y0302143D01*
X0325076Y0302170D01*
X0325147Y0302194D01*
X0325220Y0302214D01*
X0325293Y0302231D01*
X0325367Y0302243D01*
X0325442Y0302253D01*
X0325517Y0302258D01*
X0325592Y0302260D01*
X0325592Y0294569D02*
X0330192Y0294569D01*
X0330192Y0290480D02*
X0324058Y0290480D01*
X0324058Y0293035D01*
X0324059Y0293035D02*
X0324061Y0293110D01*
X0324066Y0293185D01*
X0324076Y0293260D01*
X0324088Y0293334D01*
X0324105Y0293407D01*
X0324125Y0293480D01*
X0324149Y0293551D01*
X0324176Y0293622D01*
X0324206Y0293690D01*
X0324240Y0293758D01*
X0324277Y0293823D01*
X0324317Y0293887D01*
X0324361Y0293948D01*
X0324407Y0294008D01*
X0324456Y0294065D01*
X0324508Y0294119D01*
X0324563Y0294171D01*
X0324619Y0294220D01*
X0324679Y0294266D01*
X0324740Y0294310D01*
X0324804Y0294350D01*
X0324869Y0294387D01*
X0324937Y0294421D01*
X0325005Y0294451D01*
X0325076Y0294478D01*
X0325147Y0294502D01*
X0325220Y0294522D01*
X0325293Y0294539D01*
X0325367Y0294551D01*
X0325442Y0294561D01*
X0325517Y0294566D01*
X0325592Y0294568D01*
X0330192Y0287244D02*
X0330192Y0285200D01*
X0330192Y0286222D02*
X0320992Y0286222D01*
X0320992Y0285200D02*
X0320992Y0287244D01*
X0297442Y0292311D02*
X0297442Y0294866D01*
X0291308Y0294866D01*
X0291308Y0297557D02*
X0291308Y0300624D01*
X0291308Y0303675D02*
X0291308Y0306231D01*
X0291309Y0306231D02*
X0291311Y0306306D01*
X0291316Y0306381D01*
X0291326Y0306456D01*
X0291338Y0306530D01*
X0291355Y0306603D01*
X0291375Y0306676D01*
X0291399Y0306747D01*
X0291426Y0306818D01*
X0291456Y0306886D01*
X0291490Y0306954D01*
X0291527Y0307019D01*
X0291567Y0307083D01*
X0291611Y0307144D01*
X0291657Y0307204D01*
X0291706Y0307261D01*
X0291758Y0307315D01*
X0291813Y0307367D01*
X0291869Y0307416D01*
X0291929Y0307462D01*
X0291990Y0307506D01*
X0292054Y0307546D01*
X0292119Y0307583D01*
X0292187Y0307617D01*
X0292255Y0307647D01*
X0292326Y0307674D01*
X0292397Y0307698D01*
X0292470Y0307718D01*
X0292543Y0307735D01*
X0292617Y0307747D01*
X0292692Y0307757D01*
X0292767Y0307762D01*
X0292842Y0307764D01*
X0295908Y0307764D01*
X0295983Y0307762D01*
X0296058Y0307757D01*
X0296133Y0307747D01*
X0296207Y0307735D01*
X0296280Y0307718D01*
X0296353Y0307698D01*
X0296424Y0307674D01*
X0296495Y0307647D01*
X0296563Y0307617D01*
X0296631Y0307583D01*
X0296696Y0307546D01*
X0296760Y0307506D01*
X0296821Y0307462D01*
X0296881Y0307416D01*
X0296937Y0307367D01*
X0296992Y0307315D01*
X0297044Y0307260D01*
X0297093Y0307204D01*
X0297139Y0307144D01*
X0297183Y0307083D01*
X0297223Y0307019D01*
X0297260Y0306954D01*
X0297294Y0306886D01*
X0297324Y0306818D01*
X0297351Y0306747D01*
X0297375Y0306676D01*
X0297395Y0306603D01*
X0297412Y0306530D01*
X0297424Y0306456D01*
X0297434Y0306381D01*
X0297439Y0306306D01*
X0297441Y0306231D01*
X0297442Y0306231D02*
X0297442Y0303675D01*
X0297442Y0300624D02*
X0297442Y0300113D01*
X0297441Y0300113D02*
X0297439Y0300038D01*
X0297434Y0299963D01*
X0297424Y0299888D01*
X0297412Y0299814D01*
X0297395Y0299741D01*
X0297375Y0299668D01*
X0297351Y0299597D01*
X0297324Y0299526D01*
X0297294Y0299458D01*
X0297260Y0299390D01*
X0297223Y0299325D01*
X0297183Y0299261D01*
X0297139Y0299200D01*
X0297093Y0299140D01*
X0297044Y0299084D01*
X0296992Y0299029D01*
X0296938Y0298977D01*
X0296881Y0298928D01*
X0296821Y0298882D01*
X0296760Y0298838D01*
X0296696Y0298798D01*
X0296631Y0298761D01*
X0296563Y0298727D01*
X0296495Y0298697D01*
X0296424Y0298670D01*
X0296353Y0298646D01*
X0296280Y0298626D01*
X0296207Y0298609D01*
X0296133Y0298597D01*
X0296058Y0298587D01*
X0295983Y0298582D01*
X0295908Y0298580D01*
X0288242Y0298580D01*
X0291308Y0303675D02*
X0300508Y0303675D01*
X0295908Y0311053D02*
X0291308Y0311053D01*
X0291308Y0315142D02*
X0297442Y0315142D01*
X0297442Y0312587D01*
X0297441Y0312587D02*
X0297439Y0312512D01*
X0297434Y0312437D01*
X0297424Y0312362D01*
X0297412Y0312288D01*
X0297395Y0312215D01*
X0297375Y0312142D01*
X0297351Y0312071D01*
X0297324Y0312000D01*
X0297294Y0311932D01*
X0297260Y0311864D01*
X0297223Y0311799D01*
X0297183Y0311735D01*
X0297139Y0311674D01*
X0297093Y0311614D01*
X0297044Y0311558D01*
X0296992Y0311503D01*
X0296938Y0311451D01*
X0296881Y0311402D01*
X0296821Y0311356D01*
X0296760Y0311312D01*
X0296696Y0311272D01*
X0296631Y0311235D01*
X0296563Y0311201D01*
X0296495Y0311171D01*
X0296424Y0311144D01*
X0296353Y0311120D01*
X0296280Y0311100D01*
X0296207Y0311083D01*
X0296133Y0311071D01*
X0296058Y0311061D01*
X0295983Y0311056D01*
X0295908Y0311054D01*
X0295908Y0318856D02*
X0288242Y0318856D01*
X0291308Y0317833D02*
X0291308Y0320900D01*
X0295908Y0318856D02*
X0295983Y0318858D01*
X0296058Y0318863D01*
X0296133Y0318873D01*
X0296207Y0318885D01*
X0296280Y0318902D01*
X0296353Y0318922D01*
X0296424Y0318946D01*
X0296495Y0318973D01*
X0296563Y0319003D01*
X0296631Y0319037D01*
X0296696Y0319074D01*
X0296760Y0319114D01*
X0296821Y0319158D01*
X0296881Y0319204D01*
X0296938Y0319253D01*
X0296992Y0319305D01*
X0297044Y0319360D01*
X0297093Y0319416D01*
X0297139Y0319476D01*
X0297183Y0319537D01*
X0297223Y0319601D01*
X0297260Y0319666D01*
X0297294Y0319734D01*
X0297324Y0319802D01*
X0297351Y0319873D01*
X0297375Y0319944D01*
X0297395Y0320017D01*
X0297412Y0320090D01*
X0297424Y0320164D01*
X0297434Y0320239D01*
X0297439Y0320314D01*
X0297441Y0320389D01*
X0297442Y0320389D02*
X0297442Y0320900D01*
X0288864Y0328767D02*
X0288864Y0334900D01*
X0291931Y0331833D02*
X0285797Y0331833D01*
X0297441Y0292311D02*
X0297439Y0292236D01*
X0297434Y0292161D01*
X0297424Y0292086D01*
X0297412Y0292012D01*
X0297395Y0291939D01*
X0297375Y0291866D01*
X0297351Y0291795D01*
X0297324Y0291724D01*
X0297294Y0291656D01*
X0297260Y0291588D01*
X0297223Y0291523D01*
X0297183Y0291459D01*
X0297139Y0291398D01*
X0297093Y0291338D01*
X0297044Y0291282D01*
X0296992Y0291227D01*
X0296938Y0291175D01*
X0296881Y0291126D01*
X0296821Y0291080D01*
X0296760Y0291036D01*
X0296696Y0290996D01*
X0296631Y0290959D01*
X0296563Y0290925D01*
X0296495Y0290895D01*
X0296424Y0290868D01*
X0296353Y0290844D01*
X0296280Y0290824D01*
X0296207Y0290807D01*
X0296133Y0290795D01*
X0296058Y0290785D01*
X0295983Y0290780D01*
X0295908Y0290778D01*
X0295908Y0290777D02*
X0291308Y0290777D01*
X0290797Y0287431D02*
X0294886Y0287431D01*
X0294886Y0287432D02*
X0294986Y0287430D01*
X0295087Y0287424D01*
X0295186Y0287414D01*
X0295286Y0287401D01*
X0295385Y0287383D01*
X0295483Y0287361D01*
X0295580Y0287336D01*
X0295676Y0287307D01*
X0295771Y0287274D01*
X0295864Y0287237D01*
X0295956Y0287197D01*
X0296046Y0287153D01*
X0296135Y0287106D01*
X0296222Y0287055D01*
X0296306Y0287001D01*
X0296388Y0286944D01*
X0296468Y0286883D01*
X0296546Y0286820D01*
X0296621Y0286753D01*
X0296693Y0286683D01*
X0296763Y0286611D01*
X0296830Y0286536D01*
X0296893Y0286458D01*
X0296954Y0286378D01*
X0297011Y0286296D01*
X0297065Y0286212D01*
X0297116Y0286125D01*
X0297163Y0286036D01*
X0297207Y0285946D01*
X0297247Y0285854D01*
X0297284Y0285761D01*
X0297317Y0285666D01*
X0297346Y0285570D01*
X0297371Y0285473D01*
X0297393Y0285375D01*
X0297411Y0285276D01*
X0297424Y0285176D01*
X0297434Y0285077D01*
X0297440Y0284976D01*
X0297442Y0284876D01*
X0297440Y0284776D01*
X0297434Y0284675D01*
X0297424Y0284576D01*
X0297411Y0284476D01*
X0297393Y0284377D01*
X0297371Y0284279D01*
X0297346Y0284182D01*
X0297317Y0284086D01*
X0297284Y0283991D01*
X0297247Y0283898D01*
X0297207Y0283806D01*
X0297163Y0283716D01*
X0297116Y0283627D01*
X0297065Y0283540D01*
X0297011Y0283456D01*
X0296954Y0283374D01*
X0296893Y0283294D01*
X0296830Y0283216D01*
X0296763Y0283141D01*
X0296693Y0283069D01*
X0296621Y0282999D01*
X0296546Y0282932D01*
X0296468Y0282869D01*
X0296388Y0282808D01*
X0296306Y0282751D01*
X0296222Y0282697D01*
X0296135Y0282646D01*
X0296046Y0282599D01*
X0295956Y0282555D01*
X0295864Y0282515D01*
X0295771Y0282478D01*
X0295676Y0282445D01*
X0295580Y0282416D01*
X0295483Y0282391D01*
X0295385Y0282369D01*
X0295286Y0282351D01*
X0295186Y0282338D01*
X0295087Y0282328D01*
X0294986Y0282322D01*
X0294886Y0282320D01*
X0290797Y0282320D01*
X0290697Y0282322D01*
X0290596Y0282328D01*
X0290497Y0282338D01*
X0290397Y0282351D01*
X0290298Y0282369D01*
X0290200Y0282391D01*
X0290103Y0282416D01*
X0290007Y0282445D01*
X0289912Y0282478D01*
X0289819Y0282515D01*
X0289727Y0282555D01*
X0289637Y0282599D01*
X0289548Y0282646D01*
X0289461Y0282697D01*
X0289377Y0282751D01*
X0289295Y0282808D01*
X0289215Y0282869D01*
X0289137Y0282932D01*
X0289062Y0282999D01*
X0288990Y0283069D01*
X0288920Y0283141D01*
X0288853Y0283216D01*
X0288790Y0283294D01*
X0288729Y0283374D01*
X0288672Y0283456D01*
X0288618Y0283540D01*
X0288567Y0283627D01*
X0288520Y0283716D01*
X0288476Y0283806D01*
X0288436Y0283898D01*
X0288399Y0283991D01*
X0288366Y0284086D01*
X0288337Y0284182D01*
X0288312Y0284279D01*
X0288290Y0284377D01*
X0288272Y0284476D01*
X0288259Y0284576D01*
X0288249Y0284675D01*
X0288243Y0284776D01*
X0288241Y0284876D01*
X0288243Y0284976D01*
X0288249Y0285077D01*
X0288259Y0285176D01*
X0288272Y0285276D01*
X0288290Y0285375D01*
X0288312Y0285473D01*
X0288337Y0285570D01*
X0288366Y0285666D01*
X0288399Y0285761D01*
X0288436Y0285854D01*
X0288476Y0285946D01*
X0288520Y0286036D01*
X0288567Y0286125D01*
X0288618Y0286212D01*
X0288672Y0286296D01*
X0288729Y0286378D01*
X0288790Y0286458D01*
X0288853Y0286536D01*
X0288920Y0286611D01*
X0288990Y0286683D01*
X0289062Y0286753D01*
X0289137Y0286820D01*
X0289215Y0286883D01*
X0289295Y0286944D01*
X0289377Y0287001D01*
X0289461Y0287055D01*
X0289548Y0287106D01*
X0289637Y0287153D01*
X0289727Y0287197D01*
X0289819Y0287237D01*
X0289912Y0287274D01*
X0290007Y0287307D01*
X0290103Y0287336D01*
X0290200Y0287361D01*
X0290298Y0287383D01*
X0290397Y0287401D01*
X0290497Y0287414D01*
X0290596Y0287424D01*
X0290697Y0287430D01*
X0290797Y0287432D01*
X0153431Y0331833D02*
X0147297Y0331833D01*
X0150364Y0328767D02*
X0150364Y0334900D01*
X0148942Y0315396D02*
X0148942Y0314885D01*
X0148941Y0314885D02*
X0148939Y0314810D01*
X0148934Y0314735D01*
X0148924Y0314660D01*
X0148912Y0314586D01*
X0148895Y0314513D01*
X0148875Y0314440D01*
X0148851Y0314369D01*
X0148824Y0314298D01*
X0148794Y0314230D01*
X0148760Y0314162D01*
X0148723Y0314097D01*
X0148683Y0314033D01*
X0148639Y0313972D01*
X0148593Y0313912D01*
X0148544Y0313856D01*
X0148492Y0313801D01*
X0148438Y0313749D01*
X0148381Y0313700D01*
X0148321Y0313654D01*
X0148260Y0313610D01*
X0148196Y0313570D01*
X0148131Y0313533D01*
X0148063Y0313499D01*
X0147995Y0313469D01*
X0147924Y0313442D01*
X0147853Y0313418D01*
X0147780Y0313398D01*
X0147707Y0313381D01*
X0147633Y0313369D01*
X0147558Y0313359D01*
X0147483Y0313354D01*
X0147408Y0313352D01*
X0139742Y0313352D01*
X0142808Y0312330D02*
X0142808Y0315396D01*
X0142808Y0309639D02*
X0148942Y0309639D01*
X0148942Y0307083D01*
X0148941Y0307083D02*
X0148939Y0307008D01*
X0148934Y0306933D01*
X0148924Y0306858D01*
X0148912Y0306784D01*
X0148895Y0306711D01*
X0148875Y0306638D01*
X0148851Y0306567D01*
X0148824Y0306496D01*
X0148794Y0306428D01*
X0148760Y0306360D01*
X0148723Y0306295D01*
X0148683Y0306231D01*
X0148639Y0306170D01*
X0148593Y0306110D01*
X0148544Y0306054D01*
X0148492Y0305999D01*
X0148438Y0305947D01*
X0148381Y0305898D01*
X0148321Y0305852D01*
X0148260Y0305808D01*
X0148196Y0305768D01*
X0148131Y0305731D01*
X0148063Y0305697D01*
X0147995Y0305667D01*
X0147924Y0305640D01*
X0147853Y0305616D01*
X0147780Y0305596D01*
X0147707Y0305579D01*
X0147633Y0305567D01*
X0147558Y0305557D01*
X0147483Y0305552D01*
X0147408Y0305550D01*
X0142808Y0305550D01*
X0144342Y0302261D02*
X0147408Y0302261D01*
X0147408Y0302260D02*
X0147483Y0302258D01*
X0147558Y0302253D01*
X0147633Y0302243D01*
X0147707Y0302231D01*
X0147780Y0302214D01*
X0147853Y0302194D01*
X0147924Y0302170D01*
X0147995Y0302143D01*
X0148063Y0302113D01*
X0148131Y0302079D01*
X0148196Y0302042D01*
X0148260Y0302002D01*
X0148321Y0301958D01*
X0148381Y0301912D01*
X0148437Y0301863D01*
X0148492Y0301811D01*
X0148544Y0301756D01*
X0148593Y0301700D01*
X0148639Y0301640D01*
X0148683Y0301579D01*
X0148723Y0301515D01*
X0148760Y0301450D01*
X0148794Y0301382D01*
X0148824Y0301314D01*
X0148851Y0301243D01*
X0148875Y0301172D01*
X0148895Y0301099D01*
X0148912Y0301026D01*
X0148924Y0300952D01*
X0148934Y0300877D01*
X0148939Y0300802D01*
X0148941Y0300727D01*
X0148942Y0300727D02*
X0148942Y0298172D01*
X0152008Y0298172D02*
X0142808Y0298172D01*
X0142808Y0300727D01*
X0142809Y0300727D02*
X0142811Y0300802D01*
X0142816Y0300877D01*
X0142826Y0300952D01*
X0142838Y0301026D01*
X0142855Y0301099D01*
X0142875Y0301172D01*
X0142899Y0301243D01*
X0142926Y0301314D01*
X0142956Y0301382D01*
X0142990Y0301450D01*
X0143027Y0301515D01*
X0143067Y0301579D01*
X0143111Y0301640D01*
X0143157Y0301700D01*
X0143206Y0301757D01*
X0143258Y0301811D01*
X0143313Y0301863D01*
X0143369Y0301912D01*
X0143429Y0301958D01*
X0143490Y0302002D01*
X0143554Y0302042D01*
X0143619Y0302079D01*
X0143687Y0302113D01*
X0143755Y0302143D01*
X0143826Y0302170D01*
X0143897Y0302194D01*
X0143970Y0302214D01*
X0144043Y0302231D01*
X0144117Y0302243D01*
X0144192Y0302253D01*
X0144267Y0302258D01*
X0144342Y0302260D01*
X0144342Y0294569D02*
X0148942Y0294569D01*
X0148942Y0290480D02*
X0142808Y0290480D01*
X0142808Y0293035D01*
X0142809Y0293035D02*
X0142811Y0293110D01*
X0142816Y0293185D01*
X0142826Y0293260D01*
X0142838Y0293334D01*
X0142855Y0293407D01*
X0142875Y0293480D01*
X0142899Y0293551D01*
X0142926Y0293622D01*
X0142956Y0293690D01*
X0142990Y0293758D01*
X0143027Y0293823D01*
X0143067Y0293887D01*
X0143111Y0293948D01*
X0143157Y0294008D01*
X0143206Y0294065D01*
X0143258Y0294119D01*
X0143313Y0294171D01*
X0143369Y0294220D01*
X0143429Y0294266D01*
X0143490Y0294310D01*
X0143554Y0294350D01*
X0143619Y0294387D01*
X0143687Y0294421D01*
X0143755Y0294451D01*
X0143826Y0294478D01*
X0143897Y0294502D01*
X0143970Y0294522D01*
X0144043Y0294539D01*
X0144117Y0294551D01*
X0144192Y0294561D01*
X0144267Y0294566D01*
X0144342Y0294568D01*
X0148942Y0287244D02*
X0148942Y0285200D01*
X0148942Y0286222D02*
X0139742Y0286222D01*
X0139742Y0285200D02*
X0139742Y0287244D01*
X0103842Y0286300D02*
X0103842Y0266300D01*
X0100842Y0266300D01*
X0100842Y0265300D01*
X0100842Y0266300D02*
X0097842Y0266300D01*
X0097842Y0286300D01*
X0100842Y0286300D01*
X0100842Y0287300D01*
X0100842Y0286300D02*
X0103842Y0286300D01*
X0074228Y0288190D02*
X0049818Y0288190D01*
X0049818Y0260631D01*
X0046669Y0260631D01*
X0046669Y0288190D01*
X0049818Y0288190D01*
X0074228Y0288190D02*
X0074228Y0260631D01*
X0049818Y0260631D01*
X0097842Y0306300D02*
X0100842Y0306300D01*
X0100842Y0305300D01*
X0100842Y0306300D02*
X0103842Y0306300D01*
X0103842Y0326300D01*
X0100842Y0326300D01*
X0100842Y0327300D01*
X0100842Y0326300D02*
X0097842Y0326300D01*
X0097842Y0306300D01*
D12*
X0146942Y0266767D02*
X0156142Y0266767D01*
X0285442Y0266767D02*
X0294642Y0266767D01*
X0328192Y0266767D02*
X0337392Y0266767D01*
X0466692Y0266767D02*
X0475892Y0266767D01*
D13*
X0490842Y0246300D02*
X0540842Y0246300D01*
X0540842Y0186300D01*
X0490842Y0186300D01*
X0490842Y0246300D01*
X0565842Y0246300D02*
X0565842Y0146300D01*
X0685842Y0146300D01*
X0685842Y0246300D01*
X0565842Y0246300D01*
X0663092Y0280848D02*
X0663092Y0282427D01*
X0668592Y0283054D02*
X0668592Y0299546D01*
X0663092Y0300173D02*
X0663092Y0301752D01*
X0663092Y0292427D02*
X0663092Y0290173D01*
X0668592Y0283054D02*
X0668393Y0282901D01*
X0668191Y0282753D01*
X0667986Y0282610D01*
X0667777Y0282472D01*
X0667565Y0282339D01*
X0667350Y0282211D01*
X0667132Y0282089D01*
X0666911Y0281971D01*
X0666687Y0281859D01*
X0666461Y0281752D01*
X0666232Y0281651D01*
X0666001Y0281555D01*
X0665767Y0281464D01*
X0665532Y0281379D01*
X0665294Y0281300D01*
X0665055Y0281227D01*
X0664814Y0281159D01*
X0664572Y0281097D01*
X0664328Y0281041D01*
X0664082Y0280990D01*
X0663836Y0280946D01*
X0663589Y0280907D01*
X0663341Y0280875D01*
X0663092Y0280848D01*
X0662837Y0280826D01*
X0662581Y0280811D01*
X0662325Y0280803D01*
X0662068Y0280800D01*
X0661812Y0280804D01*
X0661556Y0280814D01*
X0661300Y0280830D01*
X0661045Y0280852D01*
X0660790Y0280881D01*
X0660536Y0280916D01*
X0660283Y0280957D01*
X0660031Y0281004D01*
X0659781Y0281058D01*
X0659532Y0281117D01*
X0659284Y0281183D01*
X0659038Y0281254D01*
X0658793Y0281332D01*
X0658551Y0281415D01*
X0658311Y0281504D01*
X0658073Y0281600D01*
X0657837Y0281701D01*
X0657604Y0281807D01*
X0657374Y0281920D01*
X0657146Y0282038D01*
X0656922Y0282161D01*
X0656700Y0282290D01*
X0656482Y0282424D01*
X0656267Y0282564D01*
X0656056Y0282709D01*
X0655848Y0282859D01*
X0655644Y0283013D01*
X0655443Y0283173D01*
X0655247Y0283338D01*
X0655055Y0283507D01*
X0654866Y0283682D01*
X0654683Y0283860D01*
X0654503Y0284043D01*
X0654328Y0284231D01*
X0654158Y0284422D01*
X0653993Y0284618D01*
X0653832Y0284818D01*
X0653676Y0285021D01*
X0653526Y0285228D01*
X0653380Y0285439D01*
X0653239Y0285654D01*
X0653104Y0285871D01*
X0652974Y0286092D01*
X0652850Y0286316D01*
X0652731Y0286543D01*
X0652618Y0286773D01*
X0652510Y0287006D01*
X0652408Y0287241D01*
X0652312Y0287479D01*
X0652222Y0287718D01*
X0652137Y0287960D01*
X0652059Y0288204D01*
X0652059Y0294396D02*
X0652137Y0294638D01*
X0652221Y0294878D01*
X0652310Y0295116D01*
X0652405Y0295352D01*
X0652507Y0295586D01*
X0652613Y0295817D01*
X0652726Y0296045D01*
X0652843Y0296271D01*
X0652966Y0296494D01*
X0653095Y0296713D01*
X0653229Y0296930D01*
X0653368Y0297143D01*
X0653512Y0297353D01*
X0653661Y0297559D01*
X0653815Y0297761D01*
X0653974Y0297960D01*
X0654138Y0298155D01*
X0654307Y0298346D01*
X0654480Y0298532D01*
X0654657Y0298715D01*
X0654839Y0298893D01*
X0655025Y0299066D01*
X0655216Y0299235D01*
X0655410Y0299399D01*
X0655608Y0299559D01*
X0655810Y0299714D01*
X0656016Y0299863D01*
X0656225Y0300008D01*
X0656438Y0300148D01*
X0656654Y0300282D01*
X0656874Y0300411D01*
X0657096Y0300535D01*
X0657321Y0300654D01*
X0657549Y0300766D01*
X0657780Y0300874D01*
X0658013Y0300975D01*
X0658249Y0301071D01*
X0658487Y0301162D01*
X0658727Y0301246D01*
X0658969Y0301325D01*
X0659213Y0301398D01*
X0659459Y0301464D01*
X0659706Y0301525D01*
X0659954Y0301580D01*
X0660204Y0301629D01*
X0660455Y0301672D01*
X0660707Y0301708D01*
X0660959Y0301739D01*
X0661213Y0301763D01*
X0661466Y0301781D01*
X0661721Y0301793D01*
X0661975Y0301799D01*
X0662230Y0301799D01*
X0662484Y0301793D01*
X0662738Y0301780D01*
X0662992Y0301761D01*
X0663245Y0301736D01*
X0663498Y0301705D01*
X0663750Y0301668D01*
X0664000Y0301625D01*
X0664250Y0301576D01*
X0664499Y0301520D01*
X0664746Y0301459D01*
X0664991Y0301392D01*
X0665235Y0301319D01*
X0665477Y0301240D01*
X0665716Y0301155D01*
X0665954Y0301064D01*
X0666190Y0300967D01*
X0666423Y0300865D01*
X0666653Y0300757D01*
X0666881Y0300644D01*
X0667106Y0300525D01*
X0667328Y0300401D01*
X0667547Y0300271D01*
X0667763Y0300137D01*
X0667976Y0299997D01*
X0668185Y0299851D01*
X0668390Y0299701D01*
X0668592Y0299546D01*
X0550842Y0161300D02*
X0470842Y0161300D01*
X0470842Y0091300D01*
X0550842Y0091300D01*
X0550842Y0161300D01*
X0570842Y0136300D02*
X0675842Y0136300D01*
X0676084Y0136297D01*
X0676325Y0136288D01*
X0676566Y0136274D01*
X0676807Y0136253D01*
X0677047Y0136227D01*
X0677287Y0136195D01*
X0677526Y0136157D01*
X0677763Y0136114D01*
X0678000Y0136064D01*
X0678235Y0136009D01*
X0678469Y0135949D01*
X0678701Y0135882D01*
X0678932Y0135811D01*
X0679161Y0135733D01*
X0679388Y0135650D01*
X0679613Y0135562D01*
X0679836Y0135468D01*
X0680056Y0135369D01*
X0680274Y0135264D01*
X0680489Y0135155D01*
X0680702Y0135040D01*
X0680912Y0134920D01*
X0681118Y0134795D01*
X0681322Y0134665D01*
X0681523Y0134530D01*
X0681720Y0134390D01*
X0681914Y0134246D01*
X0682104Y0134097D01*
X0682290Y0133943D01*
X0682473Y0133785D01*
X0682652Y0133623D01*
X0682827Y0133456D01*
X0682998Y0133285D01*
X0683165Y0133110D01*
X0683327Y0132931D01*
X0683485Y0132748D01*
X0683639Y0132562D01*
X0683788Y0132372D01*
X0683932Y0132178D01*
X0684072Y0131981D01*
X0684207Y0131780D01*
X0684337Y0131576D01*
X0684462Y0131370D01*
X0684582Y0131160D01*
X0684697Y0130947D01*
X0684806Y0130732D01*
X0684911Y0130514D01*
X0685010Y0130294D01*
X0685104Y0130071D01*
X0685192Y0129846D01*
X0685275Y0129619D01*
X0685353Y0129390D01*
X0685424Y0129159D01*
X0685491Y0128927D01*
X0685551Y0128693D01*
X0685606Y0128458D01*
X0685656Y0128221D01*
X0685699Y0127984D01*
X0685737Y0127745D01*
X0685769Y0127505D01*
X0685795Y0127265D01*
X0685816Y0127024D01*
X0685830Y0126783D01*
X0685839Y0126542D01*
X0685842Y0126300D01*
X0685842Y0021300D01*
X0685839Y0021058D01*
X0685830Y0020817D01*
X0685816Y0020576D01*
X0685795Y0020335D01*
X0685769Y0020095D01*
X0685737Y0019855D01*
X0685699Y0019616D01*
X0685656Y0019379D01*
X0685606Y0019142D01*
X0685551Y0018907D01*
X0685491Y0018673D01*
X0685424Y0018441D01*
X0685353Y0018210D01*
X0685275Y0017981D01*
X0685192Y0017754D01*
X0685104Y0017529D01*
X0685010Y0017306D01*
X0684911Y0017086D01*
X0684806Y0016868D01*
X0684697Y0016653D01*
X0684582Y0016440D01*
X0684462Y0016230D01*
X0684337Y0016024D01*
X0684207Y0015820D01*
X0684072Y0015619D01*
X0683932Y0015422D01*
X0683788Y0015228D01*
X0683639Y0015038D01*
X0683485Y0014852D01*
X0683327Y0014669D01*
X0683165Y0014490D01*
X0682998Y0014315D01*
X0682827Y0014144D01*
X0682652Y0013977D01*
X0682473Y0013815D01*
X0682290Y0013657D01*
X0682104Y0013503D01*
X0681914Y0013354D01*
X0681720Y0013210D01*
X0681523Y0013070D01*
X0681322Y0012935D01*
X0681118Y0012805D01*
X0680912Y0012680D01*
X0680702Y0012560D01*
X0680489Y0012445D01*
X0680274Y0012336D01*
X0680056Y0012231D01*
X0679836Y0012132D01*
X0679613Y0012038D01*
X0679388Y0011950D01*
X0679161Y0011867D01*
X0678932Y0011789D01*
X0678701Y0011718D01*
X0678469Y0011651D01*
X0678235Y0011591D01*
X0678000Y0011536D01*
X0677763Y0011486D01*
X0677526Y0011443D01*
X0677287Y0011405D01*
X0677047Y0011373D01*
X0676807Y0011347D01*
X0676566Y0011326D01*
X0676325Y0011312D01*
X0676084Y0011303D01*
X0675842Y0011300D01*
X0570842Y0011300D01*
X0570600Y0011303D01*
X0570359Y0011312D01*
X0570118Y0011326D01*
X0569877Y0011347D01*
X0569637Y0011373D01*
X0569397Y0011405D01*
X0569158Y0011443D01*
X0568921Y0011486D01*
X0568684Y0011536D01*
X0568449Y0011591D01*
X0568215Y0011651D01*
X0567983Y0011718D01*
X0567752Y0011789D01*
X0567523Y0011867D01*
X0567296Y0011950D01*
X0567071Y0012038D01*
X0566848Y0012132D01*
X0566628Y0012231D01*
X0566410Y0012336D01*
X0566195Y0012445D01*
X0565982Y0012560D01*
X0565772Y0012680D01*
X0565566Y0012805D01*
X0565362Y0012935D01*
X0565161Y0013070D01*
X0564964Y0013210D01*
X0564770Y0013354D01*
X0564580Y0013503D01*
X0564394Y0013657D01*
X0564211Y0013815D01*
X0564032Y0013977D01*
X0563857Y0014144D01*
X0563686Y0014315D01*
X0563519Y0014490D01*
X0563357Y0014669D01*
X0563199Y0014852D01*
X0563045Y0015038D01*
X0562896Y0015228D01*
X0562752Y0015422D01*
X0562612Y0015619D01*
X0562477Y0015820D01*
X0562347Y0016024D01*
X0562222Y0016230D01*
X0562102Y0016440D01*
X0561987Y0016653D01*
X0561878Y0016868D01*
X0561773Y0017086D01*
X0561674Y0017306D01*
X0561580Y0017529D01*
X0561492Y0017754D01*
X0561409Y0017981D01*
X0561331Y0018210D01*
X0561260Y0018441D01*
X0561193Y0018673D01*
X0561133Y0018907D01*
X0561078Y0019142D01*
X0561028Y0019379D01*
X0560985Y0019616D01*
X0560947Y0019855D01*
X0560915Y0020095D01*
X0560889Y0020335D01*
X0560868Y0020576D01*
X0560854Y0020817D01*
X0560845Y0021058D01*
X0560842Y0021300D01*
X0560842Y0126300D01*
X0560845Y0126542D01*
X0560854Y0126783D01*
X0560868Y0127024D01*
X0560889Y0127265D01*
X0560915Y0127505D01*
X0560947Y0127745D01*
X0560985Y0127984D01*
X0561028Y0128221D01*
X0561078Y0128458D01*
X0561133Y0128693D01*
X0561193Y0128927D01*
X0561260Y0129159D01*
X0561331Y0129390D01*
X0561409Y0129619D01*
X0561492Y0129846D01*
X0561580Y0130071D01*
X0561674Y0130294D01*
X0561773Y0130514D01*
X0561878Y0130732D01*
X0561987Y0130947D01*
X0562102Y0131160D01*
X0562222Y0131370D01*
X0562347Y0131576D01*
X0562477Y0131780D01*
X0562612Y0131981D01*
X0562752Y0132178D01*
X0562896Y0132372D01*
X0563045Y0132562D01*
X0563199Y0132748D01*
X0563357Y0132931D01*
X0563519Y0133110D01*
X0563686Y0133285D01*
X0563857Y0133456D01*
X0564032Y0133623D01*
X0564211Y0133785D01*
X0564394Y0133943D01*
X0564580Y0134097D01*
X0564770Y0134246D01*
X0564964Y0134390D01*
X0565161Y0134530D01*
X0565362Y0134665D01*
X0565566Y0134795D01*
X0565772Y0134920D01*
X0565982Y0135040D01*
X0566195Y0135155D01*
X0566410Y0135264D01*
X0566628Y0135369D01*
X0566848Y0135468D01*
X0567071Y0135562D01*
X0567296Y0135650D01*
X0567523Y0135733D01*
X0567752Y0135811D01*
X0567983Y0135882D01*
X0568215Y0135949D01*
X0568449Y0136009D01*
X0568684Y0136064D01*
X0568921Y0136114D01*
X0569158Y0136157D01*
X0569397Y0136195D01*
X0569637Y0136227D01*
X0569877Y0136253D01*
X0570118Y0136274D01*
X0570359Y0136288D01*
X0570600Y0136297D01*
X0570842Y0136300D01*
X0550842Y0081300D02*
X0470842Y0081300D01*
X0470842Y0011300D01*
X0550842Y0011300D01*
X0550842Y0081300D01*
D14*
X0550842Y0291300D03*
X0510842Y0291300D03*
D15*
X0571042Y0184822D02*
X0571042Y0182778D01*
X0571044Y0182708D01*
X0571050Y0182637D01*
X0571059Y0182568D01*
X0571073Y0182499D01*
X0571090Y0182430D01*
X0571111Y0182363D01*
X0571136Y0182297D01*
X0571164Y0182233D01*
X0571196Y0182170D01*
X0571231Y0182109D01*
X0571270Y0182050D01*
X0571311Y0181993D01*
X0571356Y0181939D01*
X0571404Y0181887D01*
X0571454Y0181838D01*
X0571508Y0181791D01*
X0571563Y0181748D01*
X0571621Y0181708D01*
X0571681Y0181671D01*
X0571743Y0181638D01*
X0571807Y0181608D01*
X0571872Y0181581D01*
X0571938Y0181558D01*
X0572006Y0181539D01*
X0572075Y0181524D01*
X0572144Y0181512D01*
X0572214Y0181504D01*
X0572285Y0181500D01*
X0572355Y0181500D01*
X0572426Y0181504D01*
X0572496Y0181512D01*
X0572565Y0181524D01*
X0572634Y0181539D01*
X0572702Y0181558D01*
X0572768Y0181581D01*
X0572833Y0181608D01*
X0572897Y0181638D01*
X0572959Y0181671D01*
X0573019Y0181708D01*
X0573077Y0181748D01*
X0573132Y0181791D01*
X0573186Y0181838D01*
X0573236Y0181887D01*
X0573284Y0181939D01*
X0573329Y0181993D01*
X0573370Y0182050D01*
X0573409Y0182109D01*
X0573444Y0182170D01*
X0573476Y0182233D01*
X0573504Y0182297D01*
X0573529Y0182363D01*
X0573550Y0182430D01*
X0573567Y0182499D01*
X0573581Y0182568D01*
X0573590Y0182637D01*
X0573596Y0182708D01*
X0573598Y0182778D01*
X0573597Y0182778D02*
X0573597Y0184822D01*
X0573598Y0184822D02*
X0573596Y0184892D01*
X0573590Y0184963D01*
X0573581Y0185032D01*
X0573567Y0185101D01*
X0573550Y0185170D01*
X0573529Y0185237D01*
X0573504Y0185303D01*
X0573476Y0185367D01*
X0573444Y0185430D01*
X0573409Y0185491D01*
X0573370Y0185550D01*
X0573329Y0185607D01*
X0573284Y0185661D01*
X0573236Y0185713D01*
X0573186Y0185762D01*
X0573132Y0185809D01*
X0573077Y0185852D01*
X0573019Y0185892D01*
X0572959Y0185929D01*
X0572897Y0185962D01*
X0572833Y0185992D01*
X0572768Y0186019D01*
X0572702Y0186042D01*
X0572634Y0186061D01*
X0572565Y0186076D01*
X0572496Y0186088D01*
X0572426Y0186096D01*
X0572355Y0186100D01*
X0572285Y0186100D01*
X0572214Y0186096D01*
X0572144Y0186088D01*
X0572075Y0186076D01*
X0572006Y0186061D01*
X0571938Y0186042D01*
X0571872Y0186019D01*
X0571807Y0185992D01*
X0571743Y0185962D01*
X0571681Y0185929D01*
X0571621Y0185892D01*
X0571563Y0185852D01*
X0571508Y0185809D01*
X0571454Y0185762D01*
X0571404Y0185713D01*
X0571356Y0185661D01*
X0571311Y0185607D01*
X0571270Y0185550D01*
X0571231Y0185491D01*
X0571196Y0185430D01*
X0571164Y0185367D01*
X0571136Y0185303D01*
X0571111Y0185237D01*
X0571090Y0185170D01*
X0571073Y0185101D01*
X0571059Y0185032D01*
X0571050Y0184963D01*
X0571044Y0184892D01*
X0571042Y0184822D01*
X0573086Y0182522D02*
X0574108Y0181500D01*
X0576090Y0181500D02*
X0576857Y0183544D01*
X0577624Y0181500D01*
X0578390Y0184567D01*
X0580157Y0184567D02*
X0580157Y0181500D01*
X0581957Y0181500D02*
X0581957Y0184567D01*
X0582085Y0185844D02*
X0581829Y0185844D01*
X0581829Y0186100D01*
X0582085Y0186100D01*
X0582085Y0185844D01*
X0580285Y0185844D02*
X0580029Y0185844D01*
X0580029Y0186100D01*
X0580285Y0186100D01*
X0580285Y0185844D01*
X0583790Y0183800D02*
X0583790Y0182267D01*
X0583792Y0182212D01*
X0583798Y0182158D01*
X0583808Y0182104D01*
X0583821Y0182051D01*
X0583838Y0181999D01*
X0583859Y0181948D01*
X0583884Y0181899D01*
X0583912Y0181852D01*
X0583943Y0181807D01*
X0583977Y0181765D01*
X0584015Y0181725D01*
X0584055Y0181687D01*
X0584097Y0181653D01*
X0584142Y0181622D01*
X0584189Y0181594D01*
X0584238Y0181569D01*
X0584289Y0181548D01*
X0584341Y0181531D01*
X0584394Y0181518D01*
X0584448Y0181508D01*
X0584502Y0181502D01*
X0584557Y0181500D01*
X0585579Y0181500D01*
X0583790Y0183800D02*
X0583792Y0183855D01*
X0583798Y0183909D01*
X0583808Y0183963D01*
X0583821Y0184016D01*
X0583838Y0184068D01*
X0583859Y0184119D01*
X0583884Y0184168D01*
X0583912Y0184215D01*
X0583943Y0184260D01*
X0583977Y0184302D01*
X0584015Y0184342D01*
X0584055Y0184380D01*
X0584097Y0184414D01*
X0584142Y0184445D01*
X0584189Y0184473D01*
X0584238Y0184498D01*
X0584289Y0184519D01*
X0584341Y0184536D01*
X0584394Y0184549D01*
X0584448Y0184559D01*
X0584502Y0184565D01*
X0584557Y0184567D01*
X0585579Y0184567D01*
X0589379Y0186100D02*
X0591935Y0186100D01*
X0590657Y0186100D02*
X0590657Y0181500D01*
X0593507Y0181500D02*
X0593507Y0184567D01*
X0593635Y0185844D02*
X0593379Y0185844D01*
X0593379Y0186100D01*
X0593635Y0186100D01*
X0593635Y0185844D01*
X0594954Y0184567D02*
X0596487Y0184567D01*
X0595465Y0186100D02*
X0595465Y0182267D01*
X0595467Y0182212D01*
X0595473Y0182158D01*
X0595483Y0182104D01*
X0595496Y0182051D01*
X0595513Y0181999D01*
X0595534Y0181948D01*
X0595559Y0181899D01*
X0595587Y0181852D01*
X0595618Y0181807D01*
X0595652Y0181765D01*
X0595690Y0181725D01*
X0595730Y0181687D01*
X0595772Y0181653D01*
X0595817Y0181622D01*
X0595864Y0181594D01*
X0595913Y0181569D01*
X0595964Y0181548D01*
X0596016Y0181531D01*
X0596069Y0181518D01*
X0596123Y0181508D01*
X0596177Y0181502D01*
X0596232Y0181500D01*
X0596487Y0181500D01*
X0599056Y0181500D02*
X0600206Y0181500D01*
X0600206Y0183800D01*
X0600206Y0183289D02*
X0599056Y0183289D01*
X0600206Y0183800D02*
X0600204Y0183855D01*
X0600198Y0183909D01*
X0600188Y0183963D01*
X0600175Y0184016D01*
X0600158Y0184068D01*
X0600137Y0184119D01*
X0600112Y0184168D01*
X0600084Y0184215D01*
X0600053Y0184260D01*
X0600019Y0184302D01*
X0599981Y0184342D01*
X0599941Y0184380D01*
X0599899Y0184414D01*
X0599854Y0184445D01*
X0599807Y0184473D01*
X0599758Y0184498D01*
X0599707Y0184519D01*
X0599655Y0184536D01*
X0599602Y0184549D01*
X0599548Y0184559D01*
X0599494Y0184565D01*
X0599439Y0184567D01*
X0598417Y0184567D01*
X0599056Y0183288D02*
X0598998Y0183286D01*
X0598939Y0183280D01*
X0598882Y0183271D01*
X0598825Y0183258D01*
X0598769Y0183241D01*
X0598714Y0183220D01*
X0598661Y0183196D01*
X0598609Y0183168D01*
X0598559Y0183137D01*
X0598512Y0183103D01*
X0598467Y0183066D01*
X0598424Y0183026D01*
X0598384Y0182983D01*
X0598347Y0182938D01*
X0598313Y0182891D01*
X0598282Y0182841D01*
X0598254Y0182789D01*
X0598230Y0182736D01*
X0598209Y0182681D01*
X0598192Y0182625D01*
X0598179Y0182568D01*
X0598170Y0182511D01*
X0598164Y0182452D01*
X0598162Y0182394D01*
X0598164Y0182336D01*
X0598170Y0182277D01*
X0598179Y0182220D01*
X0598192Y0182163D01*
X0598209Y0182107D01*
X0598230Y0182052D01*
X0598254Y0181999D01*
X0598282Y0181947D01*
X0598313Y0181897D01*
X0598347Y0181850D01*
X0598384Y0181805D01*
X0598424Y0181762D01*
X0598467Y0181722D01*
X0598512Y0181685D01*
X0598559Y0181651D01*
X0598609Y0181620D01*
X0598661Y0181592D01*
X0598714Y0181568D01*
X0598769Y0181547D01*
X0598825Y0181530D01*
X0598882Y0181517D01*
X0598939Y0181508D01*
X0598998Y0181502D01*
X0599056Y0181500D01*
X0602385Y0181500D02*
X0602385Y0184567D01*
X0603662Y0184567D01*
X0603717Y0184565D01*
X0603771Y0184559D01*
X0603825Y0184549D01*
X0603878Y0184536D01*
X0603930Y0184519D01*
X0603981Y0184498D01*
X0604030Y0184473D01*
X0604077Y0184445D01*
X0604122Y0184414D01*
X0604164Y0184380D01*
X0604204Y0184342D01*
X0604242Y0184302D01*
X0604276Y0184260D01*
X0604307Y0184215D01*
X0604335Y0184168D01*
X0604360Y0184119D01*
X0604381Y0184068D01*
X0604398Y0184016D01*
X0604411Y0183963D01*
X0604421Y0183909D01*
X0604427Y0183855D01*
X0604429Y0183800D01*
X0604429Y0181500D01*
X0608624Y0181500D02*
X0611690Y0186100D01*
X0613379Y0185078D02*
X0614657Y0186100D01*
X0614657Y0181500D01*
X0613379Y0181500D02*
X0615935Y0181500D01*
X0620052Y0182139D02*
X0620100Y0182243D01*
X0620146Y0182348D01*
X0620188Y0182454D01*
X0620227Y0182562D01*
X0620263Y0182671D01*
X0620295Y0182781D01*
X0620325Y0182892D01*
X0620350Y0183004D01*
X0620373Y0183116D01*
X0620392Y0183229D01*
X0620407Y0183343D01*
X0620419Y0183457D01*
X0620428Y0183571D01*
X0620433Y0183685D01*
X0620435Y0183800D01*
X0617879Y0183800D02*
X0617881Y0183915D01*
X0617886Y0184029D01*
X0617895Y0184143D01*
X0617907Y0184257D01*
X0617922Y0184371D01*
X0617941Y0184484D01*
X0617964Y0184596D01*
X0617989Y0184708D01*
X0618019Y0184819D01*
X0618051Y0184929D01*
X0618087Y0185038D01*
X0618126Y0185146D01*
X0618168Y0185252D01*
X0618214Y0185357D01*
X0618262Y0185461D01*
X0619157Y0186100D02*
X0619216Y0186098D01*
X0619274Y0186093D01*
X0619332Y0186084D01*
X0619389Y0186071D01*
X0619446Y0186055D01*
X0619501Y0186035D01*
X0619555Y0186012D01*
X0619607Y0185986D01*
X0619658Y0185956D01*
X0619707Y0185924D01*
X0619754Y0185888D01*
X0619798Y0185850D01*
X0619840Y0185809D01*
X0619879Y0185765D01*
X0619916Y0185719D01*
X0619949Y0185671D01*
X0619980Y0185621D01*
X0620007Y0185569D01*
X0620031Y0185516D01*
X0620052Y0185461D01*
X0620179Y0185078D02*
X0618135Y0182522D01*
X0619157Y0181500D02*
X0619216Y0181502D01*
X0619274Y0181507D01*
X0619332Y0181516D01*
X0619389Y0181529D01*
X0619446Y0181545D01*
X0619501Y0181565D01*
X0619555Y0181588D01*
X0619607Y0181614D01*
X0619658Y0181644D01*
X0619707Y0181676D01*
X0619754Y0181712D01*
X0619798Y0181750D01*
X0619840Y0181791D01*
X0619879Y0181835D01*
X0619916Y0181881D01*
X0619949Y0181929D01*
X0619980Y0181979D01*
X0620007Y0182031D01*
X0620031Y0182084D01*
X0620052Y0182139D01*
X0619157Y0181500D02*
X0619098Y0181502D01*
X0619040Y0181507D01*
X0618982Y0181516D01*
X0618925Y0181529D01*
X0618868Y0181545D01*
X0618813Y0181565D01*
X0618759Y0181588D01*
X0618707Y0181614D01*
X0618656Y0181644D01*
X0618607Y0181676D01*
X0618560Y0181712D01*
X0618516Y0181750D01*
X0618474Y0181791D01*
X0618435Y0181835D01*
X0618398Y0181881D01*
X0618365Y0181929D01*
X0618334Y0181979D01*
X0618307Y0182031D01*
X0618283Y0182084D01*
X0618262Y0182139D01*
X0620435Y0183800D02*
X0620433Y0183915D01*
X0620428Y0184029D01*
X0620419Y0184143D01*
X0620407Y0184257D01*
X0620392Y0184371D01*
X0620373Y0184484D01*
X0620350Y0184596D01*
X0620325Y0184708D01*
X0620295Y0184819D01*
X0620263Y0184929D01*
X0620227Y0185038D01*
X0620188Y0185146D01*
X0620146Y0185252D01*
X0620100Y0185357D01*
X0620052Y0185461D01*
X0619157Y0186100D02*
X0619098Y0186098D01*
X0619040Y0186093D01*
X0618982Y0186084D01*
X0618925Y0186071D01*
X0618868Y0186055D01*
X0618813Y0186035D01*
X0618759Y0186012D01*
X0618707Y0185986D01*
X0618656Y0185956D01*
X0618607Y0185924D01*
X0618560Y0185888D01*
X0618516Y0185850D01*
X0618474Y0185809D01*
X0618435Y0185765D01*
X0618398Y0185719D01*
X0618365Y0185671D01*
X0618334Y0185621D01*
X0618307Y0185569D01*
X0618283Y0185516D01*
X0618262Y0185461D01*
X0617879Y0183800D02*
X0617881Y0183685D01*
X0617886Y0183571D01*
X0617895Y0183457D01*
X0617907Y0183343D01*
X0617922Y0183229D01*
X0617941Y0183116D01*
X0617964Y0183004D01*
X0617989Y0182892D01*
X0618019Y0182781D01*
X0618051Y0182671D01*
X0618087Y0182562D01*
X0618126Y0182454D01*
X0618168Y0182348D01*
X0618214Y0182243D01*
X0618262Y0182139D01*
X0611690Y0181500D02*
X0608624Y0186100D01*
X0624996Y0186100D02*
X0624996Y0181500D01*
X0626273Y0181500D01*
X0626343Y0181502D01*
X0626414Y0181508D01*
X0626483Y0181517D01*
X0626552Y0181531D01*
X0626621Y0181548D01*
X0626688Y0181569D01*
X0626754Y0181594D01*
X0626818Y0181622D01*
X0626881Y0181654D01*
X0626942Y0181689D01*
X0627001Y0181728D01*
X0627058Y0181769D01*
X0627112Y0181814D01*
X0627164Y0181862D01*
X0627213Y0181912D01*
X0627260Y0181966D01*
X0627303Y0182021D01*
X0627343Y0182079D01*
X0627380Y0182139D01*
X0627413Y0182201D01*
X0627443Y0182265D01*
X0627470Y0182330D01*
X0627493Y0182396D01*
X0627512Y0182464D01*
X0627527Y0182533D01*
X0627539Y0182602D01*
X0627547Y0182672D01*
X0627551Y0182743D01*
X0627551Y0182813D01*
X0627547Y0182884D01*
X0627539Y0182954D01*
X0627527Y0183023D01*
X0627512Y0183092D01*
X0627493Y0183160D01*
X0627470Y0183226D01*
X0627443Y0183291D01*
X0627413Y0183355D01*
X0627380Y0183417D01*
X0627343Y0183477D01*
X0627303Y0183535D01*
X0627260Y0183590D01*
X0627213Y0183644D01*
X0627164Y0183694D01*
X0627112Y0183742D01*
X0627058Y0183787D01*
X0627001Y0183828D01*
X0626942Y0183867D01*
X0626881Y0183902D01*
X0626818Y0183934D01*
X0626754Y0183962D01*
X0626688Y0183987D01*
X0626621Y0184008D01*
X0626552Y0184025D01*
X0626483Y0184039D01*
X0626414Y0184048D01*
X0626343Y0184054D01*
X0626273Y0184056D01*
X0624996Y0184056D01*
X0626273Y0184056D02*
X0626336Y0184058D01*
X0626399Y0184064D01*
X0626461Y0184073D01*
X0626522Y0184087D01*
X0626583Y0184104D01*
X0626642Y0184125D01*
X0626700Y0184150D01*
X0626757Y0184178D01*
X0626811Y0184209D01*
X0626863Y0184244D01*
X0626914Y0184282D01*
X0626962Y0184323D01*
X0627007Y0184367D01*
X0627049Y0184413D01*
X0627089Y0184462D01*
X0627125Y0184513D01*
X0627158Y0184567D01*
X0627188Y0184622D01*
X0627214Y0184680D01*
X0627237Y0184738D01*
X0627256Y0184798D01*
X0627271Y0184859D01*
X0627283Y0184921D01*
X0627291Y0184984D01*
X0627295Y0185047D01*
X0627295Y0185109D01*
X0627291Y0185172D01*
X0627283Y0185235D01*
X0627271Y0185297D01*
X0627256Y0185358D01*
X0627237Y0185418D01*
X0627214Y0185476D01*
X0627188Y0185534D01*
X0627158Y0185589D01*
X0627125Y0185643D01*
X0627089Y0185694D01*
X0627049Y0185743D01*
X0627007Y0185789D01*
X0626962Y0185833D01*
X0626914Y0185874D01*
X0626863Y0185912D01*
X0626811Y0185947D01*
X0626757Y0185978D01*
X0626700Y0186006D01*
X0626642Y0186031D01*
X0626583Y0186052D01*
X0626522Y0186069D01*
X0626461Y0186083D01*
X0626399Y0186092D01*
X0626336Y0186098D01*
X0626273Y0186100D01*
X0624996Y0186100D01*
X0629411Y0184567D02*
X0629411Y0181500D01*
X0630944Y0184056D02*
X0630944Y0184567D01*
X0629411Y0184567D01*
X0632385Y0183544D02*
X0632385Y0182267D01*
X0632384Y0182267D02*
X0632386Y0182212D01*
X0632392Y0182158D01*
X0632402Y0182104D01*
X0632415Y0182051D01*
X0632432Y0181999D01*
X0632453Y0181948D01*
X0632478Y0181899D01*
X0632506Y0181852D01*
X0632537Y0181807D01*
X0632571Y0181765D01*
X0632609Y0181725D01*
X0632649Y0181687D01*
X0632691Y0181653D01*
X0632736Y0181622D01*
X0632783Y0181594D01*
X0632832Y0181569D01*
X0632883Y0181548D01*
X0632935Y0181531D01*
X0632988Y0181518D01*
X0633042Y0181508D01*
X0633096Y0181502D01*
X0633151Y0181500D01*
X0634429Y0181500D01*
X0634429Y0183033D02*
X0632385Y0183033D01*
X0632385Y0183544D02*
X0632387Y0183607D01*
X0632393Y0183670D01*
X0632402Y0183732D01*
X0632416Y0183793D01*
X0632433Y0183854D01*
X0632454Y0183913D01*
X0632479Y0183971D01*
X0632507Y0184028D01*
X0632538Y0184082D01*
X0632573Y0184134D01*
X0632611Y0184185D01*
X0632652Y0184233D01*
X0632696Y0184278D01*
X0632742Y0184320D01*
X0632791Y0184360D01*
X0632842Y0184396D01*
X0632896Y0184429D01*
X0632951Y0184459D01*
X0633009Y0184485D01*
X0633067Y0184508D01*
X0633127Y0184527D01*
X0633188Y0184542D01*
X0633250Y0184554D01*
X0633313Y0184562D01*
X0633376Y0184566D01*
X0633438Y0184566D01*
X0633501Y0184562D01*
X0633564Y0184554D01*
X0633626Y0184542D01*
X0633687Y0184527D01*
X0633747Y0184508D01*
X0633805Y0184485D01*
X0633863Y0184459D01*
X0633918Y0184429D01*
X0633972Y0184396D01*
X0634023Y0184360D01*
X0634072Y0184320D01*
X0634118Y0184278D01*
X0634162Y0184233D01*
X0634203Y0184185D01*
X0634241Y0184134D01*
X0634276Y0184082D01*
X0634307Y0184028D01*
X0634335Y0183971D01*
X0634360Y0183913D01*
X0634381Y0183854D01*
X0634398Y0183793D01*
X0634412Y0183732D01*
X0634421Y0183670D01*
X0634427Y0183607D01*
X0634429Y0183544D01*
X0634429Y0183033D01*
X0636517Y0184567D02*
X0637539Y0184567D01*
X0637594Y0184565D01*
X0637648Y0184559D01*
X0637702Y0184549D01*
X0637755Y0184536D01*
X0637807Y0184519D01*
X0637858Y0184498D01*
X0637907Y0184473D01*
X0637954Y0184445D01*
X0637999Y0184414D01*
X0638041Y0184380D01*
X0638081Y0184342D01*
X0638119Y0184302D01*
X0638153Y0184260D01*
X0638184Y0184215D01*
X0638212Y0184168D01*
X0638237Y0184119D01*
X0638258Y0184068D01*
X0638275Y0184016D01*
X0638288Y0183963D01*
X0638298Y0183909D01*
X0638304Y0183855D01*
X0638306Y0183800D01*
X0638306Y0181500D01*
X0637156Y0181500D01*
X0637098Y0181502D01*
X0637039Y0181508D01*
X0636982Y0181517D01*
X0636925Y0181530D01*
X0636869Y0181547D01*
X0636814Y0181568D01*
X0636761Y0181592D01*
X0636709Y0181620D01*
X0636659Y0181651D01*
X0636612Y0181685D01*
X0636567Y0181722D01*
X0636524Y0181762D01*
X0636484Y0181805D01*
X0636447Y0181850D01*
X0636413Y0181897D01*
X0636382Y0181947D01*
X0636354Y0181999D01*
X0636330Y0182052D01*
X0636309Y0182107D01*
X0636292Y0182163D01*
X0636279Y0182220D01*
X0636270Y0182277D01*
X0636264Y0182336D01*
X0636262Y0182394D01*
X0636264Y0182452D01*
X0636270Y0182511D01*
X0636279Y0182568D01*
X0636292Y0182625D01*
X0636309Y0182681D01*
X0636330Y0182736D01*
X0636354Y0182789D01*
X0636382Y0182841D01*
X0636413Y0182891D01*
X0636447Y0182938D01*
X0636484Y0182983D01*
X0636524Y0183026D01*
X0636567Y0183066D01*
X0636612Y0183103D01*
X0636659Y0183137D01*
X0636709Y0183168D01*
X0636761Y0183196D01*
X0636814Y0183220D01*
X0636869Y0183241D01*
X0636925Y0183258D01*
X0636982Y0183271D01*
X0637039Y0183280D01*
X0637098Y0183286D01*
X0637156Y0183288D01*
X0637156Y0183289D02*
X0638306Y0183289D01*
X0640538Y0183033D02*
X0642582Y0184567D01*
X0641432Y0183672D02*
X0642582Y0181500D01*
X0644235Y0182522D02*
X0644235Y0183544D01*
X0644237Y0183607D01*
X0644243Y0183670D01*
X0644252Y0183732D01*
X0644266Y0183793D01*
X0644283Y0183854D01*
X0644304Y0183913D01*
X0644329Y0183971D01*
X0644357Y0184028D01*
X0644388Y0184082D01*
X0644423Y0184134D01*
X0644461Y0184185D01*
X0644502Y0184233D01*
X0644546Y0184278D01*
X0644592Y0184320D01*
X0644641Y0184360D01*
X0644692Y0184396D01*
X0644746Y0184429D01*
X0644801Y0184459D01*
X0644859Y0184485D01*
X0644917Y0184508D01*
X0644977Y0184527D01*
X0645038Y0184542D01*
X0645100Y0184554D01*
X0645163Y0184562D01*
X0645226Y0184566D01*
X0645288Y0184566D01*
X0645351Y0184562D01*
X0645414Y0184554D01*
X0645476Y0184542D01*
X0645537Y0184527D01*
X0645597Y0184508D01*
X0645655Y0184485D01*
X0645713Y0184459D01*
X0645768Y0184429D01*
X0645822Y0184396D01*
X0645873Y0184360D01*
X0645922Y0184320D01*
X0645968Y0184278D01*
X0646012Y0184233D01*
X0646053Y0184185D01*
X0646091Y0184134D01*
X0646126Y0184082D01*
X0646157Y0184028D01*
X0646185Y0183971D01*
X0646210Y0183913D01*
X0646231Y0183854D01*
X0646248Y0183793D01*
X0646262Y0183732D01*
X0646271Y0183670D01*
X0646277Y0183607D01*
X0646279Y0183544D01*
X0646279Y0182522D01*
X0646277Y0182459D01*
X0646271Y0182396D01*
X0646262Y0182334D01*
X0646248Y0182273D01*
X0646231Y0182212D01*
X0646210Y0182153D01*
X0646185Y0182095D01*
X0646157Y0182038D01*
X0646126Y0181984D01*
X0646091Y0181932D01*
X0646053Y0181881D01*
X0646012Y0181833D01*
X0645968Y0181788D01*
X0645922Y0181746D01*
X0645873Y0181706D01*
X0645822Y0181670D01*
X0645768Y0181637D01*
X0645713Y0181607D01*
X0645655Y0181581D01*
X0645597Y0181558D01*
X0645537Y0181539D01*
X0645476Y0181524D01*
X0645414Y0181512D01*
X0645351Y0181504D01*
X0645288Y0181500D01*
X0645226Y0181500D01*
X0645163Y0181504D01*
X0645100Y0181512D01*
X0645038Y0181524D01*
X0644977Y0181539D01*
X0644917Y0181558D01*
X0644859Y0181581D01*
X0644801Y0181607D01*
X0644746Y0181637D01*
X0644692Y0181670D01*
X0644641Y0181706D01*
X0644592Y0181746D01*
X0644546Y0181788D01*
X0644502Y0181833D01*
X0644461Y0181881D01*
X0644423Y0181932D01*
X0644388Y0181984D01*
X0644357Y0182038D01*
X0644329Y0182095D01*
X0644304Y0182153D01*
X0644283Y0182212D01*
X0644266Y0182273D01*
X0644252Y0182334D01*
X0644243Y0182396D01*
X0644237Y0182459D01*
X0644235Y0182522D01*
X0640538Y0181500D02*
X0640538Y0186100D01*
X0648285Y0184567D02*
X0648285Y0182267D01*
X0648284Y0182267D02*
X0648286Y0182212D01*
X0648292Y0182158D01*
X0648302Y0182104D01*
X0648315Y0182051D01*
X0648332Y0181999D01*
X0648353Y0181948D01*
X0648378Y0181899D01*
X0648406Y0181852D01*
X0648437Y0181807D01*
X0648471Y0181765D01*
X0648509Y0181725D01*
X0648549Y0181687D01*
X0648591Y0181653D01*
X0648636Y0181622D01*
X0648683Y0181594D01*
X0648732Y0181569D01*
X0648783Y0181548D01*
X0648835Y0181531D01*
X0648888Y0181518D01*
X0648942Y0181508D01*
X0648996Y0181502D01*
X0649051Y0181500D01*
X0650329Y0181500D01*
X0650329Y0184567D01*
X0651954Y0184567D02*
X0653487Y0184567D01*
X0652465Y0186100D02*
X0652465Y0182267D01*
X0652467Y0182212D01*
X0652473Y0182158D01*
X0652483Y0182104D01*
X0652496Y0182051D01*
X0652513Y0181999D01*
X0652534Y0181948D01*
X0652559Y0181899D01*
X0652587Y0181852D01*
X0652618Y0181807D01*
X0652652Y0181765D01*
X0652690Y0181725D01*
X0652730Y0181687D01*
X0652772Y0181653D01*
X0652817Y0181622D01*
X0652864Y0181594D01*
X0652913Y0181569D01*
X0652964Y0181548D01*
X0653016Y0181531D01*
X0653069Y0181518D01*
X0653123Y0181508D01*
X0653177Y0181502D01*
X0653232Y0181500D01*
X0653487Y0181500D01*
X0576090Y0181500D02*
X0575324Y0184567D01*
X0523325Y0156100D02*
X0524858Y0151500D01*
X0524475Y0152650D02*
X0522175Y0152650D01*
X0521792Y0151500D02*
X0523325Y0156100D01*
X0519042Y0156100D02*
X0517764Y0156100D01*
X0517764Y0151500D01*
X0519042Y0151500D01*
X0519112Y0151502D01*
X0519183Y0151508D01*
X0519252Y0151517D01*
X0519321Y0151531D01*
X0519390Y0151548D01*
X0519457Y0151569D01*
X0519523Y0151594D01*
X0519587Y0151622D01*
X0519650Y0151654D01*
X0519711Y0151689D01*
X0519770Y0151728D01*
X0519827Y0151769D01*
X0519881Y0151814D01*
X0519933Y0151862D01*
X0519982Y0151912D01*
X0520029Y0151966D01*
X0520072Y0152021D01*
X0520112Y0152079D01*
X0520149Y0152139D01*
X0520182Y0152201D01*
X0520212Y0152265D01*
X0520239Y0152330D01*
X0520262Y0152396D01*
X0520281Y0152464D01*
X0520296Y0152533D01*
X0520308Y0152602D01*
X0520316Y0152672D01*
X0520320Y0152743D01*
X0520320Y0152813D01*
X0520316Y0152884D01*
X0520308Y0152954D01*
X0520296Y0153023D01*
X0520281Y0153092D01*
X0520262Y0153160D01*
X0520239Y0153226D01*
X0520212Y0153291D01*
X0520182Y0153355D01*
X0520149Y0153417D01*
X0520112Y0153477D01*
X0520072Y0153535D01*
X0520029Y0153590D01*
X0519982Y0153644D01*
X0519933Y0153694D01*
X0519881Y0153742D01*
X0519827Y0153787D01*
X0519770Y0153828D01*
X0519711Y0153867D01*
X0519650Y0153902D01*
X0519587Y0153934D01*
X0519523Y0153962D01*
X0519457Y0153987D01*
X0519390Y0154008D01*
X0519321Y0154025D01*
X0519252Y0154039D01*
X0519183Y0154048D01*
X0519112Y0154054D01*
X0519042Y0154056D01*
X0517764Y0154056D01*
X0519042Y0154056D02*
X0519105Y0154058D01*
X0519168Y0154064D01*
X0519230Y0154073D01*
X0519291Y0154087D01*
X0519352Y0154104D01*
X0519411Y0154125D01*
X0519469Y0154150D01*
X0519526Y0154178D01*
X0519580Y0154209D01*
X0519632Y0154244D01*
X0519683Y0154282D01*
X0519731Y0154323D01*
X0519776Y0154367D01*
X0519818Y0154413D01*
X0519858Y0154462D01*
X0519894Y0154513D01*
X0519927Y0154567D01*
X0519957Y0154622D01*
X0519983Y0154680D01*
X0520006Y0154738D01*
X0520025Y0154798D01*
X0520040Y0154859D01*
X0520052Y0154921D01*
X0520060Y0154984D01*
X0520064Y0155047D01*
X0520064Y0155109D01*
X0520060Y0155172D01*
X0520052Y0155235D01*
X0520040Y0155297D01*
X0520025Y0155358D01*
X0520006Y0155418D01*
X0519983Y0155476D01*
X0519957Y0155534D01*
X0519927Y0155589D01*
X0519894Y0155643D01*
X0519858Y0155694D01*
X0519818Y0155743D01*
X0519776Y0155789D01*
X0519731Y0155833D01*
X0519683Y0155874D01*
X0519632Y0155912D01*
X0519580Y0155947D01*
X0519526Y0155978D01*
X0519469Y0156006D01*
X0519411Y0156031D01*
X0519352Y0156052D01*
X0519291Y0156069D01*
X0519230Y0156083D01*
X0519168Y0156092D01*
X0519105Y0156098D01*
X0519042Y0156100D01*
X0515220Y0154056D02*
X0513047Y0151500D01*
X0515603Y0151500D01*
X0513048Y0155078D02*
X0513073Y0155148D01*
X0513101Y0155217D01*
X0513132Y0155284D01*
X0513167Y0155350D01*
X0513205Y0155413D01*
X0513247Y0155475D01*
X0513291Y0155535D01*
X0513338Y0155592D01*
X0513388Y0155647D01*
X0513441Y0155699D01*
X0513497Y0155749D01*
X0513555Y0155795D01*
X0513615Y0155839D01*
X0513677Y0155880D01*
X0513741Y0155917D01*
X0513807Y0155951D01*
X0513875Y0155982D01*
X0513944Y0156009D01*
X0514014Y0156033D01*
X0514085Y0156054D01*
X0514158Y0156070D01*
X0514231Y0156083D01*
X0514305Y0156093D01*
X0514379Y0156098D01*
X0514453Y0156100D01*
X0514520Y0156098D01*
X0514587Y0156092D01*
X0514653Y0156083D01*
X0514718Y0156069D01*
X0514783Y0156052D01*
X0514846Y0156031D01*
X0514908Y0156006D01*
X0514969Y0155978D01*
X0515028Y0155946D01*
X0515085Y0155911D01*
X0515140Y0155872D01*
X0515192Y0155831D01*
X0515242Y0155786D01*
X0515289Y0155739D01*
X0515334Y0155689D01*
X0515375Y0155637D01*
X0515414Y0155582D01*
X0515449Y0155525D01*
X0515481Y0155466D01*
X0515509Y0155405D01*
X0515534Y0155343D01*
X0515555Y0155280D01*
X0515572Y0155215D01*
X0515586Y0155150D01*
X0515595Y0155084D01*
X0515601Y0155017D01*
X0515603Y0154950D01*
X0515601Y0154883D01*
X0515596Y0154817D01*
X0515587Y0154751D01*
X0515574Y0154685D01*
X0515558Y0154621D01*
X0515539Y0154557D01*
X0515516Y0154494D01*
X0515490Y0154433D01*
X0515460Y0154373D01*
X0515427Y0154315D01*
X0515392Y0154259D01*
X0515353Y0154205D01*
X0515311Y0154153D01*
X0515267Y0154103D01*
X0515220Y0154056D01*
X0511103Y0151500D02*
X0508547Y0151500D01*
X0509825Y0151500D02*
X0509825Y0156100D01*
X0508547Y0155078D01*
X0506558Y0153289D02*
X0503492Y0153289D01*
X0500481Y0154056D02*
X0499458Y0154056D01*
X0494830Y0152139D02*
X0494782Y0152243D01*
X0494736Y0152348D01*
X0494694Y0152454D01*
X0494655Y0152562D01*
X0494619Y0152671D01*
X0494587Y0152781D01*
X0494557Y0152892D01*
X0494532Y0153004D01*
X0494509Y0153116D01*
X0494490Y0153229D01*
X0494475Y0153343D01*
X0494463Y0153457D01*
X0494454Y0153571D01*
X0494449Y0153685D01*
X0494447Y0153800D01*
X0497003Y0153800D02*
X0497001Y0153915D01*
X0496996Y0154029D01*
X0496987Y0154143D01*
X0496975Y0154257D01*
X0496960Y0154371D01*
X0496941Y0154484D01*
X0496918Y0154596D01*
X0496893Y0154708D01*
X0496863Y0154819D01*
X0496831Y0154929D01*
X0496795Y0155038D01*
X0496756Y0155146D01*
X0496714Y0155252D01*
X0496668Y0155357D01*
X0496620Y0155461D01*
X0496747Y0155078D02*
X0494703Y0152522D01*
X0495725Y0151500D02*
X0495784Y0151502D01*
X0495842Y0151507D01*
X0495900Y0151516D01*
X0495957Y0151529D01*
X0496014Y0151545D01*
X0496069Y0151565D01*
X0496123Y0151588D01*
X0496175Y0151614D01*
X0496226Y0151644D01*
X0496275Y0151676D01*
X0496322Y0151712D01*
X0496366Y0151750D01*
X0496408Y0151791D01*
X0496447Y0151835D01*
X0496484Y0151881D01*
X0496517Y0151929D01*
X0496548Y0151979D01*
X0496575Y0152031D01*
X0496599Y0152084D01*
X0496620Y0152139D01*
X0495725Y0151500D02*
X0495666Y0151502D01*
X0495608Y0151507D01*
X0495550Y0151516D01*
X0495493Y0151529D01*
X0495436Y0151545D01*
X0495381Y0151565D01*
X0495327Y0151588D01*
X0495275Y0151614D01*
X0495224Y0151644D01*
X0495175Y0151676D01*
X0495128Y0151712D01*
X0495084Y0151750D01*
X0495042Y0151791D01*
X0495003Y0151835D01*
X0494966Y0151881D01*
X0494933Y0151929D01*
X0494902Y0151979D01*
X0494875Y0152031D01*
X0494851Y0152084D01*
X0494830Y0152139D01*
X0496620Y0152139D02*
X0496668Y0152243D01*
X0496714Y0152348D01*
X0496756Y0152454D01*
X0496795Y0152562D01*
X0496831Y0152671D01*
X0496863Y0152781D01*
X0496893Y0152892D01*
X0496918Y0153004D01*
X0496941Y0153116D01*
X0496960Y0153229D01*
X0496975Y0153343D01*
X0496987Y0153457D01*
X0496996Y0153571D01*
X0497001Y0153685D01*
X0497003Y0153800D01*
X0494447Y0153800D02*
X0494449Y0153915D01*
X0494454Y0154029D01*
X0494463Y0154143D01*
X0494475Y0154257D01*
X0494490Y0154371D01*
X0494509Y0154484D01*
X0494532Y0154596D01*
X0494557Y0154708D01*
X0494587Y0154819D01*
X0494619Y0154929D01*
X0494655Y0155038D01*
X0494694Y0155146D01*
X0494736Y0155252D01*
X0494782Y0155357D01*
X0494830Y0155461D01*
X0495725Y0156100D02*
X0495784Y0156098D01*
X0495842Y0156093D01*
X0495900Y0156084D01*
X0495957Y0156071D01*
X0496014Y0156055D01*
X0496069Y0156035D01*
X0496123Y0156012D01*
X0496175Y0155986D01*
X0496226Y0155956D01*
X0496275Y0155924D01*
X0496322Y0155888D01*
X0496366Y0155850D01*
X0496408Y0155809D01*
X0496447Y0155765D01*
X0496484Y0155719D01*
X0496517Y0155671D01*
X0496548Y0155621D01*
X0496575Y0155569D01*
X0496599Y0155516D01*
X0496620Y0155461D01*
X0495725Y0156100D02*
X0495666Y0156098D01*
X0495608Y0156093D01*
X0495550Y0156084D01*
X0495493Y0156071D01*
X0495436Y0156055D01*
X0495381Y0156035D01*
X0495327Y0156012D01*
X0495275Y0155986D01*
X0495224Y0155956D01*
X0495175Y0155924D01*
X0495128Y0155888D01*
X0495084Y0155850D01*
X0495042Y0155809D01*
X0495003Y0155765D01*
X0494966Y0155719D01*
X0494933Y0155671D01*
X0494902Y0155621D01*
X0494875Y0155569D01*
X0494851Y0155516D01*
X0494830Y0155461D01*
X0492247Y0155078D02*
X0492245Y0155015D01*
X0492239Y0154952D01*
X0492230Y0154890D01*
X0492216Y0154829D01*
X0492199Y0154768D01*
X0492178Y0154709D01*
X0492153Y0154651D01*
X0492125Y0154594D01*
X0492094Y0154540D01*
X0492059Y0154488D01*
X0492021Y0154437D01*
X0491980Y0154389D01*
X0491936Y0154344D01*
X0491890Y0154302D01*
X0491841Y0154262D01*
X0491790Y0154226D01*
X0491736Y0154193D01*
X0491681Y0154163D01*
X0491623Y0154137D01*
X0491565Y0154114D01*
X0491505Y0154095D01*
X0491444Y0154080D01*
X0491382Y0154068D01*
X0491319Y0154060D01*
X0491256Y0154056D01*
X0491194Y0154056D01*
X0491131Y0154060D01*
X0491068Y0154068D01*
X0491006Y0154080D01*
X0490945Y0154095D01*
X0490885Y0154114D01*
X0490827Y0154137D01*
X0490769Y0154163D01*
X0490714Y0154193D01*
X0490660Y0154226D01*
X0490609Y0154262D01*
X0490560Y0154302D01*
X0490514Y0154344D01*
X0490470Y0154389D01*
X0490429Y0154437D01*
X0490391Y0154488D01*
X0490356Y0154540D01*
X0490325Y0154594D01*
X0490297Y0154651D01*
X0490272Y0154709D01*
X0490251Y0154768D01*
X0490234Y0154829D01*
X0490220Y0154890D01*
X0490211Y0154952D01*
X0490205Y0155015D01*
X0490203Y0155078D01*
X0490205Y0155141D01*
X0490211Y0155204D01*
X0490220Y0155266D01*
X0490234Y0155327D01*
X0490251Y0155388D01*
X0490272Y0155447D01*
X0490297Y0155505D01*
X0490325Y0155562D01*
X0490356Y0155616D01*
X0490391Y0155668D01*
X0490429Y0155719D01*
X0490470Y0155767D01*
X0490514Y0155812D01*
X0490560Y0155854D01*
X0490609Y0155894D01*
X0490660Y0155930D01*
X0490714Y0155963D01*
X0490769Y0155993D01*
X0490827Y0156019D01*
X0490885Y0156042D01*
X0490945Y0156061D01*
X0491006Y0156076D01*
X0491068Y0156088D01*
X0491131Y0156096D01*
X0491194Y0156100D01*
X0491256Y0156100D01*
X0491319Y0156096D01*
X0491382Y0156088D01*
X0491444Y0156076D01*
X0491505Y0156061D01*
X0491565Y0156042D01*
X0491623Y0156019D01*
X0491681Y0155993D01*
X0491736Y0155963D01*
X0491790Y0155930D01*
X0491841Y0155894D01*
X0491890Y0155854D01*
X0491936Y0155812D01*
X0491980Y0155767D01*
X0492021Y0155719D01*
X0492059Y0155668D01*
X0492094Y0155616D01*
X0492125Y0155562D01*
X0492153Y0155505D01*
X0492178Y0155447D01*
X0492199Y0155388D01*
X0492216Y0155327D01*
X0492230Y0155266D01*
X0492239Y0155204D01*
X0492245Y0155141D01*
X0492247Y0155078D01*
X0492503Y0152778D02*
X0492501Y0152708D01*
X0492495Y0152637D01*
X0492486Y0152568D01*
X0492472Y0152499D01*
X0492455Y0152430D01*
X0492434Y0152363D01*
X0492409Y0152297D01*
X0492381Y0152233D01*
X0492349Y0152170D01*
X0492314Y0152109D01*
X0492275Y0152050D01*
X0492234Y0151993D01*
X0492189Y0151939D01*
X0492141Y0151887D01*
X0492091Y0151838D01*
X0492037Y0151791D01*
X0491982Y0151748D01*
X0491924Y0151708D01*
X0491864Y0151671D01*
X0491802Y0151638D01*
X0491738Y0151608D01*
X0491673Y0151581D01*
X0491607Y0151558D01*
X0491539Y0151539D01*
X0491470Y0151524D01*
X0491401Y0151512D01*
X0491331Y0151504D01*
X0491260Y0151500D01*
X0491190Y0151500D01*
X0491119Y0151504D01*
X0491049Y0151512D01*
X0490980Y0151524D01*
X0490911Y0151539D01*
X0490843Y0151558D01*
X0490777Y0151581D01*
X0490712Y0151608D01*
X0490648Y0151638D01*
X0490586Y0151671D01*
X0490526Y0151708D01*
X0490468Y0151748D01*
X0490413Y0151791D01*
X0490359Y0151838D01*
X0490309Y0151887D01*
X0490261Y0151939D01*
X0490216Y0151993D01*
X0490175Y0152050D01*
X0490136Y0152109D01*
X0490101Y0152170D01*
X0490069Y0152233D01*
X0490041Y0152297D01*
X0490016Y0152363D01*
X0489995Y0152430D01*
X0489978Y0152499D01*
X0489964Y0152568D01*
X0489955Y0152637D01*
X0489949Y0152708D01*
X0489947Y0152778D01*
X0489949Y0152848D01*
X0489955Y0152919D01*
X0489964Y0152988D01*
X0489978Y0153057D01*
X0489995Y0153126D01*
X0490016Y0153193D01*
X0490041Y0153259D01*
X0490069Y0153323D01*
X0490101Y0153386D01*
X0490136Y0153447D01*
X0490175Y0153506D01*
X0490216Y0153563D01*
X0490261Y0153617D01*
X0490309Y0153669D01*
X0490359Y0153718D01*
X0490413Y0153765D01*
X0490468Y0153808D01*
X0490526Y0153848D01*
X0490586Y0153885D01*
X0490648Y0153918D01*
X0490712Y0153948D01*
X0490777Y0153975D01*
X0490843Y0153998D01*
X0490911Y0154017D01*
X0490980Y0154032D01*
X0491049Y0154044D01*
X0491119Y0154052D01*
X0491190Y0154056D01*
X0491260Y0154056D01*
X0491331Y0154052D01*
X0491401Y0154044D01*
X0491470Y0154032D01*
X0491539Y0154017D01*
X0491607Y0153998D01*
X0491673Y0153975D01*
X0491738Y0153948D01*
X0491802Y0153918D01*
X0491864Y0153885D01*
X0491924Y0153848D01*
X0491982Y0153808D01*
X0492037Y0153765D01*
X0492091Y0153718D01*
X0492141Y0153669D01*
X0492189Y0153617D01*
X0492234Y0153563D01*
X0492275Y0153506D01*
X0492314Y0153447D01*
X0492349Y0153386D01*
X0492381Y0153323D01*
X0492409Y0153259D01*
X0492434Y0153193D01*
X0492455Y0153126D01*
X0492472Y0153057D01*
X0492486Y0152988D01*
X0492495Y0152919D01*
X0492501Y0152848D01*
X0492503Y0152778D01*
X0488003Y0152522D02*
X0488003Y0153033D01*
X0488001Y0153095D01*
X0487996Y0153156D01*
X0487986Y0153217D01*
X0487973Y0153278D01*
X0487957Y0153337D01*
X0487937Y0153395D01*
X0487913Y0153452D01*
X0487886Y0153508D01*
X0487856Y0153562D01*
X0487822Y0153614D01*
X0487786Y0153663D01*
X0487746Y0153711D01*
X0487704Y0153756D01*
X0487659Y0153798D01*
X0487611Y0153838D01*
X0487562Y0153874D01*
X0487510Y0153908D01*
X0487456Y0153938D01*
X0487400Y0153965D01*
X0487343Y0153989D01*
X0487285Y0154009D01*
X0487226Y0154025D01*
X0487165Y0154038D01*
X0487104Y0154048D01*
X0487043Y0154053D01*
X0486981Y0154055D01*
X0486981Y0154056D02*
X0485447Y0154056D01*
X0485447Y0156100D01*
X0488003Y0156100D01*
X0488003Y0152522D02*
X0488001Y0152460D01*
X0487996Y0152399D01*
X0487986Y0152338D01*
X0487973Y0152277D01*
X0487957Y0152218D01*
X0487937Y0152160D01*
X0487913Y0152103D01*
X0487886Y0152047D01*
X0487856Y0151993D01*
X0487822Y0151941D01*
X0487786Y0151892D01*
X0487746Y0151844D01*
X0487704Y0151799D01*
X0487659Y0151757D01*
X0487611Y0151717D01*
X0487562Y0151681D01*
X0487510Y0151647D01*
X0487456Y0151617D01*
X0487400Y0151590D01*
X0487343Y0151566D01*
X0487285Y0151546D01*
X0487226Y0151530D01*
X0487165Y0151517D01*
X0487104Y0151507D01*
X0487043Y0151502D01*
X0486981Y0151500D01*
X0485447Y0151500D01*
X0483653Y0152522D02*
X0483651Y0152460D01*
X0483646Y0152399D01*
X0483636Y0152338D01*
X0483623Y0152277D01*
X0483607Y0152218D01*
X0483587Y0152160D01*
X0483563Y0152103D01*
X0483536Y0152047D01*
X0483506Y0151993D01*
X0483472Y0151941D01*
X0483436Y0151892D01*
X0483396Y0151844D01*
X0483354Y0151799D01*
X0483309Y0151757D01*
X0483261Y0151717D01*
X0483212Y0151681D01*
X0483160Y0151647D01*
X0483106Y0151617D01*
X0483050Y0151590D01*
X0482993Y0151566D01*
X0482935Y0151546D01*
X0482876Y0151530D01*
X0482815Y0151517D01*
X0482754Y0151507D01*
X0482693Y0151502D01*
X0482631Y0151500D01*
X0483653Y0152522D02*
X0483651Y0152585D01*
X0483645Y0152648D01*
X0483636Y0152711D01*
X0483622Y0152773D01*
X0483605Y0152834D01*
X0483584Y0152894D01*
X0483560Y0152952D01*
X0483532Y0153009D01*
X0483500Y0153064D01*
X0483465Y0153117D01*
X0483427Y0153168D01*
X0483386Y0153216D01*
X0483343Y0153262D01*
X0483296Y0153305D01*
X0483247Y0153345D01*
X0483196Y0153382D01*
X0483142Y0153416D01*
X0483142Y0153417D02*
X0481736Y0154183D01*
X0482247Y0156100D02*
X0482329Y0156098D01*
X0482411Y0156093D01*
X0482493Y0156084D01*
X0482574Y0156072D01*
X0482655Y0156056D01*
X0482735Y0156037D01*
X0482814Y0156014D01*
X0482892Y0155988D01*
X0482969Y0155959D01*
X0483044Y0155926D01*
X0483118Y0155890D01*
X0483191Y0155852D01*
X0483262Y0155810D01*
X0483330Y0155765D01*
X0483397Y0155717D01*
X0481736Y0154184D02*
X0481682Y0154218D01*
X0481631Y0154255D01*
X0481582Y0154295D01*
X0481535Y0154338D01*
X0481492Y0154384D01*
X0481451Y0154432D01*
X0481413Y0154483D01*
X0481378Y0154536D01*
X0481346Y0154591D01*
X0481318Y0154648D01*
X0481294Y0154706D01*
X0481273Y0154766D01*
X0481256Y0154827D01*
X0481242Y0154889D01*
X0481233Y0154952D01*
X0481227Y0155015D01*
X0481225Y0155078D01*
X0481227Y0155140D01*
X0481232Y0155201D01*
X0481242Y0155262D01*
X0481255Y0155323D01*
X0481271Y0155382D01*
X0481291Y0155440D01*
X0481315Y0155497D01*
X0481342Y0155553D01*
X0481372Y0155607D01*
X0481406Y0155659D01*
X0481443Y0155708D01*
X0481482Y0155756D01*
X0481524Y0155801D01*
X0481569Y0155843D01*
X0481617Y0155883D01*
X0481666Y0155919D01*
X0481718Y0155953D01*
X0481772Y0155983D01*
X0481828Y0156010D01*
X0481885Y0156034D01*
X0481943Y0156054D01*
X0482002Y0156070D01*
X0482063Y0156083D01*
X0482124Y0156093D01*
X0482185Y0156098D01*
X0482247Y0156100D01*
X0481098Y0152139D02*
X0481162Y0152076D01*
X0481230Y0152017D01*
X0481299Y0151960D01*
X0481371Y0151906D01*
X0481445Y0151855D01*
X0481521Y0151807D01*
X0481598Y0151763D01*
X0481678Y0151722D01*
X0481759Y0151684D01*
X0481842Y0151649D01*
X0481926Y0151618D01*
X0482012Y0151591D01*
X0482098Y0151567D01*
X0482186Y0151546D01*
X0482274Y0151530D01*
X0482363Y0151517D01*
X0482452Y0151507D01*
X0482541Y0151502D01*
X0482631Y0151500D01*
X0479108Y0151500D02*
X0479108Y0156100D01*
X0477575Y0153544D01*
X0476042Y0156100D01*
X0476042Y0151500D01*
X0498947Y0151500D02*
X0500225Y0151500D01*
X0500295Y0151502D01*
X0500366Y0151508D01*
X0500435Y0151517D01*
X0500504Y0151531D01*
X0500573Y0151548D01*
X0500640Y0151569D01*
X0500706Y0151594D01*
X0500770Y0151622D01*
X0500833Y0151654D01*
X0500894Y0151689D01*
X0500953Y0151728D01*
X0501010Y0151769D01*
X0501064Y0151814D01*
X0501116Y0151862D01*
X0501165Y0151912D01*
X0501212Y0151966D01*
X0501255Y0152021D01*
X0501295Y0152079D01*
X0501332Y0152139D01*
X0501365Y0152201D01*
X0501395Y0152265D01*
X0501422Y0152330D01*
X0501445Y0152396D01*
X0501464Y0152464D01*
X0501479Y0152533D01*
X0501491Y0152602D01*
X0501499Y0152672D01*
X0501503Y0152743D01*
X0501503Y0152813D01*
X0501499Y0152884D01*
X0501491Y0152954D01*
X0501479Y0153023D01*
X0501464Y0153092D01*
X0501445Y0153160D01*
X0501422Y0153226D01*
X0501395Y0153291D01*
X0501365Y0153355D01*
X0501332Y0153417D01*
X0501295Y0153477D01*
X0501255Y0153535D01*
X0501212Y0153590D01*
X0501165Y0153644D01*
X0501116Y0153694D01*
X0501064Y0153742D01*
X0501010Y0153787D01*
X0500953Y0153828D01*
X0500894Y0153867D01*
X0500833Y0153902D01*
X0500770Y0153934D01*
X0500706Y0153962D01*
X0500640Y0153987D01*
X0500573Y0154008D01*
X0500504Y0154025D01*
X0500435Y0154039D01*
X0500366Y0154048D01*
X0500295Y0154054D01*
X0500225Y0154056D01*
X0500481Y0154056D02*
X0500544Y0154058D01*
X0500607Y0154064D01*
X0500669Y0154073D01*
X0500730Y0154087D01*
X0500791Y0154104D01*
X0500850Y0154125D01*
X0500908Y0154150D01*
X0500965Y0154178D01*
X0501019Y0154209D01*
X0501071Y0154244D01*
X0501122Y0154282D01*
X0501170Y0154323D01*
X0501215Y0154367D01*
X0501257Y0154413D01*
X0501297Y0154462D01*
X0501333Y0154513D01*
X0501366Y0154567D01*
X0501396Y0154622D01*
X0501422Y0154680D01*
X0501445Y0154738D01*
X0501464Y0154798D01*
X0501479Y0154859D01*
X0501491Y0154921D01*
X0501499Y0154984D01*
X0501503Y0155047D01*
X0501503Y0155109D01*
X0501499Y0155172D01*
X0501491Y0155235D01*
X0501479Y0155297D01*
X0501464Y0155358D01*
X0501445Y0155418D01*
X0501422Y0155476D01*
X0501396Y0155534D01*
X0501366Y0155589D01*
X0501333Y0155643D01*
X0501297Y0155694D01*
X0501257Y0155743D01*
X0501215Y0155789D01*
X0501170Y0155833D01*
X0501122Y0155874D01*
X0501071Y0155912D01*
X0501019Y0155947D01*
X0500965Y0155978D01*
X0500908Y0156006D01*
X0500850Y0156031D01*
X0500791Y0156052D01*
X0500730Y0156069D01*
X0500669Y0156083D01*
X0500607Y0156092D01*
X0500544Y0156098D01*
X0500481Y0156100D01*
X0498947Y0156100D01*
X0499892Y0021100D02*
X0499892Y0016500D01*
X0498359Y0018544D02*
X0499892Y0021100D01*
X0498359Y0018544D02*
X0496825Y0021100D01*
X0496825Y0016500D01*
X0502520Y0019183D02*
X0503925Y0018417D01*
X0503414Y0016500D02*
X0503324Y0016502D01*
X0503235Y0016507D01*
X0503146Y0016517D01*
X0503057Y0016530D01*
X0502969Y0016546D01*
X0502881Y0016567D01*
X0502795Y0016591D01*
X0502709Y0016618D01*
X0502625Y0016649D01*
X0502542Y0016684D01*
X0502461Y0016722D01*
X0502381Y0016763D01*
X0502304Y0016807D01*
X0502228Y0016855D01*
X0502154Y0016906D01*
X0502082Y0016960D01*
X0502013Y0017017D01*
X0501945Y0017076D01*
X0501881Y0017139D01*
X0503925Y0018416D02*
X0503979Y0018382D01*
X0504030Y0018345D01*
X0504079Y0018305D01*
X0504126Y0018262D01*
X0504169Y0018216D01*
X0504210Y0018168D01*
X0504248Y0018117D01*
X0504283Y0018064D01*
X0504315Y0018009D01*
X0504343Y0017952D01*
X0504367Y0017894D01*
X0504388Y0017834D01*
X0504405Y0017773D01*
X0504419Y0017711D01*
X0504428Y0017648D01*
X0504434Y0017585D01*
X0504436Y0017522D01*
X0504434Y0017460D01*
X0504429Y0017399D01*
X0504419Y0017338D01*
X0504406Y0017277D01*
X0504390Y0017218D01*
X0504370Y0017160D01*
X0504346Y0017103D01*
X0504319Y0017047D01*
X0504289Y0016993D01*
X0504255Y0016941D01*
X0504219Y0016892D01*
X0504179Y0016844D01*
X0504137Y0016799D01*
X0504092Y0016757D01*
X0504044Y0016717D01*
X0503995Y0016681D01*
X0503943Y0016647D01*
X0503889Y0016617D01*
X0503833Y0016590D01*
X0503776Y0016566D01*
X0503718Y0016546D01*
X0503659Y0016530D01*
X0503598Y0016517D01*
X0503537Y0016507D01*
X0503476Y0016502D01*
X0503414Y0016500D01*
X0504181Y0020717D02*
X0504114Y0020765D01*
X0504046Y0020810D01*
X0503975Y0020852D01*
X0503902Y0020890D01*
X0503828Y0020926D01*
X0503753Y0020959D01*
X0503676Y0020988D01*
X0503598Y0021014D01*
X0503519Y0021037D01*
X0503439Y0021056D01*
X0503358Y0021072D01*
X0503277Y0021084D01*
X0503195Y0021093D01*
X0503113Y0021098D01*
X0503031Y0021100D01*
X0502969Y0021098D01*
X0502908Y0021093D01*
X0502847Y0021083D01*
X0502786Y0021070D01*
X0502727Y0021054D01*
X0502669Y0021034D01*
X0502612Y0021010D01*
X0502556Y0020983D01*
X0502502Y0020953D01*
X0502450Y0020919D01*
X0502401Y0020883D01*
X0502353Y0020843D01*
X0502308Y0020801D01*
X0502266Y0020756D01*
X0502227Y0020708D01*
X0502190Y0020659D01*
X0502156Y0020607D01*
X0502126Y0020553D01*
X0502099Y0020497D01*
X0502075Y0020440D01*
X0502055Y0020382D01*
X0502039Y0020323D01*
X0502026Y0020262D01*
X0502016Y0020201D01*
X0502011Y0020140D01*
X0502009Y0020078D01*
X0502011Y0020015D01*
X0502017Y0019952D01*
X0502026Y0019889D01*
X0502040Y0019827D01*
X0502057Y0019766D01*
X0502078Y0019706D01*
X0502102Y0019648D01*
X0502130Y0019591D01*
X0502162Y0019536D01*
X0502197Y0019483D01*
X0502235Y0019432D01*
X0502276Y0019384D01*
X0502319Y0019338D01*
X0502366Y0019295D01*
X0502415Y0019255D01*
X0502466Y0019218D01*
X0502520Y0019184D01*
X0506231Y0019056D02*
X0506231Y0021100D01*
X0508786Y0021100D01*
X0507764Y0019056D02*
X0506231Y0019056D01*
X0507764Y0019055D02*
X0507826Y0019053D01*
X0507887Y0019048D01*
X0507948Y0019038D01*
X0508009Y0019025D01*
X0508068Y0019009D01*
X0508126Y0018989D01*
X0508183Y0018965D01*
X0508239Y0018938D01*
X0508293Y0018908D01*
X0508345Y0018874D01*
X0508394Y0018838D01*
X0508442Y0018798D01*
X0508487Y0018756D01*
X0508529Y0018711D01*
X0508569Y0018663D01*
X0508605Y0018614D01*
X0508639Y0018562D01*
X0508669Y0018508D01*
X0508696Y0018452D01*
X0508720Y0018395D01*
X0508740Y0018337D01*
X0508756Y0018278D01*
X0508769Y0018217D01*
X0508779Y0018156D01*
X0508784Y0018095D01*
X0508786Y0018033D01*
X0508786Y0017522D01*
X0508784Y0017460D01*
X0508779Y0017399D01*
X0508769Y0017338D01*
X0508756Y0017277D01*
X0508740Y0017218D01*
X0508720Y0017160D01*
X0508696Y0017103D01*
X0508669Y0017047D01*
X0508639Y0016993D01*
X0508605Y0016941D01*
X0508569Y0016892D01*
X0508529Y0016844D01*
X0508487Y0016799D01*
X0508442Y0016757D01*
X0508394Y0016717D01*
X0508345Y0016681D01*
X0508293Y0016647D01*
X0508239Y0016617D01*
X0508183Y0016590D01*
X0508126Y0016566D01*
X0508068Y0016546D01*
X0508009Y0016530D01*
X0507948Y0016517D01*
X0507887Y0016507D01*
X0507826Y0016502D01*
X0507764Y0016500D01*
X0506231Y0016500D01*
X0510731Y0017778D02*
X0510733Y0017708D01*
X0510739Y0017637D01*
X0510748Y0017568D01*
X0510762Y0017499D01*
X0510779Y0017430D01*
X0510800Y0017363D01*
X0510825Y0017297D01*
X0510853Y0017233D01*
X0510885Y0017170D01*
X0510920Y0017109D01*
X0510959Y0017050D01*
X0511000Y0016993D01*
X0511045Y0016939D01*
X0511093Y0016887D01*
X0511143Y0016838D01*
X0511197Y0016791D01*
X0511252Y0016748D01*
X0511310Y0016708D01*
X0511370Y0016671D01*
X0511432Y0016638D01*
X0511496Y0016608D01*
X0511561Y0016581D01*
X0511627Y0016558D01*
X0511695Y0016539D01*
X0511764Y0016524D01*
X0511833Y0016512D01*
X0511903Y0016504D01*
X0511974Y0016500D01*
X0512044Y0016500D01*
X0512115Y0016504D01*
X0512185Y0016512D01*
X0512254Y0016524D01*
X0512323Y0016539D01*
X0512391Y0016558D01*
X0512457Y0016581D01*
X0512522Y0016608D01*
X0512586Y0016638D01*
X0512648Y0016671D01*
X0512708Y0016708D01*
X0512766Y0016748D01*
X0512821Y0016791D01*
X0512875Y0016838D01*
X0512925Y0016887D01*
X0512973Y0016939D01*
X0513018Y0016993D01*
X0513059Y0017050D01*
X0513098Y0017109D01*
X0513133Y0017170D01*
X0513165Y0017233D01*
X0513193Y0017297D01*
X0513218Y0017363D01*
X0513239Y0017430D01*
X0513256Y0017499D01*
X0513270Y0017568D01*
X0513279Y0017637D01*
X0513285Y0017708D01*
X0513287Y0017778D01*
X0517403Y0017139D02*
X0517451Y0017243D01*
X0517497Y0017348D01*
X0517539Y0017454D01*
X0517578Y0017562D01*
X0517614Y0017671D01*
X0517646Y0017781D01*
X0517676Y0017892D01*
X0517701Y0018004D01*
X0517724Y0018116D01*
X0517743Y0018229D01*
X0517758Y0018343D01*
X0517770Y0018457D01*
X0517779Y0018571D01*
X0517784Y0018685D01*
X0517786Y0018800D01*
X0515230Y0018800D02*
X0515232Y0018915D01*
X0515237Y0019029D01*
X0515246Y0019143D01*
X0515258Y0019257D01*
X0515273Y0019371D01*
X0515292Y0019484D01*
X0515315Y0019596D01*
X0515340Y0019708D01*
X0515370Y0019819D01*
X0515402Y0019929D01*
X0515438Y0020038D01*
X0515477Y0020146D01*
X0515519Y0020252D01*
X0515565Y0020357D01*
X0515613Y0020461D01*
X0516509Y0021100D02*
X0516568Y0021098D01*
X0516626Y0021093D01*
X0516684Y0021084D01*
X0516741Y0021071D01*
X0516798Y0021055D01*
X0516853Y0021035D01*
X0516907Y0021012D01*
X0516959Y0020986D01*
X0517010Y0020956D01*
X0517059Y0020924D01*
X0517106Y0020888D01*
X0517150Y0020850D01*
X0517192Y0020809D01*
X0517231Y0020765D01*
X0517268Y0020719D01*
X0517301Y0020671D01*
X0517332Y0020621D01*
X0517359Y0020569D01*
X0517383Y0020516D01*
X0517404Y0020461D01*
X0517531Y0020078D02*
X0515486Y0017522D01*
X0516509Y0016500D02*
X0516568Y0016502D01*
X0516626Y0016507D01*
X0516684Y0016516D01*
X0516741Y0016529D01*
X0516798Y0016545D01*
X0516853Y0016565D01*
X0516907Y0016588D01*
X0516959Y0016614D01*
X0517010Y0016644D01*
X0517059Y0016676D01*
X0517106Y0016712D01*
X0517150Y0016750D01*
X0517192Y0016791D01*
X0517231Y0016835D01*
X0517268Y0016881D01*
X0517301Y0016929D01*
X0517332Y0016979D01*
X0517359Y0017031D01*
X0517383Y0017084D01*
X0517404Y0017139D01*
X0516509Y0016500D02*
X0516450Y0016502D01*
X0516392Y0016507D01*
X0516334Y0016516D01*
X0516277Y0016529D01*
X0516220Y0016545D01*
X0516165Y0016565D01*
X0516111Y0016588D01*
X0516059Y0016614D01*
X0516008Y0016644D01*
X0515959Y0016676D01*
X0515912Y0016712D01*
X0515868Y0016750D01*
X0515826Y0016791D01*
X0515787Y0016835D01*
X0515750Y0016881D01*
X0515717Y0016929D01*
X0515686Y0016979D01*
X0515659Y0017031D01*
X0515635Y0017084D01*
X0515614Y0017139D01*
X0517787Y0018800D02*
X0517785Y0018915D01*
X0517780Y0019029D01*
X0517771Y0019143D01*
X0517759Y0019257D01*
X0517744Y0019371D01*
X0517725Y0019484D01*
X0517702Y0019596D01*
X0517677Y0019708D01*
X0517647Y0019819D01*
X0517615Y0019929D01*
X0517579Y0020038D01*
X0517540Y0020146D01*
X0517498Y0020252D01*
X0517452Y0020357D01*
X0517404Y0020461D01*
X0516509Y0021100D02*
X0516450Y0021098D01*
X0516392Y0021093D01*
X0516334Y0021084D01*
X0516277Y0021071D01*
X0516220Y0021055D01*
X0516165Y0021035D01*
X0516111Y0021012D01*
X0516059Y0020986D01*
X0516008Y0020956D01*
X0515959Y0020924D01*
X0515912Y0020888D01*
X0515868Y0020850D01*
X0515826Y0020809D01*
X0515787Y0020765D01*
X0515750Y0020719D01*
X0515717Y0020671D01*
X0515686Y0020621D01*
X0515659Y0020569D01*
X0515635Y0020516D01*
X0515614Y0020461D01*
X0513031Y0020078D02*
X0513029Y0020015D01*
X0513023Y0019952D01*
X0513014Y0019890D01*
X0513000Y0019829D01*
X0512983Y0019768D01*
X0512962Y0019709D01*
X0512937Y0019651D01*
X0512909Y0019594D01*
X0512878Y0019540D01*
X0512843Y0019488D01*
X0512805Y0019437D01*
X0512764Y0019389D01*
X0512720Y0019344D01*
X0512674Y0019302D01*
X0512625Y0019262D01*
X0512574Y0019226D01*
X0512520Y0019193D01*
X0512465Y0019163D01*
X0512407Y0019137D01*
X0512349Y0019114D01*
X0512289Y0019095D01*
X0512228Y0019080D01*
X0512166Y0019068D01*
X0512103Y0019060D01*
X0512040Y0019056D01*
X0511978Y0019056D01*
X0511915Y0019060D01*
X0511852Y0019068D01*
X0511790Y0019080D01*
X0511729Y0019095D01*
X0511669Y0019114D01*
X0511611Y0019137D01*
X0511553Y0019163D01*
X0511498Y0019193D01*
X0511444Y0019226D01*
X0511393Y0019262D01*
X0511344Y0019302D01*
X0511298Y0019344D01*
X0511254Y0019389D01*
X0511213Y0019437D01*
X0511175Y0019488D01*
X0511140Y0019540D01*
X0511109Y0019594D01*
X0511081Y0019651D01*
X0511056Y0019709D01*
X0511035Y0019768D01*
X0511018Y0019829D01*
X0511004Y0019890D01*
X0510995Y0019952D01*
X0510989Y0020015D01*
X0510987Y0020078D01*
X0510989Y0020141D01*
X0510995Y0020204D01*
X0511004Y0020266D01*
X0511018Y0020327D01*
X0511035Y0020388D01*
X0511056Y0020447D01*
X0511081Y0020505D01*
X0511109Y0020562D01*
X0511140Y0020616D01*
X0511175Y0020668D01*
X0511213Y0020719D01*
X0511254Y0020767D01*
X0511298Y0020812D01*
X0511344Y0020854D01*
X0511393Y0020894D01*
X0511444Y0020930D01*
X0511498Y0020963D01*
X0511553Y0020993D01*
X0511611Y0021019D01*
X0511669Y0021042D01*
X0511729Y0021061D01*
X0511790Y0021076D01*
X0511852Y0021088D01*
X0511915Y0021096D01*
X0511978Y0021100D01*
X0512040Y0021100D01*
X0512103Y0021096D01*
X0512166Y0021088D01*
X0512228Y0021076D01*
X0512289Y0021061D01*
X0512349Y0021042D01*
X0512407Y0021019D01*
X0512465Y0020993D01*
X0512520Y0020963D01*
X0512574Y0020930D01*
X0512625Y0020894D01*
X0512674Y0020854D01*
X0512720Y0020812D01*
X0512764Y0020767D01*
X0512805Y0020719D01*
X0512843Y0020668D01*
X0512878Y0020616D01*
X0512909Y0020562D01*
X0512937Y0020505D01*
X0512962Y0020447D01*
X0512983Y0020388D01*
X0513000Y0020327D01*
X0513014Y0020266D01*
X0513023Y0020204D01*
X0513029Y0020141D01*
X0513031Y0020078D01*
X0513287Y0017778D02*
X0513285Y0017848D01*
X0513279Y0017919D01*
X0513270Y0017988D01*
X0513256Y0018057D01*
X0513239Y0018126D01*
X0513218Y0018193D01*
X0513193Y0018259D01*
X0513165Y0018323D01*
X0513133Y0018386D01*
X0513098Y0018447D01*
X0513059Y0018506D01*
X0513018Y0018563D01*
X0512973Y0018617D01*
X0512925Y0018669D01*
X0512875Y0018718D01*
X0512821Y0018765D01*
X0512766Y0018808D01*
X0512708Y0018848D01*
X0512648Y0018885D01*
X0512586Y0018918D01*
X0512522Y0018948D01*
X0512457Y0018975D01*
X0512391Y0018998D01*
X0512323Y0019017D01*
X0512254Y0019032D01*
X0512185Y0019044D01*
X0512115Y0019052D01*
X0512044Y0019056D01*
X0511974Y0019056D01*
X0511903Y0019052D01*
X0511833Y0019044D01*
X0511764Y0019032D01*
X0511695Y0019017D01*
X0511627Y0018998D01*
X0511561Y0018975D01*
X0511496Y0018948D01*
X0511432Y0018918D01*
X0511370Y0018885D01*
X0511310Y0018848D01*
X0511252Y0018808D01*
X0511197Y0018765D01*
X0511143Y0018718D01*
X0511093Y0018669D01*
X0511045Y0018617D01*
X0511000Y0018563D01*
X0510959Y0018506D01*
X0510920Y0018447D01*
X0510885Y0018386D01*
X0510853Y0018323D01*
X0510825Y0018259D01*
X0510800Y0018193D01*
X0510779Y0018126D01*
X0510762Y0018057D01*
X0510748Y0017988D01*
X0510739Y0017919D01*
X0510733Y0017848D01*
X0510731Y0017778D01*
X0515231Y0018800D02*
X0515233Y0018685D01*
X0515238Y0018571D01*
X0515247Y0018457D01*
X0515259Y0018343D01*
X0515274Y0018229D01*
X0515293Y0018116D01*
X0515316Y0018004D01*
X0515341Y0017892D01*
X0515371Y0017781D01*
X0515403Y0017671D01*
X0515439Y0017562D01*
X0515478Y0017454D01*
X0515520Y0017348D01*
X0515566Y0017243D01*
X0515614Y0017139D01*
X0519731Y0016500D02*
X0521009Y0016500D01*
X0521079Y0016502D01*
X0521150Y0016508D01*
X0521219Y0016517D01*
X0521288Y0016531D01*
X0521357Y0016548D01*
X0521424Y0016569D01*
X0521490Y0016594D01*
X0521554Y0016622D01*
X0521617Y0016654D01*
X0521678Y0016689D01*
X0521737Y0016728D01*
X0521794Y0016769D01*
X0521848Y0016814D01*
X0521900Y0016862D01*
X0521949Y0016912D01*
X0521996Y0016966D01*
X0522039Y0017021D01*
X0522079Y0017079D01*
X0522116Y0017139D01*
X0522149Y0017201D01*
X0522179Y0017265D01*
X0522206Y0017330D01*
X0522229Y0017396D01*
X0522248Y0017464D01*
X0522263Y0017533D01*
X0522275Y0017602D01*
X0522283Y0017672D01*
X0522287Y0017743D01*
X0522287Y0017813D01*
X0522283Y0017884D01*
X0522275Y0017954D01*
X0522263Y0018023D01*
X0522248Y0018092D01*
X0522229Y0018160D01*
X0522206Y0018226D01*
X0522179Y0018291D01*
X0522149Y0018355D01*
X0522116Y0018417D01*
X0522079Y0018477D01*
X0522039Y0018535D01*
X0521996Y0018590D01*
X0521949Y0018644D01*
X0521900Y0018694D01*
X0521848Y0018742D01*
X0521794Y0018787D01*
X0521737Y0018828D01*
X0521678Y0018867D01*
X0521617Y0018902D01*
X0521554Y0018934D01*
X0521490Y0018962D01*
X0521424Y0018987D01*
X0521357Y0019008D01*
X0521288Y0019025D01*
X0521219Y0019039D01*
X0521150Y0019048D01*
X0521079Y0019054D01*
X0521009Y0019056D01*
X0521264Y0019056D02*
X0520242Y0019056D01*
X0521264Y0019056D02*
X0521327Y0019058D01*
X0521390Y0019064D01*
X0521452Y0019073D01*
X0521513Y0019087D01*
X0521574Y0019104D01*
X0521633Y0019125D01*
X0521691Y0019150D01*
X0521748Y0019178D01*
X0521802Y0019209D01*
X0521854Y0019244D01*
X0521905Y0019282D01*
X0521953Y0019323D01*
X0521998Y0019367D01*
X0522040Y0019413D01*
X0522080Y0019462D01*
X0522116Y0019513D01*
X0522149Y0019567D01*
X0522179Y0019622D01*
X0522205Y0019680D01*
X0522228Y0019738D01*
X0522247Y0019798D01*
X0522262Y0019859D01*
X0522274Y0019921D01*
X0522282Y0019984D01*
X0522286Y0020047D01*
X0522286Y0020109D01*
X0522282Y0020172D01*
X0522274Y0020235D01*
X0522262Y0020297D01*
X0522247Y0020358D01*
X0522228Y0020418D01*
X0522205Y0020476D01*
X0522179Y0020534D01*
X0522149Y0020589D01*
X0522116Y0020643D01*
X0522080Y0020694D01*
X0522040Y0020743D01*
X0521998Y0020789D01*
X0521953Y0020833D01*
X0521905Y0020874D01*
X0521854Y0020912D01*
X0521802Y0020947D01*
X0521748Y0020978D01*
X0521691Y0021006D01*
X0521633Y0021031D01*
X0521574Y0021052D01*
X0521513Y0021069D01*
X0521452Y0021083D01*
X0521390Y0021092D01*
X0521327Y0021098D01*
X0521264Y0021100D01*
X0519731Y0021100D01*
X0524275Y0018289D02*
X0527342Y0018289D01*
X0529331Y0020078D02*
X0530609Y0021100D01*
X0530609Y0016500D01*
X0531886Y0016500D02*
X0529331Y0016500D01*
X0533831Y0016500D02*
X0536386Y0016500D01*
X0538547Y0016500D02*
X0538547Y0021100D01*
X0539825Y0021100D01*
X0539888Y0021098D01*
X0539951Y0021092D01*
X0540013Y0021083D01*
X0540074Y0021069D01*
X0540135Y0021052D01*
X0540194Y0021031D01*
X0540252Y0021006D01*
X0540309Y0020978D01*
X0540363Y0020947D01*
X0540415Y0020912D01*
X0540466Y0020874D01*
X0540514Y0020833D01*
X0540559Y0020789D01*
X0540601Y0020743D01*
X0540641Y0020694D01*
X0540677Y0020643D01*
X0540710Y0020589D01*
X0540740Y0020534D01*
X0540766Y0020476D01*
X0540789Y0020418D01*
X0540808Y0020358D01*
X0540823Y0020297D01*
X0540835Y0020235D01*
X0540843Y0020172D01*
X0540847Y0020109D01*
X0540847Y0020047D01*
X0540843Y0019984D01*
X0540835Y0019921D01*
X0540823Y0019859D01*
X0540808Y0019798D01*
X0540789Y0019738D01*
X0540766Y0019680D01*
X0540740Y0019622D01*
X0540710Y0019567D01*
X0540677Y0019513D01*
X0540641Y0019462D01*
X0540601Y0019413D01*
X0540559Y0019367D01*
X0540514Y0019323D01*
X0540466Y0019282D01*
X0540415Y0019244D01*
X0540363Y0019209D01*
X0540309Y0019178D01*
X0540252Y0019150D01*
X0540194Y0019125D01*
X0540135Y0019104D01*
X0540074Y0019087D01*
X0540013Y0019073D01*
X0539951Y0019064D01*
X0539888Y0019058D01*
X0539825Y0019056D01*
X0538547Y0019056D01*
X0539825Y0019056D02*
X0539895Y0019054D01*
X0539966Y0019048D01*
X0540035Y0019039D01*
X0540104Y0019025D01*
X0540173Y0019008D01*
X0540240Y0018987D01*
X0540306Y0018962D01*
X0540370Y0018934D01*
X0540433Y0018902D01*
X0540494Y0018867D01*
X0540553Y0018828D01*
X0540610Y0018787D01*
X0540664Y0018742D01*
X0540716Y0018694D01*
X0540765Y0018644D01*
X0540812Y0018590D01*
X0540855Y0018535D01*
X0540895Y0018477D01*
X0540932Y0018417D01*
X0540965Y0018355D01*
X0540995Y0018291D01*
X0541022Y0018226D01*
X0541045Y0018160D01*
X0541064Y0018092D01*
X0541079Y0018023D01*
X0541091Y0017954D01*
X0541099Y0017884D01*
X0541103Y0017813D01*
X0541103Y0017743D01*
X0541099Y0017672D01*
X0541091Y0017602D01*
X0541079Y0017533D01*
X0541064Y0017464D01*
X0541045Y0017396D01*
X0541022Y0017330D01*
X0540995Y0017265D01*
X0540965Y0017201D01*
X0540932Y0017139D01*
X0540895Y0017079D01*
X0540855Y0017021D01*
X0540812Y0016966D01*
X0540765Y0016912D01*
X0540716Y0016862D01*
X0540664Y0016814D01*
X0540610Y0016769D01*
X0540553Y0016728D01*
X0540494Y0016689D01*
X0540433Y0016654D01*
X0540370Y0016622D01*
X0540306Y0016594D01*
X0540240Y0016569D01*
X0540173Y0016548D01*
X0540104Y0016531D01*
X0540035Y0016517D01*
X0539966Y0016508D01*
X0539895Y0016502D01*
X0539825Y0016500D01*
X0538547Y0016500D01*
X0536003Y0019056D02*
X0533831Y0016500D01*
X0533831Y0020078D02*
X0533856Y0020148D01*
X0533884Y0020217D01*
X0533915Y0020284D01*
X0533950Y0020350D01*
X0533988Y0020413D01*
X0534030Y0020475D01*
X0534074Y0020535D01*
X0534121Y0020592D01*
X0534171Y0020647D01*
X0534224Y0020699D01*
X0534280Y0020749D01*
X0534338Y0020795D01*
X0534398Y0020839D01*
X0534460Y0020880D01*
X0534524Y0020917D01*
X0534590Y0020951D01*
X0534658Y0020982D01*
X0534727Y0021009D01*
X0534797Y0021033D01*
X0534868Y0021054D01*
X0534941Y0021070D01*
X0535014Y0021083D01*
X0535088Y0021093D01*
X0535162Y0021098D01*
X0535236Y0021100D01*
X0535303Y0021098D01*
X0535370Y0021092D01*
X0535436Y0021083D01*
X0535501Y0021069D01*
X0535566Y0021052D01*
X0535629Y0021031D01*
X0535691Y0021006D01*
X0535752Y0020978D01*
X0535811Y0020946D01*
X0535868Y0020911D01*
X0535923Y0020872D01*
X0535975Y0020831D01*
X0536025Y0020786D01*
X0536072Y0020739D01*
X0536117Y0020689D01*
X0536158Y0020637D01*
X0536197Y0020582D01*
X0536232Y0020525D01*
X0536264Y0020466D01*
X0536292Y0020405D01*
X0536317Y0020343D01*
X0536338Y0020280D01*
X0536355Y0020215D01*
X0536369Y0020150D01*
X0536378Y0020084D01*
X0536384Y0020017D01*
X0536386Y0019950D01*
X0536384Y0019883D01*
X0536379Y0019817D01*
X0536370Y0019751D01*
X0536357Y0019685D01*
X0536341Y0019621D01*
X0536322Y0019557D01*
X0536299Y0019494D01*
X0536273Y0019433D01*
X0536243Y0019373D01*
X0536210Y0019315D01*
X0536175Y0019259D01*
X0536136Y0019205D01*
X0536094Y0019153D01*
X0536050Y0019103D01*
X0536003Y0019056D01*
X0542575Y0016500D02*
X0544108Y0021100D01*
X0545642Y0016500D01*
X0545258Y0017650D02*
X0542958Y0017650D01*
M02*
