%
M48
M72
T01C0.03200
T02C0.03540
T03C0.03543
T04C0.03937
T05C0.04000
T06C0.04724
T07C0.12598
T08C0.12850
T09C0.13000
%
T01
X654592Y291300
X662092Y286300
X662092Y296300
T02
X654842Y297300
X667822Y291300
X638342Y306300
X655842Y311820
X681842Y324300
X700842Y286300
X710842Y266300
X698342Y246300
X715842Y231300
X703342Y226300
X645842Y266300
X638342Y274070
X618342Y283800
X558342Y291300
X515842Y291300
X493342Y308800
X480842Y318800
X505842Y326300
X512586Y318044
X445842Y326300
X430842Y313280
X430842Y291300
X450842Y286820
X430842Y273800
X436842Y263300
X441842Y257300
X437842Y251300
X480842Y211300
X525842Y211300
X585842Y171300
X635842Y158800
X640842Y143800
X680842Y113800
X657842Y110300
X666842Y101300
X698342Y76300
X560842Y40300
X547842Y27300
X538342Y33800
X497842Y12300
X454842Y66300
X447439Y74703
X423342Y76300
X370842Y40300
X380842Y38800
X328342Y23800
X310842Y31300
X301939Y40203
X293342Y33800
X280842Y23800
X255322Y63800
X253342Y76300
X295842Y68800
X337842Y91300
X343842Y97300
X495842Y108800
X505331Y101030
X515331Y101030
X516362Y86300
X503342Y86300
X550842Y78800
X700842Y163800
X411842Y206300
X341362Y271300
X343342Y291300
X280842Y251300
X270842Y258800
X210842Y281300
X280842Y336300
X203842Y342300
T03
X140842Y331300
X100842Y331300
X100842Y301300
X100842Y291300
X140842Y266300
X100842Y261300
X295842Y266300
X322092Y266300
X322092Y331300
X295842Y331300
X477092Y331300
X477092Y266300
X612092Y291300
X642092Y291300
X645842Y151300
X635842Y151300
X625842Y151300
X615842Y151300
X618342Y131300
X608342Y131300
X598342Y131300
X588342Y131300
X588342Y111300
X578342Y111300
X598342Y111300
X608342Y111300
X618342Y111300
X628342Y111300
X638342Y111300
X638342Y131300
X648342Y131300
X658342Y131300
X628342Y131300
X680842Y103800
X680842Y93800
X680842Y76300
X618342Y16300
X608342Y16300
X598342Y16300
X588342Y16300
X540842Y76300
X530842Y76300
X520842Y76300
X510842Y76300
X500842Y76300
X490842Y76300
X480842Y76300
X480842Y96300
X490842Y96300
X500842Y96300
X510842Y96300
X520842Y96300
X530842Y96300
X540842Y96300
T04
X605842Y151300
X605842Y241300
X615842Y241300
X625842Y241300
X635842Y241300
X645842Y241300
T05
X710342Y236300
X711342Y246300
X710342Y256300
X710342Y276300
X711342Y286300
X710342Y296300
X710842Y213250
X710842Y201850
X710842Y182000
X710842Y170600
X710842Y136300
X710842Y126300
X710842Y116300
X710842Y106300
X710842Y96300
X710842Y86300
X710842Y76300
X710842Y66300
X710842Y56300
X710842Y46300
X440842Y51300
X430842Y51300
X430842Y61300
X440842Y61300
X440842Y71300
X430842Y71300
X430842Y81300
X440842Y81300
X440842Y91300
X430842Y91300
X430842Y101300
X440842Y101300
X440842Y111300
X430842Y111300
X430842Y121300
X440842Y121300
X440842Y131300
X430842Y131300
X430842Y141300
X440842Y141300
X440842Y151300
X430842Y151300
X430842Y161300
X440842Y161300
X440842Y171300
X430842Y171300
X430842Y181300
X440842Y181300
X440842Y191300
X430842Y191300
X430842Y201300
X440842Y201300
X440842Y211300
X430842Y211300
X430842Y221300
X440842Y221300
X420842Y241300
X410842Y241300
X400842Y241300
X390842Y241300
X380842Y241300
X370842Y241300
X360842Y241300
X350842Y241300
X330842Y241300
X320842Y241300
X310842Y241300
X300842Y241300
X290842Y241300
X280842Y241300
X270842Y241300
X260842Y241300
X240842Y241300
X230842Y241300
X220842Y241300
X210842Y241300
X200842Y241300
X190842Y241300
X495342Y241300
X496342Y231300
X495342Y221300
X496342Y211300
X495342Y201300
X496342Y191300
X536342Y191300
X535342Y201300
X536342Y211300
X535342Y221300
X536342Y231300
X535342Y241300
X540842Y281300
X540842Y291300
X540842Y301300
X500842Y301300
X500842Y291300
X500842Y281300
X400842Y51300
X390842Y51300
X380842Y51300
X370842Y51300
X360842Y51300
X350842Y51300
X340842Y51300
X330842Y51300
X310842Y51300
X300842Y51300
X290842Y51300
X280842Y51300
X270842Y51300
X260842Y51300
X250842Y51300
X240842Y51300
X224842Y51300
X214842Y51300
X204842Y51300
X194842Y51300
X184842Y51300
X174842Y51300
X164842Y51300
X154842Y51300
X270842Y12050
X280842Y13050
X290842Y12050
X300842Y13050
X310842Y12050
T06
X60842Y266820
X60842Y282000
T07
X115842Y241300
X320842Y221300
X440842Y241300
X320842Y111300
X415842Y51300
X120842Y51300
T08
X480842Y21300
X540842Y51300
X570842Y21300
X675842Y21300
X675842Y126300
X570842Y126300
X540842Y151300
X480842Y121300
X585842Y236300
X665842Y236300
T09
X70842Y21300
X70842Y331300
X705842Y331300
X705842Y21300
M30
