G75*
%MOIN*%
%OFA0B0*%
%FSLAX25Y25*%
%IPPOS*%
%LPD*%
%AMOC8*
5,1,8,0,0,1.08239X$1,22.5*
%
%ADD10R,0.08000X0.08000*%
%ADD11C,0.08000*%
%ADD12R,0.05943X0.05943*%
%ADD13C,0.07400*%
%ADD14OC8,0.07400*%
%ADD15OC8,0.05600*%
%ADD16C,0.05943*%
%ADD17C,0.06400*%
%ADD18C,0.06337*%
%ADD19C,0.04000*%
%ADD20C,0.02400*%
%ADD21C,0.05540*%
%ADD22C,0.02500*%
D10*
X0060842Y0282000D03*
D11*
X0060842Y0266820D03*
D12*
X0140842Y0266300D03*
X0140842Y0331300D03*
X0295842Y0331300D03*
X0322092Y0331300D03*
X0322092Y0266300D03*
X0295842Y0266300D03*
X0477092Y0266300D03*
X0477092Y0331300D03*
X0588342Y0016300D03*
D13*
X0710842Y0046300D03*
X0710842Y0056300D03*
X0710842Y0066300D03*
X0710842Y0076300D03*
X0710842Y0086300D03*
X0710842Y0096300D03*
X0710842Y0106300D03*
X0710842Y0116300D03*
X0710842Y0126300D03*
X0710842Y0136300D03*
X0710842Y0170600D03*
X0710842Y0182000D03*
X0710842Y0201850D03*
X0710842Y0213250D03*
X0710342Y0236300D03*
X0711342Y0246300D03*
X0710342Y0256300D03*
X0710342Y0276300D03*
X0711342Y0286300D03*
X0710342Y0296300D03*
X0642092Y0291300D03*
X0612092Y0291300D03*
X0535342Y0241300D03*
X0536342Y0231300D03*
X0535342Y0221300D03*
X0536342Y0211300D03*
X0535342Y0201300D03*
X0536342Y0191300D03*
X0496342Y0191300D03*
X0495342Y0201300D03*
X0496342Y0211300D03*
X0495342Y0221300D03*
X0496342Y0231300D03*
X0495342Y0241300D03*
X0440842Y0221300D03*
X0430842Y0221300D03*
X0420842Y0241300D03*
X0410842Y0241300D03*
X0400842Y0241300D03*
X0390842Y0241300D03*
X0380842Y0241300D03*
X0370842Y0241300D03*
X0360842Y0241300D03*
X0350842Y0241300D03*
X0330842Y0241300D03*
X0320842Y0241300D03*
X0310842Y0241300D03*
X0300842Y0241300D03*
X0290842Y0241300D03*
X0280842Y0241300D03*
X0270842Y0241300D03*
X0260842Y0241300D03*
X0240842Y0241300D03*
X0230842Y0241300D03*
X0220842Y0241300D03*
X0210842Y0241300D03*
X0200842Y0241300D03*
X0190842Y0241300D03*
X0100842Y0261300D03*
X0100842Y0291300D03*
X0100842Y0301300D03*
X0100842Y0331300D03*
X0154842Y0051300D03*
X0164842Y0051300D03*
X0174842Y0051300D03*
X0184842Y0051300D03*
X0194842Y0051300D03*
X0204842Y0051300D03*
X0214842Y0051300D03*
X0224842Y0051300D03*
X0240842Y0051300D03*
X0250842Y0051300D03*
X0260842Y0051300D03*
X0270842Y0051300D03*
X0280842Y0051300D03*
X0290842Y0051300D03*
X0300842Y0051300D03*
X0310842Y0051300D03*
X0330842Y0051300D03*
X0340842Y0051300D03*
X0350842Y0051300D03*
X0360842Y0051300D03*
X0370842Y0051300D03*
X0380842Y0051300D03*
X0390842Y0051300D03*
X0400842Y0051300D03*
X0430842Y0051300D03*
X0440842Y0051300D03*
X0310842Y0012050D03*
X0300842Y0013050D03*
X0290842Y0012050D03*
X0280842Y0013050D03*
X0270842Y0012050D03*
D14*
X0430842Y0061300D03*
X0440842Y0061300D03*
X0440842Y0071300D03*
X0430842Y0071300D03*
X0430842Y0081300D03*
X0440842Y0081300D03*
X0440842Y0091300D03*
X0430842Y0091300D03*
X0430842Y0101300D03*
X0440842Y0101300D03*
X0440842Y0111300D03*
X0430842Y0111300D03*
X0430842Y0121300D03*
X0440842Y0121300D03*
X0440842Y0131300D03*
X0430842Y0131300D03*
X0430842Y0141300D03*
X0440842Y0141300D03*
X0440842Y0151300D03*
X0430842Y0151300D03*
X0430842Y0161300D03*
X0440842Y0161300D03*
X0440842Y0171300D03*
X0430842Y0171300D03*
X0430842Y0181300D03*
X0440842Y0181300D03*
X0440842Y0191300D03*
X0430842Y0191300D03*
X0430842Y0201300D03*
X0440842Y0201300D03*
X0440842Y0211300D03*
X0430842Y0211300D03*
D15*
X0654592Y0291300D03*
X0662092Y0286300D03*
X0662092Y0296300D03*
D16*
X0645842Y0151300D03*
X0635842Y0151300D03*
X0625842Y0151300D03*
X0615842Y0151300D03*
X0618342Y0131300D03*
X0608342Y0131300D03*
X0598342Y0131300D03*
X0588342Y0131300D03*
X0588342Y0111300D03*
X0578342Y0111300D03*
X0598342Y0111300D03*
X0608342Y0111300D03*
X0618342Y0111300D03*
X0628342Y0111300D03*
X0638342Y0111300D03*
X0638342Y0131300D03*
X0648342Y0131300D03*
X0658342Y0131300D03*
X0628342Y0131300D03*
X0680842Y0103800D03*
X0680842Y0093800D03*
X0680842Y0076300D03*
X0618342Y0016300D03*
X0608342Y0016300D03*
X0598342Y0016300D03*
X0540842Y0076300D03*
X0530842Y0076300D03*
X0520842Y0076300D03*
X0510842Y0076300D03*
X0500842Y0076300D03*
X0490842Y0076300D03*
X0480842Y0076300D03*
X0480842Y0096300D03*
X0490842Y0096300D03*
X0500842Y0096300D03*
X0510842Y0096300D03*
X0520842Y0096300D03*
X0530842Y0096300D03*
X0540842Y0096300D03*
D17*
X0537642Y0281300D02*
X0544042Y0281300D01*
X0544042Y0291300D02*
X0537642Y0291300D01*
X0537642Y0301300D02*
X0544042Y0301300D01*
X0504042Y0301300D02*
X0497642Y0301300D01*
X0497642Y0291300D02*
X0504042Y0291300D01*
X0504042Y0281300D02*
X0497642Y0281300D01*
D18*
X0605842Y0241300D03*
X0615842Y0241300D03*
X0625842Y0241300D03*
X0635842Y0241300D03*
X0645842Y0241300D03*
X0605842Y0151300D03*
D19*
X0625842Y0151300D02*
X0625842Y0156300D01*
X0570842Y0211300D01*
X0536342Y0211300D01*
X0533038Y0211300D01*
X0525842Y0218496D01*
X0525690Y0218648D01*
X0524781Y0219557D01*
X0524781Y0294861D01*
X0488342Y0331300D01*
X0477092Y0331300D01*
X0500842Y0291300D02*
X0515842Y0291300D01*
X0540842Y0291300D02*
X0558342Y0291300D01*
X0612092Y0291300D02*
X0612092Y0290050D01*
X0618342Y0283800D01*
X0638342Y0274070D02*
X0685572Y0274070D01*
X0693342Y0266300D01*
X0693342Y0252288D01*
X0690572Y0249518D01*
X0690572Y0243082D01*
X0693342Y0240312D01*
X0693342Y0221300D01*
X0700842Y0213800D01*
X0710292Y0213800D01*
X0710842Y0213250D01*
X0710842Y0201850D02*
X0711392Y0201300D01*
X0720842Y0201300D01*
X0723342Y0201300D01*
X0723342Y0301300D01*
X0718342Y0306300D01*
X0678342Y0306300D01*
X0673342Y0311300D01*
X0673342Y0336300D01*
X0668342Y0341300D01*
X0332092Y0341300D01*
X0322092Y0331300D01*
X0322024Y0331298D01*
X0321957Y0331293D01*
X0321890Y0331284D01*
X0321823Y0331271D01*
X0321758Y0331254D01*
X0321693Y0331235D01*
X0321629Y0331211D01*
X0321567Y0331184D01*
X0321506Y0331154D01*
X0321448Y0331121D01*
X0321391Y0331085D01*
X0321336Y0331045D01*
X0321283Y0331003D01*
X0321232Y0330957D01*
X0321185Y0330910D01*
X0321139Y0330859D01*
X0321097Y0330806D01*
X0321057Y0330751D01*
X0321021Y0330694D01*
X0320988Y0330636D01*
X0320958Y0330575D01*
X0320931Y0330513D01*
X0320907Y0330449D01*
X0320888Y0330384D01*
X0320871Y0330319D01*
X0320858Y0330252D01*
X0320849Y0330185D01*
X0320844Y0330118D01*
X0320842Y0330050D01*
X0320842Y0318800D01*
X0320840Y0318660D01*
X0320834Y0318520D01*
X0320824Y0318380D01*
X0320811Y0318240D01*
X0320793Y0318101D01*
X0320771Y0317962D01*
X0320746Y0317825D01*
X0320717Y0317687D01*
X0320684Y0317551D01*
X0320647Y0317416D01*
X0320606Y0317282D01*
X0320561Y0317149D01*
X0320513Y0317017D01*
X0320461Y0316887D01*
X0320406Y0316758D01*
X0320347Y0316631D01*
X0320284Y0316505D01*
X0320218Y0316381D01*
X0320149Y0316260D01*
X0320076Y0316140D01*
X0319999Y0316022D01*
X0319920Y0315907D01*
X0319837Y0315793D01*
X0319751Y0315683D01*
X0319662Y0315574D01*
X0319570Y0315468D01*
X0319475Y0315365D01*
X0319378Y0315264D01*
X0319277Y0315167D01*
X0319174Y0315072D01*
X0319068Y0314980D01*
X0318959Y0314891D01*
X0318849Y0314805D01*
X0318735Y0314722D01*
X0318620Y0314643D01*
X0318502Y0314566D01*
X0318382Y0314493D01*
X0318261Y0314424D01*
X0318137Y0314358D01*
X0318011Y0314295D01*
X0317884Y0314236D01*
X0317755Y0314181D01*
X0317625Y0314129D01*
X0317493Y0314081D01*
X0317360Y0314036D01*
X0317226Y0313995D01*
X0317091Y0313958D01*
X0316955Y0313925D01*
X0316817Y0313896D01*
X0316680Y0313871D01*
X0316541Y0313849D01*
X0316402Y0313831D01*
X0316262Y0313818D01*
X0316122Y0313808D01*
X0315982Y0313802D01*
X0315842Y0313800D01*
X0280842Y0313800D01*
X0280600Y0313803D01*
X0280359Y0313812D01*
X0280118Y0313826D01*
X0279877Y0313847D01*
X0279637Y0313873D01*
X0279397Y0313905D01*
X0279158Y0313943D01*
X0278921Y0313986D01*
X0278684Y0314036D01*
X0278449Y0314091D01*
X0278215Y0314151D01*
X0277983Y0314218D01*
X0277752Y0314289D01*
X0277523Y0314367D01*
X0277296Y0314450D01*
X0277071Y0314538D01*
X0276848Y0314632D01*
X0276628Y0314731D01*
X0276410Y0314836D01*
X0276195Y0314945D01*
X0275982Y0315060D01*
X0275772Y0315180D01*
X0275566Y0315305D01*
X0275362Y0315435D01*
X0275161Y0315570D01*
X0274964Y0315710D01*
X0274770Y0315854D01*
X0274580Y0316003D01*
X0274394Y0316157D01*
X0274211Y0316315D01*
X0274032Y0316477D01*
X0273857Y0316644D01*
X0273686Y0316815D01*
X0273519Y0316990D01*
X0273357Y0317169D01*
X0273199Y0317352D01*
X0273045Y0317538D01*
X0272896Y0317728D01*
X0272752Y0317922D01*
X0272612Y0318119D01*
X0272477Y0318320D01*
X0272347Y0318524D01*
X0272222Y0318730D01*
X0272102Y0318940D01*
X0271987Y0319153D01*
X0271878Y0319368D01*
X0271773Y0319586D01*
X0271674Y0319806D01*
X0271580Y0320029D01*
X0271492Y0320254D01*
X0271409Y0320481D01*
X0271331Y0320710D01*
X0271260Y0320941D01*
X0271193Y0321173D01*
X0271133Y0321407D01*
X0271078Y0321642D01*
X0271028Y0321879D01*
X0270985Y0322116D01*
X0270947Y0322355D01*
X0270915Y0322595D01*
X0270889Y0322835D01*
X0270868Y0323076D01*
X0270854Y0323317D01*
X0270845Y0323558D01*
X0270842Y0323800D01*
X0270840Y0323981D01*
X0270833Y0324162D01*
X0270822Y0324343D01*
X0270807Y0324524D01*
X0270787Y0324704D01*
X0270763Y0324884D01*
X0270735Y0325063D01*
X0270702Y0325241D01*
X0270665Y0325418D01*
X0270624Y0325595D01*
X0270579Y0325770D01*
X0270529Y0325945D01*
X0270475Y0326118D01*
X0270417Y0326289D01*
X0270355Y0326460D01*
X0270288Y0326628D01*
X0270218Y0326795D01*
X0270144Y0326961D01*
X0270065Y0327124D01*
X0269983Y0327285D01*
X0269897Y0327445D01*
X0269807Y0327602D01*
X0269713Y0327757D01*
X0269616Y0327910D01*
X0269514Y0328060D01*
X0269410Y0328208D01*
X0269301Y0328354D01*
X0269190Y0328496D01*
X0269074Y0328636D01*
X0268956Y0328773D01*
X0268834Y0328908D01*
X0268709Y0329039D01*
X0268581Y0329167D01*
X0268450Y0329292D01*
X0268315Y0329414D01*
X0268178Y0329532D01*
X0268038Y0329648D01*
X0267896Y0329759D01*
X0267750Y0329868D01*
X0267602Y0329972D01*
X0267452Y0330074D01*
X0267299Y0330171D01*
X0267144Y0330265D01*
X0266987Y0330355D01*
X0266827Y0330441D01*
X0266666Y0330523D01*
X0266503Y0330602D01*
X0266337Y0330676D01*
X0266170Y0330746D01*
X0266002Y0330813D01*
X0265831Y0330875D01*
X0265660Y0330933D01*
X0265487Y0330987D01*
X0265312Y0331037D01*
X0265137Y0331082D01*
X0264960Y0331123D01*
X0264783Y0331160D01*
X0264605Y0331193D01*
X0264426Y0331221D01*
X0264246Y0331245D01*
X0264066Y0331265D01*
X0263885Y0331280D01*
X0263704Y0331291D01*
X0263523Y0331298D01*
X0263342Y0331300D01*
X0140842Y0331300D01*
X0100842Y0331300D01*
X0095842Y0331300D01*
X0095600Y0331297D01*
X0095359Y0331288D01*
X0095118Y0331274D01*
X0094877Y0331253D01*
X0094637Y0331227D01*
X0094397Y0331195D01*
X0094158Y0331157D01*
X0093921Y0331114D01*
X0093684Y0331064D01*
X0093449Y0331009D01*
X0093215Y0330949D01*
X0092983Y0330882D01*
X0092752Y0330811D01*
X0092523Y0330733D01*
X0092296Y0330650D01*
X0092071Y0330562D01*
X0091848Y0330468D01*
X0091628Y0330369D01*
X0091410Y0330264D01*
X0091195Y0330155D01*
X0090982Y0330040D01*
X0090772Y0329920D01*
X0090566Y0329795D01*
X0090362Y0329665D01*
X0090161Y0329530D01*
X0089964Y0329390D01*
X0089770Y0329246D01*
X0089580Y0329097D01*
X0089394Y0328943D01*
X0089211Y0328785D01*
X0089032Y0328623D01*
X0088857Y0328456D01*
X0088686Y0328285D01*
X0088519Y0328110D01*
X0088357Y0327931D01*
X0088199Y0327748D01*
X0088045Y0327562D01*
X0087896Y0327372D01*
X0087752Y0327178D01*
X0087612Y0326981D01*
X0087477Y0326780D01*
X0087347Y0326576D01*
X0087222Y0326370D01*
X0087102Y0326160D01*
X0086987Y0325947D01*
X0086878Y0325732D01*
X0086773Y0325514D01*
X0086674Y0325294D01*
X0086580Y0325071D01*
X0086492Y0324846D01*
X0086409Y0324619D01*
X0086331Y0324390D01*
X0086260Y0324159D01*
X0086193Y0323927D01*
X0086133Y0323693D01*
X0086078Y0323458D01*
X0086028Y0323221D01*
X0085985Y0322984D01*
X0085947Y0322745D01*
X0085915Y0322505D01*
X0085889Y0322265D01*
X0085868Y0322024D01*
X0085854Y0321783D01*
X0085845Y0321542D01*
X0085842Y0321300D01*
X0085842Y0307000D01*
X0085835Y0306396D01*
X0085813Y0305792D01*
X0085776Y0305189D01*
X0085725Y0304587D01*
X0085660Y0303987D01*
X0085580Y0303388D01*
X0085485Y0302791D01*
X0085376Y0302197D01*
X0085253Y0301605D01*
X0085116Y0301017D01*
X0084964Y0300432D01*
X0084798Y0299851D01*
X0084618Y0299275D01*
X0084425Y0298702D01*
X0084217Y0298135D01*
X0083996Y0297573D01*
X0083762Y0297016D01*
X0083514Y0296465D01*
X0083253Y0295920D01*
X0082978Y0295382D01*
X0082691Y0294850D01*
X0082391Y0294326D01*
X0082079Y0293809D01*
X0081754Y0293300D01*
X0081417Y0292798D01*
X0081067Y0292305D01*
X0080706Y0291821D01*
X0080334Y0291345D01*
X0079950Y0290879D01*
X0079555Y0290422D01*
X0079149Y0289975D01*
X0078732Y0289537D01*
X0078305Y0289110D01*
X0077867Y0288693D01*
X0077420Y0288287D01*
X0076963Y0287892D01*
X0076497Y0287508D01*
X0076021Y0287136D01*
X0075537Y0286775D01*
X0075044Y0286425D01*
X0074542Y0286088D01*
X0074033Y0285763D01*
X0073516Y0285451D01*
X0072992Y0285151D01*
X0072460Y0284864D01*
X0071922Y0284589D01*
X0071377Y0284328D01*
X0070826Y0284080D01*
X0070269Y0283846D01*
X0069707Y0283625D01*
X0069140Y0283417D01*
X0068567Y0283224D01*
X0067991Y0283044D01*
X0067410Y0282878D01*
X0066825Y0282726D01*
X0066237Y0282589D01*
X0065645Y0282466D01*
X0065051Y0282357D01*
X0064454Y0282262D01*
X0063855Y0282182D01*
X0063255Y0282117D01*
X0062653Y0282066D01*
X0062050Y0282029D01*
X0061446Y0282007D01*
X0060842Y0282000D01*
X0210842Y0281300D02*
X0210842Y0241300D01*
X0285842Y0331300D02*
X0295842Y0331300D01*
X0285842Y0331300D02*
X0280842Y0336300D01*
X0480842Y0211300D02*
X0496342Y0211300D01*
X0525842Y0211300D02*
X0525842Y0218496D01*
X0645842Y0266300D02*
X0680842Y0266300D01*
X0683342Y0263800D01*
X0683342Y0201300D01*
X0702642Y0182000D01*
X0710842Y0182000D01*
X0717642Y0170600D02*
X0723342Y0176300D01*
X0723342Y0201300D01*
X0717642Y0170600D02*
X0710842Y0170600D01*
X0710842Y0116300D02*
X0682842Y0116300D01*
X0681842Y0115300D01*
X0680842Y0113800D01*
X0680842Y0103800D01*
X0548814Y0099602D02*
X0548814Y0092243D01*
X0540842Y0084272D01*
X0537540Y0084272D01*
X0532870Y0079602D01*
X0532870Y0078328D01*
X0530842Y0076300D01*
X0490842Y0096300D02*
X0490842Y0103800D01*
X0495842Y0108800D01*
X0539616Y0108800D01*
X0548814Y0099602D01*
X0698342Y0246300D02*
X0711342Y0246300D01*
X0711342Y0286300D02*
X0700842Y0286300D01*
X0654842Y0291550D02*
X0654592Y0291300D01*
X0654842Y0291550D02*
X0654842Y0297300D01*
D20*
X0060842Y0266820D02*
X0060842Y0026579D01*
X0062052Y0028676D01*
X0062052Y0028676D01*
X0062052Y0028676D01*
X0065105Y0031237D01*
X0065105Y0031237D01*
X0068849Y0032600D01*
X0072834Y0032600D01*
X0076579Y0031237D01*
X0076579Y0031237D01*
X0079632Y0028676D01*
X0079632Y0028676D01*
X0081624Y0025224D01*
X0081624Y0025224D01*
X0082316Y0021300D01*
X0082316Y0021300D01*
X0081624Y0017376D01*
X0081624Y0017376D01*
X0079632Y0013924D01*
X0079632Y0013924D01*
X0079632Y0013924D01*
X0076579Y0011363D01*
X0076579Y0011363D01*
X0076406Y0011300D01*
X0253492Y0011300D01*
X0253492Y0034765D01*
X0254230Y0036547D01*
X0255595Y0037912D01*
X0256730Y0039047D01*
X0258095Y0040412D01*
X0259877Y0041150D01*
X0275992Y0041150D01*
X0275992Y0045826D01*
X0275842Y0045976D01*
X0274977Y0045111D01*
X0272294Y0044000D01*
X0269390Y0044000D01*
X0266707Y0045111D01*
X0265842Y0045976D01*
X0264977Y0045111D01*
X0262294Y0044000D01*
X0259390Y0044000D01*
X0256707Y0045111D01*
X0255842Y0045976D01*
X0254977Y0045111D01*
X0252294Y0044000D01*
X0249390Y0044000D01*
X0246707Y0045111D01*
X0245842Y0045976D01*
X0244977Y0045111D01*
X0242294Y0044000D01*
X0239390Y0044000D01*
X0236707Y0045111D01*
X0234653Y0047165D01*
X0233542Y0049848D01*
X0233542Y0052752D01*
X0234653Y0055435D01*
X0235992Y0056774D01*
X0235992Y0064765D01*
X0236730Y0066547D01*
X0246972Y0076789D01*
X0246972Y0077567D01*
X0247942Y0079908D01*
X0249733Y0081700D01*
X0252075Y0082670D01*
X0254609Y0082670D01*
X0255992Y0082097D01*
X0255992Y0207265D01*
X0256730Y0209047D01*
X0258095Y0210412D01*
X0261730Y0214047D01*
X0263095Y0215412D01*
X0264877Y0216150D01*
X0312260Y0216150D01*
X0310943Y0219331D01*
X0310943Y0223269D01*
X0312450Y0226907D01*
X0315234Y0229692D01*
X0318873Y0231199D01*
X0322811Y0231199D01*
X0326449Y0229692D01*
X0329234Y0226907D01*
X0330741Y0223269D01*
X0330741Y0219331D01*
X0329841Y0217158D01*
X0332442Y0219759D01*
X0332442Y0234061D01*
X0332294Y0234000D01*
X0329390Y0234000D01*
X0326707Y0235111D01*
X0325842Y0235976D01*
X0324977Y0235111D01*
X0322294Y0234000D01*
X0319390Y0234000D01*
X0316707Y0235111D01*
X0315842Y0235976D01*
X0314977Y0235111D01*
X0312294Y0234000D01*
X0309390Y0234000D01*
X0306707Y0235111D01*
X0305842Y0235976D01*
X0304977Y0235111D01*
X0302294Y0234000D01*
X0299390Y0234000D01*
X0296707Y0235111D01*
X0295842Y0235976D01*
X0294977Y0235111D01*
X0292294Y0234000D01*
X0289390Y0234000D01*
X0286707Y0235111D01*
X0285842Y0235976D01*
X0284977Y0235111D01*
X0282294Y0234000D01*
X0279390Y0234000D01*
X0276707Y0235111D01*
X0275842Y0235976D01*
X0274977Y0235111D01*
X0272294Y0234000D01*
X0269390Y0234000D01*
X0266707Y0235111D01*
X0265842Y0235976D01*
X0264977Y0235111D01*
X0262294Y0234000D01*
X0259390Y0234000D01*
X0256707Y0235111D01*
X0254653Y0237165D01*
X0253542Y0239848D01*
X0253542Y0242752D01*
X0254653Y0245435D01*
X0256707Y0247489D01*
X0259390Y0248600D01*
X0262294Y0248600D01*
X0264977Y0247489D01*
X0265842Y0246624D01*
X0266707Y0247489D01*
X0269390Y0248600D01*
X0272294Y0248600D01*
X0274977Y0247489D01*
X0275842Y0246624D01*
X0275992Y0246774D01*
X0275992Y0247141D01*
X0275442Y0247692D01*
X0274472Y0250033D01*
X0274472Y0252567D01*
X0275076Y0254026D01*
X0274450Y0253400D01*
X0272109Y0252430D01*
X0269575Y0252430D01*
X0267233Y0253400D01*
X0266683Y0253950D01*
X0242851Y0253950D01*
X0235692Y0246791D01*
X0235692Y0246774D01*
X0235842Y0246624D01*
X0236707Y0247489D01*
X0239390Y0248600D01*
X0242294Y0248600D01*
X0244977Y0247489D01*
X0247030Y0245435D01*
X0248142Y0242752D01*
X0248142Y0239848D01*
X0247030Y0237165D01*
X0244977Y0235111D01*
X0242294Y0234000D01*
X0239390Y0234000D01*
X0236707Y0235111D01*
X0235842Y0235976D01*
X0234977Y0235111D01*
X0232294Y0234000D01*
X0229390Y0234000D01*
X0226707Y0235111D01*
X0224852Y0236966D01*
X0224685Y0236800D01*
X0223934Y0236254D01*
X0223107Y0235832D01*
X0222223Y0235545D01*
X0221306Y0235400D01*
X0220842Y0235400D01*
X0220842Y0241300D01*
X0220842Y0241300D01*
X0220842Y0247200D01*
X0221306Y0247200D01*
X0222223Y0247055D01*
X0223107Y0246768D01*
X0223934Y0246346D01*
X0224685Y0245800D01*
X0224852Y0245634D01*
X0225992Y0246774D01*
X0225992Y0249765D01*
X0226730Y0251547D01*
X0236730Y0261547D01*
X0238095Y0262912D01*
X0239877Y0263650D01*
X0266683Y0263650D01*
X0267233Y0264200D01*
X0269575Y0265170D01*
X0272109Y0265170D01*
X0274450Y0264200D01*
X0276242Y0262408D01*
X0277212Y0260067D01*
X0277212Y0257533D01*
X0276608Y0256074D01*
X0277233Y0256700D01*
X0279575Y0257670D01*
X0282109Y0257670D01*
X0283492Y0257097D01*
X0283492Y0283800D01*
X0283459Y0284215D01*
X0283203Y0285003D01*
X0282716Y0285674D01*
X0282045Y0286161D01*
X0281256Y0286417D01*
X0280842Y0286450D01*
X0215549Y0286450D01*
X0216751Y0285248D01*
X0217812Y0282686D01*
X0217812Y0279914D01*
X0217042Y0278055D01*
X0217042Y0246272D01*
X0217297Y0246017D01*
X0217750Y0246346D01*
X0218577Y0246768D01*
X0219460Y0247055D01*
X0220377Y0247200D01*
X0220842Y0247200D01*
X0220842Y0241300D01*
X0220842Y0241300D01*
X0220842Y0235400D01*
X0220377Y0235400D01*
X0219460Y0235545D01*
X0218577Y0235832D01*
X0217750Y0236254D01*
X0217297Y0236583D01*
X0215317Y0234603D01*
X0212413Y0233400D01*
X0209270Y0233400D01*
X0206367Y0234603D01*
X0205418Y0235552D01*
X0204977Y0235111D01*
X0202294Y0234000D01*
X0199390Y0234000D01*
X0196707Y0235111D01*
X0195842Y0235976D01*
X0194977Y0235111D01*
X0192294Y0234000D01*
X0189390Y0234000D01*
X0186707Y0235111D01*
X0184653Y0237165D01*
X0183542Y0239848D01*
X0183542Y0242752D01*
X0184653Y0245435D01*
X0186707Y0247489D01*
X0189390Y0248600D01*
X0192294Y0248600D01*
X0194977Y0247489D01*
X0195842Y0246624D01*
X0196707Y0247489D01*
X0199390Y0248600D01*
X0202294Y0248600D01*
X0204642Y0247627D01*
X0204642Y0278055D01*
X0203872Y0279914D01*
X0203872Y0282686D01*
X0204933Y0285248D01*
X0206135Y0286450D01*
X0106316Y0286450D01*
X0104977Y0285111D01*
X0102294Y0284000D01*
X0099390Y0284000D01*
X0096707Y0285111D01*
X0094653Y0287165D01*
X0093542Y0289848D01*
X0093542Y0292752D01*
X0094653Y0295435D01*
X0095518Y0296300D01*
X0094653Y0297165D01*
X0093542Y0299848D01*
X0093542Y0302752D01*
X0094653Y0305435D01*
X0096707Y0307489D01*
X0099390Y0308600D01*
X0102294Y0308600D01*
X0104977Y0307489D01*
X0107030Y0305435D01*
X0108142Y0302752D01*
X0108142Y0299848D01*
X0107030Y0297165D01*
X0106166Y0296300D01*
X0106316Y0296150D01*
X0282798Y0296150D01*
X0286518Y0294941D01*
X0286518Y0294941D01*
X0289683Y0292642D01*
X0289683Y0292642D01*
X0289683Y0292642D01*
X0291983Y0289477D01*
X0291983Y0289477D01*
X0293192Y0285756D01*
X0293192Y0271472D01*
X0295842Y0271472D01*
X0295842Y0266300D01*
X0301013Y0266300D01*
X0295842Y0266300D01*
X0295842Y0266300D01*
X0295842Y0266300D01*
X0295842Y0261128D01*
X0299103Y0261128D01*
X0299663Y0261278D01*
X0300164Y0261568D01*
X0300574Y0261978D01*
X0300864Y0262479D01*
X0301013Y0263039D01*
X0301013Y0266300D01*
X0301013Y0269561D01*
X0300864Y0270121D01*
X0300574Y0270622D01*
X0300164Y0271032D01*
X0299663Y0271322D01*
X0299103Y0271472D01*
X0295842Y0271472D01*
X0295842Y0266300D01*
X0295842Y0266300D01*
X0295842Y0261128D01*
X0293192Y0261128D01*
X0293192Y0248228D01*
X0294977Y0247489D01*
X0295842Y0246624D01*
X0296707Y0247489D01*
X0299390Y0248600D01*
X0302294Y0248600D01*
X0304977Y0247489D01*
X0305842Y0246624D01*
X0306707Y0247489D01*
X0309390Y0248600D01*
X0312294Y0248600D01*
X0314977Y0247489D01*
X0315842Y0246624D01*
X0316707Y0247489D01*
X0319390Y0248600D01*
X0322294Y0248600D01*
X0324977Y0247489D01*
X0325842Y0246624D01*
X0326707Y0247489D01*
X0329390Y0248600D01*
X0330992Y0248600D01*
X0330992Y0277265D01*
X0331730Y0279047D01*
X0333095Y0280412D01*
X0338095Y0285412D01*
X0339599Y0286035D01*
X0337942Y0287692D01*
X0336972Y0290033D01*
X0336972Y0292567D01*
X0337942Y0294908D01*
X0339733Y0296700D01*
X0342075Y0297670D01*
X0342853Y0297670D01*
X0366730Y0321547D01*
X0368095Y0322912D01*
X0369877Y0323650D01*
X0476683Y0323650D01*
X0477162Y0324128D01*
X0473285Y0324128D01*
X0471741Y0324768D01*
X0470560Y0325949D01*
X0469920Y0327493D01*
X0469920Y0335100D01*
X0334660Y0335100D01*
X0329263Y0329704D01*
X0329263Y0327493D01*
X0328624Y0325949D01*
X0327443Y0324768D01*
X0327042Y0324602D01*
X0327042Y0317026D01*
X0325945Y0313652D01*
X0325945Y0313652D01*
X0323860Y0310782D01*
X0323860Y0310782D01*
X0323860Y0310782D01*
X0320990Y0308696D01*
X0320990Y0308696D01*
X0317616Y0307600D01*
X0278709Y0307600D01*
X0274589Y0308704D01*
X0274589Y0308704D01*
X0270895Y0310837D01*
X0270895Y0310837D01*
X0267879Y0313853D01*
X0267879Y0313853D01*
X0265746Y0317547D01*
X0265746Y0317547D01*
X0264642Y0321667D01*
X0264642Y0323800D01*
X0264626Y0324003D01*
X0264500Y0324390D01*
X0264261Y0324719D01*
X0263932Y0324958D01*
X0263545Y0325084D01*
X0263342Y0325100D01*
X0146525Y0325100D01*
X0146193Y0324768D01*
X0144649Y0324128D01*
X0137035Y0324128D01*
X0135491Y0324768D01*
X0135159Y0325100D01*
X0105814Y0325100D01*
X0105317Y0324603D01*
X0102413Y0323400D01*
X0099270Y0323400D01*
X0096367Y0324603D01*
X0095870Y0325100D01*
X0095842Y0325100D01*
X0095346Y0325067D01*
X0094388Y0324811D01*
X0093529Y0324315D01*
X0092827Y0323613D01*
X0092331Y0322754D01*
X0092074Y0321796D01*
X0092042Y0321300D01*
X0092042Y0303927D01*
X0090843Y0297899D01*
X0090843Y0297899D01*
X0088491Y0292221D01*
X0088491Y0292221D01*
X0085076Y0287111D01*
X0085076Y0287111D01*
X0080731Y0282765D01*
X0080731Y0282765D01*
X0075621Y0279351D01*
X0075621Y0279351D01*
X0069943Y0276999D01*
X0069942Y0276999D01*
X0068886Y0276789D01*
X0068402Y0275621D01*
X0067221Y0274439D01*
X0065677Y0273800D01*
X0060842Y0273800D01*
X0060842Y0266821D01*
X0060842Y0266821D01*
X0060842Y0273020D01*
X0061330Y0273020D01*
X0062294Y0272868D01*
X0063222Y0272566D01*
X0064091Y0272123D01*
X0064881Y0271550D01*
X0065571Y0270859D01*
X0066145Y0270070D01*
X0066588Y0269200D01*
X0066889Y0268272D01*
X0067042Y0267308D01*
X0067042Y0266821D01*
X0060842Y0266821D01*
X0060842Y0266820D01*
X0060842Y0260620D01*
X0061330Y0260620D01*
X0062294Y0260773D01*
X0063222Y0261075D01*
X0064091Y0261518D01*
X0064881Y0262091D01*
X0065571Y0262781D01*
X0066145Y0263571D01*
X0066588Y0264440D01*
X0066889Y0265369D01*
X0067042Y0266333D01*
X0067042Y0266820D01*
X0060842Y0266820D01*
X0060842Y0266820D01*
X0060842Y0267535D02*
X0060842Y0267535D01*
X0060842Y0269933D02*
X0060842Y0269933D01*
X0060842Y0272332D02*
X0060842Y0272332D01*
X0063682Y0272332D02*
X0204642Y0272332D01*
X0204642Y0274730D02*
X0067512Y0274730D01*
X0070256Y0277129D02*
X0204642Y0277129D01*
X0204032Y0279527D02*
X0075885Y0279527D01*
X0079474Y0281926D02*
X0203872Y0281926D01*
X0204550Y0284324D02*
X0103077Y0284324D01*
X0098607Y0284324D02*
X0082290Y0284324D01*
X0084688Y0286723D02*
X0095095Y0286723D01*
X0093843Y0289121D02*
X0086420Y0289121D01*
X0088022Y0291520D02*
X0093542Y0291520D01*
X0094025Y0293918D02*
X0089194Y0293918D01*
X0090187Y0296317D02*
X0095501Y0296317D01*
X0094011Y0298715D02*
X0091005Y0298715D01*
X0091482Y0301114D02*
X0093542Y0301114D01*
X0093857Y0303512D02*
X0091959Y0303512D01*
X0092042Y0305911D02*
X0095129Y0305911D01*
X0092042Y0308309D02*
X0098688Y0308309D01*
X0102995Y0308309D02*
X0276061Y0308309D01*
X0271118Y0310708D02*
X0092042Y0310708D01*
X0092042Y0313106D02*
X0268625Y0313106D01*
X0266925Y0315505D02*
X0092042Y0315505D01*
X0092042Y0317903D02*
X0265650Y0317903D01*
X0265008Y0320302D02*
X0092042Y0320302D01*
X0092317Y0322701D02*
X0264642Y0322701D01*
X0263354Y0325099D02*
X0146524Y0325099D01*
X0135160Y0325099D02*
X0105813Y0325099D01*
X0095870Y0325099D02*
X0095827Y0325099D01*
X0106555Y0305911D02*
X0351094Y0305911D01*
X0353492Y0308309D02*
X0319799Y0308309D01*
X0323759Y0310708D02*
X0355891Y0310708D01*
X0358289Y0313106D02*
X0325549Y0313106D01*
X0326548Y0315505D02*
X0360688Y0315505D01*
X0363086Y0317903D02*
X0327042Y0317903D01*
X0327042Y0320302D02*
X0365485Y0320302D01*
X0367883Y0322701D02*
X0327042Y0322701D01*
X0327774Y0325099D02*
X0471410Y0325099D01*
X0469920Y0327498D02*
X0329263Y0327498D01*
X0329456Y0329896D02*
X0469920Y0329896D01*
X0469920Y0332295D02*
X0331854Y0332295D01*
X0334253Y0334693D02*
X0469920Y0334693D01*
X0493310Y0335100D02*
X0665774Y0335100D01*
X0667142Y0333732D01*
X0667142Y0314359D01*
X0666089Y0315412D01*
X0664307Y0316150D01*
X0660520Y0316150D01*
X0659450Y0317220D01*
X0657109Y0318190D01*
X0654575Y0318190D01*
X0652233Y0317220D01*
X0650442Y0315428D01*
X0649472Y0313087D01*
X0649472Y0311150D01*
X0642500Y0311150D01*
X0641950Y0311700D01*
X0639609Y0312670D01*
X0637075Y0312670D01*
X0634733Y0311700D01*
X0632942Y0309908D01*
X0631972Y0307567D01*
X0631972Y0305033D01*
X0632942Y0302692D01*
X0634733Y0300900D01*
X0637075Y0299930D01*
X0639609Y0299930D01*
X0641950Y0300900D01*
X0642500Y0301450D01*
X0649983Y0301450D01*
X0649442Y0300908D01*
X0648472Y0298567D01*
X0648472Y0296150D01*
X0647566Y0296150D01*
X0646227Y0297489D01*
X0643544Y0298600D01*
X0640640Y0298600D01*
X0637957Y0297489D01*
X0635903Y0295435D01*
X0634792Y0292752D01*
X0634792Y0289848D01*
X0635903Y0287165D01*
X0637957Y0285111D01*
X0640640Y0284000D01*
X0643544Y0284000D01*
X0646227Y0285111D01*
X0647566Y0286450D01*
X0650391Y0286450D01*
X0651941Y0284900D01*
X0655692Y0284900D01*
X0655692Y0283649D01*
X0659071Y0280270D01*
X0641587Y0280270D01*
X0639728Y0281040D01*
X0636955Y0281040D01*
X0634394Y0279979D01*
X0632433Y0278018D01*
X0631372Y0275456D01*
X0631372Y0272684D01*
X0632433Y0270122D01*
X0634394Y0268161D01*
X0636955Y0267100D01*
X0638872Y0267100D01*
X0638872Y0264914D01*
X0639933Y0262352D01*
X0641894Y0260391D01*
X0644455Y0259330D01*
X0647228Y0259330D01*
X0649087Y0260100D01*
X0677142Y0260100D01*
X0677142Y0200067D01*
X0678086Y0197788D01*
X0697386Y0178488D01*
X0699130Y0176744D01*
X0701409Y0175800D01*
X0704870Y0175800D01*
X0704145Y0175075D01*
X0702942Y0172171D01*
X0702942Y0169029D01*
X0704145Y0166125D01*
X0706367Y0163903D01*
X0709270Y0162700D01*
X0712413Y0162700D01*
X0715317Y0163903D01*
X0715814Y0164400D01*
X0715842Y0164400D01*
X0715842Y0139456D01*
X0715342Y0140144D01*
X0714685Y0140800D01*
X0713934Y0141346D01*
X0713107Y0141768D01*
X0712223Y0142055D01*
X0711306Y0142200D01*
X0710842Y0142200D01*
X0710842Y0136300D01*
X0710842Y0136300D01*
X0710842Y0142200D01*
X0710377Y0142200D01*
X0709460Y0142055D01*
X0708577Y0141768D01*
X0707750Y0141346D01*
X0706998Y0140800D01*
X0706342Y0140144D01*
X0705796Y0139392D01*
X0705374Y0138565D01*
X0705087Y0137682D01*
X0704942Y0136764D01*
X0704942Y0136300D01*
X0710842Y0136300D01*
X0704942Y0136300D01*
X0704942Y0135836D01*
X0705087Y0134918D01*
X0705374Y0134035D01*
X0705796Y0133208D01*
X0706342Y0132456D01*
X0706508Y0132290D01*
X0704653Y0130435D01*
X0703542Y0127752D01*
X0703542Y0124848D01*
X0704514Y0122500D01*
X0685119Y0122500D01*
X0685867Y0124306D01*
X0685867Y0128294D01*
X0684341Y0131979D01*
X0681521Y0134799D01*
X0677836Y0136325D01*
X0673848Y0136325D01*
X0670692Y0135018D01*
X0670692Y0139765D01*
X0669953Y0141547D01*
X0668589Y0142912D01*
X0666807Y0143650D01*
X0647551Y0143650D01*
X0649953Y0146053D01*
X0650000Y0146164D01*
X0651413Y0147577D01*
X0652413Y0149993D01*
X0652413Y0152607D01*
X0651413Y0155023D01*
X0649564Y0156871D01*
X0647149Y0157872D01*
X0644535Y0157872D01*
X0642119Y0156871D01*
X0641809Y0156561D01*
X0642212Y0157533D01*
X0642212Y0160067D01*
X0641242Y0162408D01*
X0639450Y0164200D01*
X0637109Y0165170D01*
X0634575Y0165170D01*
X0632233Y0164200D01*
X0630442Y0162408D01*
X0629873Y0161037D01*
X0576098Y0214812D01*
X0574354Y0216556D01*
X0572075Y0217500D01*
X0541314Y0217500D01*
X0540817Y0217997D01*
X0540370Y0218183D01*
X0540388Y0218208D01*
X0540810Y0219035D01*
X0541097Y0219918D01*
X0541242Y0220836D01*
X0541242Y0221300D01*
X0541242Y0221764D01*
X0541097Y0222682D01*
X0540810Y0223565D01*
X0540388Y0224392D01*
X0540007Y0224917D01*
X0540477Y0225111D01*
X0541816Y0226450D01*
X0569307Y0226450D01*
X0569902Y0226450D01*
X0572869Y0227414D01*
X0572869Y0227414D01*
X0575394Y0229248D01*
X0576997Y0231456D01*
X0577343Y0230621D01*
X0580163Y0227801D01*
X0583848Y0226275D01*
X0587836Y0226275D01*
X0591521Y0227801D01*
X0594341Y0230621D01*
X0595867Y0234306D01*
X0595867Y0238294D01*
X0594560Y0241450D01*
X0599073Y0241450D01*
X0599073Y0239954D01*
X0600104Y0237466D01*
X0602008Y0235562D01*
X0604495Y0234531D01*
X0607188Y0234531D01*
X0609676Y0235562D01*
X0610842Y0236728D01*
X0612008Y0235562D01*
X0614495Y0234531D01*
X0617188Y0234531D01*
X0619676Y0235562D01*
X0620842Y0236728D01*
X0622008Y0235562D01*
X0624495Y0234531D01*
X0627188Y0234531D01*
X0629676Y0235562D01*
X0630842Y0236728D01*
X0632008Y0235562D01*
X0634495Y0234531D01*
X0637188Y0234531D01*
X0639676Y0235562D01*
X0640842Y0236728D01*
X0642008Y0235562D01*
X0644495Y0234531D01*
X0647188Y0234531D01*
X0649676Y0235562D01*
X0651580Y0237466D01*
X0652610Y0239954D01*
X0652610Y0242646D01*
X0651580Y0245134D01*
X0649676Y0247038D01*
X0647188Y0248068D01*
X0644495Y0248068D01*
X0642008Y0247038D01*
X0640842Y0245872D01*
X0639676Y0247038D01*
X0637188Y0248068D01*
X0634495Y0248068D01*
X0632008Y0247038D01*
X0630842Y0245872D01*
X0629676Y0247038D01*
X0627188Y0248068D01*
X0624495Y0248068D01*
X0622008Y0247038D01*
X0620842Y0245872D01*
X0619799Y0246914D01*
X0619509Y0247997D01*
X0617225Y0251953D01*
X0613995Y0255183D01*
X0610039Y0257468D01*
X0605626Y0258650D01*
X0571386Y0258650D01*
X0567665Y0257441D01*
X0564500Y0255142D01*
X0562201Y0251977D01*
X0562201Y0251977D01*
X0560992Y0248256D01*
X0560992Y0246300D01*
X0560990Y0246277D01*
X0560975Y0246232D01*
X0560948Y0246194D01*
X0560910Y0246166D01*
X0560865Y0246152D01*
X0560842Y0246150D01*
X0540816Y0246150D01*
X0539477Y0247489D01*
X0536794Y0248600D01*
X0533890Y0248600D01*
X0531207Y0247489D01*
X0530981Y0247263D01*
X0530981Y0288043D01*
X0531368Y0287108D01*
X0533450Y0285027D01*
X0533649Y0284944D01*
X0533523Y0284818D01*
X0533023Y0284130D01*
X0532637Y0283373D01*
X0532375Y0282565D01*
X0532242Y0281725D01*
X0532242Y0281300D01*
X0540842Y0281300D01*
X0549442Y0281300D01*
X0549442Y0281725D01*
X0549309Y0282565D01*
X0549046Y0283373D01*
X0548660Y0284130D01*
X0548161Y0284818D01*
X0548034Y0284944D01*
X0548234Y0285027D01*
X0548307Y0285100D01*
X0555096Y0285100D01*
X0556955Y0284330D01*
X0559728Y0284330D01*
X0562290Y0285391D01*
X0564251Y0287352D01*
X0565312Y0289914D01*
X0565312Y0292686D01*
X0564251Y0295248D01*
X0562290Y0297209D01*
X0559728Y0298270D01*
X0556955Y0298270D01*
X0555096Y0297500D01*
X0549828Y0297500D01*
X0550842Y0299947D01*
X0550842Y0302653D01*
X0549807Y0305152D01*
X0547894Y0307065D01*
X0545394Y0308100D01*
X0536289Y0308100D01*
X0533790Y0307065D01*
X0532875Y0306150D01*
X0530351Y0306150D01*
X0518956Y0317545D01*
X0518956Y0319311D01*
X0517986Y0321653D01*
X0516194Y0323444D01*
X0513853Y0324414D01*
X0511319Y0324414D01*
X0508978Y0323444D01*
X0507186Y0321653D01*
X0507060Y0321350D01*
X0493310Y0335100D01*
X0493717Y0334693D02*
X0666181Y0334693D01*
X0667142Y0332295D02*
X0496115Y0332295D01*
X0498514Y0329896D02*
X0667142Y0329896D01*
X0667142Y0327498D02*
X0500912Y0327498D01*
X0503311Y0325099D02*
X0667142Y0325099D01*
X0667142Y0322701D02*
X0516938Y0322701D01*
X0518546Y0320302D02*
X0667142Y0320302D01*
X0667142Y0317903D02*
X0657801Y0317903D01*
X0653883Y0317903D02*
X0518956Y0317903D01*
X0520996Y0315505D02*
X0650518Y0315505D01*
X0649480Y0313106D02*
X0523394Y0313106D01*
X0525793Y0310708D02*
X0633741Y0310708D01*
X0632279Y0308309D02*
X0528191Y0308309D01*
X0549048Y0305911D02*
X0631972Y0305911D01*
X0632602Y0303512D02*
X0550486Y0303512D01*
X0550842Y0301114D02*
X0634519Y0301114D01*
X0636785Y0296317D02*
X0618247Y0296317D01*
X0618789Y0295775D02*
X0616567Y0297997D01*
X0613663Y0299200D01*
X0610520Y0299200D01*
X0607617Y0297997D01*
X0605395Y0295775D01*
X0604192Y0292871D01*
X0604192Y0289729D01*
X0605395Y0286825D01*
X0607617Y0284603D01*
X0609587Y0283787D01*
X0611663Y0281711D01*
X0612433Y0279852D01*
X0614394Y0277891D01*
X0616955Y0276830D01*
X0619728Y0276830D01*
X0622290Y0277891D01*
X0624251Y0279852D01*
X0625312Y0282414D01*
X0625312Y0285186D01*
X0624251Y0287748D01*
X0622290Y0289709D01*
X0620431Y0290479D01*
X0619992Y0290918D01*
X0619992Y0292871D01*
X0618789Y0295775D01*
X0619558Y0293918D02*
X0635275Y0293918D01*
X0634792Y0291520D02*
X0619992Y0291520D01*
X0622877Y0289121D02*
X0635093Y0289121D01*
X0636345Y0286723D02*
X0624675Y0286723D01*
X0625312Y0284324D02*
X0639857Y0284324D01*
X0644327Y0284324D02*
X0655692Y0284324D01*
X0657415Y0281926D02*
X0625110Y0281926D01*
X0623926Y0279527D02*
X0633942Y0279527D01*
X0632065Y0277129D02*
X0620450Y0277129D01*
X0616234Y0277129D02*
X0547488Y0277129D01*
X0547560Y0277181D02*
X0548161Y0277782D01*
X0548660Y0278470D01*
X0549046Y0279227D01*
X0549309Y0280035D01*
X0549442Y0280875D01*
X0549442Y0281300D01*
X0540842Y0281300D01*
X0540842Y0281300D01*
X0540842Y0275900D01*
X0544467Y0275900D01*
X0545306Y0276033D01*
X0546115Y0276296D01*
X0546872Y0276682D01*
X0547560Y0277181D01*
X0549144Y0279527D02*
X0612757Y0279527D01*
X0611448Y0281926D02*
X0549410Y0281926D01*
X0548519Y0284324D02*
X0608289Y0284324D01*
X0605497Y0286723D02*
X0563622Y0286723D01*
X0564984Y0289121D02*
X0604443Y0289121D01*
X0604192Y0291520D02*
X0565312Y0291520D01*
X0564802Y0293918D02*
X0604625Y0293918D01*
X0605936Y0296317D02*
X0563182Y0296317D01*
X0550331Y0298715D02*
X0609351Y0298715D01*
X0614833Y0298715D02*
X0648533Y0298715D01*
X0648472Y0296317D02*
X0647399Y0296317D01*
X0649647Y0301114D02*
X0642164Y0301114D01*
X0665864Y0315505D02*
X0667142Y0315505D01*
X0678192Y0291450D02*
X0696135Y0291450D01*
X0694933Y0290248D01*
X0693872Y0287686D01*
X0693872Y0284914D01*
X0694933Y0282352D01*
X0696894Y0280391D01*
X0699455Y0279330D01*
X0702228Y0279330D01*
X0704087Y0280100D01*
X0705810Y0280100D01*
X0705296Y0279392D01*
X0704874Y0278565D01*
X0704587Y0277682D01*
X0704442Y0276764D01*
X0704442Y0276300D01*
X0710342Y0276300D01*
X0710342Y0270400D01*
X0710806Y0270400D01*
X0711723Y0270545D01*
X0712607Y0270832D01*
X0713434Y0271254D01*
X0714185Y0271800D01*
X0714842Y0272456D01*
X0715388Y0273208D01*
X0715810Y0274035D01*
X0715842Y0274134D01*
X0715842Y0261124D01*
X0714477Y0262489D01*
X0711794Y0263600D01*
X0708890Y0263600D01*
X0706207Y0262489D01*
X0705109Y0261391D01*
X0704442Y0262059D01*
X0704442Y0269854D01*
X0703703Y0271636D01*
X0692272Y0283067D01*
X0690908Y0284432D01*
X0689125Y0285170D01*
X0678192Y0285170D01*
X0678192Y0291450D01*
X0678192Y0289121D02*
X0694466Y0289121D01*
X0693872Y0286723D02*
X0678192Y0286723D01*
X0691015Y0284324D02*
X0694116Y0284324D01*
X0693414Y0281926D02*
X0695359Y0281926D01*
X0695812Y0279527D02*
X0698979Y0279527D01*
X0698211Y0277129D02*
X0704500Y0277129D01*
X0704442Y0276300D02*
X0704442Y0275836D01*
X0704587Y0274918D01*
X0704874Y0274035D01*
X0705296Y0273208D01*
X0705842Y0272456D01*
X0706498Y0271800D01*
X0707250Y0271254D01*
X0708077Y0270832D01*
X0708960Y0270545D01*
X0709877Y0270400D01*
X0710342Y0270400D01*
X0710342Y0276300D01*
X0710342Y0276300D01*
X0704442Y0276300D01*
X0704648Y0274730D02*
X0700609Y0274730D01*
X0703008Y0272332D02*
X0705966Y0272332D01*
X0704409Y0269933D02*
X0715842Y0269933D01*
X0715842Y0267535D02*
X0704442Y0267535D01*
X0704442Y0265136D02*
X0715842Y0265136D01*
X0715842Y0262738D02*
X0713876Y0262738D01*
X0706808Y0262738D02*
X0704442Y0262738D01*
X0710342Y0272332D02*
X0710342Y0272332D01*
X0710342Y0274730D02*
X0710342Y0274730D01*
X0710342Y0276300D02*
X0710342Y0276300D01*
X0714717Y0272332D02*
X0715842Y0272332D01*
X0705394Y0279527D02*
X0702705Y0279527D01*
X0677142Y0257941D02*
X0608273Y0257941D01*
X0613374Y0255542D02*
X0677142Y0255542D01*
X0677142Y0253144D02*
X0616035Y0253144D01*
X0617225Y0251953D02*
X0617225Y0251953D01*
X0617923Y0250745D02*
X0677142Y0250745D01*
X0677142Y0248347D02*
X0619307Y0248347D01*
X0619509Y0247997D02*
X0619509Y0247997D01*
X0620766Y0245948D02*
X0620918Y0245948D01*
X0630766Y0245948D02*
X0630918Y0245948D01*
X0640766Y0245948D02*
X0640918Y0245948D01*
X0650766Y0245948D02*
X0662938Y0245948D01*
X0663848Y0246325D02*
X0660163Y0244799D01*
X0657343Y0241979D01*
X0655817Y0238294D01*
X0655817Y0234306D01*
X0657343Y0230621D01*
X0660163Y0227801D01*
X0663848Y0226275D01*
X0667836Y0226275D01*
X0671521Y0227801D01*
X0674341Y0230621D01*
X0675867Y0234306D01*
X0675867Y0238294D01*
X0674341Y0241979D01*
X0671521Y0244799D01*
X0667836Y0246325D01*
X0663848Y0246325D01*
X0668746Y0245948D02*
X0677142Y0245948D01*
X0677142Y0243550D02*
X0672770Y0243550D01*
X0674683Y0241151D02*
X0677142Y0241151D01*
X0677142Y0238753D02*
X0675677Y0238753D01*
X0675867Y0236354D02*
X0677142Y0236354D01*
X0677142Y0233956D02*
X0675722Y0233956D01*
X0674728Y0231557D02*
X0677142Y0231557D01*
X0677142Y0229159D02*
X0672878Y0229159D01*
X0669007Y0226760D02*
X0677142Y0226760D01*
X0677142Y0224362D02*
X0540404Y0224362D01*
X0541210Y0221963D02*
X0677142Y0221963D01*
X0677142Y0219565D02*
X0540982Y0219565D01*
X0541242Y0221300D02*
X0535342Y0221300D01*
X0541242Y0221300D01*
X0535342Y0221300D02*
X0535342Y0221300D01*
X0519642Y0215928D02*
X0519642Y0214545D01*
X0518872Y0212686D01*
X0518872Y0209914D01*
X0519933Y0207352D01*
X0521894Y0205391D01*
X0524455Y0204330D01*
X0527228Y0204330D01*
X0528999Y0205064D01*
X0528042Y0202752D01*
X0528042Y0199848D01*
X0529153Y0197165D01*
X0530518Y0195800D01*
X0530153Y0195435D01*
X0529042Y0192752D01*
X0529042Y0189848D01*
X0530153Y0187165D01*
X0532207Y0185111D01*
X0534890Y0184000D01*
X0537794Y0184000D01*
X0540477Y0185111D01*
X0541816Y0186450D01*
X0551333Y0186450D01*
X0553492Y0184291D01*
X0553492Y0145335D01*
X0554230Y0143553D01*
X0555595Y0142188D01*
X0559230Y0138553D01*
X0560595Y0137188D01*
X0562377Y0136450D01*
X0584198Y0136450D01*
X0582771Y0135023D01*
X0581770Y0132607D01*
X0581770Y0129993D01*
X0582771Y0127577D01*
X0584619Y0125729D01*
X0587035Y0124728D01*
X0589649Y0124728D01*
X0592064Y0125729D01*
X0593342Y0127006D01*
X0594619Y0125729D01*
X0597035Y0124728D01*
X0599649Y0124728D01*
X0602064Y0125729D01*
X0603342Y0127006D01*
X0604619Y0125729D01*
X0607035Y0124728D01*
X0609649Y0124728D01*
X0612064Y0125729D01*
X0613342Y0127006D01*
X0614619Y0125729D01*
X0617035Y0124728D01*
X0619649Y0124728D01*
X0622064Y0125729D01*
X0623342Y0127006D01*
X0624619Y0125729D01*
X0627035Y0124728D01*
X0629649Y0124728D01*
X0632064Y0125729D01*
X0633342Y0127006D01*
X0634619Y0125729D01*
X0637035Y0124728D01*
X0639649Y0124728D01*
X0642064Y0125729D01*
X0643342Y0127006D01*
X0644619Y0125729D01*
X0647035Y0124728D01*
X0649649Y0124728D01*
X0652064Y0125729D01*
X0653342Y0127006D01*
X0654619Y0125729D01*
X0657035Y0124728D01*
X0659649Y0124728D01*
X0660992Y0125285D01*
X0660992Y0115890D01*
X0659109Y0116670D01*
X0658331Y0116670D01*
X0653589Y0121412D01*
X0651807Y0122150D01*
X0579974Y0122150D01*
X0580867Y0124306D01*
X0580867Y0128294D01*
X0579341Y0131979D01*
X0576521Y0134799D01*
X0572836Y0136325D01*
X0568848Y0136325D01*
X0565163Y0134799D01*
X0562343Y0131979D01*
X0560817Y0128294D01*
X0560817Y0124306D01*
X0561710Y0122150D01*
X0491877Y0122150D01*
X0490867Y0121732D01*
X0490867Y0123294D01*
X0489341Y0126979D01*
X0486521Y0129799D01*
X0482836Y0131325D01*
X0478848Y0131325D01*
X0475692Y0130018D01*
X0475692Y0206593D01*
X0476894Y0205391D01*
X0479455Y0204330D01*
X0482228Y0204330D01*
X0484087Y0205100D01*
X0489014Y0205100D01*
X0488042Y0202752D01*
X0488042Y0199848D01*
X0489153Y0197165D01*
X0490518Y0195800D01*
X0490153Y0195435D01*
X0489042Y0192752D01*
X0489042Y0189848D01*
X0490153Y0187165D01*
X0492207Y0185111D01*
X0494890Y0184000D01*
X0497794Y0184000D01*
X0500477Y0185111D01*
X0502530Y0187165D01*
X0503642Y0189848D01*
X0503642Y0192752D01*
X0503499Y0193098D01*
X0512589Y0202188D01*
X0513953Y0203553D01*
X0514692Y0205335D01*
X0514692Y0249265D01*
X0513953Y0251047D01*
X0501953Y0263047D01*
X0500589Y0264412D01*
X0498807Y0265150D01*
X0482263Y0265150D01*
X0482263Y0266300D01*
X0482263Y0269561D01*
X0482114Y0270121D01*
X0481824Y0270622D01*
X0481414Y0271032D01*
X0480913Y0271322D01*
X0480353Y0271472D01*
X0477092Y0271472D01*
X0477092Y0266300D01*
X0482263Y0266300D01*
X0477092Y0266300D01*
X0477092Y0266300D01*
X0477092Y0266300D01*
X0477092Y0271472D01*
X0473831Y0271472D01*
X0473271Y0271322D01*
X0472769Y0271032D01*
X0472360Y0270622D01*
X0472070Y0270121D01*
X0471920Y0269561D01*
X0471920Y0266300D01*
X0477092Y0266300D01*
X0471920Y0266300D01*
X0471920Y0265150D01*
X0448851Y0265150D01*
X0447953Y0266047D01*
X0446589Y0267412D01*
X0444807Y0268150D01*
X0441000Y0268150D01*
X0440450Y0268700D01*
X0438109Y0269670D01*
X0435720Y0269670D01*
X0436242Y0270192D01*
X0437212Y0272533D01*
X0437212Y0275067D01*
X0436639Y0276450D01*
X0476807Y0276450D01*
X0478589Y0277188D01*
X0490531Y0289130D01*
X0491368Y0287108D01*
X0493450Y0285027D01*
X0493649Y0284944D01*
X0493523Y0284818D01*
X0493023Y0284130D01*
X0492637Y0283373D01*
X0492375Y0282565D01*
X0492242Y0281725D01*
X0492242Y0281300D01*
X0500842Y0281300D01*
X0509442Y0281300D01*
X0509442Y0281725D01*
X0509309Y0282565D01*
X0509046Y0283373D01*
X0508660Y0284130D01*
X0508161Y0284818D01*
X0508034Y0284944D01*
X0508234Y0285027D01*
X0508307Y0285100D01*
X0512596Y0285100D01*
X0514455Y0284330D01*
X0517228Y0284330D01*
X0518581Y0284890D01*
X0518581Y0218324D01*
X0519525Y0216045D01*
X0519642Y0215928D01*
X0519642Y0214768D02*
X0514692Y0214768D01*
X0514692Y0217166D02*
X0519061Y0217166D01*
X0518581Y0219565D02*
X0514692Y0219565D01*
X0514692Y0221963D02*
X0518581Y0221963D01*
X0518581Y0224362D02*
X0514692Y0224362D01*
X0514692Y0226760D02*
X0518581Y0226760D01*
X0518581Y0229159D02*
X0514692Y0229159D01*
X0514692Y0231557D02*
X0518581Y0231557D01*
X0518581Y0233956D02*
X0514692Y0233956D01*
X0514692Y0236354D02*
X0518581Y0236354D01*
X0518581Y0238753D02*
X0514692Y0238753D01*
X0514692Y0241151D02*
X0518581Y0241151D01*
X0518581Y0243550D02*
X0514692Y0243550D01*
X0514692Y0245948D02*
X0518581Y0245948D01*
X0518581Y0248347D02*
X0514692Y0248347D01*
X0514079Y0250745D02*
X0518581Y0250745D01*
X0518581Y0253144D02*
X0511857Y0253144D01*
X0509459Y0255542D02*
X0518581Y0255542D01*
X0518581Y0257941D02*
X0507060Y0257941D01*
X0504662Y0260339D02*
X0518581Y0260339D01*
X0518581Y0262738D02*
X0502263Y0262738D01*
X0498840Y0265136D02*
X0518581Y0265136D01*
X0518581Y0267535D02*
X0482263Y0267535D01*
X0482164Y0269933D02*
X0518581Y0269933D01*
X0518581Y0272332D02*
X0437128Y0272332D01*
X0437212Y0274730D02*
X0518581Y0274730D01*
X0518581Y0277129D02*
X0507488Y0277129D01*
X0507560Y0277181D02*
X0508161Y0277782D01*
X0508660Y0278470D01*
X0509046Y0279227D01*
X0509309Y0280035D01*
X0509442Y0280875D01*
X0509442Y0281300D01*
X0500842Y0281300D01*
X0500842Y0281300D01*
X0500842Y0275900D01*
X0504467Y0275900D01*
X0505306Y0276033D01*
X0506115Y0276296D01*
X0506872Y0276682D01*
X0507560Y0277181D01*
X0509144Y0279527D02*
X0518581Y0279527D01*
X0518581Y0281926D02*
X0509410Y0281926D01*
X0508519Y0284324D02*
X0518581Y0284324D01*
X0530981Y0284324D02*
X0533164Y0284324D01*
X0532274Y0281926D02*
X0530981Y0281926D01*
X0532242Y0281300D02*
X0532242Y0280875D01*
X0532375Y0280035D01*
X0532637Y0279227D01*
X0533023Y0278470D01*
X0533523Y0277782D01*
X0534124Y0277181D01*
X0534812Y0276682D01*
X0535569Y0276296D01*
X0536377Y0276033D01*
X0537217Y0275900D01*
X0540842Y0275900D01*
X0540842Y0281300D01*
X0540842Y0281300D01*
X0532242Y0281300D01*
X0532540Y0279527D02*
X0530981Y0279527D01*
X0530981Y0277129D02*
X0534196Y0277129D01*
X0530981Y0274730D02*
X0631372Y0274730D01*
X0631518Y0272332D02*
X0530981Y0272332D01*
X0530981Y0269933D02*
X0632621Y0269933D01*
X0635906Y0267535D02*
X0530981Y0267535D01*
X0530981Y0265136D02*
X0638872Y0265136D01*
X0639773Y0262738D02*
X0530981Y0262738D01*
X0530981Y0260339D02*
X0642019Y0260339D01*
X0613995Y0255183D02*
X0613995Y0255183D01*
X0599073Y0241151D02*
X0594683Y0241151D01*
X0595677Y0238753D02*
X0599571Y0238753D01*
X0601216Y0236354D02*
X0595867Y0236354D01*
X0595722Y0233956D02*
X0655962Y0233956D01*
X0655817Y0236354D02*
X0650468Y0236354D01*
X0652113Y0238753D02*
X0656007Y0238753D01*
X0657000Y0241151D02*
X0652610Y0241151D01*
X0652236Y0243550D02*
X0658914Y0243550D01*
X0656955Y0231557D02*
X0594728Y0231557D01*
X0592878Y0229159D02*
X0658806Y0229159D01*
X0662677Y0226760D02*
X0589007Y0226760D01*
X0582677Y0226760D02*
X0570856Y0226760D01*
X0569902Y0226450D02*
X0569902Y0226450D01*
X0575270Y0229159D02*
X0578806Y0229159D01*
X0575394Y0229248D02*
X0575394Y0229248D01*
X0572881Y0217166D02*
X0677142Y0217166D01*
X0677142Y0214768D02*
X0576142Y0214768D01*
X0578541Y0212369D02*
X0677142Y0212369D01*
X0677142Y0209970D02*
X0580939Y0209970D01*
X0583338Y0207572D02*
X0677142Y0207572D01*
X0677142Y0205173D02*
X0585736Y0205173D01*
X0588135Y0202775D02*
X0677142Y0202775D01*
X0677142Y0200376D02*
X0590533Y0200376D01*
X0592932Y0197978D02*
X0678007Y0197978D01*
X0680294Y0195579D02*
X0595330Y0195579D01*
X0597729Y0193181D02*
X0682693Y0193181D01*
X0685091Y0190782D02*
X0600128Y0190782D01*
X0602526Y0188384D02*
X0687490Y0188384D01*
X0689888Y0185985D02*
X0604925Y0185985D01*
X0607323Y0183587D02*
X0692287Y0183587D01*
X0694685Y0181188D02*
X0609722Y0181188D01*
X0612120Y0178790D02*
X0697084Y0178790D01*
X0697386Y0178488D02*
X0697386Y0178488D01*
X0699981Y0176391D02*
X0614519Y0176391D01*
X0616917Y0173993D02*
X0703696Y0173993D01*
X0702942Y0171594D02*
X0619316Y0171594D01*
X0621714Y0169196D02*
X0702942Y0169196D01*
X0703866Y0166797D02*
X0624113Y0166797D01*
X0626511Y0164399D02*
X0632713Y0164399D01*
X0630273Y0162000D02*
X0628910Y0162000D01*
X0638971Y0164399D02*
X0705871Y0164399D01*
X0715813Y0164399D02*
X0715842Y0164399D01*
X0715842Y0162000D02*
X0641411Y0162000D01*
X0642212Y0159602D02*
X0715842Y0159602D01*
X0715842Y0157203D02*
X0648763Y0157203D01*
X0651503Y0154805D02*
X0715842Y0154805D01*
X0715842Y0152406D02*
X0652413Y0152406D01*
X0652413Y0150008D02*
X0715842Y0150008D01*
X0715842Y0147609D02*
X0651426Y0147609D01*
X0649111Y0145211D02*
X0715842Y0145211D01*
X0715842Y0142812D02*
X0668689Y0142812D01*
X0670423Y0140414D02*
X0706612Y0140414D01*
X0705195Y0138015D02*
X0670692Y0138015D01*
X0670692Y0135617D02*
X0672138Y0135617D01*
X0679546Y0135617D02*
X0704976Y0135617D01*
X0705790Y0133218D02*
X0683101Y0133218D01*
X0684821Y0130820D02*
X0705038Y0130820D01*
X0703819Y0128421D02*
X0685814Y0128421D01*
X0685867Y0126023D02*
X0703542Y0126023D01*
X0704049Y0123624D02*
X0685584Y0123624D01*
X0660992Y0123624D02*
X0580584Y0123624D01*
X0580867Y0126023D02*
X0584325Y0126023D01*
X0582421Y0128421D02*
X0580814Y0128421D01*
X0581770Y0130820D02*
X0579821Y0130820D01*
X0578101Y0133218D02*
X0582023Y0133218D01*
X0583365Y0135617D02*
X0574546Y0135617D01*
X0567138Y0135617D02*
X0475692Y0135617D01*
X0475692Y0138015D02*
X0559768Y0138015D01*
X0557369Y0140414D02*
X0475692Y0140414D01*
X0475692Y0142812D02*
X0535152Y0142812D01*
X0535163Y0142801D02*
X0538848Y0141275D01*
X0542836Y0141275D01*
X0546521Y0142801D01*
X0549341Y0145621D01*
X0550867Y0149306D01*
X0550867Y0153294D01*
X0549341Y0156979D01*
X0546521Y0159799D01*
X0542836Y0161325D01*
X0538848Y0161325D01*
X0535163Y0159799D01*
X0532343Y0156979D01*
X0530817Y0153294D01*
X0530817Y0149306D01*
X0532343Y0145621D01*
X0535163Y0142801D01*
X0532754Y0145211D02*
X0475692Y0145211D01*
X0475692Y0147609D02*
X0531520Y0147609D01*
X0530817Y0150008D02*
X0475692Y0150008D01*
X0475692Y0152406D02*
X0530817Y0152406D01*
X0531443Y0154805D02*
X0475692Y0154805D01*
X0475692Y0157203D02*
X0532568Y0157203D01*
X0534966Y0159602D02*
X0475692Y0159602D01*
X0475692Y0162000D02*
X0553492Y0162000D01*
X0553492Y0159602D02*
X0546718Y0159602D01*
X0549116Y0157203D02*
X0553492Y0157203D01*
X0553492Y0154805D02*
X0550241Y0154805D01*
X0550867Y0152406D02*
X0553492Y0152406D01*
X0553492Y0150008D02*
X0550867Y0150008D01*
X0550164Y0147609D02*
X0553492Y0147609D01*
X0553543Y0145211D02*
X0548930Y0145211D01*
X0546531Y0142812D02*
X0554971Y0142812D01*
X0563582Y0133218D02*
X0475692Y0133218D01*
X0475692Y0130820D02*
X0477628Y0130820D01*
X0484056Y0130820D02*
X0561863Y0130820D01*
X0560869Y0128421D02*
X0487898Y0128421D01*
X0489737Y0126023D02*
X0560817Y0126023D01*
X0561099Y0123624D02*
X0490730Y0123624D01*
X0480842Y0096300D02*
X0480842Y0091128D01*
X0481249Y0091128D01*
X0482053Y0091256D01*
X0482827Y0091507D01*
X0483552Y0091877D01*
X0484211Y0092355D01*
X0484566Y0092710D01*
X0484762Y0092238D01*
X0486779Y0090220D01*
X0489415Y0089128D01*
X0492268Y0089128D01*
X0494904Y0090220D01*
X0496266Y0091582D01*
X0497119Y0090729D01*
X0497249Y0090675D01*
X0497629Y0089154D01*
X0496972Y0087567D01*
X0496972Y0085033D01*
X0497942Y0082692D01*
X0498281Y0082352D01*
X0497119Y0081871D01*
X0495842Y0080594D01*
X0494564Y0081871D01*
X0492149Y0082872D01*
X0489535Y0082872D01*
X0487119Y0081871D01*
X0485842Y0080594D01*
X0484564Y0081871D01*
X0482149Y0082872D01*
X0479535Y0082872D01*
X0477119Y0081871D01*
X0475271Y0080023D01*
X0474270Y0077607D01*
X0474270Y0074993D01*
X0475271Y0072577D01*
X0477119Y0070729D01*
X0479535Y0069728D01*
X0482149Y0069728D01*
X0484564Y0070729D01*
X0485842Y0072006D01*
X0487119Y0070729D01*
X0489535Y0069728D01*
X0492149Y0069728D01*
X0494564Y0070729D01*
X0495842Y0072006D01*
X0497119Y0070729D01*
X0499535Y0069728D01*
X0502149Y0069728D01*
X0504564Y0070729D01*
X0505842Y0072006D01*
X0505992Y0071856D01*
X0505992Y0048309D01*
X0503833Y0046150D01*
X0446016Y0046150D01*
X0447030Y0047165D01*
X0448142Y0049848D01*
X0448142Y0052752D01*
X0447030Y0055435D01*
X0446166Y0056300D01*
X0446316Y0056450D01*
X0446807Y0056450D01*
X0448589Y0057188D01*
X0451089Y0059688D01*
X0451089Y0059688D01*
X0451988Y0060587D01*
X0453575Y0059930D01*
X0456109Y0059930D01*
X0458450Y0060900D01*
X0460242Y0062692D01*
X0461212Y0065033D01*
X0461212Y0067567D01*
X0461140Y0067740D01*
X0477589Y0084188D01*
X0478953Y0085553D01*
X0479692Y0087335D01*
X0479692Y0091246D01*
X0480435Y0091128D01*
X0480842Y0091128D01*
X0480842Y0096300D01*
X0480842Y0096300D01*
X0480842Y0094842D02*
X0480842Y0094842D01*
X0480842Y0092443D02*
X0480842Y0092443D01*
X0479692Y0090045D02*
X0487202Y0090045D01*
X0484677Y0092443D02*
X0484299Y0092443D01*
X0479692Y0087646D02*
X0497005Y0087646D01*
X0496972Y0085248D02*
X0478649Y0085248D01*
X0479481Y0082849D02*
X0476250Y0082849D01*
X0475699Y0080451D02*
X0473852Y0080451D01*
X0474455Y0078052D02*
X0471453Y0078052D01*
X0469055Y0075654D02*
X0474270Y0075654D01*
X0474990Y0073255D02*
X0466656Y0073255D01*
X0464258Y0070857D02*
X0476991Y0070857D01*
X0484692Y0070857D02*
X0486991Y0070857D01*
X0494692Y0070857D02*
X0496991Y0070857D01*
X0504692Y0070857D02*
X0505992Y0070857D01*
X0505992Y0068458D02*
X0461859Y0068458D01*
X0461212Y0066060D02*
X0505992Y0066060D01*
X0505992Y0063661D02*
X0460644Y0063661D01*
X0458813Y0061263D02*
X0505992Y0061263D01*
X0505992Y0058864D02*
X0450265Y0058864D01*
X0446845Y0056466D02*
X0505992Y0056466D01*
X0505992Y0054067D02*
X0447597Y0054067D01*
X0448142Y0051669D02*
X0505992Y0051669D01*
X0505992Y0049270D02*
X0447902Y0049270D01*
X0446737Y0046872D02*
X0504555Y0046872D01*
X0545296Y0073650D02*
X0553492Y0073650D01*
X0553492Y0088154D01*
X0552326Y0086987D01*
X0544879Y0079541D01*
X0545265Y0079011D01*
X0545635Y0078285D01*
X0545886Y0077511D01*
X0546013Y0076707D01*
X0546013Y0076300D01*
X0540842Y0076300D01*
X0540842Y0076300D01*
X0546013Y0076300D01*
X0546013Y0075893D01*
X0545886Y0075089D01*
X0545635Y0074315D01*
X0545296Y0073650D01*
X0545976Y0075654D02*
X0553492Y0075654D01*
X0553492Y0078052D02*
X0545710Y0078052D01*
X0545789Y0080451D02*
X0553492Y0080451D01*
X0553492Y0082849D02*
X0548188Y0082849D01*
X0550586Y0085248D02*
X0553492Y0085248D01*
X0553492Y0087646D02*
X0552985Y0087646D01*
X0497876Y0082849D02*
X0492203Y0082849D01*
X0489481Y0082849D02*
X0482203Y0082849D01*
X0494481Y0090045D02*
X0497406Y0090045D01*
X0592358Y0126023D02*
X0594325Y0126023D01*
X0602358Y0126023D02*
X0604325Y0126023D01*
X0612358Y0126023D02*
X0614325Y0126023D01*
X0622358Y0126023D02*
X0624325Y0126023D01*
X0632358Y0126023D02*
X0634325Y0126023D01*
X0642358Y0126023D02*
X0644325Y0126023D01*
X0652358Y0126023D02*
X0654325Y0126023D01*
X0653775Y0121226D02*
X0660992Y0121226D01*
X0660992Y0118827D02*
X0656174Y0118827D01*
X0659692Y0116429D02*
X0660992Y0116429D01*
X0710842Y0136300D02*
X0710842Y0136300D01*
X0710842Y0138015D02*
X0710842Y0138015D01*
X0710842Y0140414D02*
X0710842Y0140414D01*
X0715072Y0140414D02*
X0715842Y0140414D01*
X0642921Y0157203D02*
X0642075Y0157203D01*
X0617025Y0156349D02*
X0616249Y0156472D01*
X0615842Y0156472D01*
X0615842Y0151300D01*
X0615842Y0151300D01*
X0615842Y0156472D01*
X0615435Y0156472D01*
X0614631Y0156344D01*
X0613857Y0156093D01*
X0613131Y0155723D01*
X0612473Y0155245D01*
X0611897Y0154669D01*
X0611818Y0154560D01*
X0611580Y0155134D01*
X0609676Y0157038D01*
X0607188Y0158068D01*
X0604495Y0158068D01*
X0602008Y0157038D01*
X0600104Y0155134D01*
X0599073Y0152646D01*
X0599073Y0151150D01*
X0568192Y0151150D01*
X0568192Y0189765D01*
X0567453Y0191547D01*
X0553901Y0205100D01*
X0568274Y0205100D01*
X0617025Y0156349D01*
X0616170Y0157203D02*
X0609277Y0157203D01*
X0611716Y0154805D02*
X0612033Y0154805D01*
X0615842Y0154805D02*
X0615842Y0154805D01*
X0615842Y0152406D02*
X0615842Y0152406D01*
X0613772Y0159602D02*
X0568192Y0159602D01*
X0568192Y0162000D02*
X0611373Y0162000D01*
X0608975Y0164399D02*
X0568192Y0164399D01*
X0568192Y0166797D02*
X0606576Y0166797D01*
X0604178Y0169196D02*
X0568192Y0169196D01*
X0568192Y0171594D02*
X0601779Y0171594D01*
X0599381Y0173993D02*
X0568192Y0173993D01*
X0568192Y0176391D02*
X0596982Y0176391D01*
X0594584Y0178790D02*
X0568192Y0178790D01*
X0568192Y0181188D02*
X0592185Y0181188D01*
X0589787Y0183587D02*
X0568192Y0183587D01*
X0568192Y0185985D02*
X0587388Y0185985D01*
X0584990Y0188384D02*
X0568192Y0188384D01*
X0567770Y0190782D02*
X0582591Y0190782D01*
X0580193Y0193181D02*
X0565820Y0193181D01*
X0563421Y0195579D02*
X0577794Y0195579D01*
X0575396Y0197978D02*
X0561023Y0197978D01*
X0558624Y0200376D02*
X0572997Y0200376D01*
X0570599Y0202775D02*
X0556226Y0202775D01*
X0530297Y0195579D02*
X0505980Y0195579D01*
X0503582Y0193181D02*
X0529219Y0193181D01*
X0529042Y0190782D02*
X0503642Y0190782D01*
X0503035Y0188384D02*
X0529648Y0188384D01*
X0531333Y0185985D02*
X0501351Y0185985D01*
X0491333Y0185985D02*
X0475692Y0185985D01*
X0475692Y0183587D02*
X0553492Y0183587D01*
X0553492Y0181188D02*
X0475692Y0181188D01*
X0475692Y0178790D02*
X0553492Y0178790D01*
X0553492Y0176391D02*
X0475692Y0176391D01*
X0475692Y0173993D02*
X0553492Y0173993D01*
X0553492Y0171594D02*
X0475692Y0171594D01*
X0475692Y0169196D02*
X0553492Y0169196D01*
X0553492Y0166797D02*
X0475692Y0166797D01*
X0475692Y0164399D02*
X0553492Y0164399D01*
X0568192Y0157203D02*
X0602407Y0157203D01*
X0599967Y0154805D02*
X0568192Y0154805D01*
X0568192Y0152406D02*
X0599073Y0152406D01*
X0551797Y0185985D02*
X0541351Y0185985D01*
X0528816Y0197978D02*
X0508379Y0197978D01*
X0510777Y0200376D02*
X0528042Y0200376D01*
X0528051Y0202775D02*
X0513176Y0202775D01*
X0514625Y0205173D02*
X0522419Y0205173D01*
X0519842Y0207572D02*
X0514692Y0207572D01*
X0514692Y0209970D02*
X0518872Y0209970D01*
X0518872Y0212369D02*
X0514692Y0212369D01*
X0495342Y0221300D02*
X0489442Y0221300D01*
X0495342Y0221300D01*
X0495342Y0221300D01*
X0489442Y0221300D02*
X0489442Y0220836D01*
X0489587Y0219918D01*
X0489874Y0219035D01*
X0490296Y0218208D01*
X0490810Y0217500D01*
X0484087Y0217500D01*
X0482228Y0218270D01*
X0479455Y0218270D01*
X0478116Y0217715D01*
X0489395Y0228995D01*
X0490153Y0227165D01*
X0491510Y0225808D01*
X0491498Y0225800D01*
X0490842Y0225144D01*
X0490296Y0224392D01*
X0489874Y0223565D01*
X0489587Y0222682D01*
X0489442Y0221764D01*
X0489442Y0221300D01*
X0489473Y0221963D02*
X0482364Y0221963D01*
X0484762Y0224362D02*
X0490280Y0224362D01*
X0490558Y0226760D02*
X0487161Y0226760D01*
X0489702Y0219565D02*
X0479965Y0219565D01*
X0477419Y0205173D02*
X0475692Y0205173D01*
X0475692Y0202775D02*
X0488051Y0202775D01*
X0488042Y0200376D02*
X0475692Y0200376D01*
X0475692Y0197978D02*
X0488816Y0197978D01*
X0490297Y0195579D02*
X0475692Y0195579D01*
X0475692Y0193181D02*
X0489219Y0193181D01*
X0489042Y0190782D02*
X0475692Y0190782D01*
X0475692Y0188384D02*
X0489648Y0188384D01*
X0530981Y0248347D02*
X0533278Y0248347D01*
X0530981Y0250745D02*
X0561801Y0250745D01*
X0561021Y0248347D02*
X0537405Y0248347D01*
X0530981Y0253144D02*
X0563049Y0253144D01*
X0564500Y0255142D02*
X0564500Y0255142D01*
X0565052Y0255542D02*
X0530981Y0255542D01*
X0530981Y0257941D02*
X0569203Y0257941D01*
X0567665Y0257441D02*
X0567665Y0257441D01*
X0540842Y0277129D02*
X0540842Y0277129D01*
X0540842Y0279527D02*
X0540842Y0279527D01*
X0540842Y0281300D02*
X0540842Y0281300D01*
X0531754Y0286723D02*
X0530981Y0286723D01*
X0500842Y0281300D02*
X0500842Y0281300D01*
X0500842Y0275900D01*
X0497217Y0275900D01*
X0496377Y0276033D01*
X0495569Y0276296D01*
X0494812Y0276682D01*
X0494124Y0277181D01*
X0493523Y0277782D01*
X0493023Y0278470D01*
X0492637Y0279227D01*
X0492375Y0280035D01*
X0492242Y0280875D01*
X0492242Y0281300D01*
X0500842Y0281300D01*
X0500842Y0281300D01*
X0500842Y0279527D02*
X0500842Y0279527D01*
X0500842Y0277129D02*
X0500842Y0277129D01*
X0494196Y0277129D02*
X0478445Y0277129D01*
X0480928Y0279527D02*
X0492540Y0279527D01*
X0492274Y0281926D02*
X0483327Y0281926D01*
X0485725Y0284324D02*
X0493164Y0284324D01*
X0491754Y0286723D02*
X0488124Y0286723D01*
X0490522Y0289121D02*
X0490535Y0289121D01*
X0477092Y0269933D02*
X0477092Y0269933D01*
X0477092Y0267535D02*
X0477092Y0267535D01*
X0477092Y0266300D02*
X0477092Y0266300D01*
X0471920Y0267535D02*
X0446292Y0267535D01*
X0435984Y0269933D02*
X0472020Y0269933D01*
X0505709Y0322701D02*
X0508234Y0322701D01*
X0610468Y0236354D02*
X0611216Y0236354D01*
X0620468Y0236354D02*
X0621216Y0236354D01*
X0630468Y0236354D02*
X0631216Y0236354D01*
X0640468Y0236354D02*
X0641216Y0236354D01*
X0699542Y0236354D02*
X0704442Y0236354D01*
X0704442Y0236300D02*
X0710342Y0236300D01*
X0710342Y0230400D01*
X0710806Y0230400D01*
X0711723Y0230545D01*
X0712607Y0230832D01*
X0713434Y0231254D01*
X0714185Y0231800D01*
X0714842Y0232456D01*
X0715388Y0233208D01*
X0715810Y0234035D01*
X0715842Y0234134D01*
X0715842Y0219422D01*
X0715317Y0219947D01*
X0712413Y0221150D01*
X0709270Y0221150D01*
X0706494Y0220000D01*
X0703410Y0220000D01*
X0699542Y0223868D01*
X0699542Y0239330D01*
X0699728Y0239330D01*
X0701587Y0240100D01*
X0705810Y0240100D01*
X0705296Y0239392D01*
X0704874Y0238565D01*
X0704587Y0237682D01*
X0704442Y0236764D01*
X0704442Y0236300D01*
X0704442Y0235836D01*
X0704587Y0234918D01*
X0704874Y0234035D01*
X0705296Y0233208D01*
X0705842Y0232456D01*
X0706498Y0231800D01*
X0707250Y0231254D01*
X0708077Y0230832D01*
X0708960Y0230545D01*
X0709877Y0230400D01*
X0710342Y0230400D01*
X0710342Y0236300D01*
X0710342Y0236300D01*
X0704442Y0236300D01*
X0704915Y0233956D02*
X0699542Y0233956D01*
X0699542Y0231557D02*
X0706832Y0231557D01*
X0710342Y0231557D02*
X0710342Y0231557D01*
X0710342Y0233956D02*
X0710342Y0233956D01*
X0710342Y0236300D02*
X0710342Y0236300D01*
X0713851Y0231557D02*
X0715842Y0231557D01*
X0715842Y0229159D02*
X0699542Y0229159D01*
X0699542Y0226760D02*
X0715842Y0226760D01*
X0715842Y0224362D02*
X0699542Y0224362D01*
X0701447Y0221963D02*
X0715842Y0221963D01*
X0715842Y0219565D02*
X0715700Y0219565D01*
X0715769Y0233956D02*
X0715842Y0233956D01*
X0704970Y0238753D02*
X0699542Y0238753D01*
X0348695Y0303512D02*
X0107827Y0303512D01*
X0108142Y0301114D02*
X0346297Y0301114D01*
X0343898Y0298715D02*
X0107673Y0298715D01*
X0106182Y0296317D02*
X0339350Y0296317D01*
X0337532Y0293918D02*
X0287926Y0293918D01*
X0290498Y0291520D02*
X0336972Y0291520D01*
X0337349Y0289121D02*
X0292098Y0289121D01*
X0292878Y0286723D02*
X0338910Y0286723D01*
X0337007Y0284324D02*
X0293192Y0284324D01*
X0293192Y0281926D02*
X0334609Y0281926D01*
X0332210Y0279527D02*
X0293192Y0279527D01*
X0293192Y0277129D02*
X0330992Y0277129D01*
X0330992Y0274730D02*
X0293192Y0274730D01*
X0293192Y0272332D02*
X0330992Y0272332D01*
X0330992Y0269933D02*
X0327164Y0269933D01*
X0327114Y0270121D02*
X0326824Y0270622D01*
X0326414Y0271032D01*
X0325913Y0271322D01*
X0325353Y0271472D01*
X0322092Y0271472D01*
X0322092Y0266300D01*
X0327263Y0266300D01*
X0322092Y0266300D01*
X0322092Y0266300D01*
X0322092Y0266300D01*
X0322092Y0261128D01*
X0325353Y0261128D01*
X0325913Y0261278D01*
X0326414Y0261568D01*
X0326824Y0261978D01*
X0327114Y0262479D01*
X0327263Y0263039D01*
X0327263Y0266300D01*
X0327263Y0269561D01*
X0327114Y0270121D01*
X0327263Y0267535D02*
X0330992Y0267535D01*
X0330992Y0265136D02*
X0327263Y0265136D01*
X0327183Y0262738D02*
X0330992Y0262738D01*
X0330992Y0260339D02*
X0293192Y0260339D01*
X0293192Y0257941D02*
X0330992Y0257941D01*
X0330992Y0255542D02*
X0293192Y0255542D01*
X0293192Y0253144D02*
X0330992Y0253144D01*
X0330992Y0250745D02*
X0293192Y0250745D01*
X0293192Y0248347D02*
X0298778Y0248347D01*
X0302905Y0248347D02*
X0308778Y0248347D01*
X0312905Y0248347D02*
X0318778Y0248347D01*
X0322905Y0248347D02*
X0328778Y0248347D01*
X0332442Y0233956D02*
X0213755Y0233956D01*
X0217068Y0236354D02*
X0217612Y0236354D01*
X0220842Y0236354D02*
X0220842Y0236354D01*
X0220842Y0238753D02*
X0220842Y0238753D01*
X0220842Y0241151D02*
X0220842Y0241151D01*
X0220842Y0243550D02*
X0220842Y0243550D01*
X0220842Y0245948D02*
X0220842Y0245948D01*
X0224482Y0245948D02*
X0225166Y0245948D01*
X0225992Y0248347D02*
X0217042Y0248347D01*
X0217042Y0250745D02*
X0226398Y0250745D01*
X0228327Y0253144D02*
X0217042Y0253144D01*
X0217042Y0255542D02*
X0230725Y0255542D01*
X0233124Y0257941D02*
X0217042Y0257941D01*
X0217042Y0260339D02*
X0235522Y0260339D01*
X0237921Y0262738D02*
X0217042Y0262738D01*
X0217042Y0265136D02*
X0269493Y0265136D01*
X0272190Y0265136D02*
X0283492Y0265136D01*
X0283492Y0262738D02*
X0275913Y0262738D01*
X0277099Y0260339D02*
X0283492Y0260339D01*
X0283492Y0257941D02*
X0277212Y0257941D01*
X0274711Y0253144D02*
X0273832Y0253144D01*
X0274472Y0250745D02*
X0239646Y0250745D01*
X0238778Y0248347D02*
X0237247Y0248347D01*
X0242905Y0248347D02*
X0258778Y0248347D01*
X0262905Y0248347D02*
X0268778Y0248347D01*
X0272905Y0248347D02*
X0275170Y0248347D01*
X0267852Y0253144D02*
X0242044Y0253144D01*
X0246517Y0245948D02*
X0255166Y0245948D01*
X0253872Y0243550D02*
X0247811Y0243550D01*
X0248142Y0241151D02*
X0253542Y0241151D01*
X0253995Y0238753D02*
X0247688Y0238753D01*
X0246220Y0236354D02*
X0255464Y0236354D01*
X0262450Y0214768D02*
X0060842Y0214768D01*
X0060842Y0217166D02*
X0311839Y0217166D01*
X0310943Y0219565D02*
X0060842Y0219565D01*
X0060842Y0221963D02*
X0310943Y0221963D01*
X0311395Y0224362D02*
X0060842Y0224362D01*
X0060842Y0226760D02*
X0312389Y0226760D01*
X0314701Y0229159D02*
X0060842Y0229159D01*
X0060842Y0231557D02*
X0113495Y0231557D01*
X0113873Y0231401D02*
X0117811Y0231401D01*
X0121449Y0232908D01*
X0124234Y0235693D01*
X0125741Y0239331D01*
X0125741Y0243269D01*
X0124234Y0246907D01*
X0121449Y0249692D01*
X0117811Y0251199D01*
X0113873Y0251199D01*
X0110234Y0249692D01*
X0107450Y0246907D01*
X0105943Y0243269D01*
X0105943Y0239331D01*
X0107450Y0235693D01*
X0110234Y0232908D01*
X0113873Y0231401D01*
X0118188Y0231557D02*
X0332442Y0231557D01*
X0332442Y0229159D02*
X0326983Y0229159D01*
X0329295Y0226760D02*
X0332442Y0226760D01*
X0332442Y0224362D02*
X0330288Y0224362D01*
X0330741Y0221963D02*
X0332442Y0221963D01*
X0332247Y0219565D02*
X0330741Y0219565D01*
X0329849Y0217166D02*
X0329844Y0217166D01*
X0260052Y0212369D02*
X0060842Y0212369D01*
X0060842Y0209970D02*
X0257653Y0209970D01*
X0256119Y0207572D02*
X0060842Y0207572D01*
X0060842Y0205173D02*
X0255992Y0205173D01*
X0255992Y0202775D02*
X0060842Y0202775D01*
X0060842Y0200376D02*
X0255992Y0200376D01*
X0255992Y0197978D02*
X0060842Y0197978D01*
X0060842Y0195579D02*
X0255992Y0195579D01*
X0255992Y0193181D02*
X0060842Y0193181D01*
X0060842Y0190782D02*
X0255992Y0190782D01*
X0255992Y0188384D02*
X0060842Y0188384D01*
X0060842Y0185985D02*
X0255992Y0185985D01*
X0255992Y0183587D02*
X0060842Y0183587D01*
X0060842Y0181188D02*
X0255992Y0181188D01*
X0255992Y0178790D02*
X0060842Y0178790D01*
X0060842Y0176391D02*
X0255992Y0176391D01*
X0255992Y0173993D02*
X0060842Y0173993D01*
X0060842Y0171594D02*
X0255992Y0171594D01*
X0255992Y0169196D02*
X0060842Y0169196D01*
X0060842Y0166797D02*
X0255992Y0166797D01*
X0255992Y0164399D02*
X0060842Y0164399D01*
X0060842Y0162000D02*
X0255992Y0162000D01*
X0255992Y0159602D02*
X0060842Y0159602D01*
X0060842Y0157203D02*
X0255992Y0157203D01*
X0255992Y0154805D02*
X0060842Y0154805D01*
X0060842Y0152406D02*
X0255992Y0152406D01*
X0255992Y0150008D02*
X0060842Y0150008D01*
X0060842Y0147609D02*
X0255992Y0147609D01*
X0255992Y0145211D02*
X0060842Y0145211D01*
X0060842Y0142812D02*
X0255992Y0142812D01*
X0255992Y0140414D02*
X0060842Y0140414D01*
X0060842Y0138015D02*
X0255992Y0138015D01*
X0255992Y0135617D02*
X0060842Y0135617D01*
X0060842Y0133218D02*
X0255992Y0133218D01*
X0255992Y0130820D02*
X0060842Y0130820D01*
X0060842Y0128421D02*
X0255992Y0128421D01*
X0255992Y0126023D02*
X0060842Y0126023D01*
X0060842Y0123624D02*
X0255992Y0123624D01*
X0255992Y0121226D02*
X0060842Y0121226D01*
X0060842Y0118827D02*
X0255992Y0118827D01*
X0255992Y0116429D02*
X0060842Y0116429D01*
X0060842Y0114030D02*
X0255992Y0114030D01*
X0255992Y0111632D02*
X0060842Y0111632D01*
X0060842Y0109233D02*
X0255992Y0109233D01*
X0255992Y0106834D02*
X0060842Y0106834D01*
X0060842Y0104436D02*
X0255992Y0104436D01*
X0255992Y0102037D02*
X0060842Y0102037D01*
X0060842Y0099639D02*
X0255992Y0099639D01*
X0255992Y0097240D02*
X0060842Y0097240D01*
X0060842Y0094842D02*
X0255992Y0094842D01*
X0255992Y0092443D02*
X0060842Y0092443D01*
X0060842Y0090045D02*
X0255992Y0090045D01*
X0255992Y0087646D02*
X0060842Y0087646D01*
X0060842Y0085248D02*
X0255992Y0085248D01*
X0255992Y0082849D02*
X0060842Y0082849D01*
X0060842Y0080451D02*
X0248484Y0080451D01*
X0247173Y0078052D02*
X0060842Y0078052D01*
X0060842Y0075654D02*
X0245837Y0075654D01*
X0243438Y0073255D02*
X0060842Y0073255D01*
X0060842Y0070857D02*
X0241040Y0070857D01*
X0238641Y0068458D02*
X0060842Y0068458D01*
X0060842Y0066060D02*
X0236528Y0066060D01*
X0235992Y0063661D02*
X0060842Y0063661D01*
X0060842Y0061263D02*
X0235992Y0061263D01*
X0235992Y0058864D02*
X0127277Y0058864D01*
X0126449Y0059692D02*
X0122811Y0061199D01*
X0118873Y0061199D01*
X0115234Y0059692D01*
X0112450Y0056907D01*
X0110943Y0053269D01*
X0110943Y0049331D01*
X0112450Y0045693D01*
X0115234Y0042908D01*
X0118873Y0041401D01*
X0122811Y0041401D01*
X0126449Y0042908D01*
X0129234Y0045693D01*
X0130741Y0049331D01*
X0130741Y0053269D01*
X0129234Y0056907D01*
X0126449Y0059692D01*
X0129417Y0056466D02*
X0149684Y0056466D01*
X0150707Y0057489D02*
X0148653Y0055435D01*
X0147542Y0052752D01*
X0147542Y0049848D01*
X0148653Y0047165D01*
X0150707Y0045111D01*
X0153390Y0044000D01*
X0156294Y0044000D01*
X0158977Y0045111D01*
X0159842Y0045976D01*
X0160707Y0045111D01*
X0163390Y0044000D01*
X0166294Y0044000D01*
X0168977Y0045111D01*
X0169842Y0045976D01*
X0170707Y0045111D01*
X0173390Y0044000D01*
X0176294Y0044000D01*
X0178977Y0045111D01*
X0179842Y0045976D01*
X0180707Y0045111D01*
X0183390Y0044000D01*
X0186294Y0044000D01*
X0188977Y0045111D01*
X0189842Y0045976D01*
X0190707Y0045111D01*
X0193390Y0044000D01*
X0196294Y0044000D01*
X0198977Y0045111D01*
X0199842Y0045976D01*
X0200707Y0045111D01*
X0203390Y0044000D01*
X0206294Y0044000D01*
X0208977Y0045111D01*
X0209842Y0045976D01*
X0210707Y0045111D01*
X0213390Y0044000D01*
X0216294Y0044000D01*
X0218977Y0045111D01*
X0219842Y0045976D01*
X0220707Y0045111D01*
X0223390Y0044000D01*
X0226294Y0044000D01*
X0228977Y0045111D01*
X0231030Y0047165D01*
X0232142Y0049848D01*
X0232142Y0052752D01*
X0231030Y0055435D01*
X0228977Y0057489D01*
X0226294Y0058600D01*
X0223390Y0058600D01*
X0220707Y0057489D01*
X0219842Y0056624D01*
X0218977Y0057489D01*
X0216294Y0058600D01*
X0213390Y0058600D01*
X0210707Y0057489D01*
X0209842Y0056624D01*
X0208977Y0057489D01*
X0206294Y0058600D01*
X0203390Y0058600D01*
X0200707Y0057489D01*
X0199842Y0056624D01*
X0198977Y0057489D01*
X0196294Y0058600D01*
X0193390Y0058600D01*
X0190707Y0057489D01*
X0189842Y0056624D01*
X0188977Y0057489D01*
X0186294Y0058600D01*
X0183390Y0058600D01*
X0180707Y0057489D01*
X0179842Y0056624D01*
X0178977Y0057489D01*
X0176294Y0058600D01*
X0173390Y0058600D01*
X0170707Y0057489D01*
X0169842Y0056624D01*
X0168977Y0057489D01*
X0166294Y0058600D01*
X0163390Y0058600D01*
X0160707Y0057489D01*
X0159842Y0056624D01*
X0158977Y0057489D01*
X0156294Y0058600D01*
X0153390Y0058600D01*
X0150707Y0057489D01*
X0148087Y0054067D02*
X0130410Y0054067D01*
X0130741Y0051669D02*
X0147542Y0051669D01*
X0147781Y0049270D02*
X0130716Y0049270D01*
X0129722Y0046872D02*
X0148946Y0046872D01*
X0152247Y0044473D02*
X0128015Y0044473D01*
X0124438Y0042075D02*
X0275992Y0042075D01*
X0275992Y0044473D02*
X0273436Y0044473D01*
X0268247Y0044473D02*
X0263436Y0044473D01*
X0258247Y0044473D02*
X0253436Y0044473D01*
X0248247Y0044473D02*
X0243436Y0044473D01*
X0238247Y0044473D02*
X0227436Y0044473D01*
X0230737Y0046872D02*
X0234946Y0046872D01*
X0233781Y0049270D02*
X0231902Y0049270D01*
X0232142Y0051669D02*
X0233542Y0051669D01*
X0234087Y0054067D02*
X0231597Y0054067D01*
X0230000Y0056466D02*
X0235684Y0056466D01*
X0222247Y0044473D02*
X0217436Y0044473D01*
X0212247Y0044473D02*
X0207436Y0044473D01*
X0202247Y0044473D02*
X0197436Y0044473D01*
X0192247Y0044473D02*
X0187436Y0044473D01*
X0182247Y0044473D02*
X0177436Y0044473D01*
X0172247Y0044473D02*
X0167436Y0044473D01*
X0162247Y0044473D02*
X0157436Y0044473D01*
X0117246Y0042075D02*
X0060842Y0042075D01*
X0060842Y0044473D02*
X0113669Y0044473D01*
X0111961Y0046872D02*
X0060842Y0046872D01*
X0060842Y0049270D02*
X0110968Y0049270D01*
X0110943Y0051669D02*
X0060842Y0051669D01*
X0060842Y0054067D02*
X0111273Y0054067D01*
X0112267Y0056466D02*
X0060842Y0056466D01*
X0060842Y0058864D02*
X0114406Y0058864D01*
X0073162Y0032481D02*
X0253492Y0032481D01*
X0253539Y0034879D02*
X0060842Y0034879D01*
X0060842Y0032481D02*
X0068521Y0032481D01*
X0063728Y0030082D02*
X0060842Y0030082D01*
X0060842Y0027684D02*
X0061479Y0027684D01*
X0060842Y0037278D02*
X0254961Y0037278D01*
X0257359Y0039676D02*
X0060842Y0039676D01*
X0077955Y0030082D02*
X0253492Y0030082D01*
X0253492Y0027684D02*
X0080204Y0027684D01*
X0081589Y0025285D02*
X0253492Y0025285D01*
X0253492Y0022887D02*
X0082036Y0022887D01*
X0082173Y0020488D02*
X0253492Y0020488D01*
X0253492Y0018090D02*
X0081750Y0018090D01*
X0080652Y0015691D02*
X0253492Y0015691D01*
X0253492Y0013293D02*
X0078879Y0013293D01*
X0263192Y0013293D02*
X0265065Y0013293D01*
X0265087Y0013432D02*
X0264942Y0012514D01*
X0264942Y0012050D01*
X0270842Y0012050D01*
X0270842Y0012050D01*
X0270842Y0017950D01*
X0271306Y0017950D01*
X0272223Y0017805D01*
X0273107Y0017518D01*
X0273934Y0017096D01*
X0274458Y0016715D01*
X0274653Y0017185D01*
X0276707Y0019239D01*
X0279390Y0020350D01*
X0282294Y0020350D01*
X0284977Y0019239D01*
X0286342Y0017874D01*
X0286707Y0018239D01*
X0289390Y0019350D01*
X0292294Y0019350D01*
X0294977Y0018239D01*
X0295342Y0017874D01*
X0295992Y0018524D01*
X0295992Y0028003D01*
X0294609Y0027430D01*
X0292075Y0027430D01*
X0289733Y0028400D01*
X0287942Y0030192D01*
X0286972Y0032533D01*
X0286972Y0033311D01*
X0286730Y0033553D01*
X0285992Y0035335D01*
X0285992Y0045826D01*
X0285842Y0045976D01*
X0285692Y0045826D01*
X0285692Y0037835D01*
X0284953Y0036053D01*
X0282453Y0033553D01*
X0282453Y0033553D01*
X0281089Y0032188D01*
X0279307Y0031450D01*
X0263192Y0031450D01*
X0263192Y0011300D01*
X0264987Y0011300D01*
X0264942Y0011586D01*
X0264942Y0012050D01*
X0270842Y0012050D01*
X0270842Y0017950D01*
X0270377Y0017950D01*
X0269460Y0017805D01*
X0268577Y0017518D01*
X0267750Y0017096D01*
X0266998Y0016550D01*
X0266342Y0015894D01*
X0265796Y0015142D01*
X0265374Y0014315D01*
X0265087Y0013432D01*
X0266194Y0015691D02*
X0263192Y0015691D01*
X0263192Y0018090D02*
X0275558Y0018090D01*
X0270842Y0015691D02*
X0270842Y0015691D01*
X0270842Y0013293D02*
X0270842Y0013293D01*
X0270842Y0012050D02*
X0270842Y0012050D01*
X0263192Y0020488D02*
X0295992Y0020488D01*
X0295992Y0022887D02*
X0263192Y0022887D01*
X0263192Y0025285D02*
X0295992Y0025285D01*
X0295992Y0027684D02*
X0295221Y0027684D01*
X0291462Y0027684D02*
X0263192Y0027684D01*
X0263192Y0030082D02*
X0288051Y0030082D01*
X0286993Y0032481D02*
X0281381Y0032481D01*
X0283780Y0034879D02*
X0286181Y0034879D01*
X0285992Y0037278D02*
X0285461Y0037278D01*
X0285692Y0039676D02*
X0285992Y0039676D01*
X0285992Y0042075D02*
X0285692Y0042075D01*
X0285692Y0044473D02*
X0285992Y0044473D01*
X0286126Y0018090D02*
X0286558Y0018090D01*
X0295126Y0018090D02*
X0295558Y0018090D01*
X0225464Y0236354D02*
X0224072Y0236354D01*
X0207929Y0233956D02*
X0122497Y0233956D01*
X0124508Y0236354D02*
X0185464Y0236354D01*
X0183995Y0238753D02*
X0125501Y0238753D01*
X0125741Y0241151D02*
X0183542Y0241151D01*
X0183872Y0243550D02*
X0125625Y0243550D01*
X0124631Y0245948D02*
X0185166Y0245948D01*
X0188778Y0248347D02*
X0122795Y0248347D01*
X0118907Y0250745D02*
X0204642Y0250745D01*
X0204642Y0248347D02*
X0202905Y0248347D01*
X0198778Y0248347D02*
X0192905Y0248347D01*
X0204642Y0253144D02*
X0060842Y0253144D01*
X0060842Y0255542D02*
X0099480Y0255542D01*
X0099460Y0255545D02*
X0100377Y0255400D01*
X0100842Y0255400D01*
X0101306Y0255400D01*
X0102223Y0255545D01*
X0103107Y0255832D01*
X0103934Y0256254D01*
X0104685Y0256800D01*
X0105342Y0257456D01*
X0105888Y0258208D01*
X0106310Y0259035D01*
X0106597Y0259918D01*
X0106742Y0260836D01*
X0106742Y0261300D01*
X0106742Y0261764D01*
X0106597Y0262682D01*
X0106310Y0263565D01*
X0105888Y0264392D01*
X0105342Y0265144D01*
X0104685Y0265800D01*
X0103934Y0266346D01*
X0103107Y0266768D01*
X0102223Y0267055D01*
X0101306Y0267200D01*
X0100842Y0267200D01*
X0100842Y0261300D01*
X0106742Y0261300D01*
X0100842Y0261300D01*
X0100842Y0261300D01*
X0100842Y0261300D01*
X0100842Y0255400D01*
X0100842Y0261300D01*
X0100842Y0261300D01*
X0100842Y0267200D01*
X0100377Y0267200D01*
X0099460Y0267055D01*
X0098577Y0266768D01*
X0097750Y0266346D01*
X0096998Y0265800D01*
X0096342Y0265144D01*
X0095796Y0264392D01*
X0095374Y0263565D01*
X0095087Y0262682D01*
X0094942Y0261764D01*
X0094942Y0261300D01*
X0100842Y0261300D01*
X0094942Y0261300D01*
X0094942Y0260836D01*
X0095087Y0259918D01*
X0095374Y0259035D01*
X0095796Y0258208D01*
X0096342Y0257456D01*
X0096998Y0256800D01*
X0097750Y0256254D01*
X0098577Y0255832D01*
X0099460Y0255545D01*
X0100842Y0255542D02*
X0100842Y0255542D01*
X0102204Y0255542D02*
X0204642Y0255542D01*
X0204642Y0257941D02*
X0105694Y0257941D01*
X0106663Y0260339D02*
X0204642Y0260339D01*
X0204642Y0262738D02*
X0145933Y0262738D01*
X0145864Y0262479D02*
X0146013Y0263039D01*
X0146013Y0266300D01*
X0140842Y0266300D01*
X0146013Y0266300D01*
X0146013Y0269561D01*
X0145864Y0270121D01*
X0145574Y0270622D01*
X0145164Y0271032D01*
X0144663Y0271322D01*
X0144103Y0271472D01*
X0140842Y0271472D01*
X0140842Y0266300D01*
X0140842Y0266300D01*
X0140842Y0266300D01*
X0140842Y0261128D01*
X0144103Y0261128D01*
X0144663Y0261278D01*
X0145164Y0261568D01*
X0145574Y0261978D01*
X0145864Y0262479D01*
X0146013Y0265136D02*
X0204642Y0265136D01*
X0204642Y0267535D02*
X0146013Y0267535D01*
X0145914Y0269933D02*
X0204642Y0269933D01*
X0217042Y0269933D02*
X0283492Y0269933D01*
X0283492Y0267535D02*
X0217042Y0267535D01*
X0217042Y0272332D02*
X0283492Y0272332D01*
X0283492Y0274730D02*
X0217042Y0274730D01*
X0217042Y0277129D02*
X0283492Y0277129D01*
X0283492Y0279527D02*
X0217652Y0279527D01*
X0217812Y0281926D02*
X0283492Y0281926D01*
X0283423Y0284324D02*
X0217133Y0284324D01*
X0140842Y0271472D02*
X0140842Y0266300D01*
X0140842Y0266300D01*
X0140842Y0261128D01*
X0137581Y0261128D01*
X0137021Y0261278D01*
X0136519Y0261568D01*
X0136110Y0261978D01*
X0135820Y0262479D01*
X0135670Y0263039D01*
X0135670Y0266300D01*
X0135670Y0269561D01*
X0135820Y0270121D01*
X0136110Y0270622D01*
X0136519Y0271032D01*
X0137021Y0271322D01*
X0137581Y0271472D01*
X0140842Y0271472D01*
X0140842Y0269933D02*
X0140842Y0269933D01*
X0140842Y0267535D02*
X0140842Y0267535D01*
X0140842Y0266300D02*
X0140842Y0266300D01*
X0135670Y0266300D01*
X0140842Y0266300D01*
X0140842Y0265136D02*
X0140842Y0265136D01*
X0140842Y0262738D02*
X0140842Y0262738D01*
X0135751Y0262738D02*
X0106578Y0262738D01*
X0105347Y0265136D02*
X0135670Y0265136D01*
X0135670Y0267535D02*
X0067006Y0267535D01*
X0066814Y0265136D02*
X0096336Y0265136D01*
X0095105Y0262738D02*
X0065527Y0262738D01*
X0060842Y0262738D02*
X0060842Y0262738D01*
X0060842Y0265136D02*
X0060842Y0265136D01*
X0066214Y0269933D02*
X0135770Y0269933D01*
X0112777Y0250745D02*
X0060842Y0250745D01*
X0060842Y0248347D02*
X0108889Y0248347D01*
X0107052Y0245948D02*
X0060842Y0245948D01*
X0060842Y0243550D02*
X0106059Y0243550D01*
X0105943Y0241151D02*
X0060842Y0241151D01*
X0060842Y0238753D02*
X0106182Y0238753D01*
X0107176Y0236354D02*
X0060842Y0236354D01*
X0060842Y0233956D02*
X0109187Y0233956D01*
X0100842Y0257941D02*
X0100842Y0257941D01*
X0100842Y0260339D02*
X0100842Y0260339D01*
X0100842Y0261300D02*
X0100842Y0261300D01*
X0100842Y0262738D02*
X0100842Y0262738D01*
X0100842Y0265136D02*
X0100842Y0265136D01*
X0095020Y0260339D02*
X0060842Y0260339D01*
X0060842Y0257941D02*
X0095990Y0257941D01*
X0295842Y0262738D02*
X0295842Y0262738D01*
X0295842Y0265136D02*
X0295842Y0265136D01*
X0295842Y0267535D02*
X0295842Y0267535D01*
X0295842Y0269933D02*
X0295842Y0269933D01*
X0300914Y0269933D02*
X0317020Y0269933D01*
X0317070Y0270121D02*
X0316920Y0269561D01*
X0316920Y0266300D01*
X0322092Y0266300D01*
X0322092Y0266300D01*
X0322092Y0271472D01*
X0318831Y0271472D01*
X0318271Y0271322D01*
X0317769Y0271032D01*
X0317360Y0270622D01*
X0317070Y0270121D01*
X0316920Y0267535D02*
X0301013Y0267535D01*
X0301013Y0265136D02*
X0316920Y0265136D01*
X0316920Y0266300D02*
X0316920Y0263039D01*
X0317070Y0262479D01*
X0317360Y0261978D01*
X0317769Y0261568D01*
X0318271Y0261278D01*
X0318831Y0261128D01*
X0322092Y0261128D01*
X0322092Y0266300D01*
X0316920Y0266300D01*
X0317001Y0262738D02*
X0300933Y0262738D01*
X0322092Y0262738D02*
X0322092Y0262738D01*
X0322092Y0265136D02*
X0322092Y0265136D01*
X0322092Y0266300D02*
X0322092Y0266300D01*
X0322092Y0267535D02*
X0322092Y0267535D01*
X0322092Y0269933D02*
X0322092Y0269933D01*
D21*
X0341362Y0271300D03*
X0343342Y0291300D03*
X0280842Y0251300D03*
X0270842Y0258800D03*
X0210842Y0281300D03*
X0280842Y0336300D03*
X0203842Y0342300D03*
X0430842Y0313280D03*
X0445842Y0326300D03*
X0480842Y0318800D03*
X0493342Y0308800D03*
X0512586Y0318044D03*
X0505842Y0326300D03*
X0515842Y0291300D03*
X0558342Y0291300D03*
X0618342Y0283800D03*
X0638342Y0274070D03*
X0645842Y0266300D03*
X0667822Y0291300D03*
X0654842Y0297300D03*
X0638342Y0306300D03*
X0655842Y0311820D03*
X0681842Y0324300D03*
X0700842Y0286300D03*
X0710842Y0266300D03*
X0698342Y0246300D03*
X0715842Y0231300D03*
X0703342Y0226300D03*
X0700842Y0163800D03*
X0640842Y0143800D03*
X0635842Y0158800D03*
X0585842Y0171300D03*
X0525842Y0211300D03*
X0480842Y0211300D03*
X0411842Y0206300D03*
X0437842Y0251300D03*
X0441842Y0257300D03*
X0436842Y0263300D03*
X0430842Y0273800D03*
X0450842Y0286820D03*
X0430842Y0291300D03*
X0680842Y0113800D03*
X0657842Y0110300D03*
X0666842Y0101300D03*
X0698342Y0076300D03*
X0560842Y0040300D03*
X0547842Y0027300D03*
X0538342Y0033800D03*
X0497842Y0012300D03*
X0454842Y0066300D03*
X0447439Y0074703D03*
X0423342Y0076300D03*
X0370842Y0040300D03*
X0380842Y0038800D03*
X0328342Y0023800D03*
X0310842Y0031300D03*
X0301939Y0040203D03*
X0293342Y0033800D03*
X0280842Y0023800D03*
X0255322Y0063800D03*
X0253342Y0076300D03*
X0295842Y0068800D03*
X0337842Y0091300D03*
X0343842Y0097300D03*
X0495842Y0108800D03*
X0505331Y0101030D03*
X0515331Y0101030D03*
X0516362Y0086300D03*
X0503342Y0086300D03*
X0550842Y0078800D03*
D22*
X0558342Y0071300D02*
X0558342Y0101300D01*
X0560842Y0103800D01*
X0660842Y0103800D01*
X0665842Y0108800D01*
X0665842Y0138800D01*
X0646148Y0138800D01*
X0645628Y0138280D01*
X0618862Y0138280D01*
X0605842Y0151300D01*
X0600842Y0146300D02*
X0605842Y0141300D01*
X0608342Y0141300D01*
X0618342Y0131300D01*
X0608342Y0131300D02*
X0598342Y0141300D01*
X0563342Y0141300D01*
X0558342Y0146300D01*
X0558342Y0186300D01*
X0553342Y0191300D01*
X0536342Y0191300D01*
X0535342Y0201300D02*
X0550842Y0201300D01*
X0563342Y0188800D01*
X0563342Y0148800D01*
X0565842Y0146300D01*
X0600842Y0146300D01*
X0635842Y0151300D02*
X0635842Y0158800D01*
X0645842Y0151300D02*
X0645842Y0148800D01*
X0640842Y0143800D01*
X0650842Y0117300D02*
X0657842Y0110300D01*
X0650842Y0117300D02*
X0492842Y0117300D01*
X0474842Y0099300D01*
X0474842Y0088300D01*
X0454842Y0068300D01*
X0454842Y0066300D01*
X0448842Y0064300D02*
X0448342Y0063800D01*
X0445842Y0061300D01*
X0440842Y0061300D01*
X0448842Y0064300D02*
X0448842Y0068300D01*
X0470842Y0090300D01*
X0470842Y0217300D01*
X0494842Y0241300D01*
X0495342Y0241300D01*
X0501842Y0244300D02*
X0501842Y0236300D01*
X0496842Y0231300D01*
X0496342Y0231300D01*
X0501842Y0244300D02*
X0494842Y0251300D01*
X0437842Y0251300D01*
X0442842Y0256300D02*
X0441842Y0257300D01*
X0442842Y0256300D02*
X0495842Y0256300D01*
X0505842Y0246300D01*
X0505842Y0209300D01*
X0497842Y0201300D01*
X0495842Y0201300D01*
X0495342Y0201300D01*
X0496842Y0193300D02*
X0509842Y0206300D01*
X0509842Y0248300D01*
X0497842Y0260300D01*
X0446842Y0260300D01*
X0443842Y0263300D01*
X0436842Y0263300D01*
X0430842Y0273800D02*
X0430842Y0233800D01*
X0295842Y0098800D01*
X0295842Y0068800D01*
X0270842Y0058800D02*
X0270842Y0198800D01*
X0278342Y0206300D01*
X0331499Y0206300D01*
X0341292Y0216093D01*
X0341292Y0270850D01*
X0340842Y0271300D01*
X0341362Y0271300D01*
X0335842Y0276300D02*
X0335842Y0245422D01*
X0337292Y0243972D01*
X0337292Y0217750D01*
X0330842Y0211300D01*
X0265842Y0211300D01*
X0260842Y0206300D01*
X0260842Y0051300D01*
X0250842Y0051300D02*
X0250842Y0061300D01*
X0253342Y0063800D01*
X0255322Y0063800D01*
X0253342Y0076300D02*
X0240842Y0063800D01*
X0240842Y0058800D01*
X0240842Y0058800D01*
X0240842Y0051300D01*
X0258342Y0033800D02*
X0260842Y0036300D01*
X0278342Y0036300D01*
X0280842Y0038800D01*
X0280842Y0051300D01*
X0290842Y0051300D02*
X0290842Y0036300D01*
X0293342Y0033800D01*
X0300842Y0031300D02*
X0310842Y0041300D01*
X0310842Y0051300D01*
X0300842Y0051300D02*
X0300842Y0041300D01*
X0301939Y0040203D01*
X0300842Y0041300D01*
X0300842Y0031300D02*
X0300842Y0013050D01*
X0310842Y0012050D02*
X0310842Y0031300D01*
X0328342Y0023800D02*
X0458342Y0023800D01*
X0473342Y0008800D01*
X0485842Y0008800D01*
X0500842Y0023800D01*
X0503342Y0026300D01*
X0523342Y0026300D01*
X0528342Y0031300D01*
X0528342Y0063800D01*
X0533342Y0068800D01*
X0555842Y0068800D01*
X0558342Y0071300D01*
X0520842Y0076300D02*
X0520842Y0038800D01*
X0515842Y0033800D01*
X0400842Y0033800D01*
X0390842Y0043800D01*
X0390842Y0051300D01*
X0400842Y0051300D02*
X0400842Y0043800D01*
X0403342Y0041300D01*
X0505842Y0041300D01*
X0510842Y0046300D01*
X0510842Y0076300D01*
X0510842Y0096300D01*
X0515842Y0101300D01*
X0515601Y0101300D01*
X0515331Y0101030D01*
X0505331Y0101030D02*
X0500842Y0096541D01*
X0500842Y0096300D01*
X0503342Y0086300D01*
X0515842Y0086300D02*
X0516362Y0086300D01*
X0515842Y0086300D02*
X0520842Y0081300D01*
X0520842Y0076300D01*
X0560842Y0040300D02*
X0602842Y0082300D01*
X0685842Y0082300D01*
X0698842Y0095300D01*
X0702842Y0095300D01*
X0703342Y0096300D01*
X0710842Y0096300D01*
X0710842Y0086300D02*
X0718342Y0086300D01*
X0720842Y0083800D01*
X0720842Y0008800D01*
X0718342Y0006300D01*
X0488999Y0006300D01*
X0487499Y0004800D01*
X0471685Y0004800D01*
X0470185Y0006300D01*
X0314213Y0006300D01*
X0313513Y0005600D01*
X0261542Y0005600D01*
X0258342Y0008800D01*
X0258342Y0033800D01*
X0270842Y0051300D02*
X0270842Y0058800D01*
X0270842Y0058800D01*
X0337842Y0077300D02*
X0352842Y0062300D01*
X0353342Y0061300D01*
X0350842Y0058800D01*
X0350842Y0051300D01*
X0360842Y0051300D02*
X0360842Y0058800D01*
X0363342Y0061300D01*
X0362842Y0062300D01*
X0343842Y0081300D01*
X0343842Y0097300D01*
X0337842Y0091300D02*
X0337842Y0077300D01*
X0370842Y0051300D02*
X0370842Y0040300D01*
X0380842Y0038800D02*
X0380842Y0051300D01*
X0411842Y0079300D02*
X0422842Y0068300D01*
X0422842Y0064300D01*
X0423342Y0063800D01*
X0425842Y0061300D01*
X0430842Y0061300D01*
X0430842Y0071300D02*
X0425842Y0076300D01*
X0423342Y0076300D01*
X0411842Y0079300D02*
X0411842Y0206300D01*
X0496342Y0191300D02*
X0496842Y0191300D01*
X0496842Y0193300D01*
X0536342Y0231300D02*
X0568342Y0231300D01*
X0568482Y0231302D01*
X0568622Y0231308D01*
X0568762Y0231318D01*
X0568902Y0231331D01*
X0569041Y0231349D01*
X0569180Y0231371D01*
X0569317Y0231396D01*
X0569455Y0231425D01*
X0569591Y0231458D01*
X0569726Y0231495D01*
X0569860Y0231536D01*
X0569993Y0231581D01*
X0570125Y0231629D01*
X0570255Y0231681D01*
X0570384Y0231736D01*
X0570511Y0231795D01*
X0570637Y0231858D01*
X0570761Y0231924D01*
X0570882Y0231993D01*
X0571002Y0232066D01*
X0571120Y0232143D01*
X0571235Y0232222D01*
X0571349Y0232305D01*
X0571459Y0232391D01*
X0571568Y0232480D01*
X0571674Y0232572D01*
X0571777Y0232667D01*
X0571878Y0232764D01*
X0571975Y0232865D01*
X0572070Y0232968D01*
X0572162Y0233074D01*
X0572251Y0233183D01*
X0572337Y0233293D01*
X0572420Y0233407D01*
X0572499Y0233522D01*
X0572576Y0233640D01*
X0572649Y0233760D01*
X0572718Y0233881D01*
X0572784Y0234005D01*
X0572847Y0234131D01*
X0572906Y0234258D01*
X0572961Y0234387D01*
X0573013Y0234517D01*
X0573061Y0234649D01*
X0573106Y0234782D01*
X0573147Y0234916D01*
X0573184Y0235051D01*
X0573217Y0235187D01*
X0573246Y0235325D01*
X0573271Y0235462D01*
X0573293Y0235601D01*
X0573311Y0235740D01*
X0573324Y0235880D01*
X0573334Y0236020D01*
X0573340Y0236160D01*
X0573342Y0236300D01*
X0573342Y0238800D01*
X0573344Y0238981D01*
X0573351Y0239162D01*
X0573362Y0239343D01*
X0573377Y0239524D01*
X0573397Y0239704D01*
X0573421Y0239884D01*
X0573449Y0240063D01*
X0573482Y0240241D01*
X0573519Y0240418D01*
X0573560Y0240595D01*
X0573605Y0240770D01*
X0573655Y0240945D01*
X0573709Y0241118D01*
X0573767Y0241289D01*
X0573829Y0241460D01*
X0573896Y0241628D01*
X0573966Y0241795D01*
X0574040Y0241961D01*
X0574119Y0242124D01*
X0574201Y0242285D01*
X0574287Y0242445D01*
X0574377Y0242602D01*
X0574471Y0242757D01*
X0574568Y0242910D01*
X0574670Y0243060D01*
X0574774Y0243208D01*
X0574883Y0243354D01*
X0574994Y0243496D01*
X0575110Y0243636D01*
X0575228Y0243773D01*
X0575350Y0243908D01*
X0575475Y0244039D01*
X0575603Y0244167D01*
X0575734Y0244292D01*
X0575869Y0244414D01*
X0576006Y0244532D01*
X0576146Y0244648D01*
X0576288Y0244759D01*
X0576434Y0244868D01*
X0576582Y0244972D01*
X0576732Y0245074D01*
X0576885Y0245171D01*
X0577040Y0245265D01*
X0577197Y0245355D01*
X0577357Y0245441D01*
X0577518Y0245523D01*
X0577681Y0245602D01*
X0577847Y0245676D01*
X0578014Y0245746D01*
X0578182Y0245813D01*
X0578353Y0245875D01*
X0578524Y0245933D01*
X0578697Y0245987D01*
X0578872Y0246037D01*
X0579047Y0246082D01*
X0579224Y0246123D01*
X0579401Y0246160D01*
X0579579Y0246193D01*
X0579758Y0246221D01*
X0579938Y0246245D01*
X0580118Y0246265D01*
X0580299Y0246280D01*
X0580480Y0246291D01*
X0580661Y0246298D01*
X0580842Y0246300D01*
X0600842Y0246300D01*
X0600982Y0246298D01*
X0601122Y0246292D01*
X0601262Y0246282D01*
X0601402Y0246269D01*
X0601541Y0246251D01*
X0601680Y0246229D01*
X0601817Y0246204D01*
X0601955Y0246175D01*
X0602091Y0246142D01*
X0602226Y0246105D01*
X0602360Y0246064D01*
X0602493Y0246019D01*
X0602625Y0245971D01*
X0602755Y0245919D01*
X0602884Y0245864D01*
X0603011Y0245805D01*
X0603137Y0245742D01*
X0603261Y0245676D01*
X0603382Y0245607D01*
X0603502Y0245534D01*
X0603620Y0245457D01*
X0603735Y0245378D01*
X0603849Y0245295D01*
X0603959Y0245209D01*
X0604068Y0245120D01*
X0604174Y0245028D01*
X0604277Y0244933D01*
X0604378Y0244836D01*
X0604475Y0244735D01*
X0604570Y0244632D01*
X0604662Y0244526D01*
X0604751Y0244417D01*
X0604837Y0244307D01*
X0604920Y0244193D01*
X0604999Y0244078D01*
X0605076Y0243960D01*
X0605149Y0243840D01*
X0605218Y0243719D01*
X0605284Y0243595D01*
X0605347Y0243469D01*
X0605406Y0243342D01*
X0605461Y0243213D01*
X0605513Y0243083D01*
X0605561Y0242951D01*
X0605606Y0242818D01*
X0605647Y0242684D01*
X0605684Y0242549D01*
X0605717Y0242413D01*
X0605746Y0242275D01*
X0605771Y0242138D01*
X0605793Y0241999D01*
X0605811Y0241860D01*
X0605824Y0241720D01*
X0605834Y0241580D01*
X0605840Y0241440D01*
X0605842Y0241300D01*
X0615842Y0241300D02*
X0615838Y0241602D01*
X0615827Y0241904D01*
X0615809Y0242205D01*
X0615784Y0242506D01*
X0615751Y0242807D01*
X0615711Y0243106D01*
X0615664Y0243404D01*
X0615609Y0243702D01*
X0615548Y0243997D01*
X0615479Y0244291D01*
X0615403Y0244584D01*
X0615320Y0244874D01*
X0615230Y0245163D01*
X0615133Y0245449D01*
X0615030Y0245733D01*
X0614919Y0246014D01*
X0614802Y0246292D01*
X0614678Y0246568D01*
X0614547Y0246840D01*
X0614410Y0247109D01*
X0614267Y0247375D01*
X0614117Y0247637D01*
X0613960Y0247896D01*
X0613798Y0248150D01*
X0613629Y0248401D01*
X0613455Y0248647D01*
X0613274Y0248890D01*
X0613088Y0249127D01*
X0612896Y0249361D01*
X0612698Y0249589D01*
X0612495Y0249813D01*
X0612287Y0250031D01*
X0612073Y0250245D01*
X0611855Y0250453D01*
X0611631Y0250656D01*
X0611403Y0250854D01*
X0611169Y0251046D01*
X0610932Y0251232D01*
X0610689Y0251413D01*
X0610443Y0251587D01*
X0610192Y0251756D01*
X0609938Y0251918D01*
X0609679Y0252075D01*
X0609417Y0252225D01*
X0609151Y0252368D01*
X0608882Y0252505D01*
X0608610Y0252636D01*
X0608334Y0252760D01*
X0608056Y0252877D01*
X0607775Y0252988D01*
X0607491Y0253091D01*
X0607205Y0253188D01*
X0606916Y0253278D01*
X0606626Y0253361D01*
X0606333Y0253437D01*
X0606039Y0253506D01*
X0605744Y0253567D01*
X0605446Y0253622D01*
X0605148Y0253669D01*
X0604849Y0253709D01*
X0604548Y0253742D01*
X0604247Y0253767D01*
X0603946Y0253785D01*
X0603644Y0253796D01*
X0603342Y0253800D01*
X0573342Y0253800D01*
X0573161Y0253798D01*
X0572980Y0253791D01*
X0572799Y0253780D01*
X0572618Y0253765D01*
X0572438Y0253745D01*
X0572258Y0253721D01*
X0572079Y0253693D01*
X0571901Y0253660D01*
X0571724Y0253623D01*
X0571547Y0253582D01*
X0571372Y0253537D01*
X0571197Y0253487D01*
X0571024Y0253433D01*
X0570853Y0253375D01*
X0570682Y0253313D01*
X0570514Y0253246D01*
X0570347Y0253176D01*
X0570181Y0253102D01*
X0570018Y0253023D01*
X0569857Y0252941D01*
X0569697Y0252855D01*
X0569540Y0252765D01*
X0569385Y0252671D01*
X0569232Y0252574D01*
X0569082Y0252472D01*
X0568934Y0252368D01*
X0568788Y0252259D01*
X0568646Y0252148D01*
X0568506Y0252032D01*
X0568369Y0251914D01*
X0568234Y0251792D01*
X0568103Y0251667D01*
X0567975Y0251539D01*
X0567850Y0251408D01*
X0567728Y0251273D01*
X0567610Y0251136D01*
X0567494Y0250996D01*
X0567383Y0250854D01*
X0567274Y0250708D01*
X0567170Y0250560D01*
X0567068Y0250410D01*
X0566971Y0250257D01*
X0566877Y0250102D01*
X0566787Y0249945D01*
X0566701Y0249785D01*
X0566619Y0249624D01*
X0566540Y0249461D01*
X0566466Y0249295D01*
X0566396Y0249128D01*
X0566329Y0248960D01*
X0566267Y0248789D01*
X0566209Y0248618D01*
X0566155Y0248445D01*
X0566105Y0248270D01*
X0566060Y0248095D01*
X0566019Y0247918D01*
X0565982Y0247741D01*
X0565949Y0247563D01*
X0565921Y0247384D01*
X0565897Y0247204D01*
X0565877Y0247024D01*
X0565862Y0246843D01*
X0565851Y0246662D01*
X0565844Y0246481D01*
X0565842Y0246300D01*
X0565840Y0246160D01*
X0565834Y0246020D01*
X0565824Y0245880D01*
X0565811Y0245740D01*
X0565793Y0245601D01*
X0565771Y0245462D01*
X0565746Y0245325D01*
X0565717Y0245187D01*
X0565684Y0245051D01*
X0565647Y0244916D01*
X0565606Y0244782D01*
X0565561Y0244649D01*
X0565513Y0244517D01*
X0565461Y0244387D01*
X0565406Y0244258D01*
X0565347Y0244131D01*
X0565284Y0244005D01*
X0565218Y0243881D01*
X0565149Y0243760D01*
X0565076Y0243640D01*
X0564999Y0243522D01*
X0564920Y0243407D01*
X0564837Y0243293D01*
X0564751Y0243183D01*
X0564662Y0243074D01*
X0564570Y0242968D01*
X0564475Y0242865D01*
X0564378Y0242764D01*
X0564277Y0242667D01*
X0564174Y0242572D01*
X0564068Y0242480D01*
X0563959Y0242391D01*
X0563849Y0242305D01*
X0563735Y0242222D01*
X0563620Y0242143D01*
X0563502Y0242066D01*
X0563382Y0241993D01*
X0563261Y0241924D01*
X0563137Y0241858D01*
X0563011Y0241795D01*
X0562884Y0241736D01*
X0562755Y0241681D01*
X0562625Y0241629D01*
X0562493Y0241581D01*
X0562360Y0241536D01*
X0562226Y0241495D01*
X0562091Y0241458D01*
X0561955Y0241425D01*
X0561817Y0241396D01*
X0561680Y0241371D01*
X0561541Y0241349D01*
X0561402Y0241331D01*
X0561262Y0241318D01*
X0561122Y0241308D01*
X0560982Y0241302D01*
X0560842Y0241300D01*
X0535342Y0241300D01*
X0475842Y0281300D02*
X0495842Y0301300D01*
X0500842Y0301300D01*
X0493342Y0308800D02*
X0485842Y0301300D01*
X0465842Y0301300D01*
X0451362Y0286820D01*
X0450842Y0286820D01*
X0430842Y0291300D02*
X0430842Y0313280D01*
X0480842Y0318800D02*
X0370842Y0318800D01*
X0343342Y0291300D01*
X0340842Y0281300D02*
X0335842Y0276300D01*
X0340842Y0281300D02*
X0475842Y0281300D01*
X0512092Y0317550D02*
X0528342Y0301300D01*
X0528342Y0301300D01*
X0540842Y0301300D01*
X0512586Y0318044D02*
X0512092Y0317550D01*
X0638342Y0306300D02*
X0660842Y0306300D01*
X0673342Y0293800D01*
X0673342Y0282820D01*
X0675842Y0280320D01*
X0688161Y0280320D01*
X0699592Y0268889D01*
X0699592Y0260050D01*
X0703342Y0256300D01*
X0710342Y0256300D01*
X0710342Y0236300D02*
X0715342Y0231300D01*
X0715842Y0231300D01*
X0667822Y0291300D02*
X0667092Y0291300D01*
X0662092Y0296300D01*
X0654592Y0291300D02*
X0642092Y0291300D01*
X0663342Y0311300D02*
X0678342Y0296300D01*
X0710342Y0296300D01*
X0681842Y0324300D02*
X0681842Y0337300D01*
X0670842Y0348300D01*
X0282842Y0348300D01*
X0276842Y0342300D01*
X0203842Y0342300D01*
X0280842Y0291300D02*
X0100842Y0291300D01*
X0100842Y0301300D01*
X0230842Y0248800D02*
X0230842Y0241300D01*
X0230842Y0248800D02*
X0240842Y0258800D01*
X0270842Y0258800D01*
X0280842Y0251300D02*
X0280842Y0241300D01*
X0288342Y0243800D02*
X0288342Y0283800D01*
X0288340Y0283981D01*
X0288333Y0284162D01*
X0288322Y0284343D01*
X0288307Y0284524D01*
X0288287Y0284704D01*
X0288263Y0284884D01*
X0288235Y0285063D01*
X0288202Y0285241D01*
X0288165Y0285418D01*
X0288124Y0285595D01*
X0288079Y0285770D01*
X0288029Y0285945D01*
X0287975Y0286118D01*
X0287917Y0286289D01*
X0287855Y0286460D01*
X0287788Y0286628D01*
X0287718Y0286795D01*
X0287644Y0286961D01*
X0287565Y0287124D01*
X0287483Y0287285D01*
X0287397Y0287445D01*
X0287307Y0287602D01*
X0287213Y0287757D01*
X0287116Y0287910D01*
X0287014Y0288060D01*
X0286910Y0288208D01*
X0286801Y0288354D01*
X0286690Y0288496D01*
X0286574Y0288636D01*
X0286456Y0288773D01*
X0286334Y0288908D01*
X0286209Y0289039D01*
X0286081Y0289167D01*
X0285950Y0289292D01*
X0285815Y0289414D01*
X0285678Y0289532D01*
X0285538Y0289648D01*
X0285396Y0289759D01*
X0285250Y0289868D01*
X0285102Y0289972D01*
X0284952Y0290074D01*
X0284799Y0290171D01*
X0284644Y0290265D01*
X0284487Y0290355D01*
X0284327Y0290441D01*
X0284166Y0290523D01*
X0284003Y0290602D01*
X0283837Y0290676D01*
X0283670Y0290746D01*
X0283502Y0290813D01*
X0283331Y0290875D01*
X0283160Y0290933D01*
X0282987Y0290987D01*
X0282812Y0291037D01*
X0282637Y0291082D01*
X0282460Y0291123D01*
X0282283Y0291160D01*
X0282105Y0291193D01*
X0281926Y0291221D01*
X0281746Y0291245D01*
X0281566Y0291265D01*
X0281385Y0291280D01*
X0281204Y0291291D01*
X0281023Y0291298D01*
X0280842Y0291300D01*
X0288342Y0243800D02*
X0288344Y0243702D01*
X0288350Y0243604D01*
X0288359Y0243506D01*
X0288373Y0243409D01*
X0288390Y0243312D01*
X0288411Y0243216D01*
X0288436Y0243121D01*
X0288464Y0243027D01*
X0288497Y0242935D01*
X0288532Y0242843D01*
X0288572Y0242753D01*
X0288614Y0242665D01*
X0288661Y0242578D01*
X0288710Y0242494D01*
X0288763Y0242411D01*
X0288819Y0242331D01*
X0288879Y0242252D01*
X0288941Y0242176D01*
X0289006Y0242103D01*
X0289074Y0242032D01*
X0289145Y0241964D01*
X0289218Y0241899D01*
X0289294Y0241837D01*
X0289373Y0241777D01*
X0289453Y0241721D01*
X0289536Y0241668D01*
X0289620Y0241619D01*
X0289707Y0241572D01*
X0289795Y0241530D01*
X0289885Y0241490D01*
X0289977Y0241455D01*
X0290069Y0241422D01*
X0290163Y0241394D01*
X0290258Y0241369D01*
X0290354Y0241348D01*
X0290451Y0241331D01*
X0290548Y0241317D01*
X0290646Y0241308D01*
X0290744Y0241302D01*
X0290842Y0241300D01*
X0447439Y0074703D02*
X0447439Y0072897D01*
X0445842Y0071300D01*
X0440842Y0071300D01*
X0458342Y0023800D02*
X0458342Y0023800D01*
X0497842Y0012300D02*
X0515842Y0012300D01*
X0530842Y0027300D01*
X0547842Y0027300D01*
X0538342Y0033800D02*
X0690842Y0033800D01*
X0703342Y0046300D01*
X0710842Y0046300D01*
X0710842Y0076300D02*
X0698342Y0076300D01*
X0684842Y0087300D02*
X0702842Y0105300D01*
X0703342Y0106300D01*
X0710842Y0106300D01*
X0684842Y0087300D02*
X0678842Y0087300D01*
X0666842Y0099300D01*
X0666842Y0101300D01*
X0663342Y0311300D02*
X0655842Y0311300D01*
X0655842Y0311820D01*
M02*
