G75*
%MOIN*%
%OFA0B0*%
%FSLAX25Y25*%
%IPPOS*%
%LPD*%
%AMOC8*
5,1,8,0,0,1.08239X$1,22.5*
%
%ADD10R,0.08800X0.08800*%
%ADD11C,0.08800*%
%ADD12R,0.06743X0.06743*%
%ADD13R,1.70500X0.81000*%
%ADD14C,0.08200*%
%ADD15OC8,0.08200*%
%ADD16C,0.13398*%
%ADD17OC8,0.06400*%
%ADD18C,0.13650*%
%ADD19C,0.06743*%
%ADD20C,0.07200*%
%ADD21C,0.07137*%
%ADD22C,0.13800*%
%ADD23C,0.06340*%
D10*
X0060842Y0282000D03*
D11*
X0060842Y0266820D03*
D12*
X0140842Y0266300D03*
X0140842Y0331300D03*
X0295842Y0331300D03*
X0322092Y0331300D03*
X0322092Y0266300D03*
X0295842Y0266300D03*
X0477092Y0266300D03*
X0477092Y0331300D03*
X0588342Y0016300D03*
D13*
X0297842Y0299300D03*
X0116592Y0299300D03*
D14*
X0100842Y0301300D03*
X0100842Y0291300D03*
X0100842Y0261300D03*
X0190842Y0241300D03*
X0200842Y0241300D03*
X0210842Y0241300D03*
X0220842Y0241300D03*
X0230842Y0241300D03*
X0240842Y0241300D03*
X0260842Y0241300D03*
X0270842Y0241300D03*
X0280842Y0241300D03*
X0290842Y0241300D03*
X0300842Y0241300D03*
X0310842Y0241300D03*
X0320842Y0241300D03*
X0330842Y0241300D03*
X0350842Y0241300D03*
X0360842Y0241300D03*
X0370842Y0241300D03*
X0380842Y0241300D03*
X0390842Y0241300D03*
X0400842Y0241300D03*
X0410842Y0241300D03*
X0420842Y0241300D03*
X0430842Y0221300D03*
X0440842Y0221300D03*
X0495342Y0221300D03*
X0496342Y0211300D03*
X0495342Y0201300D03*
X0496342Y0191300D03*
X0536342Y0191300D03*
X0535342Y0201300D03*
X0536342Y0211300D03*
X0535342Y0221300D03*
X0536342Y0231300D03*
X0535342Y0241300D03*
X0496342Y0231300D03*
X0495342Y0241300D03*
X0612092Y0291300D03*
X0642092Y0291300D03*
X0710342Y0296300D03*
X0711342Y0286300D03*
X0710342Y0276300D03*
X0710342Y0256300D03*
X0711342Y0246300D03*
X0710342Y0236300D03*
X0710842Y0213250D03*
X0710842Y0201850D03*
X0710842Y0182000D03*
X0710842Y0170600D03*
X0710842Y0136300D03*
X0710842Y0126300D03*
X0710842Y0116300D03*
X0710842Y0106300D03*
X0710842Y0096300D03*
X0710842Y0086300D03*
X0710842Y0076300D03*
X0710842Y0066300D03*
X0710842Y0056300D03*
X0710842Y0046300D03*
X0440842Y0051300D03*
X0430842Y0051300D03*
X0400842Y0051300D03*
X0390842Y0051300D03*
X0380842Y0051300D03*
X0370842Y0051300D03*
X0360842Y0051300D03*
X0350842Y0051300D03*
X0340842Y0051300D03*
X0330842Y0051300D03*
X0310842Y0051300D03*
X0300842Y0051300D03*
X0290842Y0051300D03*
X0280842Y0051300D03*
X0270842Y0051300D03*
X0260842Y0051300D03*
X0250842Y0051300D03*
X0240842Y0051300D03*
X0224842Y0051300D03*
X0214842Y0051300D03*
X0204842Y0051300D03*
X0194842Y0051300D03*
X0184842Y0051300D03*
X0174842Y0051300D03*
X0164842Y0051300D03*
X0154842Y0051300D03*
X0270842Y0012050D03*
X0280842Y0013050D03*
X0290842Y0012050D03*
X0300842Y0013050D03*
X0310842Y0012050D03*
X0100842Y0331300D03*
D15*
X0430842Y0211300D03*
X0440842Y0211300D03*
X0440842Y0201300D03*
X0430842Y0201300D03*
X0430842Y0191300D03*
X0440842Y0191300D03*
X0440842Y0181300D03*
X0430842Y0181300D03*
X0430842Y0171300D03*
X0440842Y0171300D03*
X0440842Y0161300D03*
X0430842Y0161300D03*
X0430842Y0151300D03*
X0440842Y0151300D03*
X0440842Y0141300D03*
X0430842Y0141300D03*
X0430842Y0131300D03*
X0440842Y0131300D03*
X0440842Y0121300D03*
X0430842Y0121300D03*
X0430842Y0111300D03*
X0440842Y0111300D03*
X0440842Y0101300D03*
X0430842Y0101300D03*
X0430842Y0091300D03*
X0440842Y0091300D03*
X0440842Y0081300D03*
X0430842Y0081300D03*
X0430842Y0071300D03*
X0440842Y0071300D03*
X0440842Y0061300D03*
X0430842Y0061300D03*
D16*
X0415842Y0051300D03*
X0320842Y0111300D03*
X0120842Y0051300D03*
X0320842Y0221300D03*
X0440842Y0241300D03*
X0115842Y0241300D03*
D17*
X0654592Y0291300D03*
X0662092Y0286300D03*
X0662092Y0296300D03*
D18*
X0665842Y0236300D03*
X0585842Y0236300D03*
X0540842Y0151300D03*
X0570842Y0126300D03*
X0480842Y0121300D03*
X0540842Y0051300D03*
X0570842Y0021300D03*
X0480842Y0021300D03*
X0675842Y0021300D03*
X0675842Y0126300D03*
D19*
X0658342Y0131300D03*
X0648342Y0131300D03*
X0638342Y0131300D03*
X0628342Y0131300D03*
X0618342Y0131300D03*
X0608342Y0131300D03*
X0598342Y0131300D03*
X0588342Y0131300D03*
X0588342Y0111300D03*
X0578342Y0111300D03*
X0598342Y0111300D03*
X0608342Y0111300D03*
X0618342Y0111300D03*
X0628342Y0111300D03*
X0638342Y0111300D03*
X0680842Y0103800D03*
X0680842Y0093800D03*
X0680842Y0076300D03*
X0618342Y0016300D03*
X0608342Y0016300D03*
X0598342Y0016300D03*
X0540842Y0076300D03*
X0530842Y0076300D03*
X0520842Y0076300D03*
X0510842Y0076300D03*
X0500842Y0076300D03*
X0490842Y0076300D03*
X0480842Y0076300D03*
X0480842Y0096300D03*
X0490842Y0096300D03*
X0500842Y0096300D03*
X0510842Y0096300D03*
X0520842Y0096300D03*
X0530842Y0096300D03*
X0540842Y0096300D03*
X0615842Y0151300D03*
X0625842Y0151300D03*
X0635842Y0151300D03*
X0645842Y0151300D03*
D20*
X0544042Y0281300D02*
X0537642Y0281300D01*
X0537642Y0291300D02*
X0544042Y0291300D01*
X0544042Y0301300D02*
X0537642Y0301300D01*
X0504042Y0301300D02*
X0497642Y0301300D01*
X0497642Y0291300D02*
X0504042Y0291300D01*
X0504042Y0281300D02*
X0497642Y0281300D01*
D21*
X0605842Y0241300D03*
X0615842Y0241300D03*
X0625842Y0241300D03*
X0635842Y0241300D03*
X0645842Y0241300D03*
X0605842Y0151300D03*
D22*
X0070842Y0021300D03*
X0070842Y0331300D03*
X0705842Y0331300D03*
X0705842Y0021300D03*
D23*
X0698342Y0076300D03*
X0666842Y0101300D03*
X0657842Y0110300D03*
X0680842Y0113800D03*
X0640842Y0143800D03*
X0635842Y0158800D03*
X0585842Y0171300D03*
X0525842Y0211300D03*
X0480842Y0211300D03*
X0411842Y0206300D03*
X0437842Y0251300D03*
X0441842Y0257300D03*
X0436842Y0263300D03*
X0430842Y0273800D03*
X0450842Y0286820D03*
X0430842Y0291300D03*
X0430842Y0313280D03*
X0445842Y0326300D03*
X0480842Y0318800D03*
X0493342Y0308800D03*
X0512586Y0318044D03*
X0505842Y0326300D03*
X0515842Y0291300D03*
X0558342Y0291300D03*
X0618342Y0283800D03*
X0638342Y0274070D03*
X0645842Y0266300D03*
X0667822Y0291300D03*
X0654842Y0297300D03*
X0638342Y0306300D03*
X0655842Y0311820D03*
X0681842Y0324300D03*
X0700842Y0286300D03*
X0710842Y0266300D03*
X0698342Y0246300D03*
X0715842Y0231300D03*
X0703342Y0226300D03*
X0700842Y0163800D03*
X0550842Y0078800D03*
X0516362Y0086300D03*
X0503342Y0086300D03*
X0505331Y0101030D03*
X0515331Y0101030D03*
X0495842Y0108800D03*
X0447439Y0074703D03*
X0454842Y0066300D03*
X0423342Y0076300D03*
X0370842Y0040300D03*
X0380842Y0038800D03*
X0328342Y0023800D03*
X0310842Y0031300D03*
X0301939Y0040203D03*
X0293342Y0033800D03*
X0280842Y0023800D03*
X0255322Y0063800D03*
X0253342Y0076300D03*
X0295842Y0068800D03*
X0337842Y0091300D03*
X0343842Y0097300D03*
X0497842Y0012300D03*
X0538342Y0033800D03*
X0547842Y0027300D03*
X0560842Y0040300D03*
X0280842Y0251300D03*
X0270842Y0258800D03*
X0210842Y0281300D03*
X0280842Y0336300D03*
X0203842Y0342300D03*
X0341362Y0271300D03*
X0343342Y0291300D03*
M02*
