%
M48
M72
T01C0.02362
T02C0.03200
T03C0.03540
T04C0.03543
T05C0.04000
T06C0.04724
T07C0.12598
T08C0.12850
T09C0.13000
%
T01
X605842Y151300
X615842Y151300
X625842Y151300
X635842Y151300
X645842Y151300
X645842Y241300
X635842Y241300
X625842Y241300
X615842Y241300
X605842Y241300
T02
X662092Y286300
X654592Y291300
X662092Y296300
T03
X580842Y306300
X427092Y246300
X411467Y230675
X451467Y211925
X420217Y125675
X479592Y63175
X297092Y257550
X272717Y266925
T04
X295842Y266300
X322092Y266300
X322092Y331300
X295842Y331300
X140842Y331300
X100842Y331300
X100842Y301300
X100842Y291300
X140842Y266300
X100842Y261300
X477092Y266300
X477092Y331300
X612092Y291300
X642092Y291300
X638342Y131300
X628342Y131300
X618342Y131300
X608342Y131300
X598342Y131300
X588342Y131300
X588342Y111300
X578342Y111300
X598342Y111300
X608342Y111300
X618342Y111300
X628342Y111300
X638342Y111300
X648342Y131300
X658342Y131300
X680842Y103800
X680842Y93800
X680842Y76300
X618342Y16300
X608342Y16300
X598342Y16300
X588342Y16300
X540842Y76300
X530842Y76300
X520842Y76300
X510842Y76300
X500842Y76300
X490842Y76300
X480842Y76300
X480842Y96300
X490842Y96300
X500842Y96300
X510842Y96300
X520842Y96300
X530842Y96300
X540842Y96300
T05
X440842Y91300
X430842Y91300
X430842Y101300
X440842Y101300
X440842Y111300
X430842Y111300
X430842Y121300
X440842Y121300
X440842Y131300
X430842Y131300
X430842Y141300
X440842Y141300
X440842Y151300
X430842Y151300
X430842Y161300
X440842Y161300
X440842Y171300
X430842Y171300
X430842Y181300
X440842Y181300
X440842Y191300
X430842Y191300
X430842Y201300
X440842Y201300
X440842Y211300
X430842Y211300
X430842Y221300
X440842Y221300
X420842Y241300
X410842Y241300
X400842Y241300
X390842Y241300
X380842Y241300
X370842Y241300
X360842Y241300
X350842Y241300
X330842Y241300
X320842Y241300
X310842Y241300
X300842Y241300
X290842Y241300
X280842Y241300
X270842Y241300
X260842Y241300
X240842Y241300
X230842Y241300
X220842Y241300
X210842Y241300
X200842Y241300
X190842Y241300
X430842Y81300
X440842Y81300
X440842Y71300
X430842Y71300
X430842Y61300
X440842Y61300
X440842Y51300
X430842Y51300
X400842Y51300
X390842Y51300
X380842Y51300
X370842Y51300
X360842Y51300
X350842Y51300
X340842Y51300
X330842Y51300
X310842Y51300
X300842Y51300
X290842Y51300
X280842Y51300
X270842Y51300
X260842Y51300
X250842Y51300
X240842Y51300
X224842Y51300
X214842Y51300
X204842Y51300
X194842Y51300
X184842Y51300
X174842Y51300
X164842Y51300
X154842Y51300
X290842Y12050
X300842Y13050
X310842Y12050
X496342Y191300
X495342Y201300
X496342Y211300
X495342Y221300
X496342Y231300
X495342Y241300
X535342Y241300
X536342Y231300
X535342Y221300
X536342Y211300
X535342Y201300
X536342Y191300
X540842Y281300
X540842Y291300
X540842Y301300
X500842Y301300
X500842Y291300
X500842Y281300
X710342Y276300
X711342Y286300
X710342Y296300
X710342Y256300
X711342Y246300
X710342Y236300
X710842Y213250
X710842Y201850
X710842Y182000
X710842Y170600
X710842Y136300
X710842Y126300
X710842Y116300
X710842Y106300
X710842Y96300
X710842Y86300
X710842Y76300
X710842Y66300
X710842Y56300
X710842Y46300
T06
X60842Y266820
X60842Y282000
T07
X115842Y241300
X320842Y221300
X440842Y241300
X320842Y111300
X415842Y51300
X120842Y51300
T08
X480842Y21300
X540842Y51300
X570842Y21300
X675842Y21300
X480842Y121300
X540842Y151300
X570842Y126300
X675842Y126300
X665842Y236300
X585842Y236300
T09
X70842Y21300
X70842Y331300
X705842Y331300
X705842Y21300
M30
