G75*
%MOIN*%
%OFA0B0*%
%FSLAX25Y25*%
%IPPOS*%
%LPD*%
%AMOC8*
5,1,8,0,0,1.08239X$1,22.5*
%
%ADD10R,0.08000X0.08000*%
%ADD11C,0.08000*%
%ADD12R,0.05943X0.05943*%
%ADD13C,0.07400*%
%ADD14OC8,0.07400*%
%ADD15OC8,0.05600*%
%ADD16C,0.05943*%
%ADD17C,0.06400*%
%ADD18C,0.04762*%
%ADD19C,0.02000*%
%ADD20C,0.01000*%
%ADD21C,0.05540*%
D10*
X0060842Y0282000D03*
D11*
X0060842Y0266820D03*
D12*
X0140842Y0266300D03*
X0140842Y0331300D03*
X0295842Y0331300D03*
X0322092Y0331300D03*
X0322092Y0266300D03*
X0295842Y0266300D03*
X0477092Y0266300D03*
X0477092Y0331300D03*
X0588342Y0016300D03*
D13*
X0710842Y0046300D03*
X0710842Y0056300D03*
X0710842Y0066300D03*
X0710842Y0076300D03*
X0710842Y0086300D03*
X0710842Y0096300D03*
X0710842Y0106300D03*
X0710842Y0116300D03*
X0710842Y0126300D03*
X0710842Y0136300D03*
X0710842Y0170600D03*
X0710842Y0182000D03*
X0710842Y0201850D03*
X0710842Y0213250D03*
X0710342Y0236300D03*
X0711342Y0246300D03*
X0710342Y0256300D03*
X0710342Y0276300D03*
X0711342Y0286300D03*
X0710342Y0296300D03*
X0642092Y0291300D03*
X0612092Y0291300D03*
X0535342Y0241300D03*
X0536342Y0231300D03*
X0535342Y0221300D03*
X0536342Y0211300D03*
X0535342Y0201300D03*
X0536342Y0191300D03*
X0496342Y0191300D03*
X0495342Y0201300D03*
X0496342Y0211300D03*
X0495342Y0221300D03*
X0496342Y0231300D03*
X0495342Y0241300D03*
X0440842Y0221300D03*
X0430842Y0221300D03*
X0420842Y0241300D03*
X0410842Y0241300D03*
X0400842Y0241300D03*
X0390842Y0241300D03*
X0380842Y0241300D03*
X0370842Y0241300D03*
X0360842Y0241300D03*
X0350842Y0241300D03*
X0330842Y0241300D03*
X0320842Y0241300D03*
X0310842Y0241300D03*
X0300842Y0241300D03*
X0290842Y0241300D03*
X0280842Y0241300D03*
X0270842Y0241300D03*
X0260842Y0241300D03*
X0240842Y0241300D03*
X0230842Y0241300D03*
X0220842Y0241300D03*
X0210842Y0241300D03*
X0200842Y0241300D03*
X0190842Y0241300D03*
X0100842Y0261300D03*
X0100842Y0291300D03*
X0100842Y0301300D03*
X0100842Y0331300D03*
X0154842Y0051300D03*
X0164842Y0051300D03*
X0174842Y0051300D03*
X0184842Y0051300D03*
X0194842Y0051300D03*
X0204842Y0051300D03*
X0214842Y0051300D03*
X0224842Y0051300D03*
X0240842Y0051300D03*
X0250842Y0051300D03*
X0260842Y0051300D03*
X0270842Y0051300D03*
X0280842Y0051300D03*
X0290842Y0051300D03*
X0300842Y0051300D03*
X0310842Y0051300D03*
X0330842Y0051300D03*
X0340842Y0051300D03*
X0350842Y0051300D03*
X0360842Y0051300D03*
X0370842Y0051300D03*
X0380842Y0051300D03*
X0390842Y0051300D03*
X0400842Y0051300D03*
X0430842Y0051300D03*
X0440842Y0051300D03*
X0310842Y0012050D03*
X0300842Y0013050D03*
X0290842Y0012050D03*
D14*
X0430842Y0061300D03*
X0440842Y0061300D03*
X0440842Y0071300D03*
X0430842Y0071300D03*
X0430842Y0081300D03*
X0440842Y0081300D03*
X0440842Y0091300D03*
X0430842Y0091300D03*
X0430842Y0101300D03*
X0440842Y0101300D03*
X0440842Y0111300D03*
X0430842Y0111300D03*
X0430842Y0121300D03*
X0440842Y0121300D03*
X0440842Y0131300D03*
X0430842Y0131300D03*
X0430842Y0141300D03*
X0440842Y0141300D03*
X0440842Y0151300D03*
X0430842Y0151300D03*
X0430842Y0161300D03*
X0440842Y0161300D03*
X0440842Y0171300D03*
X0430842Y0171300D03*
X0430842Y0181300D03*
X0440842Y0181300D03*
X0440842Y0191300D03*
X0430842Y0191300D03*
X0430842Y0201300D03*
X0440842Y0201300D03*
X0440842Y0211300D03*
X0430842Y0211300D03*
D15*
X0654592Y0291300D03*
X0662092Y0296300D03*
X0662092Y0286300D03*
D16*
X0658342Y0131300D03*
X0648342Y0131300D03*
X0638342Y0131300D03*
X0628342Y0131300D03*
X0618342Y0131300D03*
X0608342Y0131300D03*
X0598342Y0131300D03*
X0588342Y0131300D03*
X0588342Y0111300D03*
X0578342Y0111300D03*
X0598342Y0111300D03*
X0608342Y0111300D03*
X0618342Y0111300D03*
X0628342Y0111300D03*
X0638342Y0111300D03*
X0680842Y0103800D03*
X0680842Y0093800D03*
X0680842Y0076300D03*
X0618342Y0016300D03*
X0608342Y0016300D03*
X0598342Y0016300D03*
X0540842Y0076300D03*
X0530842Y0076300D03*
X0520842Y0076300D03*
X0510842Y0076300D03*
X0500842Y0076300D03*
X0490842Y0076300D03*
X0480842Y0076300D03*
X0480842Y0096300D03*
X0490842Y0096300D03*
X0500842Y0096300D03*
X0510842Y0096300D03*
X0520842Y0096300D03*
X0530842Y0096300D03*
X0540842Y0096300D03*
D17*
X0537642Y0281300D02*
X0544042Y0281300D01*
X0544042Y0291300D02*
X0537642Y0291300D01*
X0537642Y0301300D02*
X0544042Y0301300D01*
X0504042Y0301300D02*
X0497642Y0301300D01*
X0497642Y0291300D02*
X0504042Y0291300D01*
X0504042Y0281300D02*
X0497642Y0281300D01*
D18*
X0605842Y0241300D03*
X0615842Y0241300D03*
X0625842Y0241300D03*
X0635842Y0241300D03*
X0645842Y0241300D03*
X0645842Y0151300D03*
X0635842Y0151300D03*
X0625842Y0151300D03*
X0615842Y0151300D03*
X0605842Y0151300D03*
D19*
X0576467Y0180675D01*
X0482717Y0180675D01*
X0451467Y0211925D01*
X0453967Y0227550D02*
X0428967Y0227550D01*
X0420217Y0218800D01*
X0420217Y0125675D01*
X0360842Y0166300D02*
X0426467Y0231925D01*
X0461467Y0231925D01*
X0492092Y0201300D01*
X0495342Y0201300D01*
X0496342Y0191300D02*
X0490217Y0191300D01*
X0453967Y0227550D01*
X0427092Y0239425D02*
X0260842Y0073175D01*
X0260842Y0051300D01*
X0250842Y0051300D02*
X0250842Y0070050D01*
X0411467Y0230675D01*
X0427092Y0239425D02*
X0427092Y0246300D01*
X0449592Y0254425D02*
X0493342Y0210675D01*
X0495217Y0210675D01*
X0495842Y0211300D01*
X0496342Y0211300D01*
X0525842Y0218175D02*
X0533342Y0210675D01*
X0535217Y0210675D01*
X0535842Y0211300D01*
X0536342Y0211300D01*
X0525842Y0218175D02*
X0525842Y0231300D01*
X0477092Y0280050D01*
X0477092Y0331300D01*
X0482717Y0341300D02*
X0333967Y0341300D01*
X0323967Y0331300D01*
X0322092Y0331300D01*
X0307092Y0330675D02*
X0383342Y0254425D01*
X0449592Y0254425D01*
X0500842Y0291300D02*
X0507717Y0291300D01*
X0608967Y0190050D01*
X0702717Y0190050D01*
X0710842Y0181925D01*
X0710842Y0182000D01*
X0710842Y0201300D02*
X0710842Y0201850D01*
X0710842Y0201300D02*
X0602092Y0201300D01*
X0514592Y0288800D01*
X0514592Y0309425D01*
X0482717Y0341300D01*
X0540842Y0291300D02*
X0597092Y0291300D01*
X0637717Y0250675D01*
X0673342Y0250675D01*
X0710842Y0213175D01*
X0710842Y0213250D01*
X0663342Y0151300D02*
X0627717Y0186925D01*
X0555842Y0186925D01*
X0541467Y0201300D01*
X0535342Y0201300D01*
X0536342Y0191300D02*
X0536467Y0191300D01*
X0543967Y0183800D01*
X0626467Y0183800D01*
X0655217Y0155050D01*
X0655217Y0147550D01*
X0649592Y0141925D01*
X0634592Y0141925D01*
X0630842Y0138175D01*
X0617717Y0138175D01*
X0610842Y0131300D01*
X0608342Y0131300D01*
X0618342Y0131300D02*
X0618342Y0126925D01*
X0623967Y0121300D01*
X0655842Y0121300D01*
X0663342Y0128800D01*
X0663342Y0151300D01*
X0635842Y0151300D02*
X0635842Y0148175D01*
X0628967Y0141300D01*
X0549592Y0141300D01*
X0514592Y0106300D01*
X0506467Y0106300D01*
X0501467Y0101300D01*
X0501467Y0096925D01*
X0500842Y0096300D01*
X0501467Y0095675D01*
X0501467Y0091300D01*
X0506467Y0086300D01*
X0515217Y0086300D01*
X0520842Y0080675D01*
X0520842Y0076300D01*
X0520217Y0075675D01*
X0520217Y0071300D01*
X0515217Y0066300D01*
X0504592Y0066300D01*
X0473342Y0035050D01*
X0407092Y0035050D01*
X0390842Y0051300D01*
X0400842Y0051300D02*
X0400842Y0047550D01*
X0410217Y0038175D01*
X0470217Y0038175D01*
X0508342Y0076300D01*
X0510842Y0076300D01*
X0479592Y0063175D02*
X0471467Y0071300D01*
X0440842Y0071300D01*
X0480217Y0037550D02*
X0656467Y0037550D01*
X0700217Y0081300D01*
X0700217Y0085675D01*
X0710842Y0096300D01*
X0710842Y0086300D02*
X0709592Y0086300D01*
X0627717Y0004425D01*
X0362717Y0004425D01*
X0321467Y0045675D01*
X0321467Y0055675D01*
X0315217Y0061925D01*
X0291467Y0061925D01*
X0280842Y0051300D01*
X0300842Y0051300D02*
X0300842Y0049425D01*
X0310842Y0039425D01*
X0310842Y0012050D01*
X0360842Y0051300D02*
X0360842Y0166300D01*
X0280842Y0241300D02*
X0297092Y0257550D01*
X0272717Y0266925D02*
X0257717Y0266925D01*
X0232092Y0241300D01*
X0230842Y0241300D01*
X0210842Y0241300D02*
X0210842Y0246300D01*
X0295842Y0331300D01*
X0296467Y0330675D01*
X0307092Y0330675D01*
X0580842Y0306300D02*
X0700217Y0306300D01*
X0710217Y0296300D01*
X0710342Y0296300D01*
X0390217Y0031925D02*
X0370842Y0051300D01*
X0390217Y0031925D02*
X0474592Y0031925D01*
X0480217Y0037550D01*
D20*
X0054042Y0004500D02*
X0054042Y0277182D01*
X0054383Y0276357D01*
X0055199Y0275541D01*
X0056265Y0275100D01*
X0065419Y0275100D01*
X0066485Y0275541D01*
X0067300Y0276357D01*
X0067742Y0277423D01*
X0067742Y0286577D01*
X0067300Y0287643D01*
X0066485Y0288458D01*
X0065419Y0288900D01*
X0056265Y0288900D01*
X0055199Y0288458D01*
X0054383Y0287643D01*
X0054042Y0286818D01*
X0054042Y0348100D01*
X0722642Y0348100D01*
X0722642Y0004500D01*
X0633307Y0004500D01*
X0704242Y0075435D01*
X0704242Y0074987D01*
X0705247Y0072561D01*
X0706508Y0071300D01*
X0705247Y0070039D01*
X0704242Y0067613D01*
X0704242Y0064987D01*
X0705247Y0062561D01*
X0706508Y0061300D01*
X0705247Y0060039D01*
X0704242Y0057613D01*
X0704242Y0054987D01*
X0705247Y0052561D01*
X0706508Y0051300D01*
X0705247Y0050039D01*
X0704242Y0047613D01*
X0704242Y0044987D01*
X0705247Y0042561D01*
X0707103Y0040705D01*
X0709529Y0039700D01*
X0712155Y0039700D01*
X0714580Y0040705D01*
X0716437Y0042561D01*
X0717442Y0044987D01*
X0717442Y0047613D01*
X0716437Y0050039D01*
X0715176Y0051300D01*
X0716437Y0052561D01*
X0717442Y0054987D01*
X0717442Y0057613D01*
X0716437Y0060039D01*
X0715176Y0061300D01*
X0716437Y0062561D01*
X0717442Y0064987D01*
X0717442Y0067613D01*
X0716437Y0070039D01*
X0715176Y0071300D01*
X0716437Y0072561D01*
X0717442Y0074987D01*
X0717442Y0077613D01*
X0716437Y0080039D01*
X0715176Y0081300D01*
X0716437Y0082561D01*
X0717442Y0084987D01*
X0717442Y0087613D01*
X0716437Y0090039D01*
X0715176Y0091300D01*
X0716437Y0092561D01*
X0717442Y0094987D01*
X0717442Y0097613D01*
X0716437Y0100039D01*
X0715176Y0101300D01*
X0716437Y0102561D01*
X0717442Y0104987D01*
X0717442Y0107613D01*
X0716437Y0110039D01*
X0715176Y0111300D01*
X0716437Y0112561D01*
X0717442Y0114987D01*
X0717442Y0117613D01*
X0716437Y0120039D01*
X0715176Y0121300D01*
X0716437Y0122561D01*
X0717442Y0124987D01*
X0717442Y0127613D01*
X0716437Y0130039D01*
X0714580Y0131895D01*
X0713972Y0132147D01*
X0714229Y0132334D01*
X0714808Y0132912D01*
X0715289Y0133575D01*
X0715661Y0134304D01*
X0715914Y0135082D01*
X0716027Y0135800D01*
X0711342Y0135800D01*
X0711342Y0136800D01*
X0716027Y0136800D01*
X0715914Y0137518D01*
X0715661Y0138296D01*
X0715289Y0139025D01*
X0714808Y0139688D01*
X0714229Y0140266D01*
X0713567Y0140747D01*
X0712838Y0141119D01*
X0712059Y0141372D01*
X0711342Y0141486D01*
X0711342Y0136800D01*
X0710342Y0136800D01*
X0710342Y0141486D01*
X0709624Y0141372D01*
X0708846Y0141119D01*
X0708116Y0140747D01*
X0707454Y0140266D01*
X0706875Y0139688D01*
X0706394Y0139025D01*
X0706023Y0138296D01*
X0705770Y0137518D01*
X0705656Y0136800D01*
X0710342Y0136800D01*
X0710342Y0135800D01*
X0705656Y0135800D01*
X0705770Y0135082D01*
X0706023Y0134304D01*
X0706394Y0133575D01*
X0706875Y0132912D01*
X0707454Y0132334D01*
X0707711Y0132147D01*
X0707103Y0131895D01*
X0705247Y0130039D01*
X0704242Y0127613D01*
X0704242Y0124987D01*
X0705247Y0122561D01*
X0706508Y0121300D01*
X0705247Y0120039D01*
X0704242Y0117613D01*
X0704242Y0114987D01*
X0705247Y0112561D01*
X0706508Y0111300D01*
X0705247Y0110039D01*
X0704242Y0107613D01*
X0704242Y0104987D01*
X0705247Y0102561D01*
X0706508Y0101300D01*
X0705247Y0100039D01*
X0704242Y0097613D01*
X0704242Y0095215D01*
X0696911Y0087884D01*
X0696317Y0086451D01*
X0696317Y0082915D01*
X0654851Y0041450D01*
X0485257Y0041450D01*
X0506207Y0062400D01*
X0515993Y0062400D01*
X0517426Y0062994D01*
X0522426Y0067994D01*
X0523523Y0069091D01*
X0524117Y0070524D01*
X0524117Y0071301D01*
X0524168Y0071322D01*
X0525820Y0072974D01*
X0525842Y0073028D01*
X0525864Y0072974D01*
X0527516Y0071322D01*
X0529674Y0070428D01*
X0532010Y0070428D01*
X0534168Y0071322D01*
X0535820Y0072974D01*
X0536605Y0074870D01*
X0536698Y0074583D01*
X0537017Y0073956D01*
X0537431Y0073387D01*
X0537929Y0072889D01*
X0538498Y0072475D01*
X0539125Y0072156D01*
X0539795Y0071938D01*
X0540456Y0071834D01*
X0540456Y0075914D01*
X0541228Y0075914D01*
X0541228Y0076686D01*
X0545308Y0076686D01*
X0545203Y0077347D01*
X0544986Y0078017D01*
X0544666Y0078644D01*
X0544253Y0079213D01*
X0543755Y0079711D01*
X0543185Y0080124D01*
X0542558Y0080444D01*
X0541889Y0080662D01*
X0541228Y0080766D01*
X0541228Y0076686D01*
X0540456Y0076686D01*
X0540456Y0080766D01*
X0539795Y0080662D01*
X0539125Y0080444D01*
X0538498Y0080124D01*
X0537929Y0079711D01*
X0537431Y0079213D01*
X0537017Y0078644D01*
X0536698Y0078017D01*
X0536605Y0077730D01*
X0535820Y0079626D01*
X0534168Y0081278D01*
X0532010Y0082172D01*
X0529674Y0082172D01*
X0527516Y0081278D01*
X0525864Y0079626D01*
X0525842Y0079572D01*
X0525820Y0079626D01*
X0524742Y0080704D01*
X0524742Y0081451D01*
X0524148Y0082884D01*
X0518523Y0088509D01*
X0517426Y0089606D01*
X0515993Y0090200D01*
X0508082Y0090200D01*
X0505564Y0092718D01*
X0505820Y0092974D01*
X0505842Y0093028D01*
X0505864Y0092974D01*
X0507516Y0091322D01*
X0509674Y0090428D01*
X0512010Y0090428D01*
X0514168Y0091322D01*
X0515820Y0092974D01*
X0515842Y0093028D01*
X0515864Y0092974D01*
X0517516Y0091322D01*
X0519674Y0090428D01*
X0522010Y0090428D01*
X0524168Y0091322D01*
X0525820Y0092974D01*
X0525842Y0093028D01*
X0525864Y0092974D01*
X0527516Y0091322D01*
X0529674Y0090428D01*
X0532010Y0090428D01*
X0534168Y0091322D01*
X0535820Y0092974D01*
X0535842Y0093028D01*
X0535864Y0092974D01*
X0537516Y0091322D01*
X0539674Y0090428D01*
X0542010Y0090428D01*
X0544168Y0091322D01*
X0545820Y0092974D01*
X0546713Y0095132D01*
X0546713Y0097468D01*
X0545820Y0099626D01*
X0544168Y0101278D01*
X0542010Y0102172D01*
X0539674Y0102172D01*
X0537516Y0101278D01*
X0535864Y0099626D01*
X0535842Y0099572D01*
X0535820Y0099626D01*
X0534168Y0101278D01*
X0532010Y0102172D01*
X0529674Y0102172D01*
X0527516Y0101278D01*
X0525864Y0099626D01*
X0525842Y0099572D01*
X0525820Y0099626D01*
X0524168Y0101278D01*
X0522010Y0102172D01*
X0519674Y0102172D01*
X0517516Y0101278D01*
X0515864Y0099626D01*
X0515842Y0099572D01*
X0515820Y0099626D01*
X0514168Y0101278D01*
X0512010Y0102172D01*
X0509674Y0102172D01*
X0507516Y0101278D01*
X0505864Y0099626D01*
X0505842Y0099572D01*
X0505820Y0099626D01*
X0505564Y0099882D01*
X0508082Y0102400D01*
X0515368Y0102400D01*
X0516801Y0102994D01*
X0517898Y0104091D01*
X0551207Y0137400D01*
X0611426Y0137400D01*
X0610704Y0136677D01*
X0609510Y0137172D01*
X0607174Y0137172D01*
X0605016Y0136278D01*
X0603364Y0134626D01*
X0603342Y0134572D01*
X0603320Y0134626D01*
X0601668Y0136278D01*
X0599510Y0137172D01*
X0597174Y0137172D01*
X0595016Y0136278D01*
X0593364Y0134626D01*
X0593342Y0134572D01*
X0593320Y0134626D01*
X0591668Y0136278D01*
X0589510Y0137172D01*
X0587174Y0137172D01*
X0585016Y0136278D01*
X0583364Y0134626D01*
X0582470Y0132468D01*
X0582470Y0130132D01*
X0583364Y0127974D01*
X0585016Y0126322D01*
X0587174Y0125428D01*
X0589510Y0125428D01*
X0591668Y0126322D01*
X0593320Y0127974D01*
X0593342Y0128028D01*
X0593364Y0127974D01*
X0595016Y0126322D01*
X0597174Y0125428D01*
X0599510Y0125428D01*
X0601668Y0126322D01*
X0603320Y0127974D01*
X0603342Y0128028D01*
X0603364Y0127974D01*
X0605016Y0126322D01*
X0607174Y0125428D01*
X0609510Y0125428D01*
X0611668Y0126322D01*
X0613320Y0127974D01*
X0613342Y0128028D01*
X0613364Y0127974D01*
X0614442Y0126896D01*
X0614442Y0126149D01*
X0615036Y0124716D01*
X0620661Y0119091D01*
X0621758Y0117994D01*
X0623191Y0117400D01*
X0656618Y0117400D01*
X0658051Y0117994D01*
X0665551Y0125494D01*
X0666517Y0126460D01*
X0666517Y0124445D01*
X0667936Y0121018D01*
X0670560Y0118395D01*
X0673987Y0116975D01*
X0677697Y0116975D01*
X0681124Y0118395D01*
X0683747Y0121018D01*
X0685167Y0124445D01*
X0685167Y0128155D01*
X0683747Y0131582D01*
X0681124Y0134205D01*
X0677697Y0135625D01*
X0673987Y0135625D01*
X0670560Y0134205D01*
X0667936Y0131582D01*
X0667242Y0129905D01*
X0667242Y0152076D01*
X0666648Y0153509D01*
X0634007Y0186150D01*
X0701101Y0186150D01*
X0704242Y0183010D01*
X0704242Y0180687D01*
X0705247Y0178261D01*
X0707103Y0176405D01*
X0707356Y0176300D01*
X0707103Y0176195D01*
X0705247Y0174339D01*
X0704242Y0171913D01*
X0704242Y0169287D01*
X0705247Y0166861D01*
X0707103Y0165005D01*
X0709529Y0164000D01*
X0712155Y0164000D01*
X0714580Y0165005D01*
X0716437Y0166861D01*
X0717442Y0169287D01*
X0717442Y0171913D01*
X0716437Y0174339D01*
X0714580Y0176195D01*
X0714327Y0176300D01*
X0714580Y0176405D01*
X0716437Y0178261D01*
X0717442Y0180687D01*
X0717442Y0183313D01*
X0716437Y0185739D01*
X0714580Y0187595D01*
X0712155Y0188600D01*
X0709682Y0188600D01*
X0704926Y0193356D01*
X0703493Y0193950D01*
X0610582Y0193950D01*
X0607132Y0197400D01*
X0705958Y0197400D01*
X0707103Y0196255D01*
X0709529Y0195250D01*
X0712155Y0195250D01*
X0714580Y0196255D01*
X0716437Y0198111D01*
X0717442Y0200537D01*
X0717442Y0203163D01*
X0716437Y0205589D01*
X0714580Y0207445D01*
X0714327Y0207550D01*
X0714580Y0207655D01*
X0716437Y0209511D01*
X0717442Y0211937D01*
X0717442Y0214563D01*
X0716437Y0216989D01*
X0714580Y0218845D01*
X0712155Y0219850D01*
X0709682Y0219850D01*
X0675551Y0253981D01*
X0674118Y0254575D01*
X0639332Y0254575D01*
X0599301Y0294606D01*
X0597868Y0295200D01*
X0548769Y0295200D01*
X0547668Y0296300D01*
X0549213Y0297845D01*
X0550142Y0300087D01*
X0550142Y0302513D01*
X0549213Y0304755D01*
X0547497Y0306471D01*
X0545255Y0307400D01*
X0536428Y0307400D01*
X0534186Y0306471D01*
X0532470Y0304755D01*
X0531542Y0302513D01*
X0531542Y0300087D01*
X0532470Y0297845D01*
X0534015Y0296300D01*
X0532470Y0294755D01*
X0531542Y0292513D01*
X0531542Y0290087D01*
X0532470Y0287845D01*
X0534186Y0286129D01*
X0535609Y0285539D01*
X0535178Y0285320D01*
X0534580Y0284885D01*
X0534057Y0284362D01*
X0533622Y0283763D01*
X0533286Y0283104D01*
X0533058Y0282401D01*
X0532962Y0281800D01*
X0540342Y0281800D01*
X0540342Y0280800D01*
X0541342Y0280800D01*
X0541342Y0281800D01*
X0548721Y0281800D01*
X0548626Y0282401D01*
X0548397Y0283104D01*
X0548062Y0283763D01*
X0547627Y0284362D01*
X0547104Y0284885D01*
X0546505Y0285320D01*
X0546074Y0285539D01*
X0547497Y0286129D01*
X0548769Y0287400D01*
X0595476Y0287400D01*
X0634411Y0248466D01*
X0635508Y0247369D01*
X0636941Y0246775D01*
X0671726Y0246775D01*
X0704242Y0214260D01*
X0704242Y0211937D01*
X0705247Y0209511D01*
X0707103Y0207655D01*
X0707356Y0207550D01*
X0707103Y0207445D01*
X0705247Y0205589D01*
X0705086Y0205200D01*
X0603707Y0205200D01*
X0518492Y0290415D01*
X0518492Y0310201D01*
X0517898Y0311634D01*
X0486023Y0343509D01*
X0484926Y0344606D01*
X0483493Y0345200D01*
X0333191Y0345200D01*
X0331758Y0344606D01*
X0324323Y0337172D01*
X0318543Y0337172D01*
X0317477Y0336730D01*
X0316662Y0335914D01*
X0316220Y0334848D01*
X0316220Y0327751D01*
X0316662Y0326686D01*
X0317477Y0325870D01*
X0318543Y0325428D01*
X0325640Y0325428D01*
X0326706Y0325870D01*
X0327522Y0326686D01*
X0327963Y0327751D01*
X0327963Y0329781D01*
X0335582Y0337400D01*
X0481101Y0337400D01*
X0510692Y0307810D01*
X0510692Y0293840D01*
X0509926Y0294606D01*
X0508964Y0295005D01*
X0507668Y0296300D01*
X0509213Y0297845D01*
X0510142Y0300087D01*
X0510142Y0302513D01*
X0509213Y0304755D01*
X0507497Y0306471D01*
X0505255Y0307400D01*
X0496428Y0307400D01*
X0494186Y0306471D01*
X0492470Y0304755D01*
X0491542Y0302513D01*
X0491542Y0300087D01*
X0492470Y0297845D01*
X0494015Y0296300D01*
X0492470Y0294755D01*
X0491542Y0292513D01*
X0491542Y0290087D01*
X0492470Y0287845D01*
X0494186Y0286129D01*
X0495609Y0285539D01*
X0495178Y0285320D01*
X0494580Y0284885D01*
X0494057Y0284362D01*
X0493622Y0283763D01*
X0493286Y0283104D01*
X0493058Y0282401D01*
X0492962Y0281800D01*
X0500342Y0281800D01*
X0500342Y0280800D01*
X0501342Y0280800D01*
X0501342Y0281800D01*
X0508721Y0281800D01*
X0508626Y0282401D01*
X0508397Y0283104D01*
X0508062Y0283763D01*
X0507627Y0284362D01*
X0507104Y0284885D01*
X0506505Y0285320D01*
X0506074Y0285539D01*
X0507409Y0286092D01*
X0602676Y0190825D01*
X0557457Y0190825D01*
X0544773Y0203509D01*
X0543676Y0204606D01*
X0542243Y0205200D01*
X0540776Y0205200D01*
X0540176Y0205800D01*
X0541937Y0207561D01*
X0542942Y0209987D01*
X0542942Y0212613D01*
X0541937Y0215039D01*
X0540080Y0216895D01*
X0538815Y0217419D01*
X0539308Y0217912D01*
X0539789Y0218575D01*
X0540161Y0219304D01*
X0540414Y0220082D01*
X0540527Y0220800D01*
X0535842Y0220800D01*
X0535842Y0221800D01*
X0540527Y0221800D01*
X0540414Y0222518D01*
X0540161Y0223296D01*
X0539789Y0224025D01*
X0539308Y0224688D01*
X0538815Y0225181D01*
X0540080Y0225705D01*
X0541937Y0227561D01*
X0542942Y0229987D01*
X0542942Y0232613D01*
X0541937Y0235039D01*
X0540176Y0236800D01*
X0540937Y0237561D01*
X0541942Y0239987D01*
X0541942Y0242613D01*
X0540937Y0245039D01*
X0539080Y0246895D01*
X0536655Y0247900D01*
X0534029Y0247900D01*
X0531603Y0246895D01*
X0529747Y0245039D01*
X0528742Y0242613D01*
X0528742Y0239987D01*
X0529747Y0237561D01*
X0531508Y0235800D01*
X0530747Y0235039D01*
X0529742Y0232613D01*
X0529742Y0229987D01*
X0530747Y0227561D01*
X0532584Y0225724D01*
X0531954Y0225266D01*
X0531375Y0224688D01*
X0530894Y0224025D01*
X0530523Y0223296D01*
X0530270Y0222518D01*
X0530156Y0221800D01*
X0534842Y0221800D01*
X0534842Y0220800D01*
X0530156Y0220800D01*
X0530270Y0220082D01*
X0530523Y0219304D01*
X0530829Y0218704D01*
X0529742Y0219790D01*
X0529742Y0232076D01*
X0529148Y0233509D01*
X0528051Y0234606D01*
X0480992Y0281665D01*
X0480992Y0325574D01*
X0481706Y0325870D01*
X0482522Y0326686D01*
X0482963Y0327751D01*
X0482963Y0334848D01*
X0482522Y0335914D01*
X0481706Y0336730D01*
X0480640Y0337172D01*
X0473543Y0337172D01*
X0472477Y0336730D01*
X0471662Y0335914D01*
X0471220Y0334848D01*
X0471220Y0327751D01*
X0471662Y0326686D01*
X0472477Y0325870D01*
X0473192Y0325574D01*
X0473192Y0279274D01*
X0473786Y0277841D01*
X0521942Y0229685D01*
X0521942Y0217399D01*
X0522536Y0215966D01*
X0530036Y0208466D01*
X0530610Y0207892D01*
X0530747Y0207561D01*
X0531508Y0206800D01*
X0529747Y0205039D01*
X0528742Y0202613D01*
X0528742Y0199987D01*
X0529747Y0197561D01*
X0531508Y0195800D01*
X0530747Y0195039D01*
X0529742Y0192613D01*
X0529742Y0189987D01*
X0530747Y0187561D01*
X0532603Y0185705D01*
X0535029Y0184700D01*
X0537551Y0184700D01*
X0537676Y0184575D01*
X0484332Y0184575D01*
X0457137Y0211770D01*
X0457137Y0213053D01*
X0456274Y0215137D01*
X0454679Y0216732D01*
X0452595Y0217595D01*
X0450339Y0217595D01*
X0448255Y0216732D01*
X0446660Y0215137D01*
X0446566Y0214910D01*
X0445176Y0216300D01*
X0446437Y0217561D01*
X0447442Y0219987D01*
X0447442Y0222613D01*
X0447012Y0223650D01*
X0452351Y0223650D01*
X0486911Y0189091D01*
X0488008Y0187994D01*
X0489441Y0187400D01*
X0490908Y0187400D01*
X0492603Y0185705D01*
X0495029Y0184700D01*
X0497655Y0184700D01*
X0500080Y0185705D01*
X0501937Y0187561D01*
X0502942Y0189987D01*
X0502942Y0192613D01*
X0501937Y0195039D01*
X0500176Y0196800D01*
X0500937Y0197561D01*
X0501942Y0199987D01*
X0501942Y0202613D01*
X0500937Y0205039D01*
X0500176Y0205800D01*
X0501937Y0207561D01*
X0502942Y0209987D01*
X0502942Y0212613D01*
X0501937Y0215039D01*
X0500080Y0216895D01*
X0498815Y0217419D01*
X0499308Y0217912D01*
X0499789Y0218575D01*
X0500161Y0219304D01*
X0500414Y0220082D01*
X0500527Y0220800D01*
X0495842Y0220800D01*
X0495842Y0221800D01*
X0500527Y0221800D01*
X0500414Y0222518D01*
X0500161Y0223296D01*
X0499789Y0224025D01*
X0499308Y0224688D01*
X0498815Y0225181D01*
X0500080Y0225705D01*
X0501937Y0227561D01*
X0502942Y0229987D01*
X0502942Y0232613D01*
X0501937Y0235039D01*
X0500176Y0236800D01*
X0500937Y0237561D01*
X0501942Y0239987D01*
X0501942Y0242613D01*
X0500937Y0245039D01*
X0499080Y0246895D01*
X0496655Y0247900D01*
X0494029Y0247900D01*
X0491603Y0246895D01*
X0489747Y0245039D01*
X0488742Y0242613D01*
X0488742Y0239987D01*
X0489747Y0237561D01*
X0491508Y0235800D01*
X0490747Y0235039D01*
X0489742Y0232613D01*
X0489742Y0229987D01*
X0490747Y0227561D01*
X0492584Y0225724D01*
X0491954Y0225266D01*
X0491375Y0224688D01*
X0490894Y0224025D01*
X0490523Y0223296D01*
X0490270Y0222518D01*
X0490156Y0221800D01*
X0494842Y0221800D01*
X0494842Y0220800D01*
X0490156Y0220800D01*
X0490270Y0220082D01*
X0490523Y0219304D01*
X0490829Y0218704D01*
X0452898Y0256634D01*
X0451801Y0257731D01*
X0450368Y0258325D01*
X0384957Y0258325D01*
X0309301Y0333981D01*
X0307868Y0334575D01*
X0301713Y0334575D01*
X0301713Y0334848D01*
X0301272Y0335914D01*
X0300456Y0336730D01*
X0299390Y0337172D01*
X0292293Y0337172D01*
X0291227Y0336730D01*
X0290412Y0335914D01*
X0289970Y0334848D01*
X0289970Y0330944D01*
X0208633Y0249606D01*
X0207536Y0248509D01*
X0206942Y0247076D01*
X0206942Y0246734D01*
X0205842Y0245634D01*
X0204580Y0246895D01*
X0202155Y0247900D01*
X0199529Y0247900D01*
X0197103Y0246895D01*
X0195842Y0245634D01*
X0194580Y0246895D01*
X0192155Y0247900D01*
X0189529Y0247900D01*
X0187103Y0246895D01*
X0185247Y0245039D01*
X0184242Y0242613D01*
X0184242Y0239987D01*
X0185247Y0237561D01*
X0187103Y0235705D01*
X0189529Y0234700D01*
X0192155Y0234700D01*
X0194580Y0235705D01*
X0195842Y0236966D01*
X0197103Y0235705D01*
X0199529Y0234700D01*
X0202155Y0234700D01*
X0204580Y0235705D01*
X0205842Y0236966D01*
X0207103Y0235705D01*
X0209529Y0234700D01*
X0212155Y0234700D01*
X0214580Y0235705D01*
X0216437Y0237561D01*
X0216689Y0238169D01*
X0216875Y0237912D01*
X0217454Y0237334D01*
X0218116Y0236853D01*
X0218846Y0236481D01*
X0219624Y0236228D01*
X0220342Y0236114D01*
X0220342Y0240800D01*
X0221342Y0240800D01*
X0221342Y0236114D01*
X0222059Y0236228D01*
X0222838Y0236481D01*
X0223567Y0236853D01*
X0224229Y0237334D01*
X0224808Y0237912D01*
X0224995Y0238169D01*
X0225247Y0237561D01*
X0227103Y0235705D01*
X0229529Y0234700D01*
X0232155Y0234700D01*
X0234580Y0235705D01*
X0235842Y0236966D01*
X0237103Y0235705D01*
X0239529Y0234700D01*
X0242155Y0234700D01*
X0244580Y0235705D01*
X0246437Y0237561D01*
X0247442Y0239987D01*
X0247442Y0242613D01*
X0246437Y0245039D01*
X0244580Y0246895D01*
X0243606Y0247299D01*
X0259332Y0263025D01*
X0268598Y0263025D01*
X0269505Y0262118D01*
X0271589Y0261255D01*
X0273845Y0261255D01*
X0275929Y0262118D01*
X0277524Y0263713D01*
X0278387Y0265797D01*
X0278387Y0268053D01*
X0277524Y0270137D01*
X0275929Y0271732D01*
X0273845Y0272595D01*
X0271589Y0272595D01*
X0269505Y0271732D01*
X0268598Y0270825D01*
X0256941Y0270825D01*
X0255508Y0270231D01*
X0232877Y0247601D01*
X0232155Y0247900D01*
X0229529Y0247900D01*
X0227103Y0246895D01*
X0225247Y0245039D01*
X0224995Y0244431D01*
X0224808Y0244688D01*
X0224229Y0245266D01*
X0223567Y0245747D01*
X0222838Y0246119D01*
X0222059Y0246372D01*
X0221342Y0246486D01*
X0221342Y0241800D01*
X0220342Y0241800D01*
X0220342Y0246486D01*
X0219624Y0246372D01*
X0218846Y0246119D01*
X0218116Y0245747D01*
X0217454Y0245266D01*
X0216875Y0244688D01*
X0216689Y0244431D01*
X0216437Y0245039D01*
X0215766Y0245709D01*
X0295486Y0325428D01*
X0299390Y0325428D01*
X0300456Y0325870D01*
X0301272Y0326686D01*
X0301309Y0326775D01*
X0305476Y0326775D01*
X0380036Y0252216D01*
X0381133Y0251119D01*
X0382566Y0250525D01*
X0423298Y0250525D01*
X0422285Y0249512D01*
X0421617Y0247900D01*
X0419529Y0247900D01*
X0417103Y0246895D01*
X0415842Y0245634D01*
X0414580Y0246895D01*
X0412155Y0247900D01*
X0409529Y0247900D01*
X0407103Y0246895D01*
X0405842Y0245634D01*
X0404580Y0246895D01*
X0402155Y0247900D01*
X0399529Y0247900D01*
X0397103Y0246895D01*
X0395842Y0245634D01*
X0394580Y0246895D01*
X0392155Y0247900D01*
X0389529Y0247900D01*
X0387103Y0246895D01*
X0385842Y0245634D01*
X0384580Y0246895D01*
X0382155Y0247900D01*
X0379529Y0247900D01*
X0377103Y0246895D01*
X0375842Y0245634D01*
X0374580Y0246895D01*
X0372155Y0247900D01*
X0369529Y0247900D01*
X0367103Y0246895D01*
X0365842Y0245634D01*
X0364580Y0246895D01*
X0362155Y0247900D01*
X0359529Y0247900D01*
X0357103Y0246895D01*
X0355842Y0245634D01*
X0354580Y0246895D01*
X0352155Y0247900D01*
X0349529Y0247900D01*
X0347103Y0246895D01*
X0345247Y0245039D01*
X0344242Y0242613D01*
X0344242Y0239987D01*
X0345247Y0237561D01*
X0347103Y0235705D01*
X0349529Y0234700D01*
X0352155Y0234700D01*
X0354580Y0235705D01*
X0355842Y0236966D01*
X0357103Y0235705D01*
X0359529Y0234700D01*
X0362155Y0234700D01*
X0364580Y0235705D01*
X0365842Y0236966D01*
X0367103Y0235705D01*
X0369529Y0234700D01*
X0372155Y0234700D01*
X0374580Y0235705D01*
X0375842Y0236966D01*
X0377103Y0235705D01*
X0379529Y0234700D01*
X0382155Y0234700D01*
X0384580Y0235705D01*
X0385842Y0236966D01*
X0387103Y0235705D01*
X0389529Y0234700D01*
X0392155Y0234700D01*
X0394580Y0235705D01*
X0395842Y0236966D01*
X0397103Y0235705D01*
X0399529Y0234700D01*
X0402155Y0234700D01*
X0404580Y0235705D01*
X0405842Y0236966D01*
X0407103Y0235705D01*
X0408075Y0235302D01*
X0406660Y0233887D01*
X0405797Y0231803D01*
X0405797Y0230520D01*
X0247536Y0072259D01*
X0246942Y0070826D01*
X0246942Y0056734D01*
X0245842Y0055634D01*
X0244580Y0056895D01*
X0242155Y0057900D01*
X0239529Y0057900D01*
X0237103Y0056895D01*
X0235247Y0055039D01*
X0234242Y0052613D01*
X0234242Y0049987D01*
X0235247Y0047561D01*
X0237103Y0045705D01*
X0239529Y0044700D01*
X0242155Y0044700D01*
X0244580Y0045705D01*
X0245842Y0046966D01*
X0247103Y0045705D01*
X0249529Y0044700D01*
X0252155Y0044700D01*
X0254580Y0045705D01*
X0255842Y0046966D01*
X0257103Y0045705D01*
X0259529Y0044700D01*
X0262155Y0044700D01*
X0264580Y0045705D01*
X0265842Y0046966D01*
X0267103Y0045705D01*
X0269529Y0044700D01*
X0272155Y0044700D01*
X0274580Y0045705D01*
X0275842Y0046966D01*
X0277103Y0045705D01*
X0279529Y0044700D01*
X0282155Y0044700D01*
X0284580Y0045705D01*
X0285842Y0046966D01*
X0287103Y0045705D01*
X0289529Y0044700D01*
X0292155Y0044700D01*
X0294580Y0045705D01*
X0295842Y0046966D01*
X0297103Y0045705D01*
X0299529Y0044700D01*
X0300051Y0044700D01*
X0306942Y0037810D01*
X0306942Y0017484D01*
X0306342Y0016884D01*
X0304580Y0018645D01*
X0302155Y0019650D01*
X0299529Y0019650D01*
X0297103Y0018645D01*
X0295247Y0016789D01*
X0294722Y0015523D01*
X0294229Y0016016D01*
X0293567Y0016497D01*
X0292838Y0016869D01*
X0292059Y0017122D01*
X0291342Y0017236D01*
X0291342Y0012550D01*
X0290342Y0012550D01*
X0290342Y0017236D01*
X0289624Y0017122D01*
X0288846Y0016869D01*
X0288116Y0016497D01*
X0287454Y0016016D01*
X0286875Y0015438D01*
X0286394Y0014775D01*
X0286023Y0014046D01*
X0285770Y0013268D01*
X0285656Y0012550D01*
X0290342Y0012550D01*
X0290342Y0011550D01*
X0291342Y0011550D01*
X0291342Y0006864D01*
X0292059Y0006978D01*
X0292838Y0007231D01*
X0293567Y0007603D01*
X0294229Y0008084D01*
X0294808Y0008662D01*
X0295266Y0009292D01*
X0297103Y0007455D01*
X0299529Y0006450D01*
X0302155Y0006450D01*
X0304580Y0007455D01*
X0305342Y0008216D01*
X0307103Y0006455D01*
X0309529Y0005450D01*
X0312155Y0005450D01*
X0314580Y0006455D01*
X0316437Y0008311D01*
X0317442Y0010737D01*
X0317442Y0013363D01*
X0316437Y0015789D01*
X0314742Y0017484D01*
X0314742Y0040201D01*
X0314148Y0041634D01*
X0311082Y0044700D01*
X0312155Y0044700D01*
X0314580Y0045705D01*
X0316437Y0047561D01*
X0317442Y0049987D01*
X0317442Y0052613D01*
X0316437Y0055039D01*
X0314580Y0056895D01*
X0312155Y0057900D01*
X0309529Y0057900D01*
X0307103Y0056895D01*
X0305842Y0055634D01*
X0304580Y0056895D01*
X0302155Y0057900D01*
X0299529Y0057900D01*
X0297103Y0056895D01*
X0295842Y0055634D01*
X0294580Y0056895D01*
X0292722Y0057665D01*
X0293082Y0058025D01*
X0313601Y0058025D01*
X0317567Y0054060D01*
X0317567Y0044899D01*
X0318161Y0043466D01*
X0357126Y0004500D01*
X0054042Y0004500D01*
X0054042Y0005294D02*
X0356332Y0005294D01*
X0355334Y0006293D02*
X0314189Y0006293D01*
X0315417Y0007291D02*
X0354335Y0007291D01*
X0353337Y0008290D02*
X0316415Y0008290D01*
X0316842Y0009288D02*
X0352338Y0009288D01*
X0351340Y0010287D02*
X0317255Y0010287D01*
X0317442Y0011285D02*
X0350341Y0011285D01*
X0349343Y0012284D02*
X0317442Y0012284D01*
X0317442Y0013282D02*
X0348344Y0013282D01*
X0347346Y0014281D02*
X0317062Y0014281D01*
X0316648Y0015279D02*
X0346347Y0015279D01*
X0345349Y0016278D02*
X0315948Y0016278D01*
X0314949Y0017276D02*
X0344350Y0017276D01*
X0343352Y0018275D02*
X0314742Y0018275D01*
X0314742Y0019273D02*
X0342353Y0019273D01*
X0341355Y0020272D02*
X0314742Y0020272D01*
X0314742Y0021270D02*
X0340356Y0021270D01*
X0339358Y0022269D02*
X0314742Y0022269D01*
X0314742Y0023267D02*
X0338359Y0023267D01*
X0337361Y0024266D02*
X0314742Y0024266D01*
X0314742Y0025264D02*
X0336362Y0025264D01*
X0335364Y0026263D02*
X0314742Y0026263D01*
X0314742Y0027261D02*
X0334365Y0027261D01*
X0333367Y0028260D02*
X0314742Y0028260D01*
X0314742Y0029258D02*
X0332368Y0029258D01*
X0331370Y0030257D02*
X0314742Y0030257D01*
X0314742Y0031255D02*
X0330371Y0031255D01*
X0329373Y0032254D02*
X0314742Y0032254D01*
X0314742Y0033252D02*
X0328374Y0033252D01*
X0327375Y0034251D02*
X0314742Y0034251D01*
X0314742Y0035249D02*
X0326377Y0035249D01*
X0325378Y0036248D02*
X0314742Y0036248D01*
X0314742Y0037246D02*
X0324380Y0037246D01*
X0323381Y0038245D02*
X0314742Y0038245D01*
X0314742Y0039243D02*
X0322383Y0039243D01*
X0321384Y0040242D02*
X0314725Y0040242D01*
X0314311Y0041240D02*
X0320386Y0041240D01*
X0319387Y0042239D02*
X0313543Y0042239D01*
X0312545Y0043237D02*
X0318389Y0043237D01*
X0317842Y0044236D02*
X0311546Y0044236D01*
X0313445Y0045234D02*
X0317567Y0045234D01*
X0317567Y0046233D02*
X0315109Y0046233D01*
X0316107Y0047232D02*
X0317567Y0047232D01*
X0317567Y0048230D02*
X0316714Y0048230D01*
X0317128Y0049229D02*
X0317567Y0049229D01*
X0317567Y0050227D02*
X0317442Y0050227D01*
X0317442Y0051226D02*
X0317567Y0051226D01*
X0317567Y0052224D02*
X0317442Y0052224D01*
X0317567Y0053223D02*
X0317189Y0053223D01*
X0317405Y0054221D02*
X0316776Y0054221D01*
X0316407Y0055220D02*
X0316256Y0055220D01*
X0315408Y0056218D02*
X0315257Y0056218D01*
X0314410Y0057217D02*
X0313804Y0057217D01*
X0307879Y0057217D02*
X0303804Y0057217D01*
X0305257Y0056218D02*
X0306426Y0056218D01*
X0297879Y0057217D02*
X0293804Y0057217D01*
X0295257Y0056218D02*
X0296426Y0056218D01*
X0296575Y0046233D02*
X0295109Y0046233D01*
X0293445Y0045234D02*
X0298239Y0045234D01*
X0300515Y0044236D02*
X0126787Y0044236D01*
X0126053Y0043501D02*
X0128641Y0046089D01*
X0130041Y0049470D01*
X0130041Y0053130D01*
X0128641Y0056511D01*
X0126053Y0059099D01*
X0122672Y0060499D01*
X0119012Y0060499D01*
X0115631Y0059099D01*
X0113043Y0056511D01*
X0111643Y0053130D01*
X0111643Y0049470D01*
X0113043Y0046089D01*
X0115631Y0043501D01*
X0119012Y0042101D01*
X0122672Y0042101D01*
X0126053Y0043501D01*
X0125416Y0043237D02*
X0301514Y0043237D01*
X0302512Y0042239D02*
X0123005Y0042239D01*
X0118678Y0042239D02*
X0054042Y0042239D01*
X0054042Y0043237D02*
X0116268Y0043237D01*
X0114896Y0044236D02*
X0054042Y0044236D01*
X0054042Y0045234D02*
X0113898Y0045234D01*
X0112983Y0046233D02*
X0054042Y0046233D01*
X0054042Y0047232D02*
X0112570Y0047232D01*
X0112156Y0048230D02*
X0054042Y0048230D01*
X0054042Y0049229D02*
X0111743Y0049229D01*
X0111643Y0050227D02*
X0054042Y0050227D01*
X0054042Y0051226D02*
X0111643Y0051226D01*
X0111643Y0052224D02*
X0054042Y0052224D01*
X0054042Y0053223D02*
X0111681Y0053223D01*
X0112095Y0054221D02*
X0054042Y0054221D01*
X0054042Y0055220D02*
X0112508Y0055220D01*
X0112922Y0056218D02*
X0054042Y0056218D01*
X0054042Y0057217D02*
X0113749Y0057217D01*
X0114747Y0058215D02*
X0054042Y0058215D01*
X0054042Y0059214D02*
X0115908Y0059214D01*
X0118319Y0060212D02*
X0054042Y0060212D01*
X0054042Y0061211D02*
X0246942Y0061211D01*
X0246942Y0062209D02*
X0054042Y0062209D01*
X0054042Y0063208D02*
X0246942Y0063208D01*
X0246942Y0064206D02*
X0054042Y0064206D01*
X0054042Y0065205D02*
X0246942Y0065205D01*
X0246942Y0066203D02*
X0054042Y0066203D01*
X0054042Y0067202D02*
X0246942Y0067202D01*
X0246942Y0068200D02*
X0054042Y0068200D01*
X0054042Y0069199D02*
X0246942Y0069199D01*
X0246942Y0070197D02*
X0054042Y0070197D01*
X0054042Y0071196D02*
X0247095Y0071196D01*
X0247509Y0072194D02*
X0054042Y0072194D01*
X0054042Y0073193D02*
X0248469Y0073193D01*
X0249468Y0074191D02*
X0054042Y0074191D01*
X0054042Y0075190D02*
X0250466Y0075190D01*
X0251465Y0076188D02*
X0054042Y0076188D01*
X0054042Y0077187D02*
X0252463Y0077187D01*
X0253462Y0078185D02*
X0054042Y0078185D01*
X0054042Y0079184D02*
X0254460Y0079184D01*
X0255459Y0080182D02*
X0054042Y0080182D01*
X0054042Y0081181D02*
X0256457Y0081181D01*
X0257456Y0082179D02*
X0054042Y0082179D01*
X0054042Y0083178D02*
X0258454Y0083178D01*
X0259453Y0084176D02*
X0054042Y0084176D01*
X0054042Y0085175D02*
X0260451Y0085175D01*
X0261450Y0086173D02*
X0054042Y0086173D01*
X0054042Y0087172D02*
X0262448Y0087172D01*
X0263447Y0088170D02*
X0054042Y0088170D01*
X0054042Y0089169D02*
X0264445Y0089169D01*
X0265444Y0090168D02*
X0054042Y0090168D01*
X0054042Y0091166D02*
X0266442Y0091166D01*
X0267441Y0092165D02*
X0054042Y0092165D01*
X0054042Y0093163D02*
X0268439Y0093163D01*
X0269438Y0094162D02*
X0054042Y0094162D01*
X0054042Y0095160D02*
X0270436Y0095160D01*
X0271435Y0096159D02*
X0054042Y0096159D01*
X0054042Y0097157D02*
X0272433Y0097157D01*
X0273432Y0098156D02*
X0054042Y0098156D01*
X0054042Y0099154D02*
X0274430Y0099154D01*
X0275429Y0100153D02*
X0054042Y0100153D01*
X0054042Y0101151D02*
X0276428Y0101151D01*
X0277426Y0102150D02*
X0054042Y0102150D01*
X0054042Y0103148D02*
X0278425Y0103148D01*
X0279423Y0104147D02*
X0054042Y0104147D01*
X0054042Y0105145D02*
X0280422Y0105145D01*
X0281420Y0106144D02*
X0054042Y0106144D01*
X0054042Y0107142D02*
X0282419Y0107142D01*
X0283417Y0108141D02*
X0054042Y0108141D01*
X0054042Y0109139D02*
X0284416Y0109139D01*
X0285414Y0110138D02*
X0054042Y0110138D01*
X0054042Y0111136D02*
X0286413Y0111136D01*
X0287411Y0112135D02*
X0054042Y0112135D01*
X0054042Y0113133D02*
X0288410Y0113133D01*
X0289408Y0114132D02*
X0054042Y0114132D01*
X0054042Y0115130D02*
X0290407Y0115130D01*
X0291405Y0116129D02*
X0054042Y0116129D01*
X0054042Y0117127D02*
X0292404Y0117127D01*
X0293402Y0118126D02*
X0054042Y0118126D01*
X0054042Y0119124D02*
X0294401Y0119124D01*
X0295399Y0120123D02*
X0054042Y0120123D01*
X0054042Y0121121D02*
X0296398Y0121121D01*
X0297396Y0122120D02*
X0054042Y0122120D01*
X0054042Y0123118D02*
X0298395Y0123118D01*
X0299393Y0124117D02*
X0054042Y0124117D01*
X0054042Y0125115D02*
X0300392Y0125115D01*
X0301390Y0126114D02*
X0054042Y0126114D01*
X0054042Y0127112D02*
X0302389Y0127112D01*
X0303387Y0128111D02*
X0054042Y0128111D01*
X0054042Y0129109D02*
X0304386Y0129109D01*
X0305384Y0130108D02*
X0054042Y0130108D01*
X0054042Y0131106D02*
X0306383Y0131106D01*
X0307381Y0132105D02*
X0054042Y0132105D01*
X0054042Y0133103D02*
X0308380Y0133103D01*
X0309378Y0134102D02*
X0054042Y0134102D01*
X0054042Y0135101D02*
X0310377Y0135101D01*
X0311375Y0136099D02*
X0054042Y0136099D01*
X0054042Y0137098D02*
X0312374Y0137098D01*
X0313372Y0138096D02*
X0054042Y0138096D01*
X0054042Y0139095D02*
X0314371Y0139095D01*
X0315369Y0140093D02*
X0054042Y0140093D01*
X0054042Y0141092D02*
X0316368Y0141092D01*
X0317366Y0142090D02*
X0054042Y0142090D01*
X0054042Y0143089D02*
X0318365Y0143089D01*
X0319363Y0144087D02*
X0054042Y0144087D01*
X0054042Y0145086D02*
X0320362Y0145086D01*
X0321361Y0146084D02*
X0054042Y0146084D01*
X0054042Y0147083D02*
X0322359Y0147083D01*
X0323358Y0148081D02*
X0054042Y0148081D01*
X0054042Y0149080D02*
X0324356Y0149080D01*
X0325355Y0150078D02*
X0054042Y0150078D01*
X0054042Y0151077D02*
X0326353Y0151077D01*
X0327352Y0152075D02*
X0054042Y0152075D01*
X0054042Y0153074D02*
X0328350Y0153074D01*
X0329349Y0154072D02*
X0054042Y0154072D01*
X0054042Y0155071D02*
X0330347Y0155071D01*
X0331346Y0156069D02*
X0054042Y0156069D01*
X0054042Y0157068D02*
X0332344Y0157068D01*
X0333343Y0158066D02*
X0054042Y0158066D01*
X0054042Y0159065D02*
X0334341Y0159065D01*
X0335340Y0160063D02*
X0054042Y0160063D01*
X0054042Y0161062D02*
X0336338Y0161062D01*
X0337337Y0162060D02*
X0054042Y0162060D01*
X0054042Y0163059D02*
X0338335Y0163059D01*
X0339334Y0164057D02*
X0054042Y0164057D01*
X0054042Y0165056D02*
X0340332Y0165056D01*
X0341331Y0166054D02*
X0054042Y0166054D01*
X0054042Y0167053D02*
X0342329Y0167053D01*
X0343328Y0168051D02*
X0054042Y0168051D01*
X0054042Y0169050D02*
X0344326Y0169050D01*
X0345325Y0170048D02*
X0054042Y0170048D01*
X0054042Y0171047D02*
X0346323Y0171047D01*
X0347322Y0172045D02*
X0054042Y0172045D01*
X0054042Y0173044D02*
X0348320Y0173044D01*
X0349319Y0174042D02*
X0054042Y0174042D01*
X0054042Y0175041D02*
X0350317Y0175041D01*
X0351316Y0176039D02*
X0054042Y0176039D01*
X0054042Y0177038D02*
X0352314Y0177038D01*
X0353313Y0178037D02*
X0054042Y0178037D01*
X0054042Y0179035D02*
X0354311Y0179035D01*
X0355310Y0180034D02*
X0054042Y0180034D01*
X0054042Y0181032D02*
X0356308Y0181032D01*
X0357307Y0182031D02*
X0054042Y0182031D01*
X0054042Y0183029D02*
X0358305Y0183029D01*
X0359304Y0184028D02*
X0054042Y0184028D01*
X0054042Y0185026D02*
X0360302Y0185026D01*
X0361301Y0186025D02*
X0054042Y0186025D01*
X0054042Y0187023D02*
X0362299Y0187023D01*
X0363298Y0188022D02*
X0054042Y0188022D01*
X0054042Y0189020D02*
X0364297Y0189020D01*
X0365295Y0190019D02*
X0054042Y0190019D01*
X0054042Y0191017D02*
X0366294Y0191017D01*
X0367292Y0192016D02*
X0054042Y0192016D01*
X0054042Y0193014D02*
X0368291Y0193014D01*
X0369289Y0194013D02*
X0054042Y0194013D01*
X0054042Y0195011D02*
X0370288Y0195011D01*
X0371286Y0196010D02*
X0054042Y0196010D01*
X0054042Y0197008D02*
X0372285Y0197008D01*
X0373283Y0198007D02*
X0054042Y0198007D01*
X0054042Y0199005D02*
X0374282Y0199005D01*
X0375280Y0200004D02*
X0054042Y0200004D01*
X0054042Y0201002D02*
X0376279Y0201002D01*
X0377277Y0202001D02*
X0054042Y0202001D01*
X0054042Y0202999D02*
X0378276Y0202999D01*
X0379274Y0203998D02*
X0054042Y0203998D01*
X0054042Y0204996D02*
X0380273Y0204996D01*
X0381271Y0205995D02*
X0054042Y0205995D01*
X0054042Y0206993D02*
X0382270Y0206993D01*
X0383268Y0207992D02*
X0054042Y0207992D01*
X0054042Y0208990D02*
X0384267Y0208990D01*
X0385265Y0209989D02*
X0054042Y0209989D01*
X0054042Y0210987D02*
X0386264Y0210987D01*
X0387262Y0211986D02*
X0054042Y0211986D01*
X0054042Y0212984D02*
X0316879Y0212984D01*
X0315631Y0213501D02*
X0319012Y0212101D01*
X0322672Y0212101D01*
X0326053Y0213501D01*
X0328641Y0216089D01*
X0330041Y0219470D01*
X0330041Y0223130D01*
X0328641Y0226511D01*
X0326053Y0229099D01*
X0322672Y0230499D01*
X0319012Y0230499D01*
X0315631Y0229099D01*
X0313043Y0226511D01*
X0311643Y0223130D01*
X0311643Y0219470D01*
X0313043Y0216089D01*
X0315631Y0213501D01*
X0315149Y0213983D02*
X0054042Y0213983D01*
X0054042Y0214981D02*
X0314151Y0214981D01*
X0313152Y0215980D02*
X0054042Y0215980D01*
X0054042Y0216978D02*
X0312675Y0216978D01*
X0312261Y0217977D02*
X0054042Y0217977D01*
X0054042Y0218975D02*
X0311847Y0218975D01*
X0311643Y0219974D02*
X0054042Y0219974D01*
X0054042Y0220972D02*
X0311643Y0220972D01*
X0311643Y0221971D02*
X0054042Y0221971D01*
X0054042Y0222970D02*
X0311643Y0222970D01*
X0311990Y0223968D02*
X0054042Y0223968D01*
X0054042Y0224967D02*
X0312403Y0224967D01*
X0312817Y0225965D02*
X0054042Y0225965D01*
X0054042Y0226964D02*
X0313496Y0226964D01*
X0314494Y0227962D02*
X0054042Y0227962D01*
X0054042Y0228961D02*
X0315493Y0228961D01*
X0317708Y0229959D02*
X0054042Y0229959D01*
X0054042Y0230958D02*
X0405797Y0230958D01*
X0405860Y0231956D02*
X0054042Y0231956D01*
X0054042Y0232955D02*
X0111951Y0232955D01*
X0110631Y0233501D02*
X0114012Y0232101D01*
X0117672Y0232101D01*
X0121053Y0233501D01*
X0123641Y0236089D01*
X0125041Y0239470D01*
X0125041Y0243130D01*
X0123641Y0246511D01*
X0121053Y0249099D01*
X0117672Y0250499D01*
X0114012Y0250499D01*
X0110631Y0249099D01*
X0108043Y0246511D01*
X0106643Y0243130D01*
X0106643Y0239470D01*
X0108043Y0236089D01*
X0110631Y0233501D01*
X0110179Y0233953D02*
X0054042Y0233953D01*
X0054042Y0234952D02*
X0109180Y0234952D01*
X0108182Y0235950D02*
X0054042Y0235950D01*
X0054042Y0236949D02*
X0107687Y0236949D01*
X0107273Y0237947D02*
X0054042Y0237947D01*
X0054042Y0238946D02*
X0106860Y0238946D01*
X0106643Y0239944D02*
X0054042Y0239944D01*
X0054042Y0240943D02*
X0106643Y0240943D01*
X0106643Y0241941D02*
X0054042Y0241941D01*
X0054042Y0242940D02*
X0106643Y0242940D01*
X0106977Y0243938D02*
X0054042Y0243938D01*
X0054042Y0244937D02*
X0107391Y0244937D01*
X0107805Y0245935D02*
X0054042Y0245935D01*
X0054042Y0246934D02*
X0108466Y0246934D01*
X0109464Y0247932D02*
X0054042Y0247932D01*
X0054042Y0248931D02*
X0110463Y0248931D01*
X0112636Y0249929D02*
X0054042Y0249929D01*
X0054042Y0250928D02*
X0209954Y0250928D01*
X0208956Y0249929D02*
X0119047Y0249929D01*
X0121221Y0248931D02*
X0207957Y0248931D01*
X0207297Y0247932D02*
X0122219Y0247932D01*
X0123218Y0246934D02*
X0187196Y0246934D01*
X0186143Y0245935D02*
X0123879Y0245935D01*
X0124293Y0244937D02*
X0185204Y0244937D01*
X0184791Y0243938D02*
X0124706Y0243938D01*
X0125041Y0242940D02*
X0184377Y0242940D01*
X0184242Y0241941D02*
X0125041Y0241941D01*
X0125041Y0240943D02*
X0184242Y0240943D01*
X0184260Y0239944D02*
X0125041Y0239944D01*
X0124824Y0238946D02*
X0184673Y0238946D01*
X0185087Y0237947D02*
X0124410Y0237947D01*
X0123997Y0236949D02*
X0185859Y0236949D01*
X0186858Y0235950D02*
X0123502Y0235950D01*
X0122503Y0234952D02*
X0188921Y0234952D01*
X0192762Y0234952D02*
X0198921Y0234952D01*
X0196858Y0235950D02*
X0194826Y0235950D01*
X0195824Y0236949D02*
X0195859Y0236949D01*
X0202762Y0234952D02*
X0208921Y0234952D01*
X0206858Y0235950D02*
X0204826Y0235950D01*
X0205824Y0236949D02*
X0205859Y0236949D01*
X0212762Y0234952D02*
X0228921Y0234952D01*
X0226858Y0235950D02*
X0214826Y0235950D01*
X0215824Y0236949D02*
X0217984Y0236949D01*
X0216850Y0237947D02*
X0216597Y0237947D01*
X0220342Y0237947D02*
X0221342Y0237947D01*
X0221342Y0236949D02*
X0220342Y0236949D01*
X0220342Y0238946D02*
X0221342Y0238946D01*
X0221342Y0239944D02*
X0220342Y0239944D01*
X0220342Y0241941D02*
X0221342Y0241941D01*
X0221342Y0242940D02*
X0220342Y0242940D01*
X0220342Y0243938D02*
X0221342Y0243938D01*
X0221342Y0244937D02*
X0220342Y0244937D01*
X0220342Y0245935D02*
X0221342Y0245935D01*
X0223199Y0245935D02*
X0226143Y0245935D01*
X0225204Y0244937D02*
X0224559Y0244937D01*
X0227196Y0246934D02*
X0216991Y0246934D01*
X0217990Y0247932D02*
X0233209Y0247932D01*
X0234207Y0248931D02*
X0218988Y0248931D01*
X0219987Y0249929D02*
X0235206Y0249929D01*
X0236204Y0250928D02*
X0220985Y0250928D01*
X0221984Y0251926D02*
X0237203Y0251926D01*
X0238201Y0252925D02*
X0222982Y0252925D01*
X0223981Y0253923D02*
X0239200Y0253923D01*
X0240198Y0254922D02*
X0224979Y0254922D01*
X0225978Y0255920D02*
X0241197Y0255920D01*
X0242195Y0256919D02*
X0226976Y0256919D01*
X0227975Y0257917D02*
X0243194Y0257917D01*
X0244192Y0258916D02*
X0228973Y0258916D01*
X0229972Y0259914D02*
X0245191Y0259914D01*
X0246189Y0260913D02*
X0230970Y0260913D01*
X0231969Y0261911D02*
X0247188Y0261911D01*
X0248186Y0262910D02*
X0232967Y0262910D01*
X0233966Y0263908D02*
X0249185Y0263908D01*
X0250183Y0264907D02*
X0234964Y0264907D01*
X0235963Y0265905D02*
X0251182Y0265905D01*
X0252180Y0266904D02*
X0236961Y0266904D01*
X0237960Y0267903D02*
X0253179Y0267903D01*
X0254177Y0268901D02*
X0238958Y0268901D01*
X0239957Y0269900D02*
X0255176Y0269900D01*
X0268671Y0270898D02*
X0240955Y0270898D01*
X0241954Y0271897D02*
X0269903Y0271897D01*
X0275531Y0271897D02*
X0360355Y0271897D01*
X0359356Y0272895D02*
X0242952Y0272895D01*
X0243951Y0273894D02*
X0358358Y0273894D01*
X0357359Y0274892D02*
X0244949Y0274892D01*
X0245948Y0275891D02*
X0356361Y0275891D01*
X0355362Y0276889D02*
X0246946Y0276889D01*
X0247945Y0277888D02*
X0354364Y0277888D01*
X0353365Y0278886D02*
X0248943Y0278886D01*
X0249942Y0279885D02*
X0352367Y0279885D01*
X0351368Y0280883D02*
X0250940Y0280883D01*
X0251939Y0281882D02*
X0350370Y0281882D01*
X0349371Y0282880D02*
X0252937Y0282880D01*
X0253936Y0283879D02*
X0348373Y0283879D01*
X0347374Y0284877D02*
X0254934Y0284877D01*
X0255933Y0285876D02*
X0346376Y0285876D01*
X0345377Y0286874D02*
X0256931Y0286874D01*
X0257930Y0287873D02*
X0344379Y0287873D01*
X0343380Y0288871D02*
X0258928Y0288871D01*
X0259927Y0289870D02*
X0342382Y0289870D01*
X0341383Y0290868D02*
X0260926Y0290868D01*
X0261924Y0291867D02*
X0340385Y0291867D01*
X0339386Y0292865D02*
X0262923Y0292865D01*
X0263921Y0293864D02*
X0338388Y0293864D01*
X0337389Y0294862D02*
X0264920Y0294862D01*
X0265918Y0295861D02*
X0336391Y0295861D01*
X0335392Y0296859D02*
X0266917Y0296859D01*
X0267915Y0297858D02*
X0334394Y0297858D01*
X0333395Y0298856D02*
X0268914Y0298856D01*
X0269912Y0299855D02*
X0332396Y0299855D01*
X0331398Y0300853D02*
X0270911Y0300853D01*
X0271909Y0301852D02*
X0330399Y0301852D01*
X0329401Y0302850D02*
X0272908Y0302850D01*
X0273906Y0303849D02*
X0328402Y0303849D01*
X0327404Y0304847D02*
X0274905Y0304847D01*
X0275903Y0305846D02*
X0326405Y0305846D01*
X0325407Y0306844D02*
X0276902Y0306844D01*
X0277900Y0307843D02*
X0324408Y0307843D01*
X0323410Y0308841D02*
X0278899Y0308841D01*
X0279897Y0309840D02*
X0322411Y0309840D01*
X0321413Y0310839D02*
X0280896Y0310839D01*
X0281894Y0311837D02*
X0320414Y0311837D01*
X0319416Y0312836D02*
X0282893Y0312836D01*
X0283891Y0313834D02*
X0318417Y0313834D01*
X0317419Y0314833D02*
X0284890Y0314833D01*
X0285888Y0315831D02*
X0316420Y0315831D01*
X0315422Y0316830D02*
X0286887Y0316830D01*
X0287885Y0317828D02*
X0314423Y0317828D01*
X0313425Y0318827D02*
X0288884Y0318827D01*
X0289882Y0319825D02*
X0312426Y0319825D01*
X0311428Y0320824D02*
X0290881Y0320824D01*
X0291879Y0321822D02*
X0310429Y0321822D01*
X0309431Y0322821D02*
X0292878Y0322821D01*
X0293876Y0323819D02*
X0308432Y0323819D01*
X0307434Y0324818D02*
X0294875Y0324818D01*
X0300327Y0325816D02*
X0306435Y0325816D01*
X0312473Y0330809D02*
X0316220Y0330809D01*
X0316220Y0331807D02*
X0311475Y0331807D01*
X0310476Y0332806D02*
X0316220Y0332806D01*
X0316220Y0333804D02*
X0309478Y0333804D01*
X0313472Y0329810D02*
X0316220Y0329810D01*
X0316220Y0328812D02*
X0314471Y0328812D01*
X0315469Y0327813D02*
X0316220Y0327813D01*
X0316468Y0326815D02*
X0316608Y0326815D01*
X0317466Y0325816D02*
X0317607Y0325816D01*
X0318465Y0324818D02*
X0473192Y0324818D01*
X0473192Y0323819D02*
X0319463Y0323819D01*
X0320462Y0322821D02*
X0473192Y0322821D01*
X0473192Y0321822D02*
X0321460Y0321822D01*
X0322459Y0320824D02*
X0473192Y0320824D01*
X0473192Y0319825D02*
X0323457Y0319825D01*
X0324456Y0318827D02*
X0473192Y0318827D01*
X0473192Y0317828D02*
X0325454Y0317828D01*
X0326453Y0316830D02*
X0473192Y0316830D01*
X0473192Y0315831D02*
X0327451Y0315831D01*
X0328450Y0314833D02*
X0473192Y0314833D01*
X0473192Y0313834D02*
X0329448Y0313834D01*
X0330447Y0312836D02*
X0473192Y0312836D01*
X0473192Y0311837D02*
X0331445Y0311837D01*
X0332444Y0310839D02*
X0473192Y0310839D01*
X0473192Y0309840D02*
X0333442Y0309840D01*
X0334441Y0308841D02*
X0473192Y0308841D01*
X0473192Y0307843D02*
X0335439Y0307843D01*
X0336438Y0306844D02*
X0473192Y0306844D01*
X0473192Y0305846D02*
X0337436Y0305846D01*
X0338435Y0304847D02*
X0473192Y0304847D01*
X0473192Y0303849D02*
X0339433Y0303849D01*
X0340432Y0302850D02*
X0473192Y0302850D01*
X0473192Y0301852D02*
X0341430Y0301852D01*
X0342429Y0300853D02*
X0473192Y0300853D01*
X0473192Y0299855D02*
X0343427Y0299855D01*
X0344426Y0298856D02*
X0473192Y0298856D01*
X0473192Y0297858D02*
X0345424Y0297858D01*
X0346423Y0296859D02*
X0473192Y0296859D01*
X0473192Y0295861D02*
X0347421Y0295861D01*
X0348420Y0294862D02*
X0473192Y0294862D01*
X0473192Y0293864D02*
X0349418Y0293864D01*
X0350417Y0292865D02*
X0473192Y0292865D01*
X0473192Y0291867D02*
X0351415Y0291867D01*
X0352414Y0290868D02*
X0473192Y0290868D01*
X0473192Y0289870D02*
X0353412Y0289870D01*
X0354411Y0288871D02*
X0473192Y0288871D01*
X0473192Y0287873D02*
X0355409Y0287873D01*
X0356408Y0286874D02*
X0473192Y0286874D01*
X0473192Y0285876D02*
X0357406Y0285876D01*
X0358405Y0284877D02*
X0473192Y0284877D01*
X0473192Y0283879D02*
X0359404Y0283879D01*
X0360402Y0282880D02*
X0473192Y0282880D01*
X0473192Y0281882D02*
X0361401Y0281882D01*
X0362399Y0280883D02*
X0473192Y0280883D01*
X0473192Y0279885D02*
X0363398Y0279885D01*
X0364396Y0278886D02*
X0473353Y0278886D01*
X0473766Y0277888D02*
X0365395Y0277888D01*
X0366393Y0276889D02*
X0474737Y0276889D01*
X0475736Y0275891D02*
X0367392Y0275891D01*
X0368390Y0274892D02*
X0476734Y0274892D01*
X0477733Y0273894D02*
X0369389Y0273894D01*
X0370387Y0272895D02*
X0478731Y0272895D01*
X0479730Y0271897D02*
X0371386Y0271897D01*
X0372384Y0270898D02*
X0480728Y0270898D01*
X0480642Y0270669D02*
X0480261Y0270772D01*
X0477478Y0270772D01*
X0477478Y0266686D01*
X0481563Y0266686D01*
X0481563Y0269469D01*
X0481461Y0269851D01*
X0481264Y0270193D01*
X0480984Y0270472D01*
X0480642Y0270669D01*
X0481433Y0269900D02*
X0481727Y0269900D01*
X0481563Y0268901D02*
X0482725Y0268901D01*
X0483724Y0267903D02*
X0481563Y0267903D01*
X0481563Y0266904D02*
X0484722Y0266904D01*
X0485721Y0265905D02*
X0481563Y0265905D01*
X0481563Y0265914D02*
X0477478Y0265914D01*
X0477478Y0266686D01*
X0476706Y0266686D01*
X0476706Y0270772D01*
X0473923Y0270772D01*
X0473541Y0270669D01*
X0473199Y0270472D01*
X0472920Y0270193D01*
X0472722Y0269851D01*
X0472620Y0269469D01*
X0472620Y0266686D01*
X0476706Y0266686D01*
X0476706Y0265914D01*
X0477478Y0265914D01*
X0477478Y0261828D01*
X0480261Y0261828D01*
X0480642Y0261931D01*
X0480984Y0262128D01*
X0481264Y0262407D01*
X0481461Y0262749D01*
X0481563Y0263131D01*
X0481563Y0265914D01*
X0481563Y0264907D02*
X0486719Y0264907D01*
X0487718Y0263908D02*
X0481563Y0263908D01*
X0481504Y0262910D02*
X0488716Y0262910D01*
X0489715Y0261911D02*
X0480571Y0261911D01*
X0477478Y0261911D02*
X0476706Y0261911D01*
X0476706Y0261828D02*
X0476706Y0265914D01*
X0472620Y0265914D01*
X0472620Y0263131D01*
X0472722Y0262749D01*
X0472920Y0262407D01*
X0473199Y0262128D01*
X0473541Y0261931D01*
X0473923Y0261828D01*
X0476706Y0261828D01*
X0476706Y0262910D02*
X0477478Y0262910D01*
X0477478Y0263908D02*
X0476706Y0263908D01*
X0476706Y0264907D02*
X0477478Y0264907D01*
X0477478Y0265905D02*
X0476706Y0265905D01*
X0476706Y0266904D02*
X0477478Y0266904D01*
X0477478Y0267903D02*
X0476706Y0267903D01*
X0476706Y0268901D02*
X0477478Y0268901D01*
X0477478Y0269900D02*
X0476706Y0269900D01*
X0472751Y0269900D02*
X0373383Y0269900D01*
X0374381Y0268901D02*
X0472620Y0268901D01*
X0472620Y0267903D02*
X0375380Y0267903D01*
X0376378Y0266904D02*
X0472620Y0266904D01*
X0472620Y0265905D02*
X0377377Y0265905D01*
X0378375Y0264907D02*
X0472620Y0264907D01*
X0472620Y0263908D02*
X0379374Y0263908D01*
X0380372Y0262910D02*
X0472679Y0262910D01*
X0473613Y0261911D02*
X0381371Y0261911D01*
X0382369Y0260913D02*
X0490713Y0260913D01*
X0491712Y0259914D02*
X0383368Y0259914D01*
X0384366Y0258916D02*
X0492710Y0258916D01*
X0493709Y0257917D02*
X0451352Y0257917D01*
X0452613Y0256919D02*
X0494707Y0256919D01*
X0495706Y0255920D02*
X0453612Y0255920D01*
X0452898Y0256634D02*
X0452898Y0256634D01*
X0454610Y0254922D02*
X0496704Y0254922D01*
X0497703Y0253923D02*
X0455609Y0253923D01*
X0456607Y0252925D02*
X0498702Y0252925D01*
X0499700Y0251926D02*
X0457606Y0251926D01*
X0458604Y0250928D02*
X0500699Y0250928D01*
X0501697Y0249929D02*
X0459603Y0249929D01*
X0460601Y0248931D02*
X0502696Y0248931D01*
X0503694Y0247932D02*
X0461600Y0247932D01*
X0462598Y0246934D02*
X0491696Y0246934D01*
X0490643Y0245935D02*
X0463597Y0245935D01*
X0464595Y0244937D02*
X0489704Y0244937D01*
X0489291Y0243938D02*
X0465594Y0243938D01*
X0466592Y0242940D02*
X0488877Y0242940D01*
X0488742Y0241941D02*
X0467591Y0241941D01*
X0468589Y0240943D02*
X0488742Y0240943D01*
X0488760Y0239944D02*
X0469588Y0239944D01*
X0470587Y0238946D02*
X0489173Y0238946D01*
X0489587Y0237947D02*
X0471585Y0237947D01*
X0472584Y0236949D02*
X0490359Y0236949D01*
X0491358Y0235950D02*
X0473582Y0235950D01*
X0474581Y0234952D02*
X0490711Y0234952D01*
X0490297Y0233953D02*
X0475579Y0233953D01*
X0476578Y0232955D02*
X0489883Y0232955D01*
X0489742Y0231956D02*
X0477576Y0231956D01*
X0478575Y0230958D02*
X0489742Y0230958D01*
X0489753Y0229959D02*
X0479573Y0229959D01*
X0480572Y0228961D02*
X0490167Y0228961D01*
X0490581Y0227962D02*
X0481570Y0227962D01*
X0482569Y0226964D02*
X0491344Y0226964D01*
X0492343Y0225965D02*
X0483567Y0225965D01*
X0484566Y0224967D02*
X0491654Y0224967D01*
X0490865Y0223968D02*
X0485564Y0223968D01*
X0486563Y0222970D02*
X0490417Y0222970D01*
X0490183Y0221971D02*
X0487561Y0221971D01*
X0488560Y0220972D02*
X0494842Y0220972D01*
X0495842Y0220972D02*
X0521942Y0220972D01*
X0521942Y0219974D02*
X0500379Y0219974D01*
X0499993Y0218975D02*
X0521942Y0218975D01*
X0521942Y0217977D02*
X0499355Y0217977D01*
X0499879Y0216978D02*
X0522116Y0216978D01*
X0522530Y0215980D02*
X0500996Y0215980D01*
X0501961Y0214981D02*
X0523520Y0214981D01*
X0524518Y0213983D02*
X0502374Y0213983D01*
X0502788Y0212984D02*
X0525517Y0212984D01*
X0526515Y0211986D02*
X0502942Y0211986D01*
X0502942Y0210987D02*
X0527514Y0210987D01*
X0528513Y0209989D02*
X0502942Y0209989D01*
X0502529Y0208990D02*
X0529511Y0208990D01*
X0530510Y0207992D02*
X0502115Y0207992D01*
X0501369Y0206993D02*
X0531315Y0206993D01*
X0530703Y0205995D02*
X0500370Y0205995D01*
X0500955Y0204996D02*
X0529729Y0204996D01*
X0529315Y0203998D02*
X0501368Y0203998D01*
X0501782Y0202999D02*
X0528902Y0202999D01*
X0528742Y0202001D02*
X0501942Y0202001D01*
X0501942Y0201002D02*
X0528742Y0201002D01*
X0528742Y0200004D02*
X0501942Y0200004D01*
X0501535Y0199005D02*
X0529149Y0199005D01*
X0529562Y0198007D02*
X0501121Y0198007D01*
X0500384Y0197008D02*
X0530300Y0197008D01*
X0531298Y0196010D02*
X0500966Y0196010D01*
X0501948Y0195011D02*
X0530735Y0195011D01*
X0530322Y0194013D02*
X0502362Y0194013D01*
X0502776Y0193014D02*
X0529908Y0193014D01*
X0529742Y0192016D02*
X0502942Y0192016D01*
X0502942Y0191017D02*
X0529742Y0191017D01*
X0529742Y0190019D02*
X0502942Y0190019D01*
X0502541Y0189020D02*
X0530142Y0189020D01*
X0530556Y0188022D02*
X0502128Y0188022D01*
X0501399Y0187023D02*
X0531285Y0187023D01*
X0532283Y0186025D02*
X0500400Y0186025D01*
X0498442Y0185026D02*
X0534242Y0185026D01*
X0550275Y0198007D02*
X0595495Y0198007D01*
X0596493Y0197008D02*
X0551274Y0197008D01*
X0552273Y0196010D02*
X0597492Y0196010D01*
X0598490Y0195011D02*
X0553271Y0195011D01*
X0554270Y0194013D02*
X0599489Y0194013D01*
X0600487Y0193014D02*
X0555268Y0193014D01*
X0556267Y0192016D02*
X0601486Y0192016D01*
X0602484Y0191017D02*
X0557265Y0191017D01*
X0549277Y0199005D02*
X0594496Y0199005D01*
X0593498Y0200004D02*
X0548278Y0200004D01*
X0547280Y0201002D02*
X0592499Y0201002D01*
X0591501Y0202001D02*
X0546281Y0202001D01*
X0545283Y0202999D02*
X0590502Y0202999D01*
X0589504Y0203998D02*
X0544284Y0203998D01*
X0544773Y0203509D02*
X0544773Y0203509D01*
X0542734Y0204996D02*
X0588505Y0204996D01*
X0587507Y0205995D02*
X0540370Y0205995D01*
X0541369Y0206993D02*
X0586508Y0206993D01*
X0585510Y0207992D02*
X0542115Y0207992D01*
X0542529Y0208990D02*
X0584511Y0208990D01*
X0583513Y0209989D02*
X0542942Y0209989D01*
X0542942Y0210987D02*
X0582514Y0210987D01*
X0581515Y0211986D02*
X0542942Y0211986D01*
X0542788Y0212984D02*
X0580517Y0212984D01*
X0579518Y0213983D02*
X0542374Y0213983D01*
X0541961Y0214981D02*
X0578520Y0214981D01*
X0577521Y0215980D02*
X0540996Y0215980D01*
X0539879Y0216978D02*
X0576523Y0216978D01*
X0575524Y0217977D02*
X0539355Y0217977D01*
X0539993Y0218975D02*
X0574526Y0218975D01*
X0573527Y0219974D02*
X0540379Y0219974D01*
X0540500Y0221971D02*
X0571530Y0221971D01*
X0570532Y0222970D02*
X0540267Y0222970D01*
X0539818Y0223968D02*
X0569533Y0223968D01*
X0568535Y0224967D02*
X0539029Y0224967D01*
X0540341Y0225965D02*
X0567536Y0225965D01*
X0566538Y0226964D02*
X0541339Y0226964D01*
X0542103Y0227962D02*
X0565539Y0227962D01*
X0564541Y0228961D02*
X0542517Y0228961D01*
X0542930Y0229959D02*
X0563542Y0229959D01*
X0562544Y0230958D02*
X0542942Y0230958D01*
X0542942Y0231956D02*
X0561545Y0231956D01*
X0560547Y0232955D02*
X0542800Y0232955D01*
X0542387Y0233953D02*
X0559548Y0233953D01*
X0558550Y0234952D02*
X0541973Y0234952D01*
X0541025Y0235950D02*
X0557551Y0235950D01*
X0556553Y0236949D02*
X0540324Y0236949D01*
X0541097Y0237947D02*
X0555554Y0237947D01*
X0554556Y0238946D02*
X0541510Y0238946D01*
X0541924Y0239944D02*
X0553557Y0239944D01*
X0552559Y0240943D02*
X0541942Y0240943D01*
X0541942Y0241941D02*
X0551560Y0241941D01*
X0550562Y0242940D02*
X0541806Y0242940D01*
X0541393Y0243938D02*
X0549563Y0243938D01*
X0548565Y0244937D02*
X0540979Y0244937D01*
X0540040Y0245935D02*
X0547566Y0245935D01*
X0546568Y0246934D02*
X0538987Y0246934D01*
X0542574Y0250928D02*
X0511729Y0250928D01*
X0510731Y0251926D02*
X0541575Y0251926D01*
X0540577Y0252925D02*
X0509732Y0252925D01*
X0508734Y0253923D02*
X0539578Y0253923D01*
X0538579Y0254922D02*
X0507735Y0254922D01*
X0506737Y0255920D02*
X0537581Y0255920D01*
X0536582Y0256919D02*
X0505738Y0256919D01*
X0504740Y0257917D02*
X0535584Y0257917D01*
X0534585Y0258916D02*
X0503741Y0258916D01*
X0502743Y0259914D02*
X0533587Y0259914D01*
X0532588Y0260913D02*
X0501744Y0260913D01*
X0500746Y0261911D02*
X0531590Y0261911D01*
X0530591Y0262910D02*
X0499747Y0262910D01*
X0498749Y0263908D02*
X0529593Y0263908D01*
X0528594Y0264907D02*
X0497750Y0264907D01*
X0496752Y0265905D02*
X0527596Y0265905D01*
X0526597Y0266904D02*
X0495753Y0266904D01*
X0494755Y0267903D02*
X0525599Y0267903D01*
X0524600Y0268901D02*
X0493756Y0268901D01*
X0492758Y0269900D02*
X0523602Y0269900D01*
X0522603Y0270898D02*
X0491759Y0270898D01*
X0490761Y0271897D02*
X0521605Y0271897D01*
X0520606Y0272895D02*
X0489762Y0272895D01*
X0488764Y0273894D02*
X0519608Y0273894D01*
X0518609Y0274892D02*
X0487765Y0274892D01*
X0486767Y0275891D02*
X0517611Y0275891D01*
X0516612Y0276889D02*
X0505676Y0276889D01*
X0505846Y0276944D02*
X0506505Y0277280D01*
X0507104Y0277715D01*
X0507627Y0278238D01*
X0508062Y0278837D01*
X0508397Y0279496D01*
X0508626Y0280199D01*
X0508721Y0280800D01*
X0501342Y0280800D01*
X0501342Y0276600D01*
X0504412Y0276600D01*
X0505142Y0276716D01*
X0505846Y0276944D01*
X0507276Y0277888D02*
X0515614Y0277888D01*
X0514615Y0278886D02*
X0508087Y0278886D01*
X0508524Y0279885D02*
X0513617Y0279885D01*
X0512618Y0280883D02*
X0501342Y0280883D01*
X0501342Y0279885D02*
X0500342Y0279885D01*
X0500342Y0280800D02*
X0500342Y0276600D01*
X0497272Y0276600D01*
X0496541Y0276716D01*
X0495838Y0276944D01*
X0495178Y0277280D01*
X0494580Y0277715D01*
X0494057Y0278238D01*
X0493622Y0278837D01*
X0493286Y0279496D01*
X0493058Y0280199D01*
X0492962Y0280800D01*
X0500342Y0280800D01*
X0500342Y0280883D02*
X0481774Y0280883D01*
X0480992Y0281882D02*
X0492975Y0281882D01*
X0493213Y0282880D02*
X0480992Y0282880D01*
X0480992Y0283879D02*
X0493706Y0283879D01*
X0494572Y0284877D02*
X0480992Y0284877D01*
X0480992Y0285876D02*
X0494797Y0285876D01*
X0493441Y0286874D02*
X0480992Y0286874D01*
X0480992Y0287873D02*
X0492459Y0287873D01*
X0492045Y0288871D02*
X0480992Y0288871D01*
X0480992Y0289870D02*
X0491632Y0289870D01*
X0491542Y0290868D02*
X0480992Y0290868D01*
X0480992Y0291867D02*
X0491542Y0291867D01*
X0491688Y0292865D02*
X0480992Y0292865D01*
X0480992Y0293864D02*
X0492101Y0293864D01*
X0492577Y0294862D02*
X0480992Y0294862D01*
X0480992Y0295861D02*
X0493576Y0295861D01*
X0493456Y0296859D02*
X0480992Y0296859D01*
X0480992Y0297858D02*
X0492465Y0297858D01*
X0492051Y0298856D02*
X0480992Y0298856D01*
X0480992Y0299855D02*
X0491638Y0299855D01*
X0491542Y0300853D02*
X0480992Y0300853D01*
X0480992Y0301852D02*
X0491542Y0301852D01*
X0491681Y0302850D02*
X0480992Y0302850D01*
X0480992Y0303849D02*
X0492095Y0303849D01*
X0492563Y0304847D02*
X0480992Y0304847D01*
X0480992Y0305846D02*
X0493561Y0305846D01*
X0495087Y0306844D02*
X0480992Y0306844D01*
X0480992Y0307843D02*
X0510658Y0307843D01*
X0510692Y0306844D02*
X0506596Y0306844D01*
X0508123Y0305846D02*
X0510692Y0305846D01*
X0510692Y0304847D02*
X0509121Y0304847D01*
X0509589Y0303849D02*
X0510692Y0303849D01*
X0510692Y0302850D02*
X0510002Y0302850D01*
X0510142Y0301852D02*
X0510692Y0301852D01*
X0510692Y0300853D02*
X0510142Y0300853D01*
X0510046Y0299855D02*
X0510692Y0299855D01*
X0510692Y0298856D02*
X0509632Y0298856D01*
X0509219Y0297858D02*
X0510692Y0297858D01*
X0510692Y0296859D02*
X0508228Y0296859D01*
X0508108Y0295861D02*
X0510692Y0295861D01*
X0510692Y0294862D02*
X0509308Y0294862D01*
X0510668Y0293864D02*
X0510692Y0293864D01*
X0518492Y0293864D02*
X0532101Y0293864D01*
X0531688Y0292865D02*
X0518492Y0292865D01*
X0518492Y0291867D02*
X0531542Y0291867D01*
X0531542Y0290868D02*
X0518492Y0290868D01*
X0519037Y0289870D02*
X0531632Y0289870D01*
X0532045Y0288871D02*
X0520036Y0288871D01*
X0521034Y0287873D02*
X0532459Y0287873D01*
X0533441Y0286874D02*
X0522033Y0286874D01*
X0523031Y0285876D02*
X0534797Y0285876D01*
X0534572Y0284877D02*
X0524030Y0284877D01*
X0525029Y0283879D02*
X0533706Y0283879D01*
X0533213Y0282880D02*
X0526027Y0282880D01*
X0527026Y0281882D02*
X0532975Y0281882D01*
X0532962Y0280800D02*
X0533058Y0280199D01*
X0533286Y0279496D01*
X0533622Y0278837D01*
X0534057Y0278238D01*
X0534580Y0277715D01*
X0535178Y0277280D01*
X0535838Y0276944D01*
X0536541Y0276716D01*
X0537272Y0276600D01*
X0540342Y0276600D01*
X0540342Y0280800D01*
X0532962Y0280800D01*
X0533160Y0279885D02*
X0529023Y0279885D01*
X0530021Y0278886D02*
X0533597Y0278886D01*
X0534407Y0277888D02*
X0531020Y0277888D01*
X0532018Y0276889D02*
X0536008Y0276889D01*
X0534015Y0274892D02*
X0607984Y0274892D01*
X0606986Y0275891D02*
X0533017Y0275891D01*
X0535014Y0273894D02*
X0608983Y0273894D01*
X0609981Y0272895D02*
X0536012Y0272895D01*
X0537011Y0271897D02*
X0610980Y0271897D01*
X0611978Y0270898D02*
X0538009Y0270898D01*
X0539008Y0269900D02*
X0612977Y0269900D01*
X0613975Y0268901D02*
X0540006Y0268901D01*
X0541005Y0267903D02*
X0614974Y0267903D01*
X0615972Y0266904D02*
X0542003Y0266904D01*
X0543002Y0265905D02*
X0616971Y0265905D01*
X0617969Y0264907D02*
X0544000Y0264907D01*
X0544999Y0263908D02*
X0618968Y0263908D01*
X0619966Y0262910D02*
X0545997Y0262910D01*
X0546996Y0261911D02*
X0620965Y0261911D01*
X0621963Y0260913D02*
X0547994Y0260913D01*
X0548993Y0259914D02*
X0622962Y0259914D01*
X0623960Y0258916D02*
X0549991Y0258916D01*
X0550990Y0257917D02*
X0624959Y0257917D01*
X0625957Y0256919D02*
X0551988Y0256919D01*
X0552987Y0255920D02*
X0626956Y0255920D01*
X0627954Y0254922D02*
X0553985Y0254922D01*
X0554984Y0253923D02*
X0628953Y0253923D01*
X0629952Y0252925D02*
X0555982Y0252925D01*
X0556981Y0251926D02*
X0630950Y0251926D01*
X0631949Y0250928D02*
X0557979Y0250928D01*
X0558978Y0249929D02*
X0632947Y0249929D01*
X0633946Y0248931D02*
X0559976Y0248931D01*
X0560975Y0247932D02*
X0634944Y0247932D01*
X0634791Y0246581D02*
X0632850Y0245777D01*
X0631365Y0244291D01*
X0630842Y0243029D01*
X0630319Y0244291D01*
X0628833Y0245777D01*
X0626892Y0246581D01*
X0624791Y0246581D01*
X0622850Y0245777D01*
X0621365Y0244291D01*
X0620842Y0243029D01*
X0620319Y0244291D01*
X0618833Y0245777D01*
X0616892Y0246581D01*
X0614791Y0246581D01*
X0612850Y0245777D01*
X0611365Y0244291D01*
X0610842Y0243029D01*
X0610319Y0244291D01*
X0608833Y0245777D01*
X0606892Y0246581D01*
X0604791Y0246581D01*
X0602850Y0245777D01*
X0601365Y0244291D01*
X0600561Y0242350D01*
X0600561Y0240250D01*
X0601365Y0238308D01*
X0602850Y0236823D01*
X0604791Y0236019D01*
X0606892Y0236019D01*
X0608833Y0236823D01*
X0610319Y0238308D01*
X0610842Y0239571D01*
X0611365Y0238308D01*
X0612850Y0236823D01*
X0614791Y0236019D01*
X0616892Y0236019D01*
X0618833Y0236823D01*
X0620319Y0238308D01*
X0620842Y0239571D01*
X0621365Y0238308D01*
X0622850Y0236823D01*
X0624791Y0236019D01*
X0626892Y0236019D01*
X0628833Y0236823D01*
X0630319Y0238308D01*
X0630842Y0239571D01*
X0631365Y0238308D01*
X0632850Y0236823D01*
X0634791Y0236019D01*
X0636892Y0236019D01*
X0638833Y0236823D01*
X0640319Y0238308D01*
X0640842Y0239571D01*
X0641365Y0238308D01*
X0642850Y0236823D01*
X0644791Y0236019D01*
X0646892Y0236019D01*
X0648833Y0236823D01*
X0650319Y0238308D01*
X0651123Y0240250D01*
X0651123Y0242350D01*
X0650319Y0244291D01*
X0648833Y0245777D01*
X0646892Y0246581D01*
X0644791Y0246581D01*
X0642850Y0245777D01*
X0641365Y0244291D01*
X0640842Y0243029D01*
X0640319Y0244291D01*
X0638833Y0245777D01*
X0636892Y0246581D01*
X0634791Y0246581D01*
X0633232Y0245935D02*
X0628451Y0245935D01*
X0629674Y0244937D02*
X0632010Y0244937D01*
X0631218Y0243938D02*
X0630465Y0243938D01*
X0630583Y0238946D02*
X0631101Y0238946D01*
X0631726Y0237947D02*
X0629958Y0237947D01*
X0628959Y0236949D02*
X0632725Y0236949D01*
X0638959Y0236949D02*
X0642725Y0236949D01*
X0641726Y0237947D02*
X0639958Y0237947D01*
X0640583Y0238946D02*
X0641101Y0238946D01*
X0641218Y0243938D02*
X0640465Y0243938D01*
X0639674Y0244937D02*
X0642010Y0244937D01*
X0643232Y0245935D02*
X0638451Y0245935D01*
X0636558Y0246934D02*
X0561973Y0246934D01*
X0562972Y0245935D02*
X0603232Y0245935D01*
X0602010Y0244937D02*
X0589358Y0244937D01*
X0587697Y0245625D02*
X0591124Y0244205D01*
X0593747Y0241582D01*
X0595167Y0238155D01*
X0595167Y0234445D01*
X0593747Y0231018D01*
X0591124Y0228395D01*
X0587697Y0226975D01*
X0583987Y0226975D01*
X0580560Y0228395D01*
X0577936Y0231018D01*
X0576517Y0234445D01*
X0576517Y0238155D01*
X0577936Y0241582D01*
X0580560Y0244205D01*
X0583987Y0245625D01*
X0587697Y0245625D01*
X0591391Y0243938D02*
X0601218Y0243938D01*
X0600805Y0242940D02*
X0592390Y0242940D01*
X0593388Y0241941D02*
X0600561Y0241941D01*
X0600561Y0240943D02*
X0594012Y0240943D01*
X0594426Y0239944D02*
X0600687Y0239944D01*
X0601101Y0238946D02*
X0594839Y0238946D01*
X0595167Y0237947D02*
X0601726Y0237947D01*
X0602725Y0236949D02*
X0595167Y0236949D01*
X0595167Y0235950D02*
X0656517Y0235950D01*
X0656517Y0234952D02*
X0595167Y0234952D01*
X0594963Y0233953D02*
X0656721Y0233953D01*
X0656517Y0234445D02*
X0657936Y0231018D01*
X0660560Y0228395D01*
X0663987Y0226975D01*
X0667697Y0226975D01*
X0671124Y0228395D01*
X0673747Y0231018D01*
X0675167Y0234445D01*
X0675167Y0238155D01*
X0673747Y0241582D01*
X0671124Y0244205D01*
X0667697Y0245625D01*
X0663987Y0245625D01*
X0660560Y0244205D01*
X0657936Y0241582D01*
X0656517Y0238155D01*
X0656517Y0234445D01*
X0657134Y0232955D02*
X0594549Y0232955D01*
X0594136Y0231956D02*
X0657548Y0231956D01*
X0657997Y0230958D02*
X0593687Y0230958D01*
X0592688Y0229959D02*
X0658995Y0229959D01*
X0659994Y0228961D02*
X0591690Y0228961D01*
X0590080Y0227962D02*
X0661604Y0227962D01*
X0670080Y0227962D02*
X0690539Y0227962D01*
X0689541Y0228961D02*
X0671690Y0228961D01*
X0672688Y0229959D02*
X0688542Y0229959D01*
X0687544Y0230958D02*
X0673687Y0230958D01*
X0674136Y0231956D02*
X0686545Y0231956D01*
X0685547Y0232955D02*
X0674549Y0232955D01*
X0674963Y0233953D02*
X0684548Y0233953D01*
X0683550Y0234952D02*
X0675167Y0234952D01*
X0675167Y0235950D02*
X0682551Y0235950D01*
X0681553Y0236949D02*
X0675167Y0236949D01*
X0675167Y0237947D02*
X0680554Y0237947D01*
X0679556Y0238946D02*
X0674839Y0238946D01*
X0674426Y0239944D02*
X0678557Y0239944D01*
X0677559Y0240943D02*
X0674012Y0240943D01*
X0673388Y0241941D02*
X0676560Y0241941D01*
X0675562Y0242940D02*
X0672390Y0242940D01*
X0671391Y0243938D02*
X0674563Y0243938D01*
X0673565Y0244937D02*
X0669358Y0244937D01*
X0672566Y0245935D02*
X0648451Y0245935D01*
X0649674Y0244937D02*
X0662325Y0244937D01*
X0660293Y0243938D02*
X0650465Y0243938D01*
X0650879Y0242940D02*
X0659294Y0242940D01*
X0658295Y0241941D02*
X0651123Y0241941D01*
X0651123Y0240943D02*
X0657672Y0240943D01*
X0657258Y0239944D02*
X0650996Y0239944D01*
X0650583Y0238946D02*
X0656844Y0238946D01*
X0656517Y0237947D02*
X0649958Y0237947D01*
X0648959Y0236949D02*
X0656517Y0236949D01*
X0680601Y0248931D02*
X0705288Y0248931D01*
X0705701Y0249929D02*
X0679603Y0249929D01*
X0678604Y0250928D02*
X0706380Y0250928D01*
X0706508Y0250800D02*
X0705747Y0250039D01*
X0704742Y0247613D01*
X0704742Y0244987D01*
X0705747Y0242561D01*
X0707584Y0240724D01*
X0706954Y0240266D01*
X0706375Y0239688D01*
X0705894Y0239025D01*
X0705523Y0238296D01*
X0705270Y0237518D01*
X0705156Y0236800D01*
X0709842Y0236800D01*
X0709842Y0235800D01*
X0710842Y0235800D01*
X0710842Y0236800D01*
X0715527Y0236800D01*
X0715414Y0237518D01*
X0715161Y0238296D01*
X0714789Y0239025D01*
X0714308Y0239688D01*
X0713815Y0240181D01*
X0715080Y0240705D01*
X0716937Y0242561D01*
X0717942Y0244987D01*
X0717942Y0247613D01*
X0716937Y0250039D01*
X0715176Y0251800D01*
X0715937Y0252561D01*
X0716942Y0254987D01*
X0716942Y0257613D01*
X0715937Y0260039D01*
X0714080Y0261895D01*
X0711655Y0262900D01*
X0709029Y0262900D01*
X0706603Y0261895D01*
X0704747Y0260039D01*
X0703742Y0257613D01*
X0703742Y0254987D01*
X0704747Y0252561D01*
X0706508Y0250800D01*
X0705382Y0251926D02*
X0677606Y0251926D01*
X0676607Y0252925D02*
X0704596Y0252925D01*
X0704182Y0253923D02*
X0675609Y0253923D01*
X0681600Y0247932D02*
X0704874Y0247932D01*
X0704742Y0246934D02*
X0682598Y0246934D01*
X0683597Y0245935D02*
X0704742Y0245935D01*
X0704763Y0244937D02*
X0684595Y0244937D01*
X0685594Y0243938D02*
X0705176Y0243938D01*
X0705590Y0242940D02*
X0686592Y0242940D01*
X0687591Y0241941D02*
X0706367Y0241941D01*
X0707365Y0240943D02*
X0688590Y0240943D01*
X0689588Y0239944D02*
X0706632Y0239944D01*
X0705854Y0238946D02*
X0690587Y0238946D01*
X0691585Y0237947D02*
X0705409Y0237947D01*
X0705180Y0236949D02*
X0692584Y0236949D01*
X0693582Y0235950D02*
X0709842Y0235950D01*
X0709842Y0235800D02*
X0705156Y0235800D01*
X0705270Y0235082D01*
X0705523Y0234304D01*
X0705894Y0233575D01*
X0706375Y0232912D01*
X0706954Y0232334D01*
X0707616Y0231853D01*
X0708346Y0231481D01*
X0709124Y0231228D01*
X0709842Y0231114D01*
X0709842Y0235800D01*
X0709842Y0234952D02*
X0710842Y0234952D01*
X0710842Y0235800D02*
X0710842Y0231114D01*
X0711559Y0231228D01*
X0712338Y0231481D01*
X0713067Y0231853D01*
X0713729Y0232334D01*
X0714308Y0232912D01*
X0714789Y0233575D01*
X0715161Y0234304D01*
X0715414Y0235082D01*
X0715527Y0235800D01*
X0710842Y0235800D01*
X0710842Y0235950D02*
X0722642Y0235950D01*
X0722642Y0234952D02*
X0715371Y0234952D01*
X0714982Y0233953D02*
X0722642Y0233953D01*
X0722642Y0232955D02*
X0714339Y0232955D01*
X0713210Y0231956D02*
X0722642Y0231956D01*
X0722642Y0230958D02*
X0698575Y0230958D01*
X0697576Y0231956D02*
X0707474Y0231956D01*
X0706345Y0232955D02*
X0696578Y0232955D01*
X0695579Y0233953D02*
X0705701Y0233953D01*
X0705312Y0234952D02*
X0694581Y0234952D01*
X0699573Y0229959D02*
X0722642Y0229959D01*
X0722642Y0228961D02*
X0700572Y0228961D01*
X0701570Y0227962D02*
X0722642Y0227962D01*
X0722642Y0226964D02*
X0702569Y0226964D01*
X0703567Y0225965D02*
X0722642Y0225965D01*
X0722642Y0224967D02*
X0704566Y0224967D01*
X0705564Y0223968D02*
X0722642Y0223968D01*
X0722642Y0222970D02*
X0706563Y0222970D01*
X0707561Y0221971D02*
X0722642Y0221971D01*
X0722642Y0220972D02*
X0708560Y0220972D01*
X0709558Y0219974D02*
X0722642Y0219974D01*
X0722642Y0218975D02*
X0714266Y0218975D01*
X0715449Y0217977D02*
X0722642Y0217977D01*
X0722642Y0216978D02*
X0716441Y0216978D01*
X0716855Y0215980D02*
X0722642Y0215980D01*
X0722642Y0214981D02*
X0717268Y0214981D01*
X0717442Y0213983D02*
X0722642Y0213983D01*
X0722642Y0212984D02*
X0717442Y0212984D01*
X0717442Y0211986D02*
X0722642Y0211986D01*
X0722642Y0210987D02*
X0717048Y0210987D01*
X0716635Y0209989D02*
X0722642Y0209989D01*
X0722642Y0208990D02*
X0715916Y0208990D01*
X0714917Y0207992D02*
X0722642Y0207992D01*
X0722642Y0206993D02*
X0715032Y0206993D01*
X0716031Y0205995D02*
X0722642Y0205995D01*
X0722642Y0204996D02*
X0716682Y0204996D01*
X0717096Y0203998D02*
X0722642Y0203998D01*
X0722642Y0202999D02*
X0717442Y0202999D01*
X0717442Y0202001D02*
X0722642Y0202001D01*
X0722642Y0201002D02*
X0717442Y0201002D01*
X0717221Y0200004D02*
X0722642Y0200004D01*
X0722642Y0199005D02*
X0716807Y0199005D01*
X0716332Y0198007D02*
X0722642Y0198007D01*
X0722642Y0197008D02*
X0715334Y0197008D01*
X0713989Y0196010D02*
X0722642Y0196010D01*
X0722642Y0195011D02*
X0609521Y0195011D01*
X0610520Y0194013D02*
X0722642Y0194013D01*
X0722642Y0193014D02*
X0705268Y0193014D01*
X0706267Y0192016D02*
X0722642Y0192016D01*
X0722642Y0191017D02*
X0707265Y0191017D01*
X0708264Y0190019D02*
X0722642Y0190019D01*
X0722642Y0189020D02*
X0709262Y0189020D01*
X0713551Y0188022D02*
X0722642Y0188022D01*
X0722642Y0187023D02*
X0715152Y0187023D01*
X0716151Y0186025D02*
X0722642Y0186025D01*
X0722642Y0185026D02*
X0716732Y0185026D01*
X0717146Y0184028D02*
X0722642Y0184028D01*
X0722642Y0183029D02*
X0717442Y0183029D01*
X0717442Y0182031D02*
X0722642Y0182031D01*
X0722642Y0181032D02*
X0717442Y0181032D01*
X0717171Y0180034D02*
X0722642Y0180034D01*
X0722642Y0179035D02*
X0716757Y0179035D01*
X0716212Y0178037D02*
X0722642Y0178037D01*
X0722642Y0177038D02*
X0715214Y0177038D01*
X0714736Y0176039D02*
X0722642Y0176039D01*
X0722642Y0175041D02*
X0715735Y0175041D01*
X0716560Y0174042D02*
X0722642Y0174042D01*
X0722642Y0173044D02*
X0716973Y0173044D01*
X0717387Y0172045D02*
X0722642Y0172045D01*
X0722642Y0171047D02*
X0717442Y0171047D01*
X0717442Y0170048D02*
X0722642Y0170048D01*
X0722642Y0169050D02*
X0717344Y0169050D01*
X0716930Y0168051D02*
X0722642Y0168051D01*
X0722642Y0167053D02*
X0716516Y0167053D01*
X0715630Y0166054D02*
X0722642Y0166054D01*
X0722642Y0165056D02*
X0714631Y0165056D01*
X0712293Y0164057D02*
X0722642Y0164057D01*
X0722642Y0163059D02*
X0657098Y0163059D01*
X0656100Y0164057D02*
X0709391Y0164057D01*
X0707052Y0165056D02*
X0655101Y0165056D01*
X0654103Y0166054D02*
X0706054Y0166054D01*
X0705167Y0167053D02*
X0653104Y0167053D01*
X0652106Y0168051D02*
X0704754Y0168051D01*
X0704340Y0169050D02*
X0651107Y0169050D01*
X0650109Y0170048D02*
X0704242Y0170048D01*
X0704242Y0171047D02*
X0649110Y0171047D01*
X0648112Y0172045D02*
X0704297Y0172045D01*
X0704710Y0173044D02*
X0647113Y0173044D01*
X0646115Y0174042D02*
X0705124Y0174042D01*
X0705949Y0175041D02*
X0645116Y0175041D01*
X0644118Y0176039D02*
X0706947Y0176039D01*
X0706470Y0177038D02*
X0643119Y0177038D01*
X0642121Y0178037D02*
X0705471Y0178037D01*
X0704926Y0179035D02*
X0641122Y0179035D01*
X0640124Y0180034D02*
X0704513Y0180034D01*
X0704242Y0181032D02*
X0639125Y0181032D01*
X0638127Y0182031D02*
X0704242Y0182031D01*
X0704222Y0183029D02*
X0637128Y0183029D01*
X0636130Y0184028D02*
X0703224Y0184028D01*
X0702225Y0185026D02*
X0635131Y0185026D01*
X0634133Y0186025D02*
X0701227Y0186025D01*
X0707695Y0196010D02*
X0608523Y0196010D01*
X0607524Y0197008D02*
X0706350Y0197008D01*
X0705653Y0205995D02*
X0602912Y0205995D01*
X0601914Y0206993D02*
X0706651Y0206993D01*
X0706766Y0207992D02*
X0600915Y0207992D01*
X0599917Y0208990D02*
X0705768Y0208990D01*
X0705049Y0209989D02*
X0598918Y0209989D01*
X0597920Y0210987D02*
X0704635Y0210987D01*
X0704242Y0211986D02*
X0596921Y0211986D01*
X0595923Y0212984D02*
X0704242Y0212984D01*
X0704242Y0213983D02*
X0594924Y0213983D01*
X0593926Y0214981D02*
X0703520Y0214981D01*
X0702521Y0215980D02*
X0592927Y0215980D01*
X0591929Y0216978D02*
X0701523Y0216978D01*
X0700524Y0217977D02*
X0590930Y0217977D01*
X0589932Y0218975D02*
X0699526Y0218975D01*
X0698527Y0219974D02*
X0588933Y0219974D01*
X0587935Y0220972D02*
X0697529Y0220972D01*
X0696530Y0221971D02*
X0586936Y0221971D01*
X0585938Y0222970D02*
X0695532Y0222970D01*
X0694533Y0223968D02*
X0584939Y0223968D01*
X0583941Y0224967D02*
X0693535Y0224967D01*
X0692536Y0225965D02*
X0582942Y0225965D01*
X0581944Y0226964D02*
X0691538Y0226964D01*
X0709842Y0231956D02*
X0710842Y0231956D01*
X0710842Y0232955D02*
X0709842Y0232955D01*
X0709842Y0233953D02*
X0710842Y0233953D01*
X0715504Y0236949D02*
X0722642Y0236949D01*
X0722642Y0237947D02*
X0715274Y0237947D01*
X0714830Y0238946D02*
X0722642Y0238946D01*
X0722642Y0239944D02*
X0714051Y0239944D01*
X0715318Y0240943D02*
X0722642Y0240943D01*
X0722642Y0241941D02*
X0716317Y0241941D01*
X0717094Y0242940D02*
X0722642Y0242940D01*
X0722642Y0243938D02*
X0717507Y0243938D01*
X0717921Y0244937D02*
X0722642Y0244937D01*
X0722642Y0245935D02*
X0717942Y0245935D01*
X0717942Y0246934D02*
X0722642Y0246934D01*
X0722642Y0247932D02*
X0717809Y0247932D01*
X0717396Y0248931D02*
X0722642Y0248931D01*
X0722642Y0249929D02*
X0716982Y0249929D01*
X0716048Y0250928D02*
X0722642Y0250928D01*
X0722642Y0251926D02*
X0715302Y0251926D01*
X0716088Y0252925D02*
X0722642Y0252925D01*
X0722642Y0253923D02*
X0716501Y0253923D01*
X0716915Y0254922D02*
X0722642Y0254922D01*
X0722642Y0255920D02*
X0716942Y0255920D01*
X0716942Y0256919D02*
X0722642Y0256919D01*
X0722642Y0257917D02*
X0716816Y0257917D01*
X0716402Y0258916D02*
X0722642Y0258916D01*
X0722642Y0259914D02*
X0715988Y0259914D01*
X0715063Y0260913D02*
X0722642Y0260913D01*
X0722642Y0261911D02*
X0714041Y0261911D01*
X0706642Y0261911D02*
X0631996Y0261911D01*
X0632994Y0260913D02*
X0705621Y0260913D01*
X0704695Y0259914D02*
X0633993Y0259914D01*
X0634991Y0258916D02*
X0704282Y0258916D01*
X0703868Y0257917D02*
X0635990Y0257917D01*
X0636988Y0256919D02*
X0703742Y0256919D01*
X0703742Y0255920D02*
X0637987Y0255920D01*
X0638985Y0254922D02*
X0703769Y0254922D01*
X0722642Y0262910D02*
X0630997Y0262910D01*
X0629999Y0263908D02*
X0722642Y0263908D01*
X0722642Y0264907D02*
X0629000Y0264907D01*
X0628002Y0265905D02*
X0722642Y0265905D01*
X0722642Y0266904D02*
X0627003Y0266904D01*
X0626005Y0267903D02*
X0722642Y0267903D01*
X0722642Y0268901D02*
X0625006Y0268901D01*
X0624008Y0269900D02*
X0722642Y0269900D01*
X0722642Y0270898D02*
X0623009Y0270898D01*
X0622011Y0271897D02*
X0707556Y0271897D01*
X0707616Y0271853D02*
X0708346Y0271481D01*
X0709124Y0271228D01*
X0709842Y0271114D01*
X0709842Y0275800D01*
X0710842Y0275800D01*
X0710842Y0276800D01*
X0715527Y0276800D01*
X0715414Y0277518D01*
X0715161Y0278296D01*
X0714789Y0279025D01*
X0714308Y0279688D01*
X0713815Y0280181D01*
X0715080Y0280705D01*
X0716937Y0282561D01*
X0717942Y0284987D01*
X0717942Y0287613D01*
X0716937Y0290039D01*
X0715176Y0291800D01*
X0715937Y0292561D01*
X0716942Y0294987D01*
X0716942Y0297613D01*
X0715937Y0300039D01*
X0714080Y0301895D01*
X0711655Y0302900D01*
X0709132Y0302900D01*
X0702426Y0309606D01*
X0700993Y0310200D01*
X0584960Y0310200D01*
X0584054Y0311107D01*
X0581970Y0311970D01*
X0579714Y0311970D01*
X0577630Y0311107D01*
X0576035Y0309512D01*
X0575172Y0307428D01*
X0575172Y0305172D01*
X0576035Y0303088D01*
X0577630Y0301493D01*
X0579714Y0300630D01*
X0581970Y0300630D01*
X0584054Y0301493D01*
X0584960Y0302400D01*
X0698601Y0302400D01*
X0703742Y0297260D01*
X0703742Y0294987D01*
X0704747Y0292561D01*
X0706508Y0290800D01*
X0705747Y0290039D01*
X0704742Y0287613D01*
X0704742Y0284987D01*
X0705747Y0282561D01*
X0707584Y0280724D01*
X0706954Y0280266D01*
X0706375Y0279688D01*
X0705894Y0279025D01*
X0705523Y0278296D01*
X0705270Y0277518D01*
X0705156Y0276800D01*
X0709842Y0276800D01*
X0709842Y0275800D01*
X0705156Y0275800D01*
X0705270Y0275082D01*
X0705523Y0274304D01*
X0705894Y0273575D01*
X0706375Y0272912D01*
X0706954Y0272334D01*
X0707616Y0271853D01*
X0706393Y0272895D02*
X0621012Y0272895D01*
X0620014Y0273894D02*
X0705732Y0273894D01*
X0705332Y0274892D02*
X0619015Y0274892D01*
X0618017Y0275891D02*
X0709842Y0275891D01*
X0709842Y0274892D02*
X0710842Y0274892D01*
X0710842Y0275800D02*
X0710842Y0271114D01*
X0711559Y0271228D01*
X0712338Y0271481D01*
X0713067Y0271853D01*
X0713729Y0272334D01*
X0714308Y0272912D01*
X0714789Y0273575D01*
X0715161Y0274304D01*
X0715414Y0275082D01*
X0715527Y0275800D01*
X0710842Y0275800D01*
X0710842Y0275891D02*
X0722642Y0275891D01*
X0722642Y0276889D02*
X0715513Y0276889D01*
X0715294Y0277888D02*
X0722642Y0277888D01*
X0722642Y0278886D02*
X0714860Y0278886D01*
X0714111Y0279885D02*
X0722642Y0279885D01*
X0722642Y0280883D02*
X0715259Y0280883D01*
X0716257Y0281882D02*
X0722642Y0281882D01*
X0722642Y0282880D02*
X0717069Y0282880D01*
X0717483Y0283879D02*
X0722642Y0283879D01*
X0722642Y0284877D02*
X0717896Y0284877D01*
X0717942Y0285876D02*
X0722642Y0285876D01*
X0722642Y0286874D02*
X0717942Y0286874D01*
X0717834Y0287873D02*
X0722642Y0287873D01*
X0722642Y0288871D02*
X0717421Y0288871D01*
X0717007Y0289870D02*
X0722642Y0289870D01*
X0722642Y0290868D02*
X0716107Y0290868D01*
X0715242Y0291867D02*
X0722642Y0291867D01*
X0722642Y0292865D02*
X0716063Y0292865D01*
X0716476Y0293864D02*
X0722642Y0293864D01*
X0722642Y0294862D02*
X0716890Y0294862D01*
X0716942Y0295861D02*
X0722642Y0295861D01*
X0722642Y0296859D02*
X0716942Y0296859D01*
X0716840Y0297858D02*
X0722642Y0297858D01*
X0722642Y0298856D02*
X0716427Y0298856D01*
X0716013Y0299855D02*
X0722642Y0299855D01*
X0722642Y0300853D02*
X0715122Y0300853D01*
X0714124Y0301852D02*
X0722642Y0301852D01*
X0722642Y0302850D02*
X0711774Y0302850D01*
X0708183Y0303849D02*
X0722642Y0303849D01*
X0722642Y0304847D02*
X0707185Y0304847D01*
X0706186Y0305846D02*
X0722642Y0305846D01*
X0722642Y0306844D02*
X0705188Y0306844D01*
X0704189Y0307843D02*
X0722642Y0307843D01*
X0722642Y0308841D02*
X0703191Y0308841D01*
X0701862Y0309840D02*
X0722642Y0309840D01*
X0722642Y0310839D02*
X0584322Y0310839D01*
X0582291Y0311837D02*
X0722642Y0311837D01*
X0722642Y0312836D02*
X0516697Y0312836D01*
X0515698Y0313834D02*
X0722642Y0313834D01*
X0722642Y0314833D02*
X0514700Y0314833D01*
X0513701Y0315831D02*
X0722642Y0315831D01*
X0722642Y0316830D02*
X0512703Y0316830D01*
X0511704Y0317828D02*
X0722642Y0317828D01*
X0722642Y0318827D02*
X0510706Y0318827D01*
X0509707Y0319825D02*
X0722642Y0319825D01*
X0722642Y0320824D02*
X0708051Y0320824D01*
X0707711Y0320700D02*
X0711224Y0321979D01*
X0714087Y0324381D01*
X0714087Y0324381D01*
X0714087Y0324381D01*
X0715956Y0327619D01*
X0716605Y0331300D01*
X0715956Y0334981D01*
X0715956Y0334981D01*
X0714087Y0338219D01*
X0711224Y0340621D01*
X0711224Y0340621D01*
X0707711Y0341900D01*
X0703973Y0341900D01*
X0700460Y0340621D01*
X0697596Y0338219D01*
X0695727Y0334981D01*
X0695078Y0331300D01*
X0695727Y0327619D01*
X0695727Y0327619D01*
X0697596Y0324381D01*
X0700460Y0321979D01*
X0700460Y0321979D01*
X0703973Y0320700D01*
X0705185Y0320700D01*
X0707711Y0320700D01*
X0710794Y0321822D02*
X0722642Y0321822D01*
X0722642Y0322821D02*
X0712227Y0322821D01*
X0711224Y0321979D02*
X0711224Y0321979D01*
X0713417Y0323819D02*
X0722642Y0323819D01*
X0722642Y0324818D02*
X0714339Y0324818D01*
X0714916Y0325816D02*
X0722642Y0325816D01*
X0722642Y0326815D02*
X0715492Y0326815D01*
X0715956Y0327619D02*
X0715956Y0327619D01*
X0715991Y0327813D02*
X0722642Y0327813D01*
X0722642Y0328812D02*
X0716167Y0328812D01*
X0716343Y0329810D02*
X0722642Y0329810D01*
X0722642Y0330809D02*
X0716519Y0330809D01*
X0716605Y0331300D02*
X0716605Y0331300D01*
X0716516Y0331807D02*
X0722642Y0331807D01*
X0722642Y0332806D02*
X0716340Y0332806D01*
X0716164Y0333804D02*
X0722642Y0333804D01*
X0722642Y0334803D02*
X0715988Y0334803D01*
X0715483Y0335801D02*
X0722642Y0335801D01*
X0722642Y0336800D02*
X0714906Y0336800D01*
X0714330Y0337798D02*
X0722642Y0337798D01*
X0722642Y0338797D02*
X0713398Y0338797D01*
X0714087Y0338219D02*
X0714087Y0338219D01*
X0712208Y0339795D02*
X0722642Y0339795D01*
X0722642Y0340794D02*
X0710750Y0340794D01*
X0708007Y0341792D02*
X0722642Y0341792D01*
X0722642Y0342791D02*
X0486741Y0342791D01*
X0485743Y0343789D02*
X0722642Y0343789D01*
X0722642Y0344788D02*
X0484487Y0344788D01*
X0487740Y0341792D02*
X0703677Y0341792D01*
X0700934Y0340794D02*
X0488738Y0340794D01*
X0489737Y0339795D02*
X0699476Y0339795D01*
X0700460Y0340621D02*
X0700460Y0340621D01*
X0698286Y0338797D02*
X0490735Y0338797D01*
X0491734Y0337798D02*
X0697354Y0337798D01*
X0697596Y0338219D02*
X0697596Y0338219D01*
X0697596Y0338219D01*
X0696777Y0336800D02*
X0492732Y0336800D01*
X0493731Y0335801D02*
X0696201Y0335801D01*
X0695727Y0334981D02*
X0695727Y0334981D01*
X0695696Y0334803D02*
X0494729Y0334803D01*
X0495728Y0333804D02*
X0695520Y0333804D01*
X0695344Y0332806D02*
X0496726Y0332806D01*
X0497725Y0331807D02*
X0695168Y0331807D01*
X0695078Y0331300D02*
X0695078Y0331300D01*
X0695165Y0330809D02*
X0498723Y0330809D01*
X0499722Y0329810D02*
X0695341Y0329810D01*
X0695517Y0328812D02*
X0500721Y0328812D01*
X0501719Y0327813D02*
X0695693Y0327813D01*
X0696192Y0326815D02*
X0502718Y0326815D01*
X0503716Y0325816D02*
X0696768Y0325816D01*
X0697345Y0324818D02*
X0504715Y0324818D01*
X0505713Y0323819D02*
X0698266Y0323819D01*
X0697596Y0324381D02*
X0697596Y0324381D01*
X0699456Y0322821D02*
X0506712Y0322821D01*
X0507710Y0321822D02*
X0700890Y0321822D01*
X0703633Y0320824D02*
X0508709Y0320824D01*
X0502670Y0315831D02*
X0480992Y0315831D01*
X0480992Y0314833D02*
X0503669Y0314833D01*
X0504667Y0313834D02*
X0480992Y0313834D01*
X0480992Y0312836D02*
X0505666Y0312836D01*
X0506664Y0311837D02*
X0480992Y0311837D01*
X0480992Y0310839D02*
X0507663Y0310839D01*
X0508661Y0309840D02*
X0480992Y0309840D01*
X0480992Y0308841D02*
X0509660Y0308841D01*
X0517695Y0311837D02*
X0579393Y0311837D01*
X0577362Y0310839D02*
X0518228Y0310839D01*
X0518492Y0309840D02*
X0576363Y0309840D01*
X0575757Y0308841D02*
X0518492Y0308841D01*
X0518492Y0307843D02*
X0575344Y0307843D01*
X0575172Y0306844D02*
X0546596Y0306844D01*
X0548123Y0305846D02*
X0575172Y0305846D01*
X0575306Y0304847D02*
X0549121Y0304847D01*
X0549589Y0303849D02*
X0575720Y0303849D01*
X0576273Y0302850D02*
X0550002Y0302850D01*
X0550142Y0301852D02*
X0577271Y0301852D01*
X0579175Y0300853D02*
X0550142Y0300853D01*
X0550046Y0299855D02*
X0657586Y0299855D01*
X0658584Y0300853D02*
X0582509Y0300853D01*
X0584412Y0301852D02*
X0659583Y0301852D01*
X0659731Y0302000D02*
X0656392Y0298661D01*
X0656392Y0297000D01*
X0652231Y0297000D01*
X0648892Y0293661D01*
X0648892Y0288939D01*
X0652231Y0285600D01*
X0656392Y0285600D01*
X0656392Y0283939D01*
X0659731Y0280600D01*
X0664453Y0280600D01*
X0667792Y0283939D01*
X0667792Y0288661D01*
X0665153Y0291300D01*
X0667792Y0293939D01*
X0667792Y0298661D01*
X0664453Y0302000D01*
X0659731Y0302000D01*
X0656587Y0298856D02*
X0549632Y0298856D01*
X0549219Y0297858D02*
X0610677Y0297858D01*
X0610779Y0297900D02*
X0608353Y0296895D01*
X0606497Y0295039D01*
X0605492Y0292613D01*
X0605492Y0289987D01*
X0606497Y0287561D01*
X0608353Y0285705D01*
X0610779Y0284700D01*
X0613405Y0284700D01*
X0615830Y0285705D01*
X0617687Y0287561D01*
X0618692Y0289987D01*
X0618692Y0292613D01*
X0617687Y0295039D01*
X0615830Y0296895D01*
X0613405Y0297900D01*
X0610779Y0297900D01*
X0608317Y0296859D02*
X0548228Y0296859D01*
X0548108Y0295861D02*
X0607319Y0295861D01*
X0606424Y0294862D02*
X0598683Y0294862D01*
X0600043Y0293864D02*
X0606010Y0293864D01*
X0605596Y0292865D02*
X0601042Y0292865D01*
X0602040Y0291867D02*
X0605492Y0291867D01*
X0605492Y0290868D02*
X0603039Y0290868D01*
X0604037Y0289870D02*
X0605540Y0289870D01*
X0605954Y0288871D02*
X0605036Y0288871D01*
X0606034Y0287873D02*
X0606368Y0287873D01*
X0607033Y0286874D02*
X0607184Y0286874D01*
X0608031Y0285876D02*
X0608182Y0285876D01*
X0609030Y0284877D02*
X0610351Y0284877D01*
X0610029Y0283879D02*
X0656452Y0283879D01*
X0656392Y0284877D02*
X0643832Y0284877D01*
X0643405Y0284700D02*
X0645830Y0285705D01*
X0647687Y0287561D01*
X0648692Y0289987D01*
X0648692Y0292613D01*
X0647687Y0295039D01*
X0645830Y0296895D01*
X0643405Y0297900D01*
X0640779Y0297900D01*
X0638353Y0296895D01*
X0636497Y0295039D01*
X0635492Y0292613D01*
X0635492Y0289987D01*
X0636497Y0287561D01*
X0638353Y0285705D01*
X0640779Y0284700D01*
X0643405Y0284700D01*
X0646001Y0285876D02*
X0651955Y0285876D01*
X0650957Y0286874D02*
X0647000Y0286874D01*
X0647816Y0287873D02*
X0649958Y0287873D01*
X0648960Y0288871D02*
X0648230Y0288871D01*
X0648643Y0289870D02*
X0648892Y0289870D01*
X0648892Y0290868D02*
X0648692Y0290868D01*
X0648692Y0291867D02*
X0648892Y0291867D01*
X0648892Y0292865D02*
X0648587Y0292865D01*
X0648174Y0293864D02*
X0649095Y0293864D01*
X0650093Y0294862D02*
X0647760Y0294862D01*
X0646865Y0295861D02*
X0651092Y0295861D01*
X0652090Y0296859D02*
X0645866Y0296859D01*
X0643506Y0297858D02*
X0656392Y0297858D01*
X0664601Y0301852D02*
X0699149Y0301852D01*
X0700148Y0300853D02*
X0665599Y0300853D01*
X0666598Y0299855D02*
X0701146Y0299855D01*
X0702145Y0298856D02*
X0667596Y0298856D01*
X0667792Y0297858D02*
X0703144Y0297858D01*
X0703742Y0296859D02*
X0667792Y0296859D01*
X0667792Y0295861D02*
X0703742Y0295861D01*
X0703794Y0294862D02*
X0667792Y0294862D01*
X0667717Y0293864D02*
X0704207Y0293864D01*
X0704621Y0292865D02*
X0666718Y0292865D01*
X0665720Y0291867D02*
X0705441Y0291867D01*
X0706440Y0290868D02*
X0665585Y0290868D01*
X0666583Y0289870D02*
X0705677Y0289870D01*
X0705263Y0288871D02*
X0667582Y0288871D01*
X0667792Y0287873D02*
X0704849Y0287873D01*
X0704742Y0286874D02*
X0667792Y0286874D01*
X0667792Y0285876D02*
X0704742Y0285876D01*
X0704787Y0284877D02*
X0667792Y0284877D01*
X0667732Y0283879D02*
X0705201Y0283879D01*
X0705615Y0282880D02*
X0666733Y0282880D01*
X0665734Y0281882D02*
X0706426Y0281882D01*
X0707425Y0280883D02*
X0664736Y0280883D01*
X0659448Y0280883D02*
X0613024Y0280883D01*
X0614023Y0279885D02*
X0706573Y0279885D01*
X0705823Y0278886D02*
X0615021Y0278886D01*
X0616020Y0277888D02*
X0705390Y0277888D01*
X0705170Y0276889D02*
X0617018Y0276889D01*
X0612026Y0281882D02*
X0658449Y0281882D01*
X0657451Y0282880D02*
X0611027Y0282880D01*
X0613832Y0284877D02*
X0640351Y0284877D01*
X0638182Y0285876D02*
X0616001Y0285876D01*
X0617000Y0286874D02*
X0637184Y0286874D01*
X0636368Y0287873D02*
X0617816Y0287873D01*
X0618230Y0288871D02*
X0635954Y0288871D01*
X0635540Y0289870D02*
X0618643Y0289870D01*
X0618692Y0290868D02*
X0635492Y0290868D01*
X0635492Y0291867D02*
X0618692Y0291867D01*
X0618587Y0292865D02*
X0635596Y0292865D01*
X0636010Y0293864D02*
X0618174Y0293864D01*
X0617760Y0294862D02*
X0636424Y0294862D01*
X0637319Y0295861D02*
X0616865Y0295861D01*
X0615866Y0296859D02*
X0638317Y0296859D01*
X0640677Y0297858D02*
X0613506Y0297858D01*
X0597999Y0284877D02*
X0547111Y0284877D01*
X0546887Y0285876D02*
X0597001Y0285876D01*
X0596002Y0286874D02*
X0548243Y0286874D01*
X0547978Y0283879D02*
X0598998Y0283879D01*
X0599996Y0282880D02*
X0548470Y0282880D01*
X0548708Y0281882D02*
X0600995Y0281882D01*
X0601993Y0280883D02*
X0541342Y0280883D01*
X0541342Y0280800D02*
X0548721Y0280800D01*
X0548626Y0280199D01*
X0548397Y0279496D01*
X0548062Y0278837D01*
X0547627Y0278238D01*
X0547104Y0277715D01*
X0546505Y0277280D01*
X0545846Y0276944D01*
X0545142Y0276716D01*
X0544412Y0276600D01*
X0541342Y0276600D01*
X0541342Y0280800D01*
X0541342Y0279885D02*
X0540342Y0279885D01*
X0540342Y0280883D02*
X0528024Y0280883D01*
X0540342Y0278886D02*
X0541342Y0278886D01*
X0541342Y0277888D02*
X0540342Y0277888D01*
X0540342Y0276889D02*
X0541342Y0276889D01*
X0545676Y0276889D02*
X0605987Y0276889D01*
X0604989Y0277888D02*
X0547276Y0277888D01*
X0548087Y0278886D02*
X0603990Y0278886D01*
X0602992Y0279885D02*
X0548524Y0279885D01*
X0532577Y0294862D02*
X0518492Y0294862D01*
X0518492Y0295861D02*
X0533576Y0295861D01*
X0533456Y0296859D02*
X0518492Y0296859D01*
X0518492Y0297858D02*
X0532465Y0297858D01*
X0532051Y0298856D02*
X0518492Y0298856D01*
X0518492Y0299855D02*
X0531638Y0299855D01*
X0531542Y0300853D02*
X0518492Y0300853D01*
X0518492Y0301852D02*
X0531542Y0301852D01*
X0531681Y0302850D02*
X0518492Y0302850D01*
X0518492Y0303849D02*
X0532095Y0303849D01*
X0532563Y0304847D02*
X0518492Y0304847D01*
X0518492Y0305846D02*
X0533561Y0305846D01*
X0535087Y0306844D02*
X0518492Y0306844D01*
X0501672Y0316830D02*
X0480992Y0316830D01*
X0480992Y0317828D02*
X0500673Y0317828D01*
X0499675Y0318827D02*
X0480992Y0318827D01*
X0480992Y0319825D02*
X0498676Y0319825D01*
X0497678Y0320824D02*
X0480992Y0320824D01*
X0480992Y0321822D02*
X0496679Y0321822D01*
X0495681Y0322821D02*
X0480992Y0322821D01*
X0480992Y0323819D02*
X0494682Y0323819D01*
X0493684Y0324818D02*
X0480992Y0324818D01*
X0481577Y0325816D02*
X0492685Y0325816D01*
X0491687Y0326815D02*
X0482575Y0326815D01*
X0482963Y0327813D02*
X0490688Y0327813D01*
X0489690Y0328812D02*
X0482963Y0328812D01*
X0482963Y0329810D02*
X0488691Y0329810D01*
X0487693Y0330809D02*
X0482963Y0330809D01*
X0482963Y0331807D02*
X0486694Y0331807D01*
X0485696Y0332806D02*
X0482963Y0332806D01*
X0482963Y0333804D02*
X0484697Y0333804D01*
X0483699Y0334803D02*
X0482963Y0334803D01*
X0482700Y0335801D02*
X0482569Y0335801D01*
X0481702Y0336800D02*
X0481538Y0336800D01*
X0472646Y0336800D02*
X0334982Y0336800D01*
X0333984Y0335801D02*
X0471615Y0335801D01*
X0471220Y0334803D02*
X0332985Y0334803D01*
X0331987Y0333804D02*
X0471220Y0333804D01*
X0471220Y0332806D02*
X0330988Y0332806D01*
X0329989Y0331807D02*
X0471220Y0331807D01*
X0471220Y0330809D02*
X0328991Y0330809D01*
X0327992Y0329810D02*
X0471220Y0329810D01*
X0471220Y0328812D02*
X0327963Y0328812D01*
X0327963Y0327813D02*
X0471220Y0327813D01*
X0471608Y0326815D02*
X0327575Y0326815D01*
X0326577Y0325816D02*
X0472607Y0325816D01*
X0506887Y0285876D02*
X0507626Y0285876D01*
X0507111Y0284877D02*
X0508624Y0284877D01*
X0507978Y0283879D02*
X0509623Y0283879D01*
X0510621Y0282880D02*
X0508470Y0282880D01*
X0508708Y0281882D02*
X0511620Y0281882D01*
X0501342Y0278886D02*
X0500342Y0278886D01*
X0500342Y0277888D02*
X0501342Y0277888D01*
X0501342Y0276889D02*
X0500342Y0276889D01*
X0496008Y0276889D02*
X0485768Y0276889D01*
X0484770Y0277888D02*
X0494407Y0277888D01*
X0493597Y0278886D02*
X0483771Y0278886D01*
X0482773Y0279885D02*
X0493160Y0279885D01*
X0512728Y0249929D02*
X0543572Y0249929D01*
X0544571Y0248931D02*
X0513726Y0248931D01*
X0514725Y0247932D02*
X0545569Y0247932D01*
X0531696Y0246934D02*
X0515723Y0246934D01*
X0516722Y0245935D02*
X0530643Y0245935D01*
X0529704Y0244937D02*
X0517720Y0244937D01*
X0518719Y0243938D02*
X0529291Y0243938D01*
X0528877Y0242940D02*
X0519717Y0242940D01*
X0520716Y0241941D02*
X0528742Y0241941D01*
X0528742Y0240943D02*
X0521715Y0240943D01*
X0522713Y0239944D02*
X0528760Y0239944D01*
X0529173Y0238946D02*
X0523712Y0238946D01*
X0524710Y0237947D02*
X0529587Y0237947D01*
X0530359Y0236949D02*
X0525709Y0236949D01*
X0526707Y0235950D02*
X0531358Y0235950D01*
X0530711Y0234952D02*
X0527706Y0234952D01*
X0528704Y0233953D02*
X0530297Y0233953D01*
X0529883Y0232955D02*
X0529378Y0232955D01*
X0529742Y0231956D02*
X0529742Y0231956D01*
X0529742Y0230958D02*
X0529742Y0230958D01*
X0529742Y0229959D02*
X0529753Y0229959D01*
X0529742Y0228961D02*
X0530167Y0228961D01*
X0530581Y0227962D02*
X0529742Y0227962D01*
X0529742Y0226964D02*
X0531344Y0226964D01*
X0532343Y0225965D02*
X0529742Y0225965D01*
X0529742Y0224967D02*
X0531654Y0224967D01*
X0530865Y0223968D02*
X0529742Y0223968D01*
X0529742Y0222970D02*
X0530417Y0222970D01*
X0530183Y0221971D02*
X0529742Y0221971D01*
X0529742Y0220972D02*
X0534842Y0220972D01*
X0535842Y0220972D02*
X0572529Y0220972D01*
X0579947Y0228961D02*
X0579994Y0228961D01*
X0580945Y0227962D02*
X0581604Y0227962D01*
X0578995Y0229959D02*
X0578948Y0229959D01*
X0577997Y0230958D02*
X0577950Y0230958D01*
X0577548Y0231956D02*
X0576951Y0231956D01*
X0577134Y0232955D02*
X0575953Y0232955D01*
X0576721Y0233953D02*
X0574954Y0233953D01*
X0573956Y0234952D02*
X0576517Y0234952D01*
X0576517Y0235950D02*
X0572957Y0235950D01*
X0571959Y0236949D02*
X0576517Y0236949D01*
X0576517Y0237947D02*
X0570960Y0237947D01*
X0569962Y0238946D02*
X0576844Y0238946D01*
X0577258Y0239944D02*
X0568963Y0239944D01*
X0567965Y0240943D02*
X0577672Y0240943D01*
X0578295Y0241941D02*
X0566966Y0241941D01*
X0565967Y0242940D02*
X0579294Y0242940D01*
X0580293Y0243938D02*
X0564969Y0243938D01*
X0563970Y0244937D02*
X0582325Y0244937D01*
X0608451Y0245935D02*
X0613232Y0245935D01*
X0612010Y0244937D02*
X0609674Y0244937D01*
X0610465Y0243938D02*
X0611218Y0243938D01*
X0611101Y0238946D02*
X0610583Y0238946D01*
X0609958Y0237947D02*
X0611726Y0237947D01*
X0612725Y0236949D02*
X0608959Y0236949D01*
X0618959Y0236949D02*
X0622725Y0236949D01*
X0621726Y0237947D02*
X0619958Y0237947D01*
X0620583Y0238946D02*
X0621101Y0238946D01*
X0621218Y0243938D02*
X0620465Y0243938D01*
X0619674Y0244937D02*
X0622010Y0244937D01*
X0623232Y0245935D02*
X0618451Y0245935D01*
X0709842Y0271897D02*
X0710842Y0271897D01*
X0710842Y0272895D02*
X0709842Y0272895D01*
X0709842Y0273894D02*
X0710842Y0273894D01*
X0713128Y0271897D02*
X0722642Y0271897D01*
X0722642Y0272895D02*
X0714291Y0272895D01*
X0714952Y0273894D02*
X0722642Y0273894D01*
X0722642Y0274892D02*
X0715352Y0274892D01*
X0722642Y0345786D02*
X0054042Y0345786D01*
X0054042Y0344788D02*
X0332196Y0344788D01*
X0330941Y0343789D02*
X0054042Y0343789D01*
X0054042Y0342791D02*
X0329942Y0342791D01*
X0328944Y0341792D02*
X0073007Y0341792D01*
X0072711Y0341900D02*
X0076224Y0340621D01*
X0076224Y0340621D01*
X0079087Y0338219D01*
X0079087Y0338219D01*
X0080956Y0334981D01*
X0080956Y0334981D01*
X0081605Y0331300D01*
X0081605Y0331300D01*
X0080956Y0327619D01*
X0080956Y0327619D01*
X0079087Y0324381D01*
X0079087Y0324381D01*
X0076224Y0321979D01*
X0076224Y0321979D01*
X0072711Y0320700D01*
X0072711Y0320700D01*
X0071498Y0320700D01*
X0068973Y0320700D01*
X0065460Y0321979D01*
X0065460Y0321979D01*
X0062596Y0324381D01*
X0062596Y0324381D01*
X0060727Y0327619D01*
X0060727Y0327619D01*
X0060078Y0331300D01*
X0060078Y0331300D01*
X0060727Y0334981D01*
X0060727Y0334981D01*
X0062596Y0338219D01*
X0062596Y0338219D01*
X0062596Y0338219D01*
X0065460Y0340621D01*
X0065460Y0340621D01*
X0068973Y0341900D01*
X0072711Y0341900D01*
X0075750Y0340794D02*
X0327945Y0340794D01*
X0326947Y0339795D02*
X0077208Y0339795D01*
X0078398Y0338797D02*
X0325948Y0338797D01*
X0324950Y0337798D02*
X0102400Y0337798D01*
X0102155Y0337900D02*
X0099529Y0337900D01*
X0097103Y0336895D01*
X0095247Y0335039D01*
X0094242Y0332613D01*
X0094242Y0329987D01*
X0095247Y0327561D01*
X0097103Y0325705D01*
X0099529Y0324700D01*
X0102155Y0324700D01*
X0104580Y0325705D01*
X0106437Y0327561D01*
X0107442Y0329987D01*
X0107442Y0332613D01*
X0106437Y0335039D01*
X0104580Y0336895D01*
X0102155Y0337900D01*
X0104676Y0336800D02*
X0136396Y0336800D01*
X0136227Y0336730D02*
X0135412Y0335914D01*
X0134970Y0334848D01*
X0134970Y0327751D01*
X0135412Y0326686D01*
X0136227Y0325870D01*
X0137293Y0325428D01*
X0144390Y0325428D01*
X0145456Y0325870D01*
X0146272Y0326686D01*
X0146713Y0327751D01*
X0146713Y0334848D01*
X0146272Y0335914D01*
X0145456Y0336730D01*
X0144390Y0337172D01*
X0137293Y0337172D01*
X0136227Y0336730D01*
X0135365Y0335801D02*
X0105674Y0335801D01*
X0106535Y0334803D02*
X0134970Y0334803D01*
X0134970Y0333804D02*
X0106948Y0333804D01*
X0107362Y0332806D02*
X0134970Y0332806D01*
X0134970Y0331807D02*
X0107442Y0331807D01*
X0107442Y0330809D02*
X0134970Y0330809D01*
X0134970Y0329810D02*
X0107368Y0329810D01*
X0106955Y0328812D02*
X0134970Y0328812D01*
X0134970Y0327813D02*
X0106541Y0327813D01*
X0105690Y0326815D02*
X0135358Y0326815D01*
X0136357Y0325816D02*
X0104692Y0325816D01*
X0102439Y0324818D02*
X0283844Y0324818D01*
X0284843Y0325816D02*
X0145327Y0325816D01*
X0146325Y0326815D02*
X0285841Y0326815D01*
X0286840Y0327813D02*
X0146713Y0327813D01*
X0146713Y0328812D02*
X0287838Y0328812D01*
X0288837Y0329810D02*
X0146713Y0329810D01*
X0146713Y0330809D02*
X0289835Y0330809D01*
X0289970Y0331807D02*
X0146713Y0331807D01*
X0146713Y0332806D02*
X0289970Y0332806D01*
X0289970Y0333804D02*
X0146713Y0333804D01*
X0146713Y0334803D02*
X0289970Y0334803D01*
X0290365Y0335801D02*
X0146319Y0335801D01*
X0145288Y0336800D02*
X0291396Y0336800D01*
X0300288Y0336800D02*
X0317646Y0336800D01*
X0316615Y0335801D02*
X0301319Y0335801D01*
X0301713Y0334803D02*
X0316220Y0334803D01*
X0282846Y0323819D02*
X0078417Y0323819D01*
X0079087Y0324381D02*
X0079087Y0324381D01*
X0079339Y0324818D02*
X0099245Y0324818D01*
X0096992Y0325816D02*
X0079916Y0325816D01*
X0080492Y0326815D02*
X0095993Y0326815D01*
X0095142Y0327813D02*
X0080991Y0327813D01*
X0081167Y0328812D02*
X0094729Y0328812D01*
X0094315Y0329810D02*
X0081343Y0329810D01*
X0081519Y0330809D02*
X0094242Y0330809D01*
X0094242Y0331807D02*
X0081516Y0331807D01*
X0081340Y0332806D02*
X0094322Y0332806D01*
X0094735Y0333804D02*
X0081164Y0333804D01*
X0080988Y0334803D02*
X0095149Y0334803D01*
X0096009Y0335801D02*
X0080483Y0335801D01*
X0079906Y0336800D02*
X0097008Y0336800D01*
X0099284Y0337798D02*
X0079330Y0337798D01*
X0068677Y0341792D02*
X0054042Y0341792D01*
X0054042Y0340794D02*
X0065934Y0340794D01*
X0064476Y0339795D02*
X0054042Y0339795D01*
X0054042Y0338797D02*
X0063286Y0338797D01*
X0062354Y0337798D02*
X0054042Y0337798D01*
X0054042Y0336800D02*
X0061777Y0336800D01*
X0061201Y0335801D02*
X0054042Y0335801D01*
X0054042Y0334803D02*
X0060696Y0334803D01*
X0060520Y0333804D02*
X0054042Y0333804D01*
X0054042Y0332806D02*
X0060344Y0332806D01*
X0060168Y0331807D02*
X0054042Y0331807D01*
X0054042Y0330809D02*
X0060165Y0330809D01*
X0060341Y0329810D02*
X0054042Y0329810D01*
X0054042Y0328812D02*
X0060517Y0328812D01*
X0060693Y0327813D02*
X0054042Y0327813D01*
X0054042Y0326815D02*
X0061192Y0326815D01*
X0061768Y0325816D02*
X0054042Y0325816D01*
X0054042Y0324818D02*
X0062345Y0324818D01*
X0063266Y0323819D02*
X0054042Y0323819D01*
X0054042Y0322821D02*
X0064456Y0322821D01*
X0065890Y0321822D02*
X0054042Y0321822D01*
X0054042Y0320824D02*
X0068633Y0320824D01*
X0073051Y0320824D02*
X0279850Y0320824D01*
X0280849Y0321822D02*
X0075794Y0321822D01*
X0077227Y0322821D02*
X0281847Y0322821D01*
X0278851Y0319825D02*
X0054042Y0319825D01*
X0054042Y0318827D02*
X0277853Y0318827D01*
X0276854Y0317828D02*
X0054042Y0317828D01*
X0054042Y0316830D02*
X0275856Y0316830D01*
X0274857Y0315831D02*
X0054042Y0315831D01*
X0054042Y0314833D02*
X0273859Y0314833D01*
X0272860Y0313834D02*
X0054042Y0313834D01*
X0054042Y0312836D02*
X0271862Y0312836D01*
X0270863Y0311837D02*
X0054042Y0311837D01*
X0054042Y0310839D02*
X0269865Y0310839D01*
X0268866Y0309840D02*
X0054042Y0309840D01*
X0054042Y0308841D02*
X0267868Y0308841D01*
X0266869Y0307843D02*
X0102292Y0307843D01*
X0102155Y0307900D02*
X0099529Y0307900D01*
X0097103Y0306895D01*
X0095247Y0305039D01*
X0094242Y0302613D01*
X0094242Y0299987D01*
X0095247Y0297561D01*
X0096508Y0296300D01*
X0095247Y0295039D01*
X0094242Y0292613D01*
X0094242Y0289987D01*
X0095247Y0287561D01*
X0097103Y0285705D01*
X0099529Y0284700D01*
X0102155Y0284700D01*
X0104580Y0285705D01*
X0106437Y0287561D01*
X0107442Y0289987D01*
X0107442Y0292613D01*
X0106437Y0295039D01*
X0105176Y0296300D01*
X0106437Y0297561D01*
X0107442Y0299987D01*
X0107442Y0302613D01*
X0106437Y0305039D01*
X0104580Y0306895D01*
X0102155Y0307900D01*
X0104631Y0306844D02*
X0265871Y0306844D01*
X0264872Y0305846D02*
X0105630Y0305846D01*
X0106516Y0304847D02*
X0263874Y0304847D01*
X0262875Y0303849D02*
X0106930Y0303849D01*
X0107343Y0302850D02*
X0261877Y0302850D01*
X0260878Y0301852D02*
X0107442Y0301852D01*
X0107442Y0300853D02*
X0259880Y0300853D01*
X0258881Y0299855D02*
X0107387Y0299855D01*
X0106973Y0298856D02*
X0257883Y0298856D01*
X0256884Y0297858D02*
X0106560Y0297858D01*
X0105735Y0296859D02*
X0255886Y0296859D01*
X0254887Y0295861D02*
X0105615Y0295861D01*
X0106510Y0294862D02*
X0253889Y0294862D01*
X0252890Y0293864D02*
X0106924Y0293864D01*
X0107337Y0292865D02*
X0251892Y0292865D01*
X0250893Y0291867D02*
X0107442Y0291867D01*
X0107442Y0290868D02*
X0249895Y0290868D01*
X0248896Y0289870D02*
X0107393Y0289870D01*
X0106980Y0288871D02*
X0247898Y0288871D01*
X0246899Y0287873D02*
X0106566Y0287873D01*
X0105750Y0286874D02*
X0245901Y0286874D01*
X0244902Y0285876D02*
X0104751Y0285876D01*
X0102582Y0284877D02*
X0243904Y0284877D01*
X0242905Y0283879D02*
X0067742Y0283879D01*
X0067742Y0284877D02*
X0099101Y0284877D01*
X0096932Y0285876D02*
X0067742Y0285876D01*
X0067619Y0286874D02*
X0095934Y0286874D01*
X0095118Y0287873D02*
X0067070Y0287873D01*
X0065488Y0288871D02*
X0094704Y0288871D01*
X0094290Y0289870D02*
X0054042Y0289870D01*
X0054042Y0290868D02*
X0094242Y0290868D01*
X0094242Y0291867D02*
X0054042Y0291867D01*
X0054042Y0292865D02*
X0094346Y0292865D01*
X0094760Y0293864D02*
X0054042Y0293864D01*
X0054042Y0294862D02*
X0095174Y0294862D01*
X0096069Y0295861D02*
X0054042Y0295861D01*
X0054042Y0296859D02*
X0095949Y0296859D01*
X0095124Y0297858D02*
X0054042Y0297858D01*
X0054042Y0298856D02*
X0094710Y0298856D01*
X0094297Y0299855D02*
X0054042Y0299855D01*
X0054042Y0300853D02*
X0094242Y0300853D01*
X0094242Y0301852D02*
X0054042Y0301852D01*
X0054042Y0302850D02*
X0094340Y0302850D01*
X0094754Y0303849D02*
X0054042Y0303849D01*
X0054042Y0304847D02*
X0095167Y0304847D01*
X0096054Y0305846D02*
X0054042Y0305846D01*
X0054042Y0306844D02*
X0097052Y0306844D01*
X0099391Y0307843D02*
X0054042Y0307843D01*
X0054042Y0288871D02*
X0056196Y0288871D01*
X0054613Y0287873D02*
X0054042Y0287873D01*
X0054042Y0286874D02*
X0054065Y0286874D01*
X0054042Y0276889D02*
X0054163Y0276889D01*
X0054042Y0275891D02*
X0054850Y0275891D01*
X0054042Y0274892D02*
X0233918Y0274892D01*
X0232920Y0273894D02*
X0054042Y0273894D01*
X0054042Y0272895D02*
X0231921Y0272895D01*
X0230923Y0271897D02*
X0062994Y0271897D01*
X0062953Y0271918D02*
X0062130Y0272185D01*
X0061342Y0272310D01*
X0061342Y0267321D01*
X0060342Y0267321D01*
X0060342Y0272310D01*
X0059554Y0272185D01*
X0058731Y0271918D01*
X0057959Y0271524D01*
X0057259Y0271016D01*
X0056647Y0270403D01*
X0056138Y0269703D01*
X0055745Y0268932D01*
X0055477Y0268108D01*
X0055352Y0267320D01*
X0060342Y0267320D01*
X0060342Y0266320D01*
X0061342Y0266320D01*
X0061342Y0261331D01*
X0062130Y0261456D01*
X0062953Y0261723D01*
X0063724Y0262116D01*
X0064425Y0262625D01*
X0065037Y0263237D01*
X0065546Y0263938D01*
X0065939Y0264709D01*
X0066206Y0265533D01*
X0066331Y0266320D01*
X0061342Y0266320D01*
X0061342Y0267320D01*
X0066331Y0267320D01*
X0066206Y0268108D01*
X0065939Y0268932D01*
X0065546Y0269703D01*
X0065037Y0270403D01*
X0064425Y0271016D01*
X0063724Y0271524D01*
X0062953Y0271918D01*
X0061342Y0271897D02*
X0060342Y0271897D01*
X0060342Y0270898D02*
X0061342Y0270898D01*
X0061342Y0269900D02*
X0060342Y0269900D01*
X0060342Y0268901D02*
X0061342Y0268901D01*
X0061342Y0267903D02*
X0060342Y0267903D01*
X0060342Y0266904D02*
X0054042Y0266904D01*
X0054042Y0265905D02*
X0055418Y0265905D01*
X0055477Y0265533D02*
X0055745Y0264709D01*
X0056138Y0263938D01*
X0056647Y0263237D01*
X0057259Y0262625D01*
X0057959Y0262116D01*
X0058731Y0261723D01*
X0059554Y0261456D01*
X0060342Y0261331D01*
X0060342Y0266320D01*
X0055352Y0266320D01*
X0055477Y0265533D01*
X0055680Y0264907D02*
X0054042Y0264907D01*
X0054042Y0263908D02*
X0056159Y0263908D01*
X0056974Y0262910D02*
X0054042Y0262910D01*
X0054042Y0261911D02*
X0058361Y0261911D01*
X0060342Y0261911D02*
X0061342Y0261911D01*
X0061342Y0262910D02*
X0060342Y0262910D01*
X0060342Y0263908D02*
X0061342Y0263908D01*
X0061342Y0264907D02*
X0060342Y0264907D01*
X0060342Y0265905D02*
X0061342Y0265905D01*
X0061342Y0266904D02*
X0136370Y0266904D01*
X0136370Y0266686D02*
X0136370Y0269469D01*
X0136472Y0269851D01*
X0136670Y0270193D01*
X0136949Y0270472D01*
X0137291Y0270669D01*
X0137673Y0270772D01*
X0140456Y0270772D01*
X0140456Y0266686D01*
X0141228Y0266686D01*
X0145313Y0266686D01*
X0145313Y0269469D01*
X0145211Y0269851D01*
X0145014Y0270193D01*
X0144734Y0270472D01*
X0144392Y0270669D01*
X0144011Y0270772D01*
X0141228Y0270772D01*
X0141228Y0266686D01*
X0141228Y0265914D01*
X0145313Y0265914D01*
X0145313Y0263131D01*
X0145211Y0262749D01*
X0145014Y0262407D01*
X0144734Y0262128D01*
X0144392Y0261931D01*
X0144011Y0261828D01*
X0141228Y0261828D01*
X0141228Y0265914D01*
X0140456Y0265914D01*
X0140456Y0261828D01*
X0137673Y0261828D01*
X0137291Y0261931D01*
X0136949Y0262128D01*
X0136670Y0262407D01*
X0136472Y0262749D01*
X0136370Y0263131D01*
X0136370Y0265914D01*
X0140456Y0265914D01*
X0140456Y0266686D01*
X0136370Y0266686D01*
X0136370Y0265905D02*
X0103257Y0265905D01*
X0103567Y0265747D02*
X0102838Y0266119D01*
X0102059Y0266372D01*
X0101251Y0266500D01*
X0101228Y0266500D01*
X0101228Y0261686D01*
X0106042Y0261686D01*
X0106042Y0261709D01*
X0105914Y0262518D01*
X0105661Y0263296D01*
X0105289Y0264025D01*
X0104808Y0264688D01*
X0104229Y0265266D01*
X0103567Y0265747D01*
X0104589Y0264907D02*
X0136370Y0264907D01*
X0136370Y0263908D02*
X0105349Y0263908D01*
X0105786Y0262910D02*
X0136429Y0262910D01*
X0137363Y0261911D02*
X0106010Y0261911D01*
X0106042Y0260914D02*
X0101228Y0260914D01*
X0101228Y0261686D01*
X0100456Y0261686D01*
X0100456Y0266500D01*
X0100433Y0266500D01*
X0099624Y0266372D01*
X0098846Y0266119D01*
X0098116Y0265747D01*
X0097454Y0265266D01*
X0096875Y0264688D01*
X0096394Y0264025D01*
X0096023Y0263296D01*
X0095770Y0262518D01*
X0095642Y0261709D01*
X0095642Y0261686D01*
X0100456Y0261686D01*
X0100456Y0260914D01*
X0101228Y0260914D01*
X0101228Y0256100D01*
X0101251Y0256100D01*
X0102059Y0256228D01*
X0102838Y0256481D01*
X0103567Y0256853D01*
X0104229Y0257334D01*
X0104808Y0257912D01*
X0105289Y0258575D01*
X0105661Y0259304D01*
X0105914Y0260082D01*
X0106042Y0260891D01*
X0106042Y0260914D01*
X0106042Y0260913D02*
X0219939Y0260913D01*
X0218941Y0259914D02*
X0105859Y0259914D01*
X0105463Y0258916D02*
X0217942Y0258916D01*
X0216944Y0257917D02*
X0104812Y0257917D01*
X0103659Y0256919D02*
X0215945Y0256919D01*
X0214947Y0255920D02*
X0054042Y0255920D01*
X0054042Y0254922D02*
X0213948Y0254922D01*
X0212950Y0253923D02*
X0054042Y0253923D01*
X0054042Y0252925D02*
X0211951Y0252925D01*
X0210953Y0251926D02*
X0054042Y0251926D01*
X0054042Y0256919D02*
X0098025Y0256919D01*
X0098116Y0256853D02*
X0098846Y0256481D01*
X0099624Y0256228D01*
X0100433Y0256100D01*
X0100456Y0256100D01*
X0100456Y0260914D01*
X0095642Y0260914D01*
X0095642Y0260891D01*
X0095770Y0260082D01*
X0096023Y0259304D01*
X0096394Y0258575D01*
X0096875Y0257912D01*
X0097454Y0257334D01*
X0098116Y0256853D01*
X0096872Y0257917D02*
X0054042Y0257917D01*
X0054042Y0258916D02*
X0096220Y0258916D01*
X0095824Y0259914D02*
X0054042Y0259914D01*
X0054042Y0260913D02*
X0095642Y0260913D01*
X0095674Y0261911D02*
X0063322Y0261911D01*
X0064709Y0262910D02*
X0095897Y0262910D01*
X0096335Y0263908D02*
X0065524Y0263908D01*
X0066003Y0264907D02*
X0097095Y0264907D01*
X0098427Y0265905D02*
X0066265Y0265905D01*
X0066239Y0267903D02*
X0136370Y0267903D01*
X0136370Y0268901D02*
X0065949Y0268901D01*
X0065403Y0269900D02*
X0136501Y0269900D01*
X0140456Y0269900D02*
X0141228Y0269900D01*
X0141228Y0268901D02*
X0140456Y0268901D01*
X0140456Y0267903D02*
X0141228Y0267903D01*
X0141228Y0266904D02*
X0140456Y0266904D01*
X0140456Y0265905D02*
X0141228Y0265905D01*
X0141228Y0264907D02*
X0140456Y0264907D01*
X0140456Y0263908D02*
X0141228Y0263908D01*
X0141228Y0262910D02*
X0140456Y0262910D01*
X0140456Y0261911D02*
X0141228Y0261911D01*
X0144321Y0261911D02*
X0220938Y0261911D01*
X0221936Y0262910D02*
X0145254Y0262910D01*
X0145313Y0263908D02*
X0222935Y0263908D01*
X0223933Y0264907D02*
X0145313Y0264907D01*
X0145313Y0265905D02*
X0224932Y0265905D01*
X0225930Y0266904D02*
X0145313Y0266904D01*
X0145313Y0267903D02*
X0226929Y0267903D01*
X0227927Y0268901D02*
X0145313Y0268901D01*
X0145183Y0269900D02*
X0228926Y0269900D01*
X0229924Y0270898D02*
X0064542Y0270898D01*
X0066834Y0275891D02*
X0234917Y0275891D01*
X0235916Y0276889D02*
X0067521Y0276889D01*
X0067742Y0277888D02*
X0236914Y0277888D01*
X0237913Y0278886D02*
X0067742Y0278886D01*
X0067742Y0279885D02*
X0238911Y0279885D01*
X0239910Y0280883D02*
X0067742Y0280883D01*
X0067742Y0281882D02*
X0240908Y0281882D01*
X0241907Y0282880D02*
X0067742Y0282880D01*
X0058689Y0271897D02*
X0054042Y0271897D01*
X0054042Y0270898D02*
X0057141Y0270898D01*
X0056281Y0269900D02*
X0054042Y0269900D01*
X0054042Y0268901D02*
X0055735Y0268901D01*
X0055445Y0267903D02*
X0054042Y0267903D01*
X0100456Y0265905D02*
X0101228Y0265905D01*
X0101228Y0264907D02*
X0100456Y0264907D01*
X0100456Y0263908D02*
X0101228Y0263908D01*
X0101228Y0262910D02*
X0100456Y0262910D01*
X0100456Y0261911D02*
X0101228Y0261911D01*
X0101228Y0260913D02*
X0100456Y0260913D01*
X0100456Y0259914D02*
X0101228Y0259914D01*
X0101228Y0258916D02*
X0100456Y0258916D01*
X0100456Y0257917D02*
X0101228Y0257917D01*
X0101228Y0256919D02*
X0100456Y0256919D01*
X0121505Y0233953D02*
X0406726Y0233953D01*
X0406274Y0232955D02*
X0119733Y0232955D01*
X0194487Y0246934D02*
X0197196Y0246934D01*
X0196143Y0245935D02*
X0195540Y0245935D01*
X0204487Y0246934D02*
X0206942Y0246934D01*
X0206143Y0245935D02*
X0205540Y0245935D01*
X0215993Y0245935D02*
X0218485Y0245935D01*
X0217125Y0244937D02*
X0216479Y0244937D01*
X0224833Y0237947D02*
X0225087Y0237947D01*
X0225859Y0236949D02*
X0223699Y0236949D01*
X0232762Y0234952D02*
X0238921Y0234952D01*
X0236858Y0235950D02*
X0234826Y0235950D01*
X0235824Y0236949D02*
X0235859Y0236949D01*
X0242762Y0234952D02*
X0258921Y0234952D01*
X0259529Y0234700D02*
X0262155Y0234700D01*
X0264580Y0235705D01*
X0265842Y0236966D01*
X0267103Y0235705D01*
X0269529Y0234700D01*
X0272155Y0234700D01*
X0274580Y0235705D01*
X0275842Y0236966D01*
X0277103Y0235705D01*
X0279529Y0234700D01*
X0282155Y0234700D01*
X0284580Y0235705D01*
X0285842Y0236966D01*
X0287103Y0235705D01*
X0289529Y0234700D01*
X0292155Y0234700D01*
X0294580Y0235705D01*
X0295842Y0236966D01*
X0297103Y0235705D01*
X0299529Y0234700D01*
X0302155Y0234700D01*
X0304580Y0235705D01*
X0305842Y0236966D01*
X0307103Y0235705D01*
X0309529Y0234700D01*
X0312155Y0234700D01*
X0314580Y0235705D01*
X0315842Y0236966D01*
X0317103Y0235705D01*
X0319529Y0234700D01*
X0322155Y0234700D01*
X0324580Y0235705D01*
X0325842Y0236966D01*
X0327103Y0235705D01*
X0329529Y0234700D01*
X0332155Y0234700D01*
X0334580Y0235705D01*
X0336437Y0237561D01*
X0337442Y0239987D01*
X0337442Y0242613D01*
X0336437Y0245039D01*
X0334580Y0246895D01*
X0332155Y0247900D01*
X0329529Y0247900D01*
X0327103Y0246895D01*
X0325842Y0245634D01*
X0324580Y0246895D01*
X0322155Y0247900D01*
X0319529Y0247900D01*
X0317103Y0246895D01*
X0315842Y0245634D01*
X0314580Y0246895D01*
X0312155Y0247900D01*
X0309529Y0247900D01*
X0307103Y0246895D01*
X0305842Y0245634D01*
X0304580Y0246895D01*
X0302155Y0247900D01*
X0299529Y0247900D01*
X0297103Y0246895D01*
X0295842Y0245634D01*
X0294580Y0246895D01*
X0292722Y0247665D01*
X0296937Y0251880D01*
X0298220Y0251880D01*
X0300304Y0252743D01*
X0301899Y0254338D01*
X0302762Y0256422D01*
X0302762Y0258678D01*
X0301899Y0260762D01*
X0300304Y0262357D01*
X0300046Y0262463D01*
X0300211Y0262749D01*
X0300313Y0263131D01*
X0300313Y0265914D01*
X0296228Y0265914D01*
X0296228Y0266686D01*
X0300313Y0266686D01*
X0300313Y0269469D01*
X0300211Y0269851D01*
X0300014Y0270193D01*
X0299734Y0270472D01*
X0299392Y0270669D01*
X0299011Y0270772D01*
X0296228Y0270772D01*
X0296228Y0266686D01*
X0295456Y0266686D01*
X0295456Y0270772D01*
X0292673Y0270772D01*
X0292291Y0270669D01*
X0291949Y0270472D01*
X0291670Y0270193D01*
X0291472Y0269851D01*
X0291370Y0269469D01*
X0291370Y0266686D01*
X0295456Y0266686D01*
X0295456Y0265914D01*
X0291370Y0265914D01*
X0291370Y0263131D01*
X0291472Y0262749D01*
X0291670Y0262407D01*
X0291949Y0262128D01*
X0292291Y0261931D01*
X0292673Y0261828D01*
X0293352Y0261828D01*
X0292285Y0260762D01*
X0291422Y0258678D01*
X0291422Y0257395D01*
X0281926Y0247900D01*
X0279529Y0247900D01*
X0277103Y0246895D01*
X0275842Y0245634D01*
X0274580Y0246895D01*
X0272155Y0247900D01*
X0269529Y0247900D01*
X0267103Y0246895D01*
X0265842Y0245634D01*
X0264580Y0246895D01*
X0262155Y0247900D01*
X0259529Y0247900D01*
X0257103Y0246895D01*
X0255247Y0245039D01*
X0254242Y0242613D01*
X0254242Y0239987D01*
X0255247Y0237561D01*
X0257103Y0235705D01*
X0259529Y0234700D01*
X0256858Y0235950D02*
X0244826Y0235950D01*
X0245824Y0236949D02*
X0255859Y0236949D01*
X0255087Y0237947D02*
X0246597Y0237947D01*
X0247010Y0238946D02*
X0254673Y0238946D01*
X0254260Y0239944D02*
X0247424Y0239944D01*
X0247442Y0240943D02*
X0254242Y0240943D01*
X0254242Y0241941D02*
X0247442Y0241941D01*
X0247306Y0242940D02*
X0254377Y0242940D01*
X0254791Y0243938D02*
X0246893Y0243938D01*
X0246479Y0244937D02*
X0255204Y0244937D01*
X0256143Y0245935D02*
X0245540Y0245935D01*
X0244487Y0246934D02*
X0257196Y0246934D01*
X0264487Y0246934D02*
X0267196Y0246934D01*
X0266143Y0245935D02*
X0265540Y0245935D01*
X0274487Y0246934D02*
X0277196Y0246934D01*
X0276143Y0245935D02*
X0275540Y0245935D01*
X0281959Y0247932D02*
X0244240Y0247932D01*
X0245238Y0248931D02*
X0282957Y0248931D01*
X0283956Y0249929D02*
X0246237Y0249929D01*
X0247235Y0250928D02*
X0284954Y0250928D01*
X0285953Y0251926D02*
X0248234Y0251926D01*
X0249232Y0252925D02*
X0286951Y0252925D01*
X0287950Y0253923D02*
X0250231Y0253923D01*
X0251229Y0254922D02*
X0288948Y0254922D01*
X0289947Y0255920D02*
X0252228Y0255920D01*
X0253226Y0256919D02*
X0290945Y0256919D01*
X0291422Y0257917D02*
X0254225Y0257917D01*
X0255223Y0258916D02*
X0291520Y0258916D01*
X0291934Y0259914D02*
X0256222Y0259914D01*
X0257220Y0260913D02*
X0292436Y0260913D01*
X0292363Y0261911D02*
X0275429Y0261911D01*
X0276720Y0262910D02*
X0291429Y0262910D01*
X0291370Y0263908D02*
X0277604Y0263908D01*
X0278018Y0264907D02*
X0291370Y0264907D01*
X0291370Y0265905D02*
X0278387Y0265905D01*
X0278387Y0266904D02*
X0291370Y0266904D01*
X0291370Y0267903D02*
X0278387Y0267903D01*
X0278035Y0268901D02*
X0291370Y0268901D01*
X0291501Y0269900D02*
X0277622Y0269900D01*
X0276762Y0270898D02*
X0361353Y0270898D01*
X0362352Y0269900D02*
X0326433Y0269900D01*
X0326461Y0269851D02*
X0326264Y0270193D01*
X0325984Y0270472D01*
X0325642Y0270669D01*
X0325261Y0270772D01*
X0322478Y0270772D01*
X0322478Y0266686D01*
X0326563Y0266686D01*
X0326563Y0269469D01*
X0326461Y0269851D01*
X0326563Y0268901D02*
X0363350Y0268901D01*
X0364349Y0267903D02*
X0326563Y0267903D01*
X0326563Y0266904D02*
X0365347Y0266904D01*
X0366346Y0265905D02*
X0326563Y0265905D01*
X0326563Y0265914D02*
X0322478Y0265914D01*
X0322478Y0266686D01*
X0321706Y0266686D01*
X0321706Y0270772D01*
X0318923Y0270772D01*
X0318541Y0270669D01*
X0318199Y0270472D01*
X0317920Y0270193D01*
X0317722Y0269851D01*
X0317620Y0269469D01*
X0317620Y0266686D01*
X0321706Y0266686D01*
X0321706Y0265914D01*
X0322478Y0265914D01*
X0322478Y0261828D01*
X0325261Y0261828D01*
X0325642Y0261931D01*
X0325984Y0262128D01*
X0326264Y0262407D01*
X0326461Y0262749D01*
X0326563Y0263131D01*
X0326563Y0265914D01*
X0326563Y0264907D02*
X0367344Y0264907D01*
X0368343Y0263908D02*
X0326563Y0263908D01*
X0326504Y0262910D02*
X0369341Y0262910D01*
X0370340Y0261911D02*
X0325571Y0261911D01*
X0322478Y0261911D02*
X0321706Y0261911D01*
X0321706Y0261828D02*
X0321706Y0265914D01*
X0317620Y0265914D01*
X0317620Y0263131D01*
X0317722Y0262749D01*
X0317920Y0262407D01*
X0318199Y0262128D01*
X0318541Y0261931D01*
X0318923Y0261828D01*
X0321706Y0261828D01*
X0321706Y0262910D02*
X0322478Y0262910D01*
X0322478Y0263908D02*
X0321706Y0263908D01*
X0321706Y0264907D02*
X0322478Y0264907D01*
X0322478Y0265905D02*
X0321706Y0265905D01*
X0321706Y0266904D02*
X0322478Y0266904D01*
X0322478Y0267903D02*
X0321706Y0267903D01*
X0321706Y0268901D02*
X0322478Y0268901D01*
X0322478Y0269900D02*
X0321706Y0269900D01*
X0317751Y0269900D02*
X0300183Y0269900D01*
X0300313Y0268901D02*
X0317620Y0268901D01*
X0317620Y0267903D02*
X0300313Y0267903D01*
X0300313Y0266904D02*
X0317620Y0266904D01*
X0317620Y0265905D02*
X0300313Y0265905D01*
X0300313Y0264907D02*
X0317620Y0264907D01*
X0317620Y0263908D02*
X0300313Y0263908D01*
X0300254Y0262910D02*
X0317679Y0262910D01*
X0318613Y0261911D02*
X0300749Y0261911D01*
X0301747Y0260913D02*
X0371338Y0260913D01*
X0372337Y0259914D02*
X0302250Y0259914D01*
X0302663Y0258916D02*
X0373335Y0258916D01*
X0374334Y0257917D02*
X0302762Y0257917D01*
X0302762Y0256919D02*
X0375332Y0256919D01*
X0376331Y0255920D02*
X0302554Y0255920D01*
X0302140Y0254922D02*
X0377329Y0254922D01*
X0378328Y0253923D02*
X0301484Y0253923D01*
X0300485Y0252925D02*
X0379327Y0252925D01*
X0380325Y0251926D02*
X0298332Y0251926D01*
X0295985Y0250928D02*
X0381594Y0250928D01*
X0384487Y0246934D02*
X0387196Y0246934D01*
X0386143Y0245935D02*
X0385540Y0245935D01*
X0377196Y0246934D02*
X0374487Y0246934D01*
X0375540Y0245935D02*
X0376143Y0245935D01*
X0367196Y0246934D02*
X0364487Y0246934D01*
X0365540Y0245935D02*
X0366143Y0245935D01*
X0357196Y0246934D02*
X0354487Y0246934D01*
X0355540Y0245935D02*
X0356143Y0245935D01*
X0347196Y0246934D02*
X0334487Y0246934D01*
X0335540Y0245935D02*
X0346143Y0245935D01*
X0345204Y0244937D02*
X0336479Y0244937D01*
X0336893Y0243938D02*
X0344791Y0243938D01*
X0344377Y0242940D02*
X0337306Y0242940D01*
X0337442Y0241941D02*
X0344242Y0241941D01*
X0344242Y0240943D02*
X0337442Y0240943D01*
X0337424Y0239944D02*
X0344260Y0239944D01*
X0344673Y0238946D02*
X0337010Y0238946D01*
X0336597Y0237947D02*
X0345087Y0237947D01*
X0345859Y0236949D02*
X0335824Y0236949D01*
X0334826Y0235950D02*
X0346858Y0235950D01*
X0348921Y0234952D02*
X0332762Y0234952D01*
X0328921Y0234952D02*
X0322762Y0234952D01*
X0324826Y0235950D02*
X0326858Y0235950D01*
X0325859Y0236949D02*
X0325824Y0236949D01*
X0318921Y0234952D02*
X0312762Y0234952D01*
X0314826Y0235950D02*
X0316858Y0235950D01*
X0315859Y0236949D02*
X0315824Y0236949D01*
X0308921Y0234952D02*
X0302762Y0234952D01*
X0304826Y0235950D02*
X0306858Y0235950D01*
X0305859Y0236949D02*
X0305824Y0236949D01*
X0298921Y0234952D02*
X0292762Y0234952D01*
X0294826Y0235950D02*
X0296858Y0235950D01*
X0295859Y0236949D02*
X0295824Y0236949D01*
X0288921Y0234952D02*
X0282762Y0234952D01*
X0284826Y0235950D02*
X0286858Y0235950D01*
X0285859Y0236949D02*
X0285824Y0236949D01*
X0278921Y0234952D02*
X0272762Y0234952D01*
X0274826Y0235950D02*
X0276858Y0235950D01*
X0275859Y0236949D02*
X0275824Y0236949D01*
X0268921Y0234952D02*
X0262762Y0234952D01*
X0264826Y0235950D02*
X0266858Y0235950D01*
X0265859Y0236949D02*
X0265824Y0236949D01*
X0292990Y0247932D02*
X0421631Y0247932D01*
X0422044Y0248931D02*
X0293988Y0248931D01*
X0294987Y0249929D02*
X0422703Y0249929D01*
X0417196Y0246934D02*
X0414487Y0246934D01*
X0415540Y0245935D02*
X0416143Y0245935D01*
X0407196Y0246934D02*
X0404487Y0246934D01*
X0405540Y0245935D02*
X0406143Y0245935D01*
X0397196Y0246934D02*
X0394487Y0246934D01*
X0395540Y0245935D02*
X0396143Y0245935D01*
X0395859Y0236949D02*
X0395824Y0236949D01*
X0394826Y0235950D02*
X0396858Y0235950D01*
X0398921Y0234952D02*
X0392762Y0234952D01*
X0388921Y0234952D02*
X0382762Y0234952D01*
X0384826Y0235950D02*
X0386858Y0235950D01*
X0385859Y0236949D02*
X0385824Y0236949D01*
X0378921Y0234952D02*
X0372762Y0234952D01*
X0374826Y0235950D02*
X0376858Y0235950D01*
X0375859Y0236949D02*
X0375824Y0236949D01*
X0368921Y0234952D02*
X0362762Y0234952D01*
X0364826Y0235950D02*
X0366858Y0235950D01*
X0365859Y0236949D02*
X0365824Y0236949D01*
X0358921Y0234952D02*
X0352762Y0234952D01*
X0354826Y0235950D02*
X0356858Y0235950D01*
X0355859Y0236949D02*
X0355824Y0236949D01*
X0328867Y0225965D02*
X0401241Y0225965D01*
X0400243Y0224967D02*
X0329280Y0224967D01*
X0329694Y0223968D02*
X0399244Y0223968D01*
X0398246Y0222970D02*
X0330041Y0222970D01*
X0330041Y0221971D02*
X0397247Y0221971D01*
X0396249Y0220972D02*
X0330041Y0220972D01*
X0330041Y0219974D02*
X0395250Y0219974D01*
X0394252Y0218975D02*
X0329836Y0218975D01*
X0329423Y0217977D02*
X0393253Y0217977D01*
X0392255Y0216978D02*
X0329009Y0216978D01*
X0328531Y0215980D02*
X0391256Y0215980D01*
X0390258Y0214981D02*
X0327533Y0214981D01*
X0326534Y0213983D02*
X0389259Y0213983D01*
X0388261Y0212984D02*
X0324805Y0212984D01*
X0328188Y0226964D02*
X0402240Y0226964D01*
X0403238Y0227962D02*
X0327189Y0227962D01*
X0326191Y0228961D02*
X0404237Y0228961D01*
X0405235Y0229959D02*
X0323976Y0229959D01*
X0325540Y0245935D02*
X0326143Y0245935D01*
X0327196Y0246934D02*
X0324487Y0246934D01*
X0317196Y0246934D02*
X0314487Y0246934D01*
X0315540Y0245935D02*
X0316143Y0245935D01*
X0307196Y0246934D02*
X0304487Y0246934D01*
X0305540Y0245935D02*
X0306143Y0245935D01*
X0297196Y0246934D02*
X0294487Y0246934D01*
X0295540Y0245935D02*
X0296143Y0245935D01*
X0270004Y0261911D02*
X0258219Y0261911D01*
X0259217Y0262910D02*
X0268713Y0262910D01*
X0295456Y0266904D02*
X0296228Y0266904D01*
X0296228Y0267903D02*
X0295456Y0267903D01*
X0295456Y0268901D02*
X0296228Y0268901D01*
X0296228Y0269900D02*
X0295456Y0269900D01*
X0402762Y0234952D02*
X0407725Y0234952D01*
X0406858Y0235950D02*
X0404826Y0235950D01*
X0405824Y0236949D02*
X0405859Y0236949D01*
X0447294Y0222970D02*
X0453032Y0222970D01*
X0454030Y0221971D02*
X0447442Y0221971D01*
X0447442Y0220972D02*
X0455029Y0220972D01*
X0456027Y0219974D02*
X0447436Y0219974D01*
X0447023Y0218975D02*
X0457026Y0218975D01*
X0458024Y0217977D02*
X0446609Y0217977D01*
X0445854Y0216978D02*
X0448851Y0216978D01*
X0447503Y0215980D02*
X0445496Y0215980D01*
X0446494Y0214981D02*
X0446596Y0214981D01*
X0454083Y0216978D02*
X0459023Y0216978D01*
X0460021Y0215980D02*
X0455430Y0215980D01*
X0456338Y0214981D02*
X0461020Y0214981D01*
X0462018Y0213983D02*
X0456752Y0213983D01*
X0457137Y0212984D02*
X0463017Y0212984D01*
X0464015Y0211986D02*
X0457137Y0211986D01*
X0457920Y0210987D02*
X0465014Y0210987D01*
X0466012Y0209989D02*
X0458918Y0209989D01*
X0459917Y0208990D02*
X0467011Y0208990D01*
X0468010Y0207992D02*
X0460915Y0207992D01*
X0461914Y0206993D02*
X0469008Y0206993D01*
X0470007Y0205995D02*
X0462912Y0205995D01*
X0463911Y0204996D02*
X0471005Y0204996D01*
X0472004Y0203998D02*
X0464909Y0203998D01*
X0465908Y0202999D02*
X0473002Y0202999D01*
X0474001Y0202001D02*
X0466906Y0202001D01*
X0467905Y0201002D02*
X0474999Y0201002D01*
X0475998Y0200004D02*
X0468903Y0200004D01*
X0469902Y0199005D02*
X0476996Y0199005D01*
X0477995Y0198007D02*
X0470900Y0198007D01*
X0471899Y0197008D02*
X0478993Y0197008D01*
X0479992Y0196010D02*
X0472898Y0196010D01*
X0473896Y0195011D02*
X0480990Y0195011D01*
X0481989Y0194013D02*
X0474895Y0194013D01*
X0475893Y0193014D02*
X0482987Y0193014D01*
X0483986Y0192016D02*
X0476892Y0192016D01*
X0477890Y0191017D02*
X0484984Y0191017D01*
X0485983Y0190019D02*
X0478889Y0190019D01*
X0479887Y0189020D02*
X0486981Y0189020D01*
X0487980Y0188022D02*
X0480886Y0188022D01*
X0481884Y0187023D02*
X0491285Y0187023D01*
X0492283Y0186025D02*
X0482883Y0186025D01*
X0483881Y0185026D02*
X0494242Y0185026D01*
X0481941Y0176775D02*
X0574851Y0176775D01*
X0600561Y0151066D01*
X0600561Y0150250D01*
X0601365Y0148308D01*
X0602850Y0146823D01*
X0604791Y0146019D01*
X0606892Y0146019D01*
X0608833Y0146823D01*
X0610319Y0148308D01*
X0611123Y0150250D01*
X0611123Y0152350D01*
X0610319Y0154291D01*
X0608833Y0155777D01*
X0606892Y0156581D01*
X0606076Y0156581D01*
X0582757Y0179900D01*
X0624851Y0179900D01*
X0651317Y0153435D01*
X0651317Y0149165D01*
X0647976Y0145825D01*
X0639007Y0145825D01*
X0639148Y0145966D01*
X0639742Y0147399D01*
X0639742Y0147731D01*
X0640319Y0148308D01*
X0640842Y0149571D01*
X0641365Y0148308D01*
X0642850Y0146823D01*
X0644791Y0146019D01*
X0646892Y0146019D01*
X0648833Y0146823D01*
X0650319Y0148308D01*
X0651123Y0150250D01*
X0651123Y0152350D01*
X0650319Y0154291D01*
X0648833Y0155777D01*
X0646892Y0156581D01*
X0644791Y0156581D01*
X0642850Y0155777D01*
X0641365Y0154291D01*
X0640842Y0153029D01*
X0640319Y0154291D01*
X0638833Y0155777D01*
X0636892Y0156581D01*
X0634791Y0156581D01*
X0632850Y0155777D01*
X0631365Y0154291D01*
X0630842Y0153029D01*
X0630319Y0154291D01*
X0628833Y0155777D01*
X0626892Y0156581D01*
X0624791Y0156581D01*
X0622850Y0155777D01*
X0621365Y0154291D01*
X0620561Y0152350D01*
X0620561Y0150250D01*
X0621365Y0148308D01*
X0622850Y0146823D01*
X0624791Y0146019D01*
X0626892Y0146019D01*
X0628833Y0146823D01*
X0630319Y0148308D01*
X0630842Y0149571D01*
X0631100Y0148948D01*
X0627351Y0145200D01*
X0548816Y0145200D01*
X0547383Y0144606D01*
X0512976Y0110200D01*
X0505691Y0110200D01*
X0504258Y0109606D01*
X0499258Y0104606D01*
X0498161Y0103509D01*
X0497567Y0102076D01*
X0497567Y0101299D01*
X0497516Y0101278D01*
X0495864Y0099626D01*
X0495842Y0099572D01*
X0495820Y0099626D01*
X0494168Y0101278D01*
X0492010Y0102172D01*
X0489674Y0102172D01*
X0487516Y0101278D01*
X0485864Y0099626D01*
X0485079Y0097730D01*
X0484986Y0098017D01*
X0484666Y0098644D01*
X0484253Y0099213D01*
X0483755Y0099711D01*
X0483185Y0100124D01*
X0482558Y0100444D01*
X0481889Y0100662D01*
X0481228Y0100766D01*
X0481228Y0096686D01*
X0480456Y0096686D01*
X0480456Y0100766D01*
X0479795Y0100662D01*
X0479125Y0100444D01*
X0478498Y0100124D01*
X0477929Y0099711D01*
X0477431Y0099213D01*
X0477017Y0098644D01*
X0476698Y0098017D01*
X0476480Y0097347D01*
X0476376Y0096686D01*
X0480456Y0096686D01*
X0480456Y0095914D01*
X0481228Y0095914D01*
X0481228Y0091834D01*
X0481889Y0091938D01*
X0482558Y0092156D01*
X0483185Y0092475D01*
X0483755Y0092889D01*
X0484253Y0093387D01*
X0484666Y0093956D01*
X0484986Y0094583D01*
X0485079Y0094870D01*
X0485864Y0092974D01*
X0487516Y0091322D01*
X0489674Y0090428D01*
X0492010Y0090428D01*
X0494168Y0091322D01*
X0495820Y0092974D01*
X0495842Y0093028D01*
X0495864Y0092974D01*
X0497516Y0091322D01*
X0497567Y0091301D01*
X0497567Y0090524D01*
X0498161Y0089091D01*
X0499258Y0087994D01*
X0504258Y0082994D01*
X0505691Y0082400D01*
X0513601Y0082400D01*
X0516120Y0079882D01*
X0515864Y0079626D01*
X0515842Y0079572D01*
X0515820Y0079626D01*
X0514168Y0081278D01*
X0512010Y0082172D01*
X0509674Y0082172D01*
X0507516Y0081278D01*
X0505864Y0079626D01*
X0505842Y0079572D01*
X0505820Y0079626D01*
X0504168Y0081278D01*
X0502010Y0082172D01*
X0499674Y0082172D01*
X0497516Y0081278D01*
X0495864Y0079626D01*
X0495842Y0079572D01*
X0495820Y0079626D01*
X0494168Y0081278D01*
X0492010Y0082172D01*
X0489674Y0082172D01*
X0487516Y0081278D01*
X0485864Y0079626D01*
X0485842Y0079572D01*
X0485820Y0079626D01*
X0484168Y0081278D01*
X0482010Y0082172D01*
X0479674Y0082172D01*
X0477516Y0081278D01*
X0475864Y0079626D01*
X0474970Y0077468D01*
X0474970Y0075132D01*
X0475864Y0072974D01*
X0477516Y0071322D01*
X0479674Y0070428D01*
X0482010Y0070428D01*
X0484168Y0071322D01*
X0485820Y0072974D01*
X0485842Y0073028D01*
X0485864Y0072974D01*
X0487516Y0071322D01*
X0489674Y0070428D01*
X0492010Y0070428D01*
X0494168Y0071322D01*
X0495820Y0072974D01*
X0495842Y0073028D01*
X0495864Y0072974D01*
X0497516Y0071322D01*
X0497751Y0071225D01*
X0468601Y0042075D01*
X0411832Y0042075D01*
X0406391Y0047516D01*
X0406437Y0047561D01*
X0406935Y0048764D01*
X0408043Y0046089D01*
X0410631Y0043501D01*
X0414012Y0042101D01*
X0417672Y0042101D01*
X0421053Y0043501D01*
X0423641Y0046089D01*
X0424748Y0048764D01*
X0425247Y0047561D01*
X0427103Y0045705D01*
X0429529Y0044700D01*
X0432155Y0044700D01*
X0434580Y0045705D01*
X0435842Y0046966D01*
X0437103Y0045705D01*
X0439529Y0044700D01*
X0442155Y0044700D01*
X0444580Y0045705D01*
X0446437Y0047561D01*
X0447442Y0049987D01*
X0447442Y0052613D01*
X0446437Y0055039D01*
X0445176Y0056300D01*
X0447442Y0058566D01*
X0447442Y0064034D01*
X0445176Y0066300D01*
X0446276Y0067400D01*
X0469851Y0067400D01*
X0473922Y0063330D01*
X0473922Y0062047D01*
X0474785Y0059963D01*
X0476380Y0058368D01*
X0478464Y0057505D01*
X0480720Y0057505D01*
X0482804Y0058368D01*
X0484399Y0059963D01*
X0485262Y0062047D01*
X0485262Y0064303D01*
X0484399Y0066387D01*
X0482804Y0067982D01*
X0480720Y0068845D01*
X0479437Y0068845D01*
X0473676Y0074606D01*
X0472243Y0075200D01*
X0446276Y0075200D01*
X0445176Y0076300D01*
X0447442Y0078566D01*
X0447442Y0084034D01*
X0445176Y0086300D01*
X0447442Y0088566D01*
X0447442Y0094034D01*
X0445176Y0096300D01*
X0447442Y0098566D01*
X0447442Y0104034D01*
X0445176Y0106300D01*
X0447442Y0108566D01*
X0447442Y0114034D01*
X0445176Y0116300D01*
X0447442Y0118566D01*
X0447442Y0124034D01*
X0445176Y0126300D01*
X0447442Y0128566D01*
X0447442Y0134034D01*
X0445176Y0136300D01*
X0447442Y0138566D01*
X0447442Y0144034D01*
X0445176Y0146300D01*
X0447442Y0148566D01*
X0447442Y0154034D01*
X0445176Y0156300D01*
X0447442Y0158566D01*
X0447442Y0164034D01*
X0445176Y0166300D01*
X0447442Y0168566D01*
X0447442Y0174034D01*
X0445176Y0176300D01*
X0447442Y0178566D01*
X0447442Y0184034D01*
X0445176Y0186300D01*
X0447442Y0188566D01*
X0447442Y0194034D01*
X0445176Y0196300D01*
X0447442Y0198566D01*
X0447442Y0204034D01*
X0445176Y0206300D01*
X0447124Y0208249D01*
X0448255Y0207118D01*
X0450339Y0206255D01*
X0451621Y0206255D01*
X0480508Y0177369D01*
X0481941Y0176775D01*
X0481306Y0177038D02*
X0445914Y0177038D01*
X0445436Y0176039D02*
X0575587Y0176039D01*
X0576585Y0175041D02*
X0446435Y0175041D01*
X0447433Y0174042D02*
X0577584Y0174042D01*
X0578582Y0173044D02*
X0447442Y0173044D01*
X0447442Y0172045D02*
X0579581Y0172045D01*
X0580579Y0171047D02*
X0447442Y0171047D01*
X0447442Y0170048D02*
X0581578Y0170048D01*
X0582576Y0169050D02*
X0447442Y0169050D01*
X0446927Y0168051D02*
X0583575Y0168051D01*
X0584573Y0167053D02*
X0445928Y0167053D01*
X0445421Y0166054D02*
X0585572Y0166054D01*
X0586571Y0165056D02*
X0446420Y0165056D01*
X0447418Y0164057D02*
X0587569Y0164057D01*
X0588568Y0163059D02*
X0447442Y0163059D01*
X0447442Y0162060D02*
X0589566Y0162060D01*
X0590565Y0161062D02*
X0447442Y0161062D01*
X0447442Y0160063D02*
X0537631Y0160063D01*
X0538987Y0160625D02*
X0535560Y0159205D01*
X0532936Y0156582D01*
X0531517Y0153155D01*
X0531517Y0149445D01*
X0532936Y0146018D01*
X0535560Y0143395D01*
X0538987Y0141975D01*
X0542697Y0141975D01*
X0546124Y0143395D01*
X0548747Y0146018D01*
X0550167Y0149445D01*
X0550167Y0153155D01*
X0548747Y0156582D01*
X0546124Y0159205D01*
X0542697Y0160625D01*
X0538987Y0160625D01*
X0535419Y0159065D02*
X0447442Y0159065D01*
X0446942Y0158066D02*
X0534421Y0158066D01*
X0533422Y0157068D02*
X0445943Y0157068D01*
X0445406Y0156069D02*
X0532724Y0156069D01*
X0532310Y0155071D02*
X0446405Y0155071D01*
X0447403Y0154072D02*
X0531897Y0154072D01*
X0531517Y0153074D02*
X0447442Y0153074D01*
X0447442Y0152075D02*
X0531517Y0152075D01*
X0531517Y0151077D02*
X0447442Y0151077D01*
X0447442Y0150078D02*
X0531517Y0150078D01*
X0531668Y0149080D02*
X0447442Y0149080D01*
X0446957Y0148081D02*
X0532082Y0148081D01*
X0532495Y0147083D02*
X0445958Y0147083D01*
X0445391Y0146084D02*
X0532909Y0146084D01*
X0533869Y0145086D02*
X0446390Y0145086D01*
X0447388Y0144087D02*
X0534867Y0144087D01*
X0536298Y0143089D02*
X0447442Y0143089D01*
X0447442Y0142090D02*
X0538709Y0142090D01*
X0542975Y0142090D02*
X0544866Y0142090D01*
X0545385Y0143089D02*
X0545865Y0143089D01*
X0546816Y0144087D02*
X0546864Y0144087D01*
X0547815Y0145086D02*
X0548540Y0145086D01*
X0548775Y0146084D02*
X0604634Y0146084D01*
X0602591Y0147083D02*
X0549188Y0147083D01*
X0549602Y0148081D02*
X0601592Y0148081D01*
X0601045Y0149080D02*
X0550015Y0149080D01*
X0550167Y0150078D02*
X0600632Y0150078D01*
X0600550Y0151077D02*
X0550167Y0151077D01*
X0550167Y0152075D02*
X0599551Y0152075D01*
X0598553Y0153074D02*
X0550167Y0153074D01*
X0549787Y0154072D02*
X0597554Y0154072D01*
X0596556Y0155071D02*
X0549373Y0155071D01*
X0548960Y0156069D02*
X0595557Y0156069D01*
X0594559Y0157068D02*
X0548262Y0157068D01*
X0547263Y0158066D02*
X0593560Y0158066D01*
X0592562Y0159065D02*
X0546265Y0159065D01*
X0544053Y0160063D02*
X0591563Y0160063D01*
X0596603Y0166054D02*
X0638697Y0166054D01*
X0639696Y0165056D02*
X0597601Y0165056D01*
X0598600Y0164057D02*
X0640694Y0164057D01*
X0641693Y0163059D02*
X0599598Y0163059D01*
X0600597Y0162060D02*
X0642691Y0162060D01*
X0643690Y0161062D02*
X0601595Y0161062D01*
X0602594Y0160063D02*
X0644688Y0160063D01*
X0645687Y0159065D02*
X0603592Y0159065D01*
X0604591Y0158066D02*
X0646685Y0158066D01*
X0647684Y0157068D02*
X0605589Y0157068D01*
X0608128Y0156069D02*
X0623556Y0156069D01*
X0622144Y0155071D02*
X0616779Y0155071D01*
X0616974Y0155032D02*
X0616224Y0155181D01*
X0615932Y0155181D01*
X0615932Y0151391D01*
X0615751Y0151391D01*
X0615751Y0155181D01*
X0615460Y0155181D01*
X0614710Y0155032D01*
X0614003Y0154739D01*
X0613368Y0154315D01*
X0612827Y0153774D01*
X0612402Y0153138D01*
X0612110Y0152432D01*
X0611961Y0151682D01*
X0611961Y0151391D01*
X0615751Y0151391D01*
X0615751Y0151209D01*
X0615932Y0151209D01*
X0615932Y0147419D01*
X0616224Y0147419D01*
X0616974Y0147568D01*
X0617680Y0147861D01*
X0618316Y0148285D01*
X0618856Y0148826D01*
X0619281Y0149462D01*
X0619574Y0150168D01*
X0619723Y0150918D01*
X0619723Y0151209D01*
X0615932Y0151209D01*
X0615932Y0151391D01*
X0619723Y0151391D01*
X0619723Y0151682D01*
X0619574Y0152432D01*
X0619281Y0153138D01*
X0618856Y0153774D01*
X0618316Y0154315D01*
X0617680Y0154739D01*
X0616974Y0155032D01*
X0615932Y0155071D02*
X0615751Y0155071D01*
X0614905Y0155071D02*
X0609540Y0155071D01*
X0610410Y0154072D02*
X0613125Y0154072D01*
X0612376Y0153074D02*
X0610823Y0153074D01*
X0611123Y0152075D02*
X0612039Y0152075D01*
X0611961Y0151209D02*
X0611961Y0150918D01*
X0612110Y0150168D01*
X0612402Y0149462D01*
X0612827Y0148826D01*
X0613368Y0148285D01*
X0614003Y0147861D01*
X0614710Y0147568D01*
X0615460Y0147419D01*
X0615751Y0147419D01*
X0615751Y0151209D01*
X0611961Y0151209D01*
X0611961Y0151077D02*
X0611123Y0151077D01*
X0611052Y0150078D02*
X0612147Y0150078D01*
X0612658Y0149080D02*
X0610638Y0149080D01*
X0610092Y0148081D02*
X0613673Y0148081D01*
X0615751Y0148081D02*
X0615932Y0148081D01*
X0615932Y0149080D02*
X0615751Y0149080D01*
X0615751Y0150078D02*
X0615932Y0150078D01*
X0615932Y0151077D02*
X0615751Y0151077D01*
X0615751Y0152075D02*
X0615932Y0152075D01*
X0615932Y0153074D02*
X0615751Y0153074D01*
X0615751Y0154072D02*
X0615932Y0154072D01*
X0618558Y0154072D02*
X0621274Y0154072D01*
X0620860Y0153074D02*
X0619308Y0153074D01*
X0619645Y0152075D02*
X0620561Y0152075D01*
X0620561Y0151077D02*
X0619723Y0151077D01*
X0619537Y0150078D02*
X0620632Y0150078D01*
X0621045Y0149080D02*
X0619026Y0149080D01*
X0618010Y0148081D02*
X0621592Y0148081D01*
X0622591Y0147083D02*
X0609093Y0147083D01*
X0607050Y0146084D02*
X0624634Y0146084D01*
X0627050Y0146084D02*
X0628236Y0146084D01*
X0629093Y0147083D02*
X0629234Y0147083D01*
X0630092Y0148081D02*
X0630233Y0148081D01*
X0630638Y0149080D02*
X0631045Y0149080D01*
X0630860Y0153074D02*
X0630823Y0153074D01*
X0630410Y0154072D02*
X0631274Y0154072D01*
X0632144Y0155071D02*
X0629540Y0155071D01*
X0628128Y0156069D02*
X0633556Y0156069D01*
X0638128Y0156069D02*
X0643556Y0156069D01*
X0642144Y0155071D02*
X0639540Y0155071D01*
X0640410Y0154072D02*
X0641274Y0154072D01*
X0640860Y0153074D02*
X0640823Y0153074D01*
X0640638Y0149080D02*
X0641045Y0149080D01*
X0641592Y0148081D02*
X0640092Y0148081D01*
X0639611Y0147083D02*
X0642591Y0147083D01*
X0644634Y0146084D02*
X0639197Y0146084D01*
X0647050Y0146084D02*
X0648236Y0146084D01*
X0649093Y0147083D02*
X0649234Y0147083D01*
X0650092Y0148081D02*
X0650233Y0148081D01*
X0650638Y0149080D02*
X0651231Y0149080D01*
X0651317Y0150078D02*
X0651052Y0150078D01*
X0651123Y0151077D02*
X0651317Y0151077D01*
X0651317Y0152075D02*
X0651123Y0152075D01*
X0651317Y0153074D02*
X0650823Y0153074D01*
X0650679Y0154072D02*
X0650410Y0154072D01*
X0649681Y0155071D02*
X0649540Y0155071D01*
X0648682Y0156069D02*
X0648128Y0156069D01*
X0658097Y0162060D02*
X0722642Y0162060D01*
X0722642Y0161062D02*
X0659095Y0161062D01*
X0660094Y0160063D02*
X0722642Y0160063D01*
X0722642Y0159065D02*
X0661092Y0159065D01*
X0662091Y0158066D02*
X0722642Y0158066D01*
X0722642Y0157068D02*
X0663089Y0157068D01*
X0664088Y0156069D02*
X0722642Y0156069D01*
X0722642Y0155071D02*
X0665086Y0155071D01*
X0666085Y0154072D02*
X0722642Y0154072D01*
X0722642Y0153074D02*
X0666828Y0153074D01*
X0667242Y0152075D02*
X0722642Y0152075D01*
X0722642Y0151077D02*
X0667242Y0151077D01*
X0667242Y0150078D02*
X0722642Y0150078D01*
X0722642Y0149080D02*
X0667242Y0149080D01*
X0667242Y0148081D02*
X0722642Y0148081D01*
X0722642Y0147083D02*
X0667242Y0147083D01*
X0667242Y0146084D02*
X0722642Y0146084D01*
X0722642Y0145086D02*
X0667242Y0145086D01*
X0667242Y0144087D02*
X0722642Y0144087D01*
X0722642Y0143089D02*
X0667242Y0143089D01*
X0667242Y0142090D02*
X0722642Y0142090D01*
X0722642Y0141092D02*
X0712892Y0141092D01*
X0711342Y0141092D02*
X0710342Y0141092D01*
X0710342Y0140093D02*
X0711342Y0140093D01*
X0711342Y0139095D02*
X0710342Y0139095D01*
X0710342Y0138096D02*
X0711342Y0138096D01*
X0711342Y0137098D02*
X0710342Y0137098D01*
X0710342Y0136099D02*
X0667242Y0136099D01*
X0667242Y0135101D02*
X0672721Y0135101D01*
X0670456Y0134102D02*
X0667242Y0134102D01*
X0667242Y0133103D02*
X0669458Y0133103D01*
X0668459Y0132105D02*
X0667242Y0132105D01*
X0667242Y0131106D02*
X0667739Y0131106D01*
X0667326Y0130108D02*
X0667242Y0130108D01*
X0666517Y0126114D02*
X0666171Y0126114D01*
X0666517Y0125115D02*
X0665173Y0125115D01*
X0664174Y0124117D02*
X0666653Y0124117D01*
X0667066Y0123118D02*
X0663176Y0123118D01*
X0662177Y0122120D02*
X0667480Y0122120D01*
X0667894Y0121121D02*
X0661179Y0121121D01*
X0660180Y0120123D02*
X0668831Y0120123D01*
X0669830Y0119124D02*
X0659182Y0119124D01*
X0658183Y0118126D02*
X0671209Y0118126D01*
X0673619Y0117127D02*
X0639617Y0117127D01*
X0639510Y0117172D02*
X0637174Y0117172D01*
X0635016Y0116278D01*
X0633364Y0114626D01*
X0633342Y0114572D01*
X0633320Y0114626D01*
X0631668Y0116278D01*
X0629510Y0117172D01*
X0627174Y0117172D01*
X0625016Y0116278D01*
X0623364Y0114626D01*
X0623342Y0114572D01*
X0623320Y0114626D01*
X0621668Y0116278D01*
X0619510Y0117172D01*
X0617174Y0117172D01*
X0615016Y0116278D01*
X0613364Y0114626D01*
X0613342Y0114572D01*
X0613320Y0114626D01*
X0611668Y0116278D01*
X0609510Y0117172D01*
X0607174Y0117172D01*
X0605016Y0116278D01*
X0603364Y0114626D01*
X0603342Y0114572D01*
X0603320Y0114626D01*
X0601668Y0116278D01*
X0599510Y0117172D01*
X0597174Y0117172D01*
X0595016Y0116278D01*
X0593364Y0114626D01*
X0593342Y0114572D01*
X0593320Y0114626D01*
X0591668Y0116278D01*
X0589510Y0117172D01*
X0587174Y0117172D01*
X0585016Y0116278D01*
X0583364Y0114626D01*
X0583342Y0114572D01*
X0583320Y0114626D01*
X0581668Y0116278D01*
X0579510Y0117172D01*
X0577174Y0117172D01*
X0575016Y0116278D01*
X0573364Y0114626D01*
X0572470Y0112468D01*
X0572470Y0110132D01*
X0573364Y0107974D01*
X0575016Y0106322D01*
X0577174Y0105428D01*
X0579510Y0105428D01*
X0581668Y0106322D01*
X0583320Y0107974D01*
X0583342Y0108028D01*
X0583364Y0107974D01*
X0585016Y0106322D01*
X0587174Y0105428D01*
X0589510Y0105428D01*
X0591668Y0106322D01*
X0593320Y0107974D01*
X0593342Y0108028D01*
X0593364Y0107974D01*
X0595016Y0106322D01*
X0597174Y0105428D01*
X0599510Y0105428D01*
X0601668Y0106322D01*
X0603320Y0107974D01*
X0603342Y0108028D01*
X0603364Y0107974D01*
X0605016Y0106322D01*
X0607174Y0105428D01*
X0609510Y0105428D01*
X0611668Y0106322D01*
X0613320Y0107974D01*
X0613342Y0108028D01*
X0613364Y0107974D01*
X0615016Y0106322D01*
X0617174Y0105428D01*
X0619510Y0105428D01*
X0621668Y0106322D01*
X0623320Y0107974D01*
X0623342Y0108028D01*
X0623364Y0107974D01*
X0625016Y0106322D01*
X0627174Y0105428D01*
X0629510Y0105428D01*
X0631668Y0106322D01*
X0633320Y0107974D01*
X0633342Y0108028D01*
X0633364Y0107974D01*
X0635016Y0106322D01*
X0637174Y0105428D01*
X0639510Y0105428D01*
X0641668Y0106322D01*
X0643320Y0107974D01*
X0644213Y0110132D01*
X0644213Y0112468D01*
X0643320Y0114626D01*
X0641668Y0116278D01*
X0639510Y0117172D01*
X0637067Y0117127D02*
X0629617Y0117127D01*
X0631817Y0116129D02*
X0634867Y0116129D01*
X0633868Y0115130D02*
X0632815Y0115130D01*
X0627067Y0117127D02*
X0619617Y0117127D01*
X0620627Y0119124D02*
X0576854Y0119124D01*
X0576124Y0118395D02*
X0578747Y0121018D01*
X0580167Y0124445D01*
X0580167Y0128155D01*
X0578747Y0131582D01*
X0576124Y0134205D01*
X0572697Y0135625D01*
X0568987Y0135625D01*
X0565560Y0134205D01*
X0562936Y0131582D01*
X0561517Y0128155D01*
X0561517Y0124445D01*
X0562936Y0121018D01*
X0565560Y0118395D01*
X0568987Y0116975D01*
X0572697Y0116975D01*
X0576124Y0118395D01*
X0575475Y0118126D02*
X0621626Y0118126D01*
X0621817Y0116129D02*
X0624867Y0116129D01*
X0623868Y0115130D02*
X0622815Y0115130D01*
X0619629Y0120123D02*
X0577852Y0120123D01*
X0578790Y0121121D02*
X0618630Y0121121D01*
X0617631Y0122120D02*
X0579204Y0122120D01*
X0579617Y0123118D02*
X0616633Y0123118D01*
X0615634Y0124117D02*
X0580031Y0124117D01*
X0580167Y0125115D02*
X0614870Y0125115D01*
X0614456Y0126114D02*
X0611165Y0126114D01*
X0612458Y0127112D02*
X0614226Y0127112D01*
X0605519Y0126114D02*
X0601165Y0126114D01*
X0602458Y0127112D02*
X0604226Y0127112D01*
X0603839Y0135101D02*
X0602845Y0135101D01*
X0601847Y0136099D02*
X0604837Y0136099D01*
X0606995Y0137098D02*
X0599689Y0137098D01*
X0596995Y0137098D02*
X0589689Y0137098D01*
X0591847Y0136099D02*
X0594837Y0136099D01*
X0593839Y0135101D02*
X0592845Y0135101D01*
X0586995Y0137098D02*
X0550905Y0137098D01*
X0549906Y0136099D02*
X0584837Y0136099D01*
X0583839Y0135101D02*
X0573963Y0135101D01*
X0576227Y0134102D02*
X0583147Y0134102D01*
X0582733Y0133103D02*
X0577226Y0133103D01*
X0578224Y0132105D02*
X0582470Y0132105D01*
X0582470Y0131106D02*
X0578944Y0131106D01*
X0579358Y0130108D02*
X0582480Y0130108D01*
X0582894Y0129109D02*
X0579771Y0129109D01*
X0580167Y0128111D02*
X0583307Y0128111D01*
X0584226Y0127112D02*
X0580167Y0127112D01*
X0580167Y0126114D02*
X0585519Y0126114D01*
X0591165Y0126114D02*
X0595519Y0126114D01*
X0594226Y0127112D02*
X0592458Y0127112D01*
X0589617Y0117127D02*
X0597067Y0117127D01*
X0594867Y0116129D02*
X0591817Y0116129D01*
X0592815Y0115130D02*
X0593868Y0115130D01*
X0599617Y0117127D02*
X0607067Y0117127D01*
X0604867Y0116129D02*
X0601817Y0116129D01*
X0602815Y0115130D02*
X0603868Y0115130D01*
X0609617Y0117127D02*
X0617067Y0117127D01*
X0614867Y0116129D02*
X0611817Y0116129D01*
X0612815Y0115130D02*
X0613868Y0115130D01*
X0614196Y0107142D02*
X0612488Y0107142D01*
X0611237Y0106144D02*
X0615447Y0106144D01*
X0621237Y0106144D02*
X0625447Y0106144D01*
X0624196Y0107142D02*
X0622488Y0107142D01*
X0631237Y0106144D02*
X0635447Y0106144D01*
X0634196Y0107142D02*
X0632488Y0107142D01*
X0641237Y0106144D02*
X0675457Y0106144D01*
X0675864Y0107126D02*
X0674970Y0104968D01*
X0674970Y0102632D01*
X0675864Y0100474D01*
X0677516Y0098822D01*
X0679411Y0098037D01*
X0679125Y0097944D01*
X0678498Y0097624D01*
X0677929Y0097211D01*
X0677431Y0096713D01*
X0677017Y0096144D01*
X0676698Y0095517D01*
X0676480Y0094847D01*
X0676376Y0094186D01*
X0680456Y0094186D01*
X0680456Y0093414D01*
X0681228Y0093414D01*
X0681228Y0094186D01*
X0685308Y0094186D01*
X0685203Y0094847D01*
X0684986Y0095517D01*
X0684666Y0096144D01*
X0684253Y0096713D01*
X0683755Y0097211D01*
X0683185Y0097624D01*
X0682558Y0097944D01*
X0682272Y0098037D01*
X0684168Y0098822D01*
X0685820Y0100474D01*
X0686713Y0102632D01*
X0686713Y0104968D01*
X0685820Y0107126D01*
X0684168Y0108778D01*
X0682010Y0109672D01*
X0679674Y0109672D01*
X0677516Y0108778D01*
X0675864Y0107126D01*
X0675880Y0107142D02*
X0642488Y0107142D01*
X0643389Y0108141D02*
X0676879Y0108141D01*
X0678388Y0109139D02*
X0643802Y0109139D01*
X0644213Y0110138D02*
X0705346Y0110138D01*
X0704874Y0109139D02*
X0683295Y0109139D01*
X0684805Y0108141D02*
X0704460Y0108141D01*
X0704242Y0107142D02*
X0685803Y0107142D01*
X0686226Y0106144D02*
X0704242Y0106144D01*
X0704242Y0105145D02*
X0686640Y0105145D01*
X0686713Y0104147D02*
X0704590Y0104147D01*
X0705004Y0103148D02*
X0686713Y0103148D01*
X0686514Y0102150D02*
X0705658Y0102150D01*
X0706359Y0101151D02*
X0686100Y0101151D01*
X0685498Y0100153D02*
X0705361Y0100153D01*
X0704880Y0099154D02*
X0684500Y0099154D01*
X0683809Y0097157D02*
X0704242Y0097157D01*
X0704242Y0096159D02*
X0684655Y0096159D01*
X0685102Y0095160D02*
X0704186Y0095160D01*
X0703188Y0094162D02*
X0681228Y0094162D01*
X0681228Y0093414D02*
X0685308Y0093414D01*
X0685203Y0092753D01*
X0684986Y0092083D01*
X0684666Y0091456D01*
X0684253Y0090887D01*
X0683755Y0090389D01*
X0683185Y0089975D01*
X0682558Y0089656D01*
X0681889Y0089438D01*
X0681228Y0089334D01*
X0681228Y0093414D01*
X0681228Y0093163D02*
X0680456Y0093163D01*
X0680456Y0093414D02*
X0680456Y0089334D01*
X0679795Y0089438D01*
X0679125Y0089656D01*
X0678498Y0089975D01*
X0677929Y0090389D01*
X0677431Y0090887D01*
X0677017Y0091456D01*
X0676698Y0092083D01*
X0676480Y0092753D01*
X0676376Y0093414D01*
X0680456Y0093414D01*
X0680456Y0094162D02*
X0546311Y0094162D01*
X0546713Y0095160D02*
X0676582Y0095160D01*
X0677028Y0096159D02*
X0546713Y0096159D01*
X0546713Y0097157D02*
X0677875Y0097157D01*
X0679125Y0098156D02*
X0546429Y0098156D01*
X0546015Y0099154D02*
X0677184Y0099154D01*
X0676185Y0100153D02*
X0545293Y0100153D01*
X0544294Y0101151D02*
X0675584Y0101151D01*
X0675170Y0102150D02*
X0542063Y0102150D01*
X0539621Y0102150D02*
X0532063Y0102150D01*
X0529621Y0102150D02*
X0522063Y0102150D01*
X0519621Y0102150D02*
X0512063Y0102150D01*
X0509621Y0102150D02*
X0507832Y0102150D01*
X0507389Y0101151D02*
X0506833Y0101151D01*
X0506391Y0100153D02*
X0505835Y0100153D01*
X0499797Y0105145D02*
X0446330Y0105145D01*
X0445332Y0106144D02*
X0500795Y0106144D01*
X0501794Y0107142D02*
X0446018Y0107142D01*
X0447016Y0108141D02*
X0502792Y0108141D01*
X0503791Y0109139D02*
X0447442Y0109139D01*
X0447442Y0110138D02*
X0505541Y0110138D01*
X0513913Y0111136D02*
X0447442Y0111136D01*
X0447442Y0112135D02*
X0478601Y0112135D01*
X0478987Y0111975D02*
X0482697Y0111975D01*
X0486124Y0113395D01*
X0488747Y0116018D01*
X0490167Y0119445D01*
X0490167Y0123155D01*
X0488747Y0126582D01*
X0486124Y0129205D01*
X0482697Y0130625D01*
X0478987Y0130625D01*
X0475560Y0129205D01*
X0472936Y0126582D01*
X0471517Y0123155D01*
X0471517Y0119445D01*
X0472936Y0116018D01*
X0475560Y0113395D01*
X0478987Y0111975D01*
X0476191Y0113133D02*
X0447442Y0113133D01*
X0447344Y0114132D02*
X0474822Y0114132D01*
X0473824Y0115130D02*
X0446345Y0115130D01*
X0445347Y0116129D02*
X0472890Y0116129D01*
X0472477Y0117127D02*
X0446003Y0117127D01*
X0447001Y0118126D02*
X0472063Y0118126D01*
X0471650Y0119124D02*
X0447442Y0119124D01*
X0447442Y0120123D02*
X0471517Y0120123D01*
X0471517Y0121121D02*
X0447442Y0121121D01*
X0447442Y0122120D02*
X0471517Y0122120D01*
X0471517Y0123118D02*
X0447442Y0123118D01*
X0447359Y0124117D02*
X0471915Y0124117D01*
X0472329Y0125115D02*
X0446360Y0125115D01*
X0445362Y0126114D02*
X0472742Y0126114D01*
X0473467Y0127112D02*
X0445988Y0127112D01*
X0446987Y0128111D02*
X0474465Y0128111D01*
X0475464Y0129109D02*
X0447442Y0129109D01*
X0447442Y0130108D02*
X0477739Y0130108D01*
X0483945Y0130108D02*
X0532884Y0130108D01*
X0531886Y0129109D02*
X0486220Y0129109D01*
X0487218Y0128111D02*
X0530887Y0128111D01*
X0529889Y0127112D02*
X0488217Y0127112D01*
X0488941Y0126114D02*
X0528890Y0126114D01*
X0527892Y0125115D02*
X0489355Y0125115D01*
X0489768Y0124117D02*
X0526893Y0124117D01*
X0525895Y0123118D02*
X0490167Y0123118D01*
X0490167Y0122120D02*
X0524896Y0122120D01*
X0523898Y0121121D02*
X0490167Y0121121D01*
X0490167Y0120123D02*
X0522899Y0120123D01*
X0521901Y0119124D02*
X0490034Y0119124D01*
X0489620Y0118126D02*
X0520902Y0118126D01*
X0519904Y0117127D02*
X0489207Y0117127D01*
X0488793Y0116129D02*
X0518905Y0116129D01*
X0517907Y0115130D02*
X0487860Y0115130D01*
X0486861Y0114132D02*
X0516908Y0114132D01*
X0515910Y0113133D02*
X0485493Y0113133D01*
X0483082Y0112135D02*
X0514911Y0112135D01*
X0519951Y0106144D02*
X0575447Y0106144D01*
X0574196Y0107142D02*
X0520949Y0107142D01*
X0521948Y0108141D02*
X0573295Y0108141D01*
X0572881Y0109139D02*
X0522946Y0109139D01*
X0523945Y0110138D02*
X0572470Y0110138D01*
X0572470Y0111136D02*
X0524943Y0111136D01*
X0525942Y0112135D02*
X0572470Y0112135D01*
X0572746Y0113133D02*
X0526940Y0113133D01*
X0527939Y0114132D02*
X0573159Y0114132D01*
X0573868Y0115130D02*
X0528938Y0115130D01*
X0529936Y0116129D02*
X0574867Y0116129D01*
X0573064Y0117127D02*
X0577067Y0117127D01*
X0579617Y0117127D02*
X0587067Y0117127D01*
X0584867Y0116129D02*
X0581817Y0116129D01*
X0582815Y0115130D02*
X0583868Y0115130D01*
X0584196Y0107142D02*
X0582488Y0107142D01*
X0581237Y0106144D02*
X0585447Y0106144D01*
X0591237Y0106144D02*
X0595447Y0106144D01*
X0594196Y0107142D02*
X0592488Y0107142D01*
X0601237Y0106144D02*
X0605447Y0106144D01*
X0604196Y0107142D02*
X0602488Y0107142D01*
X0568619Y0117127D02*
X0530935Y0117127D01*
X0531933Y0118126D02*
X0566209Y0118126D01*
X0564830Y0119124D02*
X0532932Y0119124D01*
X0533930Y0120123D02*
X0563831Y0120123D01*
X0562894Y0121121D02*
X0534929Y0121121D01*
X0535927Y0122120D02*
X0562480Y0122120D01*
X0562066Y0123118D02*
X0536926Y0123118D01*
X0537924Y0124117D02*
X0561653Y0124117D01*
X0561517Y0125115D02*
X0538923Y0125115D01*
X0539921Y0126114D02*
X0561517Y0126114D01*
X0561517Y0127112D02*
X0540920Y0127112D01*
X0541918Y0128111D02*
X0561517Y0128111D01*
X0561912Y0129109D02*
X0542917Y0129109D01*
X0543915Y0130108D02*
X0562326Y0130108D01*
X0562739Y0131106D02*
X0544914Y0131106D01*
X0545912Y0132105D02*
X0563459Y0132105D01*
X0564458Y0133103D02*
X0546911Y0133103D01*
X0547909Y0134102D02*
X0565456Y0134102D01*
X0567721Y0135101D02*
X0548908Y0135101D01*
X0542869Y0140093D02*
X0447442Y0140093D01*
X0447442Y0139095D02*
X0541871Y0139095D01*
X0540872Y0138096D02*
X0446972Y0138096D01*
X0445973Y0137098D02*
X0539874Y0137098D01*
X0538875Y0136099D02*
X0445377Y0136099D01*
X0446375Y0135101D02*
X0537877Y0135101D01*
X0536878Y0134102D02*
X0447374Y0134102D01*
X0447442Y0133103D02*
X0535880Y0133103D01*
X0534881Y0132105D02*
X0447442Y0132105D01*
X0447442Y0131106D02*
X0533883Y0131106D01*
X0543868Y0141092D02*
X0447442Y0141092D01*
X0446912Y0178037D02*
X0479840Y0178037D01*
X0478841Y0179035D02*
X0447442Y0179035D01*
X0447442Y0180034D02*
X0477843Y0180034D01*
X0476844Y0181032D02*
X0447442Y0181032D01*
X0447442Y0182031D02*
X0475846Y0182031D01*
X0474847Y0183029D02*
X0447442Y0183029D01*
X0447442Y0184028D02*
X0473849Y0184028D01*
X0472850Y0185026D02*
X0446450Y0185026D01*
X0445451Y0186025D02*
X0471852Y0186025D01*
X0470853Y0187023D02*
X0445899Y0187023D01*
X0446897Y0188022D02*
X0469855Y0188022D01*
X0468856Y0189020D02*
X0447442Y0189020D01*
X0447442Y0190019D02*
X0467858Y0190019D01*
X0466859Y0191017D02*
X0447442Y0191017D01*
X0447442Y0192016D02*
X0465861Y0192016D01*
X0464862Y0193014D02*
X0447442Y0193014D01*
X0447442Y0194013D02*
X0463864Y0194013D01*
X0462865Y0195011D02*
X0446464Y0195011D01*
X0445466Y0196010D02*
X0461867Y0196010D01*
X0460868Y0197008D02*
X0445884Y0197008D01*
X0446882Y0198007D02*
X0459870Y0198007D01*
X0458871Y0199005D02*
X0447442Y0199005D01*
X0447442Y0200004D02*
X0457873Y0200004D01*
X0456874Y0201002D02*
X0447442Y0201002D01*
X0447442Y0202001D02*
X0455876Y0202001D01*
X0454877Y0202999D02*
X0447442Y0202999D01*
X0447442Y0203998D02*
X0453879Y0203998D01*
X0452880Y0204996D02*
X0446479Y0204996D01*
X0445481Y0205995D02*
X0451882Y0205995D01*
X0448556Y0206993D02*
X0445869Y0206993D01*
X0446867Y0207992D02*
X0447381Y0207992D01*
X0489558Y0219974D02*
X0490305Y0219974D01*
X0490557Y0218975D02*
X0490690Y0218975D01*
X0500500Y0221971D02*
X0521942Y0221971D01*
X0521942Y0222970D02*
X0500267Y0222970D01*
X0499818Y0223968D02*
X0521942Y0223968D01*
X0521942Y0224967D02*
X0499029Y0224967D01*
X0500341Y0225965D02*
X0521942Y0225965D01*
X0521942Y0226964D02*
X0501339Y0226964D01*
X0502103Y0227962D02*
X0521942Y0227962D01*
X0521942Y0228961D02*
X0502517Y0228961D01*
X0502930Y0229959D02*
X0521667Y0229959D01*
X0520669Y0230958D02*
X0502942Y0230958D01*
X0502942Y0231956D02*
X0519670Y0231956D01*
X0518672Y0232955D02*
X0502800Y0232955D01*
X0502387Y0233953D02*
X0517673Y0233953D01*
X0516675Y0234952D02*
X0501973Y0234952D01*
X0501025Y0235950D02*
X0515676Y0235950D01*
X0514678Y0236949D02*
X0500324Y0236949D01*
X0501097Y0237947D02*
X0513679Y0237947D01*
X0512681Y0238946D02*
X0501510Y0238946D01*
X0501924Y0239944D02*
X0511682Y0239944D01*
X0510684Y0240943D02*
X0501942Y0240943D01*
X0501942Y0241941D02*
X0509685Y0241941D01*
X0508687Y0242940D02*
X0501806Y0242940D01*
X0501393Y0243938D02*
X0507688Y0243938D01*
X0506690Y0244937D02*
X0500979Y0244937D01*
X0500040Y0245935D02*
X0505691Y0245935D01*
X0504693Y0246934D02*
X0498987Y0246934D01*
X0529742Y0219974D02*
X0530305Y0219974D01*
X0530557Y0218975D02*
X0530690Y0218975D01*
X0583622Y0179035D02*
X0625716Y0179035D01*
X0626715Y0178037D02*
X0584621Y0178037D01*
X0585619Y0177038D02*
X0627713Y0177038D01*
X0628712Y0176039D02*
X0586618Y0176039D01*
X0587616Y0175041D02*
X0629710Y0175041D01*
X0630709Y0174042D02*
X0588615Y0174042D01*
X0589613Y0173044D02*
X0631707Y0173044D01*
X0632706Y0172045D02*
X0590612Y0172045D01*
X0591610Y0171047D02*
X0633704Y0171047D01*
X0634703Y0170048D02*
X0592609Y0170048D01*
X0593607Y0169050D02*
X0635701Y0169050D01*
X0636700Y0168051D02*
X0594606Y0168051D01*
X0595604Y0167053D02*
X0637698Y0167053D01*
X0667242Y0141092D02*
X0708792Y0141092D01*
X0707281Y0140093D02*
X0667242Y0140093D01*
X0667242Y0139095D02*
X0706445Y0139095D01*
X0705958Y0138096D02*
X0667242Y0138096D01*
X0667242Y0137098D02*
X0705703Y0137098D01*
X0705767Y0135101D02*
X0678963Y0135101D01*
X0681227Y0134102D02*
X0706126Y0134102D01*
X0706737Y0133103D02*
X0682226Y0133103D01*
X0683224Y0132105D02*
X0707610Y0132105D01*
X0706314Y0131106D02*
X0683944Y0131106D01*
X0684358Y0130108D02*
X0705316Y0130108D01*
X0704862Y0129109D02*
X0684771Y0129109D01*
X0685167Y0128111D02*
X0704448Y0128111D01*
X0704242Y0127112D02*
X0685167Y0127112D01*
X0685167Y0126114D02*
X0704242Y0126114D01*
X0704242Y0125115D02*
X0685167Y0125115D01*
X0685031Y0124117D02*
X0704602Y0124117D01*
X0705016Y0123118D02*
X0684617Y0123118D01*
X0684204Y0122120D02*
X0705688Y0122120D01*
X0706329Y0121121D02*
X0683790Y0121121D01*
X0682852Y0120123D02*
X0705331Y0120123D01*
X0704868Y0119124D02*
X0681854Y0119124D01*
X0680475Y0118126D02*
X0704454Y0118126D01*
X0704242Y0117127D02*
X0678064Y0117127D01*
X0704242Y0116129D02*
X0641817Y0116129D01*
X0642815Y0115130D02*
X0704242Y0115130D01*
X0704596Y0114132D02*
X0643524Y0114132D01*
X0643938Y0113133D02*
X0705010Y0113133D01*
X0705673Y0112135D02*
X0644213Y0112135D01*
X0644213Y0111136D02*
X0706344Y0111136D01*
X0715339Y0111136D02*
X0722642Y0111136D01*
X0722642Y0110138D02*
X0716338Y0110138D01*
X0716810Y0109139D02*
X0722642Y0109139D01*
X0722642Y0108141D02*
X0717223Y0108141D01*
X0717442Y0107142D02*
X0722642Y0107142D01*
X0722642Y0106144D02*
X0717442Y0106144D01*
X0717442Y0105145D02*
X0722642Y0105145D01*
X0722642Y0104147D02*
X0717094Y0104147D01*
X0716680Y0103148D02*
X0722642Y0103148D01*
X0722642Y0102150D02*
X0716025Y0102150D01*
X0715324Y0101151D02*
X0722642Y0101151D01*
X0722642Y0100153D02*
X0716323Y0100153D01*
X0716803Y0099154D02*
X0722642Y0099154D01*
X0722642Y0098156D02*
X0717217Y0098156D01*
X0717442Y0097157D02*
X0722642Y0097157D01*
X0722642Y0096159D02*
X0717442Y0096159D01*
X0717442Y0095160D02*
X0722642Y0095160D01*
X0722642Y0094162D02*
X0717100Y0094162D01*
X0716686Y0093163D02*
X0722642Y0093163D01*
X0722642Y0092165D02*
X0716040Y0092165D01*
X0715310Y0091166D02*
X0722642Y0091166D01*
X0722642Y0090168D02*
X0716308Y0090168D01*
X0716797Y0089169D02*
X0722642Y0089169D01*
X0722642Y0088170D02*
X0717211Y0088170D01*
X0717442Y0087172D02*
X0722642Y0087172D01*
X0722642Y0086173D02*
X0717442Y0086173D01*
X0717442Y0085175D02*
X0722642Y0085175D01*
X0722642Y0084176D02*
X0717106Y0084176D01*
X0716692Y0083178D02*
X0722642Y0083178D01*
X0722642Y0082179D02*
X0716055Y0082179D01*
X0715295Y0081181D02*
X0722642Y0081181D01*
X0722642Y0080182D02*
X0716293Y0080182D01*
X0716791Y0079184D02*
X0722642Y0079184D01*
X0722642Y0078185D02*
X0717205Y0078185D01*
X0717442Y0077187D02*
X0722642Y0077187D01*
X0722642Y0076188D02*
X0717442Y0076188D01*
X0717442Y0075190D02*
X0722642Y0075190D01*
X0722642Y0074191D02*
X0717112Y0074191D01*
X0716699Y0073193D02*
X0722642Y0073193D01*
X0722642Y0072194D02*
X0716070Y0072194D01*
X0715280Y0071196D02*
X0722642Y0071196D01*
X0722642Y0070197D02*
X0716278Y0070197D01*
X0716785Y0069199D02*
X0722642Y0069199D01*
X0722642Y0068200D02*
X0717198Y0068200D01*
X0717442Y0067202D02*
X0722642Y0067202D01*
X0722642Y0066203D02*
X0717442Y0066203D01*
X0717442Y0065205D02*
X0722642Y0065205D01*
X0722642Y0064206D02*
X0717118Y0064206D01*
X0716705Y0063208D02*
X0722642Y0063208D01*
X0722642Y0062209D02*
X0716085Y0062209D01*
X0715265Y0061211D02*
X0722642Y0061211D01*
X0722642Y0060212D02*
X0716263Y0060212D01*
X0716779Y0059214D02*
X0722642Y0059214D01*
X0722642Y0058215D02*
X0717192Y0058215D01*
X0717442Y0057217D02*
X0722642Y0057217D01*
X0722642Y0056218D02*
X0717442Y0056218D01*
X0717442Y0055220D02*
X0722642Y0055220D01*
X0722642Y0054221D02*
X0717124Y0054221D01*
X0716711Y0053223D02*
X0722642Y0053223D01*
X0722642Y0052224D02*
X0716100Y0052224D01*
X0715250Y0051226D02*
X0722642Y0051226D01*
X0722642Y0050227D02*
X0716249Y0050227D01*
X0716773Y0049229D02*
X0722642Y0049229D01*
X0722642Y0048230D02*
X0717186Y0048230D01*
X0717442Y0047232D02*
X0722642Y0047232D01*
X0722642Y0046233D02*
X0717442Y0046233D01*
X0717442Y0045234D02*
X0722642Y0045234D01*
X0722642Y0044236D02*
X0717131Y0044236D01*
X0716717Y0043237D02*
X0722642Y0043237D01*
X0722642Y0042239D02*
X0716115Y0042239D01*
X0715116Y0041240D02*
X0722642Y0041240D01*
X0722642Y0040242D02*
X0713463Y0040242D01*
X0708221Y0040242D02*
X0669049Y0040242D01*
X0668051Y0039243D02*
X0722642Y0039243D01*
X0722642Y0038245D02*
X0667052Y0038245D01*
X0666054Y0037246D02*
X0722642Y0037246D01*
X0722642Y0036248D02*
X0665055Y0036248D01*
X0664057Y0035249D02*
X0722642Y0035249D01*
X0722642Y0034251D02*
X0663058Y0034251D01*
X0662060Y0033252D02*
X0722642Y0033252D01*
X0722642Y0032254D02*
X0661061Y0032254D01*
X0660063Y0031255D02*
X0702202Y0031255D01*
X0700460Y0030621D02*
X0703973Y0031900D01*
X0707711Y0031900D01*
X0711224Y0030621D01*
X0711224Y0030621D01*
X0714087Y0028219D01*
X0714087Y0028219D01*
X0715956Y0024981D01*
X0715956Y0024981D01*
X0716605Y0021300D01*
X0716605Y0021300D01*
X0715956Y0017619D01*
X0715956Y0017619D01*
X0714087Y0014381D01*
X0714087Y0014381D01*
X0711224Y0011979D01*
X0711224Y0011979D01*
X0707711Y0010700D01*
X0705185Y0010700D01*
X0703973Y0010700D01*
X0700460Y0011979D01*
X0700460Y0011979D01*
X0697596Y0014381D01*
X0697596Y0014381D01*
X0695727Y0017619D01*
X0695727Y0017619D01*
X0695078Y0021300D01*
X0695078Y0021300D01*
X0695727Y0024981D01*
X0695727Y0024981D01*
X0697596Y0028219D01*
X0697596Y0028219D01*
X0697596Y0028219D01*
X0700460Y0030621D01*
X0700460Y0030621D01*
X0700025Y0030257D02*
X0678585Y0030257D01*
X0677697Y0030625D02*
X0673987Y0030625D01*
X0670560Y0029205D01*
X0667936Y0026582D01*
X0666517Y0023155D01*
X0666517Y0019445D01*
X0667936Y0016018D01*
X0670560Y0013395D01*
X0673987Y0011975D01*
X0677697Y0011975D01*
X0681124Y0013395D01*
X0683747Y0016018D01*
X0685167Y0019445D01*
X0685167Y0023155D01*
X0683747Y0026582D01*
X0681124Y0029205D01*
X0677697Y0030625D01*
X0680996Y0029258D02*
X0698836Y0029258D01*
X0697646Y0028260D02*
X0682070Y0028260D01*
X0683068Y0027261D02*
X0697044Y0027261D01*
X0696467Y0026263D02*
X0683879Y0026263D01*
X0684293Y0025264D02*
X0695891Y0025264D01*
X0695601Y0024266D02*
X0684707Y0024266D01*
X0685120Y0023267D02*
X0695425Y0023267D01*
X0695249Y0022269D02*
X0685167Y0022269D01*
X0685167Y0021270D02*
X0695084Y0021270D01*
X0695260Y0020272D02*
X0685167Y0020272D01*
X0685096Y0019273D02*
X0695436Y0019273D01*
X0695612Y0018275D02*
X0684682Y0018275D01*
X0684268Y0017276D02*
X0695925Y0017276D01*
X0696502Y0016278D02*
X0683855Y0016278D01*
X0683009Y0015279D02*
X0697078Y0015279D01*
X0697716Y0014281D02*
X0682010Y0014281D01*
X0680852Y0013282D02*
X0698906Y0013282D01*
X0700096Y0012284D02*
X0678442Y0012284D01*
X0673242Y0012284D02*
X0641091Y0012284D01*
X0642089Y0013282D02*
X0670831Y0013282D01*
X0669674Y0014281D02*
X0643088Y0014281D01*
X0644086Y0015279D02*
X0668675Y0015279D01*
X0667829Y0016278D02*
X0645085Y0016278D01*
X0646083Y0017276D02*
X0667415Y0017276D01*
X0667002Y0018275D02*
X0647082Y0018275D01*
X0648080Y0019273D02*
X0666588Y0019273D01*
X0666517Y0020272D02*
X0649079Y0020272D01*
X0650077Y0021270D02*
X0666517Y0021270D01*
X0666517Y0022269D02*
X0651076Y0022269D01*
X0652074Y0023267D02*
X0666563Y0023267D01*
X0666977Y0024266D02*
X0653073Y0024266D01*
X0654071Y0025264D02*
X0667391Y0025264D01*
X0667804Y0026263D02*
X0655070Y0026263D01*
X0656069Y0027261D02*
X0668616Y0027261D01*
X0669614Y0028260D02*
X0657067Y0028260D01*
X0658066Y0029258D02*
X0670688Y0029258D01*
X0673098Y0030257D02*
X0659064Y0030257D01*
X0655640Y0042239D02*
X0543334Y0042239D01*
X0542697Y0041975D02*
X0546124Y0043395D01*
X0548747Y0046018D01*
X0550167Y0049445D01*
X0550167Y0053155D01*
X0548747Y0056582D01*
X0546124Y0059205D01*
X0542697Y0060625D01*
X0538987Y0060625D01*
X0535560Y0059205D01*
X0532936Y0056582D01*
X0531517Y0053155D01*
X0531517Y0049445D01*
X0532936Y0046018D01*
X0535560Y0043395D01*
X0538987Y0041975D01*
X0542697Y0041975D01*
X0545745Y0043237D02*
X0656639Y0043237D01*
X0657637Y0044236D02*
X0546965Y0044236D01*
X0547964Y0045234D02*
X0658636Y0045234D01*
X0659634Y0046233D02*
X0548836Y0046233D01*
X0549250Y0047232D02*
X0660633Y0047232D01*
X0661631Y0048230D02*
X0549663Y0048230D01*
X0550077Y0049229D02*
X0662630Y0049229D01*
X0663628Y0050227D02*
X0550167Y0050227D01*
X0550167Y0051226D02*
X0664627Y0051226D01*
X0665625Y0052224D02*
X0550167Y0052224D01*
X0550139Y0053223D02*
X0666624Y0053223D01*
X0667622Y0054221D02*
X0549725Y0054221D01*
X0549312Y0055220D02*
X0668621Y0055220D01*
X0669620Y0056218D02*
X0548898Y0056218D01*
X0548113Y0057217D02*
X0670618Y0057217D01*
X0671617Y0058215D02*
X0547114Y0058215D01*
X0546104Y0059214D02*
X0672615Y0059214D01*
X0673614Y0060212D02*
X0543693Y0060212D01*
X0537990Y0060212D02*
X0504019Y0060212D01*
X0503021Y0059214D02*
X0535580Y0059214D01*
X0534569Y0058215D02*
X0502022Y0058215D01*
X0501024Y0057217D02*
X0533571Y0057217D01*
X0532786Y0056218D02*
X0500025Y0056218D01*
X0499027Y0055220D02*
X0532372Y0055220D01*
X0531958Y0054221D02*
X0498028Y0054221D01*
X0497030Y0053223D02*
X0531545Y0053223D01*
X0531517Y0052224D02*
X0496031Y0052224D01*
X0495033Y0051226D02*
X0531517Y0051226D01*
X0531517Y0050227D02*
X0494034Y0050227D01*
X0493036Y0049229D02*
X0531607Y0049229D01*
X0532020Y0048230D02*
X0492037Y0048230D01*
X0491039Y0047232D02*
X0532434Y0047232D01*
X0532847Y0046233D02*
X0490040Y0046233D01*
X0489042Y0045234D02*
X0533720Y0045234D01*
X0534718Y0044236D02*
X0488043Y0044236D01*
X0487045Y0043237D02*
X0535939Y0043237D01*
X0538350Y0042239D02*
X0486046Y0042239D01*
X0476753Y0050227D02*
X0447442Y0050227D01*
X0447442Y0051226D02*
X0477752Y0051226D01*
X0478750Y0052224D02*
X0447442Y0052224D01*
X0447189Y0053223D02*
X0479749Y0053223D01*
X0480747Y0054221D02*
X0446776Y0054221D01*
X0446256Y0055220D02*
X0481746Y0055220D01*
X0482745Y0056218D02*
X0445257Y0056218D01*
X0446092Y0057217D02*
X0483743Y0057217D01*
X0484742Y0058215D02*
X0482434Y0058215D01*
X0483649Y0059214D02*
X0485740Y0059214D01*
X0486739Y0060212D02*
X0484502Y0060212D01*
X0484915Y0061211D02*
X0487737Y0061211D01*
X0488736Y0062209D02*
X0485262Y0062209D01*
X0485262Y0063208D02*
X0489734Y0063208D01*
X0490733Y0064206D02*
X0485262Y0064206D01*
X0484888Y0065205D02*
X0491731Y0065205D01*
X0492730Y0066203D02*
X0484475Y0066203D01*
X0483584Y0067202D02*
X0493728Y0067202D01*
X0494727Y0068200D02*
X0482276Y0068200D01*
X0479083Y0069199D02*
X0495725Y0069199D01*
X0496724Y0070197D02*
X0478085Y0070197D01*
X0477821Y0071196D02*
X0477086Y0071196D01*
X0476644Y0072194D02*
X0476088Y0072194D01*
X0475773Y0073193D02*
X0475089Y0073193D01*
X0475360Y0074191D02*
X0474091Y0074191D01*
X0474970Y0075190D02*
X0472267Y0075190D01*
X0474970Y0076188D02*
X0445287Y0076188D01*
X0446062Y0077187D02*
X0474970Y0077187D01*
X0475267Y0078185D02*
X0447061Y0078185D01*
X0447442Y0079184D02*
X0475681Y0079184D01*
X0476420Y0080182D02*
X0447442Y0080182D01*
X0447442Y0081181D02*
X0477419Y0081181D01*
X0484265Y0081181D02*
X0487419Y0081181D01*
X0486420Y0080182D02*
X0485263Y0080182D01*
X0494265Y0081181D02*
X0497419Y0081181D01*
X0496420Y0080182D02*
X0495263Y0080182D01*
X0502076Y0085175D02*
X0446301Y0085175D01*
X0447299Y0084176D02*
X0503075Y0084176D01*
X0504073Y0083178D02*
X0447442Y0083178D01*
X0447442Y0082179D02*
X0513822Y0082179D01*
X0514265Y0081181D02*
X0514820Y0081181D01*
X0515263Y0080182D02*
X0515819Y0080182D01*
X0521857Y0085175D02*
X0696317Y0085175D01*
X0696317Y0086173D02*
X0520859Y0086173D01*
X0519860Y0087172D02*
X0696616Y0087172D01*
X0697197Y0088170D02*
X0518862Y0088170D01*
X0517863Y0089169D02*
X0698195Y0089169D01*
X0699194Y0090168D02*
X0683450Y0090168D01*
X0684455Y0091166D02*
X0700192Y0091166D01*
X0701191Y0092165D02*
X0685012Y0092165D01*
X0685268Y0093163D02*
X0702189Y0093163D01*
X0704467Y0098156D02*
X0682558Y0098156D01*
X0674970Y0103148D02*
X0516955Y0103148D01*
X0517898Y0104091D02*
X0517898Y0104091D01*
X0517954Y0104147D02*
X0674970Y0104147D01*
X0675044Y0105145D02*
X0518952Y0105145D01*
X0517389Y0101151D02*
X0514294Y0101151D01*
X0515293Y0100153D02*
X0516391Y0100153D01*
X0524294Y0101151D02*
X0527389Y0101151D01*
X0526391Y0100153D02*
X0525293Y0100153D01*
X0534294Y0101151D02*
X0537389Y0101151D01*
X0536391Y0100153D02*
X0535293Y0100153D01*
X0535010Y0092165D02*
X0536673Y0092165D01*
X0537893Y0091166D02*
X0533791Y0091166D01*
X0527893Y0091166D02*
X0523791Y0091166D01*
X0525010Y0092165D02*
X0526673Y0092165D01*
X0517893Y0091166D02*
X0513791Y0091166D01*
X0515010Y0092165D02*
X0516673Y0092165D01*
X0516071Y0090168D02*
X0678234Y0090168D01*
X0677228Y0091166D02*
X0543791Y0091166D01*
X0545010Y0092165D02*
X0676671Y0092165D01*
X0676415Y0093163D02*
X0545898Y0093163D01*
X0543072Y0080182D02*
X0676420Y0080182D01*
X0675864Y0079626D02*
X0674970Y0077468D01*
X0674970Y0075132D01*
X0675864Y0072974D01*
X0677516Y0071322D01*
X0679674Y0070428D01*
X0682010Y0070428D01*
X0684168Y0071322D01*
X0685820Y0072974D01*
X0686713Y0075132D01*
X0686713Y0077468D01*
X0685820Y0079626D01*
X0684168Y0081278D01*
X0682010Y0082172D01*
X0679674Y0082172D01*
X0677516Y0081278D01*
X0675864Y0079626D01*
X0675681Y0079184D02*
X0544274Y0079184D01*
X0544900Y0078185D02*
X0675267Y0078185D01*
X0674970Y0077187D02*
X0545229Y0077187D01*
X0545308Y0075914D02*
X0541228Y0075914D01*
X0541228Y0071834D01*
X0541889Y0071938D01*
X0542558Y0072156D01*
X0543185Y0072475D01*
X0543755Y0072889D01*
X0544253Y0073387D01*
X0544666Y0073956D01*
X0544986Y0074583D01*
X0545203Y0075253D01*
X0545308Y0075914D01*
X0545183Y0075190D02*
X0674970Y0075190D01*
X0674970Y0076188D02*
X0541228Y0076188D01*
X0541228Y0075190D02*
X0540456Y0075190D01*
X0540456Y0074191D02*
X0541228Y0074191D01*
X0541228Y0073193D02*
X0540456Y0073193D01*
X0540456Y0072194D02*
X0541228Y0072194D01*
X0542634Y0072194D02*
X0676644Y0072194D01*
X0675773Y0073193D02*
X0544058Y0073193D01*
X0544786Y0074191D02*
X0675360Y0074191D01*
X0677821Y0071196D02*
X0533863Y0071196D01*
X0535040Y0072194D02*
X0539050Y0072194D01*
X0537625Y0073193D02*
X0535910Y0073193D01*
X0536324Y0074191D02*
X0536898Y0074191D01*
X0536784Y0078185D02*
X0536416Y0078185D01*
X0536003Y0079184D02*
X0537410Y0079184D01*
X0538612Y0080182D02*
X0535263Y0080182D01*
X0534265Y0081181D02*
X0677419Y0081181D01*
X0684265Y0081181D02*
X0694582Y0081181D01*
X0693584Y0080182D02*
X0685263Y0080182D01*
X0686003Y0079184D02*
X0692585Y0079184D01*
X0691587Y0078185D02*
X0686416Y0078185D01*
X0686713Y0077187D02*
X0690588Y0077187D01*
X0689590Y0076188D02*
X0686713Y0076188D01*
X0686713Y0075190D02*
X0688591Y0075190D01*
X0687593Y0074191D02*
X0686324Y0074191D01*
X0686594Y0073193D02*
X0685910Y0073193D01*
X0685596Y0072194D02*
X0685040Y0072194D01*
X0684597Y0071196D02*
X0683863Y0071196D01*
X0683599Y0070197D02*
X0523981Y0070197D01*
X0524117Y0071196D02*
X0527821Y0071196D01*
X0526644Y0072194D02*
X0525040Y0072194D01*
X0523568Y0069199D02*
X0682600Y0069199D01*
X0681602Y0068200D02*
X0522632Y0068200D01*
X0521634Y0067202D02*
X0680603Y0067202D01*
X0679605Y0066203D02*
X0520635Y0066203D01*
X0519637Y0065205D02*
X0678606Y0065205D01*
X0677608Y0064206D02*
X0518638Y0064206D01*
X0517640Y0063208D02*
X0676609Y0063208D01*
X0675611Y0062209D02*
X0506016Y0062209D01*
X0505018Y0061211D02*
X0674612Y0061211D01*
X0682030Y0053223D02*
X0704973Y0053223D01*
X0704559Y0054221D02*
X0683028Y0054221D01*
X0684027Y0055220D02*
X0704242Y0055220D01*
X0704242Y0056218D02*
X0685025Y0056218D01*
X0686024Y0057217D02*
X0704242Y0057217D01*
X0704491Y0058215D02*
X0687022Y0058215D01*
X0688021Y0059214D02*
X0704905Y0059214D01*
X0705420Y0060212D02*
X0689019Y0060212D01*
X0690018Y0061211D02*
X0706419Y0061211D01*
X0705599Y0062209D02*
X0691016Y0062209D01*
X0692015Y0063208D02*
X0704979Y0063208D01*
X0704565Y0064206D02*
X0693013Y0064206D01*
X0694012Y0065205D02*
X0704242Y0065205D01*
X0704242Y0066203D02*
X0695010Y0066203D01*
X0696009Y0067202D02*
X0704242Y0067202D01*
X0704485Y0068200D02*
X0697007Y0068200D01*
X0698006Y0069199D02*
X0704899Y0069199D01*
X0705405Y0070197D02*
X0699005Y0070197D01*
X0700003Y0071196D02*
X0706404Y0071196D01*
X0705614Y0072194D02*
X0701002Y0072194D01*
X0702000Y0073193D02*
X0704985Y0073193D01*
X0704571Y0074191D02*
X0702999Y0074191D01*
X0703997Y0075190D02*
X0704242Y0075190D01*
X0695581Y0082179D02*
X0524440Y0082179D01*
X0524742Y0081181D02*
X0527419Y0081181D01*
X0526420Y0080182D02*
X0525263Y0080182D01*
X0523854Y0083178D02*
X0696317Y0083178D01*
X0696317Y0084176D02*
X0522856Y0084176D01*
X0507419Y0081181D02*
X0504265Y0081181D01*
X0505263Y0080182D02*
X0506420Y0080182D01*
X0501078Y0086173D02*
X0445302Y0086173D01*
X0446048Y0087172D02*
X0500079Y0087172D01*
X0499081Y0088170D02*
X0447046Y0088170D01*
X0447442Y0089169D02*
X0498128Y0089169D01*
X0497715Y0090168D02*
X0447442Y0090168D01*
X0447442Y0091166D02*
X0487893Y0091166D01*
X0486673Y0092165D02*
X0482575Y0092165D01*
X0481228Y0092165D02*
X0480456Y0092165D01*
X0480456Y0091834D02*
X0480456Y0095914D01*
X0476376Y0095914D01*
X0476480Y0095253D01*
X0476698Y0094583D01*
X0477017Y0093956D01*
X0477431Y0093387D01*
X0477929Y0092889D01*
X0478498Y0092475D01*
X0479125Y0092156D01*
X0479795Y0091938D01*
X0480456Y0091834D01*
X0480456Y0093163D02*
X0481228Y0093163D01*
X0481228Y0094162D02*
X0480456Y0094162D01*
X0480456Y0095160D02*
X0481228Y0095160D01*
X0480456Y0096159D02*
X0445317Y0096159D01*
X0446033Y0097157D02*
X0476450Y0097157D01*
X0476769Y0098156D02*
X0447031Y0098156D01*
X0447442Y0099154D02*
X0477388Y0099154D01*
X0478553Y0100153D02*
X0447442Y0100153D01*
X0447442Y0101151D02*
X0487389Y0101151D01*
X0486391Y0100153D02*
X0483130Y0100153D01*
X0484295Y0099154D02*
X0485669Y0099154D01*
X0485255Y0098156D02*
X0484915Y0098156D01*
X0481228Y0098156D02*
X0480456Y0098156D01*
X0480456Y0099154D02*
X0481228Y0099154D01*
X0481228Y0100153D02*
X0480456Y0100153D01*
X0480456Y0097157D02*
X0481228Y0097157D01*
X0484771Y0094162D02*
X0485372Y0094162D01*
X0485786Y0093163D02*
X0484029Y0093163D01*
X0479108Y0092165D02*
X0447442Y0092165D01*
X0447442Y0093163D02*
X0477655Y0093163D01*
X0476913Y0094162D02*
X0447314Y0094162D01*
X0446316Y0095160D02*
X0476510Y0095160D01*
X0489621Y0102150D02*
X0447442Y0102150D01*
X0447442Y0103148D02*
X0498011Y0103148D01*
X0497597Y0102150D02*
X0492063Y0102150D01*
X0494294Y0101151D02*
X0497389Y0101151D01*
X0496391Y0100153D02*
X0495293Y0100153D01*
X0498798Y0104147D02*
X0447329Y0104147D01*
X0493791Y0091166D02*
X0497567Y0091166D01*
X0496673Y0092165D02*
X0495010Y0092165D01*
X0506118Y0092165D02*
X0506673Y0092165D01*
X0507116Y0091166D02*
X0507893Y0091166D01*
X0496644Y0072194D02*
X0495040Y0072194D01*
X0493863Y0071196D02*
X0497722Y0071196D01*
X0487821Y0071196D02*
X0483863Y0071196D01*
X0485040Y0072194D02*
X0486644Y0072194D01*
X0473922Y0063208D02*
X0447442Y0063208D01*
X0447442Y0062209D02*
X0473922Y0062209D01*
X0474268Y0061211D02*
X0447442Y0061211D01*
X0447442Y0060212D02*
X0474682Y0060212D01*
X0475535Y0059214D02*
X0447442Y0059214D01*
X0447091Y0058215D02*
X0476750Y0058215D01*
X0473045Y0064206D02*
X0447269Y0064206D01*
X0446271Y0065205D02*
X0472047Y0065205D01*
X0471048Y0066203D02*
X0445272Y0066203D01*
X0446077Y0067202D02*
X0470050Y0067202D01*
X0475755Y0049229D02*
X0447128Y0049229D01*
X0446714Y0048230D02*
X0474756Y0048230D01*
X0473758Y0047232D02*
X0446107Y0047232D01*
X0445109Y0046233D02*
X0472759Y0046233D01*
X0471761Y0045234D02*
X0443445Y0045234D01*
X0438239Y0045234D02*
X0433445Y0045234D01*
X0435109Y0046233D02*
X0436575Y0046233D01*
X0428239Y0045234D02*
X0422786Y0045234D01*
X0423700Y0046233D02*
X0426575Y0046233D01*
X0425576Y0047232D02*
X0424114Y0047232D01*
X0424527Y0048230D02*
X0424970Y0048230D01*
X0421787Y0044236D02*
X0470762Y0044236D01*
X0469764Y0043237D02*
X0420416Y0043237D01*
X0418005Y0042239D02*
X0468765Y0042239D01*
X0413678Y0042239D02*
X0411668Y0042239D01*
X0411268Y0043237D02*
X0410670Y0043237D01*
X0409896Y0044236D02*
X0409671Y0044236D01*
X0408898Y0045234D02*
X0408673Y0045234D01*
X0407983Y0046233D02*
X0407674Y0046233D01*
X0407570Y0047232D02*
X0406676Y0047232D01*
X0406714Y0048230D02*
X0407156Y0048230D01*
X0306942Y0037246D02*
X0054042Y0037246D01*
X0054042Y0036248D02*
X0306942Y0036248D01*
X0306942Y0035249D02*
X0054042Y0035249D01*
X0054042Y0034251D02*
X0306942Y0034251D01*
X0306942Y0033252D02*
X0054042Y0033252D01*
X0054042Y0032254D02*
X0306942Y0032254D01*
X0306942Y0031255D02*
X0074482Y0031255D01*
X0076224Y0030621D02*
X0072711Y0031900D01*
X0068973Y0031900D01*
X0065460Y0030621D01*
X0062596Y0028219D01*
X0060727Y0024981D01*
X0060078Y0021300D01*
X0060727Y0017619D01*
X0060727Y0017619D01*
X0062596Y0014381D01*
X0065460Y0011979D01*
X0068973Y0010700D01*
X0070185Y0010700D01*
X0072711Y0010700D01*
X0076224Y0011979D01*
X0079087Y0014381D01*
X0079087Y0014381D01*
X0079087Y0014381D01*
X0080956Y0017619D01*
X0081605Y0021300D01*
X0080956Y0024981D01*
X0080956Y0024981D01*
X0079087Y0028219D01*
X0076224Y0030621D01*
X0076224Y0030621D01*
X0076658Y0030257D02*
X0306942Y0030257D01*
X0306942Y0029258D02*
X0077848Y0029258D01*
X0079038Y0028260D02*
X0306942Y0028260D01*
X0306942Y0027261D02*
X0079640Y0027261D01*
X0079087Y0028219D02*
X0079087Y0028219D01*
X0080216Y0026263D02*
X0306942Y0026263D01*
X0306942Y0025264D02*
X0080793Y0025264D01*
X0081082Y0024266D02*
X0306942Y0024266D01*
X0306942Y0023267D02*
X0081258Y0023267D01*
X0081435Y0022269D02*
X0306942Y0022269D01*
X0306942Y0021270D02*
X0081600Y0021270D01*
X0081605Y0021300D02*
X0081605Y0021300D01*
X0081424Y0020272D02*
X0306942Y0020272D01*
X0306942Y0019273D02*
X0303064Y0019273D01*
X0304951Y0018275D02*
X0306942Y0018275D01*
X0306734Y0017276D02*
X0305949Y0017276D01*
X0298619Y0019273D02*
X0081248Y0019273D01*
X0081072Y0018275D02*
X0296733Y0018275D01*
X0295734Y0017276D02*
X0080758Y0017276D01*
X0080956Y0017619D02*
X0080956Y0017619D01*
X0080182Y0016278D02*
X0287814Y0016278D01*
X0286760Y0015279D02*
X0079605Y0015279D01*
X0078967Y0014281D02*
X0286142Y0014281D01*
X0285775Y0013282D02*
X0077777Y0013282D01*
X0076587Y0012284D02*
X0290342Y0012284D01*
X0290342Y0011550D02*
X0285656Y0011550D01*
X0285770Y0010832D01*
X0286023Y0010054D01*
X0286394Y0009325D01*
X0286875Y0008662D01*
X0287454Y0008084D01*
X0288116Y0007603D01*
X0288846Y0007231D01*
X0289624Y0006978D01*
X0290342Y0006864D01*
X0290342Y0011550D01*
X0290342Y0011285D02*
X0291342Y0011285D01*
X0291342Y0010287D02*
X0290342Y0010287D01*
X0290342Y0009288D02*
X0291342Y0009288D01*
X0291342Y0008290D02*
X0290342Y0008290D01*
X0290342Y0007291D02*
X0291342Y0007291D01*
X0292956Y0007291D02*
X0297498Y0007291D01*
X0296268Y0008290D02*
X0294435Y0008290D01*
X0295263Y0009288D02*
X0295270Y0009288D01*
X0291342Y0013282D02*
X0290342Y0013282D01*
X0290342Y0014281D02*
X0291342Y0014281D01*
X0291342Y0015279D02*
X0290342Y0015279D01*
X0290342Y0016278D02*
X0291342Y0016278D01*
X0293870Y0016278D02*
X0295035Y0016278D01*
X0285698Y0011285D02*
X0074318Y0011285D01*
X0076224Y0011979D02*
X0076224Y0011979D01*
X0067365Y0011285D02*
X0054042Y0011285D01*
X0054042Y0010287D02*
X0285947Y0010287D01*
X0286421Y0009288D02*
X0054042Y0009288D01*
X0054042Y0008290D02*
X0287248Y0008290D01*
X0288728Y0007291D02*
X0054042Y0007291D01*
X0054042Y0006293D02*
X0307495Y0006293D01*
X0306267Y0007291D02*
X0304185Y0007291D01*
X0306506Y0038245D02*
X0054042Y0038245D01*
X0054042Y0039243D02*
X0305508Y0039243D01*
X0304509Y0040242D02*
X0054042Y0040242D01*
X0054042Y0041240D02*
X0303511Y0041240D01*
X0288239Y0045234D02*
X0283445Y0045234D01*
X0285109Y0046233D02*
X0286575Y0046233D01*
X0278239Y0045234D02*
X0273445Y0045234D01*
X0275109Y0046233D02*
X0276575Y0046233D01*
X0268239Y0045234D02*
X0263445Y0045234D01*
X0265109Y0046233D02*
X0266575Y0046233D01*
X0258239Y0045234D02*
X0253445Y0045234D01*
X0255109Y0046233D02*
X0256575Y0046233D01*
X0248239Y0045234D02*
X0243445Y0045234D01*
X0245109Y0046233D02*
X0246575Y0046233D01*
X0238239Y0045234D02*
X0227445Y0045234D01*
X0228580Y0045705D02*
X0230437Y0047561D01*
X0231442Y0049987D01*
X0231442Y0052613D01*
X0230437Y0055039D01*
X0228580Y0056895D01*
X0226155Y0057900D01*
X0223529Y0057900D01*
X0221103Y0056895D01*
X0219842Y0055634D01*
X0218580Y0056895D01*
X0216155Y0057900D01*
X0213529Y0057900D01*
X0211103Y0056895D01*
X0209842Y0055634D01*
X0208580Y0056895D01*
X0206155Y0057900D01*
X0203529Y0057900D01*
X0201103Y0056895D01*
X0199842Y0055634D01*
X0198580Y0056895D01*
X0196155Y0057900D01*
X0193529Y0057900D01*
X0191103Y0056895D01*
X0189842Y0055634D01*
X0188580Y0056895D01*
X0186155Y0057900D01*
X0183529Y0057900D01*
X0181103Y0056895D01*
X0179842Y0055634D01*
X0178580Y0056895D01*
X0176155Y0057900D01*
X0173529Y0057900D01*
X0171103Y0056895D01*
X0169842Y0055634D01*
X0168580Y0056895D01*
X0166155Y0057900D01*
X0163529Y0057900D01*
X0161103Y0056895D01*
X0159842Y0055634D01*
X0158580Y0056895D01*
X0156155Y0057900D01*
X0153529Y0057900D01*
X0151103Y0056895D01*
X0149247Y0055039D01*
X0148242Y0052613D01*
X0148242Y0049987D01*
X0149247Y0047561D01*
X0151103Y0045705D01*
X0153529Y0044700D01*
X0156155Y0044700D01*
X0158580Y0045705D01*
X0159842Y0046966D01*
X0161103Y0045705D01*
X0163529Y0044700D01*
X0166155Y0044700D01*
X0168580Y0045705D01*
X0169842Y0046966D01*
X0171103Y0045705D01*
X0173529Y0044700D01*
X0176155Y0044700D01*
X0178580Y0045705D01*
X0179842Y0046966D01*
X0181103Y0045705D01*
X0183529Y0044700D01*
X0186155Y0044700D01*
X0188580Y0045705D01*
X0189842Y0046966D01*
X0191103Y0045705D01*
X0193529Y0044700D01*
X0196155Y0044700D01*
X0198580Y0045705D01*
X0199842Y0046966D01*
X0201103Y0045705D01*
X0203529Y0044700D01*
X0206155Y0044700D01*
X0208580Y0045705D01*
X0209842Y0046966D01*
X0211103Y0045705D01*
X0213529Y0044700D01*
X0216155Y0044700D01*
X0218580Y0045705D01*
X0219842Y0046966D01*
X0221103Y0045705D01*
X0223529Y0044700D01*
X0226155Y0044700D01*
X0228580Y0045705D01*
X0229109Y0046233D02*
X0236575Y0046233D01*
X0235576Y0047232D02*
X0230107Y0047232D01*
X0230714Y0048230D02*
X0234970Y0048230D01*
X0234556Y0049229D02*
X0231128Y0049229D01*
X0231442Y0050227D02*
X0234242Y0050227D01*
X0234242Y0051226D02*
X0231442Y0051226D01*
X0231442Y0052224D02*
X0234242Y0052224D01*
X0234494Y0053223D02*
X0231189Y0053223D01*
X0230776Y0054221D02*
X0234908Y0054221D01*
X0235428Y0055220D02*
X0230256Y0055220D01*
X0229257Y0056218D02*
X0236426Y0056218D01*
X0237879Y0057217D02*
X0227804Y0057217D01*
X0221879Y0057217D02*
X0217804Y0057217D01*
X0219257Y0056218D02*
X0220426Y0056218D01*
X0211879Y0057217D02*
X0207804Y0057217D01*
X0209257Y0056218D02*
X0210426Y0056218D01*
X0201879Y0057217D02*
X0197804Y0057217D01*
X0199257Y0056218D02*
X0200426Y0056218D01*
X0191879Y0057217D02*
X0187804Y0057217D01*
X0189257Y0056218D02*
X0190426Y0056218D01*
X0181879Y0057217D02*
X0177804Y0057217D01*
X0179257Y0056218D02*
X0180426Y0056218D01*
X0171879Y0057217D02*
X0167804Y0057217D01*
X0169257Y0056218D02*
X0170426Y0056218D01*
X0161879Y0057217D02*
X0157804Y0057217D01*
X0159257Y0056218D02*
X0160426Y0056218D01*
X0151879Y0057217D02*
X0127935Y0057217D01*
X0128762Y0056218D02*
X0150426Y0056218D01*
X0149428Y0055220D02*
X0129175Y0055220D01*
X0129589Y0054221D02*
X0148908Y0054221D01*
X0148494Y0053223D02*
X0130003Y0053223D01*
X0130041Y0052224D02*
X0148242Y0052224D01*
X0148242Y0051226D02*
X0130041Y0051226D01*
X0130041Y0050227D02*
X0148242Y0050227D01*
X0148556Y0049229D02*
X0129941Y0049229D01*
X0129527Y0048230D02*
X0148970Y0048230D01*
X0149576Y0047232D02*
X0129114Y0047232D01*
X0128700Y0046233D02*
X0150575Y0046233D01*
X0152239Y0045234D02*
X0127786Y0045234D01*
X0126936Y0058215D02*
X0246942Y0058215D01*
X0246942Y0057217D02*
X0243804Y0057217D01*
X0245257Y0056218D02*
X0246426Y0056218D01*
X0246942Y0059214D02*
X0125775Y0059214D01*
X0123365Y0060212D02*
X0246942Y0060212D01*
X0222239Y0045234D02*
X0217445Y0045234D01*
X0219109Y0046233D02*
X0220575Y0046233D01*
X0212239Y0045234D02*
X0207445Y0045234D01*
X0209109Y0046233D02*
X0210575Y0046233D01*
X0202239Y0045234D02*
X0197445Y0045234D01*
X0199109Y0046233D02*
X0200575Y0046233D01*
X0192239Y0045234D02*
X0187445Y0045234D01*
X0189109Y0046233D02*
X0190575Y0046233D01*
X0182239Y0045234D02*
X0177445Y0045234D01*
X0179109Y0046233D02*
X0180575Y0046233D01*
X0172239Y0045234D02*
X0167445Y0045234D01*
X0169109Y0046233D02*
X0170575Y0046233D01*
X0162239Y0045234D02*
X0157445Y0045234D01*
X0159109Y0046233D02*
X0160575Y0046233D01*
X0067202Y0031255D02*
X0054042Y0031255D01*
X0054042Y0030257D02*
X0065025Y0030257D01*
X0065460Y0030621D02*
X0065460Y0030621D01*
X0063836Y0029258D02*
X0054042Y0029258D01*
X0054042Y0028260D02*
X0062646Y0028260D01*
X0062596Y0028219D02*
X0062596Y0028219D01*
X0062596Y0028219D01*
X0062044Y0027261D02*
X0054042Y0027261D01*
X0054042Y0026263D02*
X0061467Y0026263D01*
X0060891Y0025264D02*
X0054042Y0025264D01*
X0054042Y0024266D02*
X0060601Y0024266D01*
X0060727Y0024981D02*
X0060727Y0024981D01*
X0060425Y0023267D02*
X0054042Y0023267D01*
X0054042Y0022269D02*
X0060249Y0022269D01*
X0060078Y0021300D02*
X0060078Y0021300D01*
X0060084Y0021270D02*
X0054042Y0021270D01*
X0054042Y0020272D02*
X0060260Y0020272D01*
X0060436Y0019273D02*
X0054042Y0019273D01*
X0054042Y0018275D02*
X0060612Y0018275D01*
X0060925Y0017276D02*
X0054042Y0017276D01*
X0054042Y0016278D02*
X0061502Y0016278D01*
X0062078Y0015279D02*
X0054042Y0015279D01*
X0054042Y0014281D02*
X0062716Y0014281D01*
X0062596Y0014381D02*
X0062596Y0014381D01*
X0063906Y0013282D02*
X0054042Y0013282D01*
X0054042Y0012284D02*
X0065096Y0012284D01*
X0065460Y0011979D02*
X0065460Y0011979D01*
X0540456Y0077187D02*
X0541228Y0077187D01*
X0541228Y0078185D02*
X0540456Y0078185D01*
X0540456Y0079184D02*
X0541228Y0079184D01*
X0541228Y0080182D02*
X0540456Y0080182D01*
X0609689Y0137098D02*
X0611124Y0137098D01*
X0680456Y0092165D02*
X0681228Y0092165D01*
X0681228Y0091166D02*
X0680456Y0091166D01*
X0680456Y0090168D02*
X0681228Y0090168D01*
X0716010Y0112135D02*
X0722642Y0112135D01*
X0722642Y0113133D02*
X0716674Y0113133D01*
X0717087Y0114132D02*
X0722642Y0114132D01*
X0722642Y0115130D02*
X0717442Y0115130D01*
X0717442Y0116129D02*
X0722642Y0116129D01*
X0722642Y0117127D02*
X0717442Y0117127D01*
X0717229Y0118126D02*
X0722642Y0118126D01*
X0722642Y0119124D02*
X0716816Y0119124D01*
X0716353Y0120123D02*
X0722642Y0120123D01*
X0722642Y0121121D02*
X0715354Y0121121D01*
X0715995Y0122120D02*
X0722642Y0122120D01*
X0722642Y0123118D02*
X0716668Y0123118D01*
X0717081Y0124117D02*
X0722642Y0124117D01*
X0722642Y0125115D02*
X0717442Y0125115D01*
X0717442Y0126114D02*
X0722642Y0126114D01*
X0722642Y0127112D02*
X0717442Y0127112D01*
X0717235Y0128111D02*
X0722642Y0128111D01*
X0722642Y0129109D02*
X0716822Y0129109D01*
X0716368Y0130108D02*
X0722642Y0130108D01*
X0722642Y0131106D02*
X0715369Y0131106D01*
X0714074Y0132105D02*
X0722642Y0132105D01*
X0722642Y0133103D02*
X0714947Y0133103D01*
X0715558Y0134102D02*
X0722642Y0134102D01*
X0722642Y0135101D02*
X0715917Y0135101D01*
X0715980Y0137098D02*
X0722642Y0137098D01*
X0722642Y0138096D02*
X0715726Y0138096D01*
X0715239Y0139095D02*
X0722642Y0139095D01*
X0722642Y0140093D02*
X0714403Y0140093D01*
X0711342Y0136099D02*
X0722642Y0136099D01*
X0705584Y0052224D02*
X0681031Y0052224D01*
X0680033Y0051226D02*
X0706434Y0051226D01*
X0705435Y0050227D02*
X0679034Y0050227D01*
X0678036Y0049229D02*
X0704911Y0049229D01*
X0704497Y0048230D02*
X0677037Y0048230D01*
X0676039Y0047232D02*
X0704242Y0047232D01*
X0704242Y0046233D02*
X0675040Y0046233D01*
X0674042Y0045234D02*
X0704242Y0045234D01*
X0704553Y0044236D02*
X0673043Y0044236D01*
X0672045Y0043237D02*
X0704967Y0043237D01*
X0705569Y0042239D02*
X0671046Y0042239D01*
X0670048Y0041240D02*
X0706568Y0041240D01*
X0709482Y0031255D02*
X0722642Y0031255D01*
X0722642Y0030257D02*
X0711658Y0030257D01*
X0712848Y0029258D02*
X0722642Y0029258D01*
X0722642Y0028260D02*
X0714038Y0028260D01*
X0714640Y0027261D02*
X0722642Y0027261D01*
X0722642Y0026263D02*
X0715216Y0026263D01*
X0715793Y0025264D02*
X0722642Y0025264D01*
X0722642Y0024266D02*
X0716082Y0024266D01*
X0716258Y0023267D02*
X0722642Y0023267D01*
X0722642Y0022269D02*
X0716435Y0022269D01*
X0716600Y0021270D02*
X0722642Y0021270D01*
X0722642Y0020272D02*
X0716424Y0020272D01*
X0716248Y0019273D02*
X0722642Y0019273D01*
X0722642Y0018275D02*
X0716072Y0018275D01*
X0715758Y0017276D02*
X0722642Y0017276D01*
X0722642Y0016278D02*
X0715182Y0016278D01*
X0714605Y0015279D02*
X0722642Y0015279D01*
X0722642Y0014281D02*
X0713967Y0014281D01*
X0714087Y0014381D02*
X0714087Y0014381D01*
X0712777Y0013282D02*
X0722642Y0013282D01*
X0722642Y0012284D02*
X0711587Y0012284D01*
X0709318Y0011285D02*
X0722642Y0011285D01*
X0722642Y0010287D02*
X0639094Y0010287D01*
X0640092Y0011285D02*
X0702365Y0011285D01*
X0722642Y0009288D02*
X0638095Y0009288D01*
X0637097Y0008290D02*
X0722642Y0008290D01*
X0722642Y0007291D02*
X0636098Y0007291D01*
X0635100Y0006293D02*
X0722642Y0006293D01*
X0722642Y0005294D02*
X0634101Y0005294D01*
X0722642Y0346785D02*
X0054042Y0346785D01*
X0054042Y0347783D02*
X0722642Y0347783D01*
D21*
X0580842Y0306300D03*
X0427092Y0246300D03*
X0411467Y0230675D03*
X0451467Y0211925D03*
X0420217Y0125675D03*
X0479592Y0063175D03*
X0297092Y0257550D03*
X0272717Y0266925D03*
M02*
